<?xml version="1.0" encoding="UTF-8" standalone="no"?>
<svg
   width="512"
   height="512"
   viewBox="0 0 480.00001 480.00001"
   version="1.1"
   id="svg29"
   sodipodi:docname="gather.svg"
   inkscape:version="1.3.2 (091e20ef0f, 2023-11-25)"
   inkscape:export-filename="netflix.png"
   inkscape:export-xdpi="96"
   inkscape:export-ydpi="96"
   xml:space="preserve"
   xmlns:inkscape="http://www.inkscape.org/namespaces/inkscape"
   xmlns:sodipodi="http://sodipodi.sourceforge.net/DTD/sodipodi-0.dtd"
   xmlns:xlink="http://www.w3.org/1999/xlink"
   xmlns="http://www.w3.org/2000/svg"
   xmlns:svg="http://www.w3.org/2000/svg"><sodipodi:namedview
     id="namedview31"
     pagecolor="#ffffff"
     bordercolor="#000000"
     borderopacity="0.25"
     inkscape:showpageshadow="2"
     inkscape:pageopacity="0.0"
     inkscape:pagecheckerboard="0"
     inkscape:deskcolor="#d1d1d1"
     inkscape:document-units="mm"
     showgrid="false"
     inkscape:zoom="1.1953506"
     inkscape:cx="158.11261"
     inkscape:cy="177.77211"
     inkscape:window-width="1803"
     inkscape:window-height="1133"
     inkscape:window-x="0"
     inkscape:window-y="0"
     inkscape:window-maximized="1"
     inkscape:current-layer="g27" /><defs
     id="defs9"><radialGradient
       xlink:href="#a"
       id="c"
       cx="367.99158"
       cy="280.36646"
       r="368.71729"
       fx="367.99158"
       fy="280.36646"
       gradientTransform="matrix(0.30407,-0.10528,3.8564,11.13776,-825.1108,-2803.5461)"
       gradientUnits="userSpaceOnUse" /><radialGradient
       xlink:href="#a"
       id="b"
       cx="367.99158"
       cy="280.36646"
       r="368.71729"
       fx="367.99158"
       fy="280.36646"
       gradientTransform="matrix(0.30407,-0.10528,3.8564,11.13776,-825.1108,-2803.5461)"
       gradientUnits="userSpaceOnUse" /><linearGradient
       id="a"><stop
         offset="0"
         id="stop4" /><stop
         offset="1"
         stop-opacity="0"
         id="stop6" /></linearGradient></defs><g
     transform="matrix(0.95754043,0,0,0.95754043,56.964044,51.468806)"
     id="g27"><rect
       width="407.29349"
       height="407.29349"
       x="-12.494543"
       y="-6.7556334"
       ry="37.455776"
       id="rect11"
       style="fill:#4358d8;fill-opacity:1" /><path
       fill-rule="evenodd"
       shape-rendering="optimizeQuality"
       clip-rule="evenodd"
       d="m 112.15624,57.777906 c -2.50566,-4.342963 -1.01872,-9.896339 3.32121,-12.403828 4.33991,-2.507415 9.88933,-1.019402 12.39492,3.323565 l 19.26882,33.39854 c 0.25037,0.04569 0.50147,0.101207 0.75185,0.168173 l 44.34008,11.892375 c 4.84134,1.298303 7.71426,6.277969 6.41708,11.122279 -1.29641,4.84437 -6.27257,7.71926 -11.11314,6.42073 l -40.03402,-10.73744 -10.71675,40.03341 c -1.29678,4.84506 -6.27226,7.7195 -11.11299,6.42082 -4.84072,-1.29785 -7.71362,-6.27776 -6.41692,-11.12205 l 11.87845,-44.373496 c 0.0761,-0.27471 0.15905,-0.54333 0.25568,-0.80496 z m 93.98402,144.909434 c 17.48708,-10.10356 23.47726,-32.48187 13.38032,-49.98386 -10.09762,-17.50192 -32.4595,-23.49954 -49.94658,-13.396 -17.48783,10.10363 -23.478,32.48196 -13.38039,49.98387 10.0977,17.50199 32.45958,23.49962 49.94665,13.39599 z m -9.45619,-16.03863 c 8.65154,-4.99855 11.6154,-16.06998 6.61983,-24.72898 -4.9956,-8.65891 -16.05959,-11.62649 -24.71111,-6.62794 -8.65146,4.99855 -11.61531,16.07074 -6.61974,24.72966 4.99559,8.659 16.05881,11.62581 24.71102,6.62726 z m -53.15469,10.12075 c 10.09754,17.50191 4.10691,39.88024 -13.38024,49.98386 -17.48724,10.10287 -39.849036,4.10524 -49.946661,-13.39599 -10.097462,-17.50199 -4.106904,-39.881 13.380245,-49.98386 17.487306,-10.10363 39.849106,-4.106 49.946656,13.39599 z m -16.3587,8.90105 c 4.99572,8.65901 2.03189,19.73045 -6.6198,24.72974 -8.65177,4.99856 -19.71515,2.03098 -24.710874,-6.62794 -4.995656,-8.65899 -2.03188,-19.73043 6.619874,-24.72898 8.65161,-4.9993 19.71515,-2.03173 24.7108,6.62718 z m 85.28165,90.21362 c 17.48707,-10.10362 23.47725,-32.48271 13.38031,-49.98386 -10.09761,-17.50198 -32.45957,-23.49962 -49.94657,-13.39675 -17.48783,10.10363 -23.47801,32.48263 -13.3804,49.98462 10.0977,17.50123 32.45958,23.49887 49.94666,13.39599 z m -9.73783,-16.45297 c 8.65154,-4.99848 11.61538,-16.06992 6.61979,-24.72891 -4.99633,-8.659 -16.05954,-11.62649 -24.71107,-6.62795 -8.65146,4.99855 -11.61531,16.07067 -6.61973,24.72966 4.99557,8.659 16.05879,11.62574 24.71101,6.6272 z m 99.3658,15.30406 c 10.09762,17.50197 4.10668,39.8803 -13.38032,49.98393 -17.48708,10.10286 -39.84903,4.10516 -49.94666,-13.39598 -10.09768,-17.50201 -4.10674,-39.881 13.38033,-49.98395 17.48707,-10.10356 39.84894,-4.10591 49.94665,13.396 z m -16.23611,9.09928 c 4.99558,8.659 2.03173,19.7312 -6.6198,24.72974 -8.65221,4.99847 -19.71552,2.03097 -24.711,-6.62802 -4.9956,-8.65892 -2.03183,-19.73036 6.61972,-24.7289 8.65154,-4.9993 19.71474,-2.03173 24.71108,6.62718 z m 2.87741,-52.01635 c 17.48699,-10.10363 23.47793,-32.48188 13.38031,-49.98386 -10.09769,-17.50191 -32.45958,-23.49963 -49.94665,-13.396 -17.48708,10.10364 -23.47801,32.48195 -13.38031,49.98387 10.09761,17.50199 32.45958,23.49962 49.94665,13.39599 z m -9.12022,-16.13779 c 8.65154,-4.99847 11.61539,-16.07066 6.6198,-24.72965 -4.99633,-8.65893 -16.05955,-11.62574 -24.7111,-6.6272 -8.65154,4.99856 -11.61529,16.07 -6.61972,24.7289 4.99551,8.65899 16.0588,11.6265 24.71102,6.62795 z M 295.78984,108.6378 c 10.09763,17.50168 4.10668,39.88076 -13.3803,49.98362 -17.48707,10.10364 -39.84904,4.106 -49.94667,-13.39597 -10.09694,-17.502 -4.10675,-39.88025 13.38033,-49.983721 17.48707,-10.103477 39.84895,-4.105844 49.94664,13.396071 z m -16.35315,8.77641 c 4.99558,8.659 2.03182,19.73042 -6.61973,24.72898 -8.65153,4.99854 -19.71551,2.03173 -24.711,-6.62726 -4.99559,-8.65892 -2.03181,-19.73112 6.61973,-24.72959 8.6522,-4.99863 19.7155,-2.03127 24.711,6.62787 z"
       fill="currentColor"
       id="path1"
       inkscape:label="path1"
       style="display:inline;fill:#ffffff;fill-opacity:1;stroke-width:7.4505"
       sodipodi:nodetypes="cccccccccccccccsccsscsssccccccscscscccccccsscscccsccsccsssssccssccccsccsscc" /></g></svg>
