<?xml version="1.0" encoding="UTF-8" standalone="no"?>
<svg width="512" height="512" viewBox="0 0 512 512" fill="none" version="1.1" id="svg15" sodipodi:docname="messages.svg" inkscape:version="1.2.2 (b0a8486541, 2022-12-01)" inkscape:export-filename="messages.png" inkscape:export-xdpi="96" inkscape:export-ydpi="96" xmlns:inkscape="http://www.inkscape.org/namespaces/inkscape" xmlns:sodipodi="http://sodipodi.sourceforge.net/DTD/sodipodi-0.dtd" xmlns="http://www.w3.org/2000/svg" xmlns:svg="http://www.w3.org/2000/svg">
  <sodipodi:namedview id="namedview17" pagecolor="#ffffff" bordercolor="#000000" borderopacity="0.25" inkscape:showpageshadow="2" inkscape:pageopacity="0.0" inkscape:pagecheckerboard="0" inkscape:deskcolor="#d1d1d1" showgrid="false" inkscape:zoom="0.70158251" inkscape:cx="-87.65897" inkscape:cy="315.00215" inkscape:window-width="1920" inkscape:window-height="1011" inkscape:window-x="0" inkscape:window-y="0" inkscape:window-maximized="1" inkscape:current-layer="svg15"/>
  <g clip-path="url(#clip0_2_85)" id="g8" transform="matrix(2.5364727,0,0,2.5364727,12.489385,2.35273)">
    <path d="M 162.65,57.96 C 157.45,36.19 137.86,20 114.5,20 h -51 C 36.16,20 14,42.16 14,69.5 c 0,14.16 5.95,26.94 15.49,35.96 z" fill="#86a9ff" id="path2"/>
    <path d="m 29.49,105.46 c 2.14,8.48 6.54,16.32 12.83,22.61 l 50.95,50.95 c 0.63,0.63 1.48,0.98 2.38,0.98 1.85,0 3.36,-1.5 3.36,-3.36 V 143 h 29.5 c 27.62,0 49.96,-22.62 49.49,-50.35 -0.23,-13.67 -6.1,-25.91 -15.35,-34.7 z" fill="#578cff" id="path4"/>
    <path d="M 114.5,119 C 141.84,119 164,96.84 164,69.5 164,65.53 163.53,61.66 162.65,57.96 153.54,49.3 141.16,44 127.69,44 H 77.5 C 50.16,44 28,66.16 28,93.5 c 0,4.07 0.51,8.08 1.49,11.96 8.87,8.39 20.84,13.54 34.01,13.54 z" fill="#0057cc" id="path6"/>
  </g>
  <defs id="defs13">
    <clipPath id="clip0_2_85">
      <rect width="192" height="192" fill="#ffffff" id="rect10" x="0" y="0"/>
    </clipPath>
  </defs>
</svg>