<?xml version="1.0" encoding="UTF-8" standalone="no"?>
<svg
   version="1.1"
   id="Layer_1"
   x="0px"
   y="0px"
   viewBox="0 0 512.00001 512.00001"
   xml:space="preserve"
   sodipodi:docname="hulu.svg"
   width="512"
   height="512"
   inkscape:version="1.3 (0e150ed6c4, 2023-07-21)"
   inkscape:export-filename="hulu.png"
   inkscape:export-xdpi="96"
   inkscape:export-ydpi="96"
   xmlns:inkscape="http://www.inkscape.org/namespaces/inkscape"
   xmlns:sodipodi="http://sodipodi.sourceforge.net/DTD/sodipodi-0.dtd"
   xmlns:xlink="http://www.w3.org/1999/xlink"
   xmlns="http://www.w3.org/2000/svg"
   xmlns:svg="http://www.w3.org/2000/svg"><defs
     id="defs127"><radialGradient
       xlink:href="#a"
       id="b"
       cx="367.99158"
       cy="280.36646"
       r="368.71729"
       fx="367.99158"
       fy="280.36646"
       gradientTransform="matrix(0.30407,-0.10528,3.8564,11.13776,-825.1108,-2803.5461)"
       gradientUnits="userSpaceOnUse" /><linearGradient
       id="a"><stop
         offset="0"
         id="stop4" /><stop
         offset="1"
         stop-opacity="0"
         id="stop6" /></linearGradient><radialGradient
       xlink:href="#a"
       id="c"
       cx="367.99158"
       cy="280.36646"
       r="368.71729"
       fx="367.99158"
       fy="280.36646"
       gradientTransform="matrix(0.30407,-0.10528,3.8564,11.13776,-825.1108,-2810.2811)"
       gradientUnits="userSpaceOnUse" /></defs><sodipodi:namedview
     id="namedview125"
     pagecolor="#ffffff"
     bordercolor="#000000"
     borderopacity="0.25"
     inkscape:showpageshadow="2"
     inkscape:pageopacity="0.0"
     inkscape:pagecheckerboard="0"
     inkscape:deskcolor="#d1d1d1"
     showgrid="false"
     inkscape:zoom="1"
     inkscape:cx="400"
     inkscape:cy="273.5"
     inkscape:window-width="1803"
     inkscape:window-height="1133"
     inkscape:window-x="0"
     inkscape:window-y="0"
     inkscape:window-maximized="1"
     inkscape:current-layer="Layer_1" /><style
     type="text/css"
     id="style116">.st0{fill-rule:evenodd;clip-rule:evenodd;} .st1{fill-rule:evenodd;clip-rule:evenodd;fill:#1CE783;}</style><g
     transform="matrix(1.0213764,0,0,1.0213764,60.761653,54.900066)"
     id="g27"
     inkscape:label="g27"><rect
       width="407.29349"
       height="407.29349"
       x="-12.494543"
       y="-6.7556334"
       ry="37.455776"
       id="rect11" /><g
       transform="matrix(0.29074,0,0,0.29074,81.631476,113.77111)"
       id="g25"><path
         fill="url(#b)"
         fill-rule="evenodd"
         d="M 114.95117,-189.22852 V 77.285156 l 187.7461,498.023434 c 0.0196,-11.41266 0.042,-17.57934 0.0625,-30.625 l 0.3164,-201.08789 14.85352,42.02539 c 82.68109,233.9563 127.10203,359.39701 127.36328,359.65821 0.17284,0.1729 12.68225,0.92753 27.79883,1.67773 45.79984,2.2727 102.55492,7.14269 145.60937,12.49219 9.96875,1.2385 18.54796,1.87275 19.06445,1.41016 0.355,-0.31796 0.58674,-105.15812 0.64844,-253.0586 l -186.86718,-537.244139 -0.0899,50.839843 -0.37109,209.999996 -17.27735,-48.75 c -16.88185,-47.6341 -28.15376,-79.49 -95.97656,-271.249996 -18.23693,-51.562504 -33.71225,-95.296904 -34.39062,-97.187504 l -1.23438,-3.4375 H 114.95112 Z"
         id="path15"
         style="fill:url(#b)" /></g></g><g
     id="g122"
     transform="matrix(3.3851412,0,0,3.3851412,47.999999,47.999999)"><path
       class="st1"
       d="m 37.13,57.8 c 1.45,1.18 2.18,3.02 2.18,5.52 V 75.88 H 32.4 V 64.24 c 0,-0.51 -0.19,-0.95 -0.57,-1.33 C 31.45,62.53 31,62.34 30.5,62.34 h -4.02 c -0.51,0 -0.94,0.19 -1.31,0.57 -0.36,0.38 -0.54,0.83 -0.54,1.33 V 75.88 H 17.67 V 47 h 6.96 v 9.41 c 0.11,-0.04 0.36,-0.11 0.76,-0.22 0.4,-0.11 0.92,-0.16 1.58,-0.16 h 4.46 c 2.34,0 4.25,0.59 5.7,1.77 z m 21.92,-1.77 h 6.96 v 12.18 c 0,2.28 -0.63,4.13 -1.88,5.55 -1.25,1.41 -2.95,2.12 -5.09,2.12 h -6.85 c -2.39,0 -4.31,-0.66 -5.74,-1.99 C 45.02,72.57 44.3,70.67 44.3,68.21 V 56.03 h 6.96 v 11.64 c 0,0.51 0.18,0.94 0.54,1.31 0.36,0.36 0.8,0.54 1.31,0.54 h 4.02 c 0.51,0 0.95,-0.18 1.33,-0.54 0.38,-0.36 0.57,-0.8 0.57,-1.31 V 56.03 Z M 71.28,47 h 6.96 v 28.88 h -6.96 z m 33.94,9.03 v 12.18 c 0,2.28 -0.63,4.13 -1.88,5.55 -1.25,1.41 -2.95,2.12 -5.09,2.12 h -6.8 c -2.43,0 -4.36,-0.66 -5.79,-1.99 -1.43,-1.32 -2.15,-3.22 -2.15,-5.68 V 56.03 h 6.96 v 11.64 c 0,0.51 0.18,0.94 0.54,1.31 0.36,0.36 0.8,0.54 1.31,0.54 h 4.08 c 0.51,0 0.94,-0.18 1.31,-0.54 0.36,-0.36 0.54,-0.8 0.54,-1.31 V 56.03 Z"
       id="path120" /></g></svg>
