<?xml version="1.0" encoding="UTF-8" standalone="no"?>
<!-- Generator: Gravit.io -->

<svg
   style="isolation:isolate"
   viewBox="0 0 512 512"
   width="512pt"
   height="512pt"
   version="1.1"
   id="svg1"
   sodipodi:docname="Paramount_Plus.svg"
   inkscape:version="1.3 (0e150ed6c4, 2023-07-21)"
   xmlns:inkscape="http://www.inkscape.org/namespaces/inkscape"
   xmlns:sodipodi="http://sodipodi.sourceforge.net/DTD/sodipodi-0.dtd"
   xmlns="http://www.w3.org/2000/svg"
   xmlns:svg="http://www.w3.org/2000/svg">
  <sodipodi:namedview
     id="namedview1"
     pagecolor="#ffffff"
     bordercolor="#000000"
     borderopacity="0.25"
     inkscape:showpageshadow="2"
     inkscape:pageopacity="0.0"
     inkscape:pagecheckerboard="0"
     inkscape:deskcolor="#d1d1d1"
     inkscape:document-units="pt"
     inkscape:zoom="1.284524"
     inkscape:cx="340.59308"
     inkscape:cy="342.15008"
     inkscape:window-width="1803"
     inkscape:window-height="1133"
     inkscape:window-x="0"
     inkscape:window-y="0"
     inkscape:window-maximized="1"
     inkscape:current-layer="svg1" />
  <defs
     id="defs1">
    <clipPath
       id="_clipPath_UsLzCaBui18nMMH3G607WQHEQQ0WrvHn">
      <rect
         width="512"
         height="512"
         id="rect1" />
    </clipPath>
  </defs>
  <g
     clip-path="url(#_clipPath_UsLzCaBui18nMMH3G607WQHEQQ0WrvHn)"
     id="g1"
     transform="matrix(0.9375,0,0,0.9375,16,16)">
    <circle
       vector-effect="non-scaling-stroke"
       cx="256"
       cy="256"
       r="256"
       fill="#ffffff"
       id="circle1" />
    <path
       d="m 199.782,332.806 c -2.558,-1.061 -6.751,-5.766 0.225,-18.868 l 16.204,-33.867 c 0.492,-1.024 -0.69,-2.306 -1.429,-1.436 l -14.169,14.246 c -6.704,6.998 -18.077,26.666 -20.279,30.306 l -17.214,28.455 c 1.279,-0.04 2.349,0.965 2.39,2.243 0.012,0.421 -0.089,0.837 -0.295,1.206 l -15.733,26.426 c -3.842,6.553 3.06,11.134 3.995,9.626 24.73,-39.831 39.113,-36.651 39.113,-36.651 l 8.255,-19.117 c 0.435,-0.958 0.011,-2.086 -0.948,-2.521 -0.035,-0.018 -0.074,-0.032 -0.115,-0.048 z M 256.004,0 C 114.617,0 0,114.56 0,255.878 c -0.075,54.707 17.476,107.983 50.051,151.933 10.739,-4.635 16.707,-11.564 20.97,-16.87 l 47.666,-60.932 c 1.004,-1.285 2.314,-2.295 3.812,-2.939 l 7.176,-3.086 78.376,-99.367 11.364,-8.893 23.353,-32.489 c 0.604,-0.841 1.339,-1.58 2.179,-2.189 l 10.189,-7.403 c 2.517,-1.829 5.916,-1.858 8.463,-0.071 l 12.364,8.675 c 6.56,4.601 11.876,10.754 15.479,17.909 l 49.525,86.949 c 0.808,1.659 2.182,2.975 3.874,3.711 9.712,4.833 15.646,5.687 28.357,19.489 5.932,6.435 31.923,35.489 68.348,80.644 5.294,7.245 12.381,12.987 20.564,16.665 C 494.586,363.696 512.077,310.499 512,255.878 512,114.559 397.389,0 256.004,0 Z M 69.04,269.981 52.441,264.593 42.188,278.699 v -17.433 l -16.6,-5.389 16.6,-5.389 V 233.05 l 10.253,14.109 16.599,-5.389 -10.256,14.108 z m -3.935,57.056 -5.392,16.584 -5.391,-16.584 H 36.876 l 14.113,-10.251 -5.39,-16.583 14.113,10.251 14.115,-10.251 -5.391,16.583 14.115,10.251 z m 3.332,-132.078 5.391,16.584 -14.115,-10.251 -14.113,10.251 5.39,-16.584 -14.113,-10.25 h 17.446 l 5.391,-16.583 5.393,16.583 H 82.553 Z M 96.451,157.446 86.203,143.337 69.604,148.725 79.858,134.619 69.604,120.511 86.203,125.9 96.457,111.792 v 17.438 l 16.599,5.379 L 96.457,140 v 17.437 z m 43.63,-61.047 -5.391,16.584 -5.392,-16.583 h -17.446 l 14.114,-10.251 -5.39,-16.584 14.114,10.248 14.113,-10.25 -5.391,16.598 14.115,10.25 H 140.08 V 96.399 Z M 195.06,68.398 184.806,82.507 V 65.073 l -16.6,-5.388 16.6,-5.39 V 36.857 l 10.254,14.109 16.592,-5.388 -10.255,14.107 10.256,14.107 z m 69.667,-15.984 5.392,16.583 -14.115,-10.25 -14.115,10.25 5.386,-16.576 -14.113,-10.25 h 17.445 l 5.394,-16.584 5.392,16.584 h 17.445 z m 62.469,12.659 v 17.438 l -10.25,-14.109 -16.598,5.39 10.255,-14.107 -10.254,-14.107 16.599,5.388 10.25,-14.109 v 17.438 l 16.599,5.39 z m 115.765,176.697 16.598,5.389 10.251,-14.109 v 17.438 l 16.6,5.389 -16.6,5.389 v 17.437 l -10.251,-14.107 -16.598,5.389 10.266,-14.108 z M 377.316,112.987 371.922,96.403 h -17.445 l 14.11,-10.25 -5.379,-16.586 14.108,10.251 14.109,-10.249 -5.38,16.584 14.111,10.25 H 382.71 Z m 38.24,44.463 v -17.437 l -16.599,-5.39 16.599,-5.379 v -17.446 l 10.251,14.108 16.598,-5.388 -10.25,14.107 10.25,14.107 -16.598,-5.389 z m 31.338,27.264 5.397,-16.583 5.394,16.583 h 17.445 l -14.109,10.25 5.395,16.584 -14.123,-10.251 -14.11,10.251 5.395,-16.584 -14.124,-10.25 z m 10.79,142.323 -5.394,16.584 -5.397,-16.584 h -17.445 l 14.125,-10.251 -5.395,-16.583 14.11,10.251 14.123,-10.251 -5.395,16.583 14.109,10.251 z M 348.73,403.756 c 1.229,-1.787 3.228,-6.689 -0.523,-15.772 l -11.328,-30.451 c -1.538,-3.887 1.829,-6.245 4.089,-3.69 0,0 21.41,24.677 26.943,34.98 l 10.558,17.521 c 9.083,0.586 34.151,1.27 58.281,1.27 -2.43,-2.412 -4.674,-5.005 -6.717,-7.754 -41.175,-51.026 -67.289,-79.411 -67.55,-79.692 -8.345,-9.067 -12.202,-10.81 -18.567,-13.708 -0.922,-0.418 -1.922,-0.87 -2.95,-1.359 v 7.746 c 0.063,0.523 -0.311,0.999 -0.836,1.061 -0.423,0.05 -0.83,-0.187 -0.993,-0.581 l -60.536,-106.295 -0.169,-0.336 c -2.524,-5.006 -6.245,-9.313 -10.832,-12.537 l -5.906,-4.149 -28.88,66.596 c 3.451,-10e-4 6.25,2.795 6.252,6.246 0.001,0.854 -0.174,1.699 -0.514,2.484 l -26.683,61.698 h 24.494 c 9.466,0 18.842,1.842 27.603,5.43 l 6.456,2.645 c 0,0 -19.479,40.058 -19.479,61.151 0.029,3.836 0.564,7.651 1.591,11.347 h 44.899 l -2.079,-12.644 c 17.613,3.932 35.432,6.869 53.375,8.799 v -0.006 z"
       fill="#0064ff"
       id="path1" />
  </g>
</svg>
