<?xml version="1.0" encoding="UTF-8" standalone="no"?>
<!-- Generator: Adobe Illustrator 19.1.1, SVG Export Plug-In . SVG Version: 6.00 Build 0)  -->

<svg
   viewBox="0 0 51.2 51.2"
   width="512"
   height="512"
   version="1.1"
   id="svg2"
   sodipodi:docname="amazon.svg"
   inkscape:version="1.3.2 (091e20ef0f, 2023-11-25)"
   xmlns:inkscape="http://www.inkscape.org/namespaces/inkscape"
   xmlns:sodipodi="http://sodipodi.sourceforge.net/DTD/sodipodi-0.dtd"
   xmlns="http://www.w3.org/2000/svg"
   xmlns:svg="http://www.w3.org/2000/svg">
  <defs
     id="defs2" />
  <sodipodi:namedview
     id="namedview2"
     pagecolor="#ffffff"
     bordercolor="#000000"
     borderopacity="0.25"
     inkscape:showpageshadow="2"
     inkscape:pageopacity="0.0"
     inkscape:pagecheckerboard="true"
     inkscape:deskcolor="#d1d1d1"
     inkscape:zoom="0.83111482"
     inkscape:cx="111.8979"
     inkscape:cy="382.01701"
     inkscape:window-width="1920"
     inkscape:window-height="1011"
     inkscape:window-x="0"
     inkscape:window-y="0"
     inkscape:window-maximized="1"
     inkscape:current-layer="svg2" />
  <rect
     width="41.599998"
     height="41.599998"
     x="4.8000007"
     y="4.8000007"
     ry="3.8256447"
     id="rect11"
     style="fill:#ffffff;fill-opacity:1;stroke-width:0.102138" />
  <path
     fill="#FFB300"
     d="m 39.120001,38.600001 c -3.64,2.686667 -9.1,4.333333 -13.52,4.333333 -6.326667,0 -11.96,-2.513333 -16.2933337,-6.413333 -0.3466667,-0.346667 0,-0.693333 0.3466666,-0.52 4.6800001,2.686667 9.9666671,4.246667 15.8600001,4.246667 3.986667,0 9.013334,-0.866667 13.086667,-2.6 0.606667,-0.173334 1.126667,0.52 0.52,0.953333 z m 1.3,-1.82 c -0.433333,-0.606667 -3.033333,-0.26 -4.16,-0.173333 -0.346667,0 -0.433333,-0.26 -0.08667,-0.52 1.993334,-1.473334 5.373334,-1.04 5.72,-0.52 0.346667,0.52 -0.08667,3.9 -1.993333,5.46 -0.26,0.26 -0.606667,0.08667 -0.433333,-0.173334 0.433336,-1.04 1.386669,-3.466666 0.953336,-4.073333 z"
     id="path1"
     style="fill:#e5a50a;fill-opacity:1;stroke-width:0.866667" />
  <path
     fill="#37474F"
     d="m 36.780001,30.626668 c -0.866667,-1.126667 -1.733333,-2.08 -1.733333,-4.246667 v -7.193333 c 0,-3.033334 0,-5.72 -2.166667,-7.8 -1.733333,-1.6466674 -4.593333,-2.2533341 -6.846667,-2.2533341 -4.766666,0 -8.926666,1.9066671 -9.966666,7.2800001 -0.08667,0.606667 0.346666,0.866667 0.693333,0.953334 l 4.42,0.52 c 0.433333,0 0.693333,-0.433334 0.78,-0.866667 0.346667,-1.82 1.82,-2.686667 3.553333,-2.686667 0.953334,0 2.773334,0.52 2.773334,2.6 v 2.6 c -2.773334,0 -5.72,0 -8.146667,1.04 -2.86,1.213334 -4.853333,3.726667 -4.853333,7.453334 0,4.766666 2.946666,7.106666 6.76,7.106666 3.206666,0 5.113333,-0.78 7.626666,-3.293333 0.78,1.213333 1.126667,1.906667 2.6,3.206667 0.346667,0.173333 0.78,0.173333 1.04,-0.08667 v 0 c 0.866667,-0.779997 2.513334,-2.25333 3.466667,-3.03333 0.433333,-0.346667 0.346667,-0.866667 0,-1.3 z m -8.58,-6.673334 v 0 c 0,1.733334 -0.08667,5.98 -4.333333,5.98 -2.6,0 -2.6,-2.6 -2.6,-2.6 0,-3.9 3.64,-4.333333 6.933333,-4.333333 z"
     id="path2"
     style="fill:#000000;fill-opacity:1;stroke-width:0.866667" />
</svg>
