<?xml version="1.0" encoding="UTF-8"?>
<svg height="128px" viewBox="0 0 128 128" width="128px" xmlns="http://www.w3.org/2000/svg" xmlns:xlink="http://www.w3.org/1999/xlink">
    <linearGradient id="a" gradientUnits="userSpaceOnUse" x1="11.999998" x2="115.999998" y1="66.000004" y2="66.000004">
        <stop offset="0" stop-color="#8c8c8c"/>
        <stop offset="0.0356746" stop-color="#e4e4e4"/>
        <stop offset="0.0730247" stop-color="#8c8c8c"/>
        <stop offset="0.926818" stop-color="#8c8c8c" stop-opacity="0.99"/>
        <stop offset="0.960641" stop-color="#e4e4e4"/>
        <stop offset="1" stop-color="#8c8c8c"/>
    </linearGradient>
    <path d="m 20 16 h 88 c 4.417969 0 8 3.582031 8 8 v 84 c 0 4.417969 -3.582031 8 -8 8 h -88 c -4.417969 0 -8 -3.582031 -8 -8 v -84 c 0 -4.417969 3.582031 -8 8 -8 z m 0 0" fill="url(#a)"/>
    <path d="m 20 12 h 88 c 4.417969 0 8 3.582031 8 8 v 84 c 0 4.417969 -3.582031 8 -8 8 h -88 c -4.417969 0 -8 -3.582031 -8 -8 v -84 c 0 -4.417969 3.582031 -8 8 -8 z m 0 0" fill="#ffffff"/>
    <path d="m 94.839844 90.628906 c -8.292969 6.121094 -20.730469 9.871094 -30.800782 9.871094 c -14.414062 0 -27.246093 -5.726562 -37.117187 -14.609375 c -0.789063 -0.789063 0 -1.582031 0.789063 -1.183594 c 10.660156 6.117188 22.707031 9.671875 36.132812 9.671875 c 9.082031 0 20.53125 -1.972656 29.8125 -5.921875 c 1.378906 -0.394531 2.566406 1.183594 1.183594 2.171875 z m 2.960937 -4.148437 c -0.988281 -1.378907 -6.910156 -0.589844 -9.476562 -0.394531 c -0.789063 0 -0.988281 -0.589844 -0.199219 -1.183594 c 4.542969 -3.355469 12.242188 -2.367188 13.03125 -1.183594 s -0.195312 8.882812 -4.539062 12.4375 c -0.59375 0.59375 -1.382813 0.199219 -0.988282 -0.394531 c 0.988282 -2.371094 3.160156 -7.898438 2.171875 -9.28125 z m 0 0" fill="#e5a50a"/>
    <path d="m 89.507812 72.464844 c -1.972656 -2.566406 -3.949218 -4.738282 -3.949218 -9.675782 v -16.386718 c 0 -6.910156 0 -13.03125 -4.933594 -17.769532 c -3.949219 -3.75 -10.464844 -5.132812 -15.597656 -5.132812 c -10.859375 0 -20.335938 4.34375 -22.707032 16.585938 c -0.195312 1.378906 0.789063 1.972656 1.582032 2.171874 l 10.066406 1.183594 c 0.988281 0 1.582031 -0.988281 1.777344 -1.976562 c 0.789062 -4.144532 4.148437 -6.117188 8.097656 -6.117188 c 2.171875 0 6.316406 1.183594 6.316406 5.921875 v 5.921875 c -6.316406 0 -13.03125 0 -18.558594 2.371094 c -6.515624 2.761719 -11.058593 8.488281 -11.058593 16.980469 c 0 10.855469 6.714843 16.1875 15.402343 16.1875 c 7.304688 0 11.648438 -1.777344 17.375 -7.503907 c 1.777344 2.765626 2.566407 4.34375 5.921876 7.308594 c 0.789062 0.394532 1.777343 0.394532 2.367187 -0.199218 c 1.976563 -1.777344 5.726563 -5.132813 7.898437 -6.910157 c 0.988282 -0.789062 0.789063 -1.972656 0 -2.960937 z m -19.546874 -15.203125 c 0 3.949219 -0.195313 13.621093 -9.871094 13.621093 c -5.921875 0 -5.921875 -5.921874 -5.921875 -5.921874 c 0 -8.882813 8.292969 -9.871094 15.792969 -9.871094 z m 0 0"/>
</svg>
