<?xml version="1.0" encoding="UTF-8" standalone="no"?>
<!-- Generator: Adobe Illustrator 19.2.1, SVG Export Plug-In . SVG Version: 6.00 Build 0)  -->

<svg
   version="1.1"
   id="layer"
   x="0px"
   y="0px"
   viewBox="0 0 512 512"
   xml:space="preserve"
   sodipodi:docname="canvas.svg"
   width="512"
   height="512"
   inkscape:version="1.3 (0e150ed6c4, 2023-07-21)"
   xmlns:inkscape="http://www.inkscape.org/namespaces/inkscape"
   xmlns:sodipodi="http://sodipodi.sourceforge.net/DTD/sodipodi-0.dtd"
   xmlns="http://www.w3.org/2000/svg"
   xmlns:svg="http://www.w3.org/2000/svg"><defs
   id="defs22" /><sodipodi:namedview
   id="namedview22"
   pagecolor="#ffffff"
   bordercolor="#000000"
   borderopacity="0.25"
   inkscape:showpageshadow="2"
   inkscape:pageopacity="0.0"
   inkscape:pagecheckerboard="0"
   inkscape:deskcolor="#d1d1d1"
   inkscape:zoom="0.80403648"
   inkscape:cx="273.61943"
   inkscape:cy="350.10849"
   inkscape:window-width="1503"
   inkscape:window-height="933"
   inkscape:window-x="0"
   inkscape:window-y="0"
   inkscape:window-maximized="1"
   inkscape:current-layer="layer"
   showgrid="false" />&#10;<style
   type="text/css"
   id="style1">&#10;	.st0{fill:#E43D30;}&#10;	.st1{fill:#A6A8AB;}&#10;</style>&#10;<g
   id="Layer_2"
   transform="matrix(1.2870385,0,0,1.2870385,-158.36204,-40.984128)">&#10;	<g
   id="art">&#10;		<path
   class="st0"
   d="m 209,230.4 c 0,-23.2 -17.3,-42.8 -40.4,-45.6 -7.7,29.9 -7.7,61.3 0,91.2 23.1,-2.8 40.4,-22.3 40.4,-45.6 z"
   id="path1" />&#10;		<path
   class="st0"
   d="m 235.7,216 c -8,0 -14.5,6.4 -14.5,14.4 0,8 6.4,14.5 14.4,14.5 8,0 14.5,-6.4 14.5,-14.4 0,0 0,0 0,-0.1 0.1,-7.9 -6.4,-14.4 -14.4,-14.4 z"
   id="path2" />&#10;		<path
   class="st0"
   d="m 434.9,230.4 c 0,23.2 17.3,42.8 40.4,45.6 7.7,-29.9 7.7,-61.3 0,-91.2 -23.1,2.9 -40.4,22.4 -40.4,45.6 z"
   id="path3" />&#10;		<path
   class="st0"
   d="m 408.1,216 c -8,-0.1 -14.5,6.3 -14.6,14.3 -0.1,8 6.3,14.5 14.3,14.6 8,0.1 14.5,-6.3 14.6,-14.3 0,-0.1 0,-0.1 0,-0.2 0,-7.9 -6.4,-14.3 -14.3,-14.4 z"
   id="path4" />&#10;		<path
   class="st0"
   d="m 321.6,343.7 c -23.2,0 -42.8,17.3 -45.6,40.4 29.9,7.7 61.3,7.7 91.2,0 -2.8,-23.1 -22.4,-40.4 -45.6,-40.4 z"
   id="path5" />&#10;		<path
   class="st0"
   d="m 321.6,302.6 c -8,0 -14.5,6.4 -14.5,14.4 0,8 6.4,14.5 14.4,14.5 8,0 14.5,-6.4 14.5,-14.4 0,0 0,0 0,-0.1 0,-7.9 -6.4,-14.4 -14.4,-14.4 z"
   id="path6" />&#10;		<path
   class="st0"
   d="m 321.6,117.8 c 23.2,0 42.8,-17.3 45.6,-40.4 -29.9,-7.7 -61.3,-7.7 -91.2,0 2.8,23.1 22.4,40.4 45.6,40.4 z"
   id="path7" />&#10;		<path
   class="st0"
   d="m 321.6,130.1 c -8,0 -14.4,6.5 -14.4,14.4 0,8 6.5,14.4 14.4,14.4 7.9,0 14.4,-6.5 14.4,-14.4 v 0 c 0,-7.9 -6.4,-14.4 -14.4,-14.4 z"
   id="path8" />&#10;		<path
   class="st0"
   d="m 401.6,310.4 c -16.4,16.4 -18,42.4 -3.7,60.7 26.6,-15.7 48.8,-37.9 64.5,-64.5 -18.3,-14.1 -44.4,-12.5 -60.8,3.8 z"
   id="path9" />&#10;		<path
   class="st0"
   d="m 372.5,281.3 c -5.6,5.6 -5.6,14.8 0,20.4 5.6,5.6 14.8,5.6 20.4,0 5.6,-5.6 5.6,-14.8 0,-20.4 0,0 0,0 0,0 -5.6,-5.6 -14.8,-5.6 -20.4,0 z"
   id="path10" />&#10;		<path
   class="st0"
   d="m 241.9,150.7 c 16.4,-16.4 18,-42.4 3.8,-60.7 -26.6,15.7 -48.8,37.9 -64.5,64.5 18.2,14.2 44.3,12.6 60.7,-3.8 z"
   id="path11" />&#10;		<path
   class="st0"
   d="m 250.6,159.4 c -5.6,5.6 -5.6,14.8 0,20.4 5.6,5.6 14.8,5.6 20.4,0 5.6,-5.6 5.6,-14.8 0,-20.4 0,0 0,0 0,0 -5.6,-5.6 -14.8,-5.6 -20.4,0 z"
   id="path12" />&#10;		<path
   class="st0"
   d="m 401.5,150.5 c 16.4,16.4 42.5,18 60.7,3.8 -15.7,-26.6 -37.9,-48.8 -64.5,-64.5 -14.2,18.3 -12.6,44.3 3.8,60.7 z"
   id="path13" />&#10;		<path
   class="st0"
   d="m 392.8,179.7 c 5.6,-5.6 5.7,-14.8 0,-20.4 -5.6,-5.6 -14.8,-5.7 -20.4,0 -5.6,5.6 -5.7,14.8 0,20.4 0,0 0,0 0,0 5.6,5.6 14.8,5.6 20.4,0 z"
   id="path14" />&#10;		<path
   class="st0"
   d="m 241.8,310.3 c -16.4,-16.4 -42.4,-18 -60.7,-3.8 15.7,26.6 37.8,48.8 64.4,64.5 14.2,-18.3 12.7,-44.3 -3.7,-60.7 z"
   id="path15" />&#10;		<path
   class="st0"
   d="m 250.5,281.1 c -5.6,5.6 -5.6,14.8 0,20.4 5.6,5.6 14.8,5.6 20.4,0 5.6,-5.6 5.6,-14.8 0,-20.4 0,0 0,0 0,0 -5.6,-5.6 -14.7,-5.6 -20.4,0 z"
   id="path16" />&#10;		&#10;		&#10;		&#10;		&#10;		&#10;		&#10;	</g>&#10;</g>&#10;</svg>
