<?xml version="1.0" encoding="UTF-8" standalone="no"?>
<svg
   width="128"
   height="128"
   version="1"
   id="svg44"
   xml:space="preserve"
   sodipodi:docname="canvas.svg"
   inkscape:version="1.4.3 (0d15f75042, 2025-12-25)"
   xmlns:inkscape="http://www.inkscape.org/namespaces/inkscape"
   xmlns:sodipodi="http://sodipodi.sourceforge.net/DTD/sodipodi-0.dtd"
   xmlns:xlink="http://www.w3.org/1999/xlink"
   xmlns="http://www.w3.org/2000/svg"
   xmlns:svg="http://www.w3.org/2000/svg"><sodipodi:namedview
     id="namedview1"
     pagecolor="#ffffff"
     bordercolor="#000000"
     borderopacity="0.25"
     inkscape:showpageshadow="2"
     inkscape:pageopacity="0.0"
     inkscape:pagecheckerboard="0"
     inkscape:deskcolor="#d1d1d1"
     inkscape:zoom="2.9641084"
     inkscape:cx="66.293121"
     inkscape:cy="71.18498"
     inkscape:window-width="1410"
     inkscape:window-height="871"
     inkscape:window-x="0"
     inkscape:window-y="0"
     inkscape:window-maximized="1"
     inkscape:current-layer="svg44" /><defs
     id="defs48"><linearGradient
       xlink:href="#linearGradient1571"
       id="linearGradient1573"
       x1="12"
       y1="66"
       x2="116"
       y2="66"
       gradientUnits="userSpaceOnUse" /><linearGradient
       id="linearGradient1571"><stop
         style="stop-color:#8c8c8c;stop-opacity:1;"
         offset="0"
         id="stop1567" /><stop
         style="stop-color:#e4e4e4;stop-opacity:1;"
         offset="0.03567462"
         id="stop1575" /><stop
         style="stop-color:#8c8c8c;stop-opacity:1;"
         offset="0.07302466"
         id="stop1577" /><stop
         style="stop-color:#8c8c8c;stop-opacity:0.99000001;"
         offset="0.92681795"
         id="stop1579" /><stop
         style="stop-color:#e4e4e4;stop-opacity:1;"
         offset="0.96064132"
         id="stop1581" /><stop
         style="stop-color:#8c8c8c;stop-opacity:1;"
         offset="1"
         id="stop1569" /></linearGradient></defs><rect
     style="display:inline;fill:url(#linearGradient1573);fill-opacity:1;stroke:none;stroke-width:0.25;stroke-linecap:butt;stroke-linejoin:miter;stroke-miterlimit:4;stroke-dasharray:none;stroke-dashoffset:0;stroke-opacity:1;marker:none;marker-start:none;marker-mid:none;marker-end:none;paint-order:normal;enable-background:new"
     id="rect1711-5"
     width="104"
     height="100"
     x="12.000004"
     y="15.999996"
     rx="8"
     ry="8" /><rect
     style="display:inline;fill:#ffffff;fill-opacity:1;stroke:none;stroke-width:0.25;stroke-linecap:butt;stroke-linejoin:miter;stroke-miterlimit:4;stroke-dasharray:none;stroke-dashoffset:0;stroke-opacity:1;marker:none;marker-start:none;marker-mid:none;marker-end:none;paint-order:normal;enable-background:new"
     id="rect1711"
     width="104"
     height="100"
     x="12.000004"
     y="11.999996"
     rx="8"
     ry="8" /><g
     id="Layer_2"
     transform="matrix(0.24194815,0,0,0.24194815,-13.895203,6.1704606)">
	<g
   id="art">
		<path
   class="st0"
   d="m 209,230.4 c 0,-23.2 -17.3,-42.8 -40.4,-45.6 -7.7,29.9 -7.7,61.3 0,91.2 23.1,-2.8 40.4,-22.3 40.4,-45.6 z"
   id="path1"
   style="fill:#e43d30" />
		<path
   class="st0"
   d="m 235.7,216 c -8,0 -14.5,6.4 -14.5,14.4 0,8 6.4,14.5 14.4,14.5 8,0 14.5,-6.4 14.5,-14.4 0,0 0,0 0,-0.1 0.1,-7.9 -6.4,-14.4 -14.4,-14.4 z"
   id="path2"
   style="fill:#e43d30" />
		<path
   class="st0"
   d="m 434.9,230.4 c 0,23.2 17.3,42.8 40.4,45.6 7.7,-29.9 7.7,-61.3 0,-91.2 -23.1,2.9 -40.4,22.4 -40.4,45.6 z"
   id="path3"
   style="fill:#e43d30" />
		<path
   class="st0"
   d="m 408.1,216 c -8,-0.1 -14.5,6.3 -14.6,14.3 -0.1,8 6.3,14.5 14.3,14.6 8,0.1 14.5,-6.3 14.6,-14.3 0,-0.1 0,-0.1 0,-0.2 0,-7.9 -6.4,-14.3 -14.3,-14.4 z"
   id="path4"
   style="fill:#e43d30" />
		<path
   class="st0"
   d="m 321.6,343.7 c -23.2,0 -42.8,17.3 -45.6,40.4 29.9,7.7 61.3,7.7 91.2,0 -2.8,-23.1 -22.4,-40.4 -45.6,-40.4 z"
   id="path5"
   style="fill:#e43d30" />
		<path
   class="st0"
   d="m 321.6,302.6 c -8,0 -14.5,6.4 -14.5,14.4 0,8 6.4,14.5 14.4,14.5 8,0 14.5,-6.4 14.5,-14.4 0,0 0,0 0,-0.1 0,-7.9 -6.4,-14.4 -14.4,-14.4 z"
   id="path6"
   style="fill:#e43d30" />
		<path
   class="st0"
   d="m 321.6,117.8 c 23.2,0 42.8,-17.3 45.6,-40.4 -29.9,-7.7 -61.3,-7.7 -91.2,0 2.8,23.1 22.4,40.4 45.6,40.4 z"
   id="path7"
   style="fill:#e43d30" />
		<path
   class="st0"
   d="m 321.6,130.1 c -8,0 -14.4,6.5 -14.4,14.4 0,8 6.5,14.4 14.4,14.4 7.9,0 14.4,-6.5 14.4,-14.4 v 0 c 0,-7.9 -6.4,-14.4 -14.4,-14.4 z"
   id="path8"
   style="fill:#e43d30" />
		<path
   class="st0"
   d="m 401.6,310.4 c -16.4,16.4 -18,42.4 -3.7,60.7 26.6,-15.7 48.8,-37.9 64.5,-64.5 -18.3,-14.1 -44.4,-12.5 -60.8,3.8 z"
   id="path9"
   style="fill:#e43d30" />
		<path
   class="st0"
   d="m 372.5,281.3 c -5.6,5.6 -5.6,14.8 0,20.4 5.6,5.6 14.8,5.6 20.4,0 5.6,-5.6 5.6,-14.8 0,-20.4 0,0 0,0 0,0 -5.6,-5.6 -14.8,-5.6 -20.4,0 z"
   id="path10"
   style="fill:#e43d30" />
		<path
   class="st0"
   d="m 241.9,150.7 c 16.4,-16.4 18,-42.4 3.8,-60.7 -26.6,15.7 -48.8,37.9 -64.5,64.5 18.2,14.2 44.3,12.6 60.7,-3.8 z"
   id="path11"
   style="fill:#e43d30" />
		<path
   class="st0"
   d="m 250.6,159.4 c -5.6,5.6 -5.6,14.8 0,20.4 5.6,5.6 14.8,5.6 20.4,0 5.6,-5.6 5.6,-14.8 0,-20.4 0,0 0,0 0,0 -5.6,-5.6 -14.8,-5.6 -20.4,0 z"
   id="path12"
   style="fill:#e43d30" />
		<path
   class="st0"
   d="m 401.5,150.5 c 16.4,16.4 42.5,18 60.7,3.8 -15.7,-26.6 -37.9,-48.8 -64.5,-64.5 -14.2,18.3 -12.6,44.3 3.8,60.7 z"
   id="path13"
   style="fill:#e43d30" />
		<path
   class="st0"
   d="m 392.8,179.7 c 5.6,-5.6 5.7,-14.8 0,-20.4 -5.6,-5.6 -14.8,-5.7 -20.4,0 -5.6,5.6 -5.7,14.8 0,20.4 0,0 0,0 0,0 5.6,5.6 14.8,5.6 20.4,0 z"
   id="path14"
   style="fill:#e43d30" />
		<path
   class="st0"
   d="m 241.8,310.3 c -16.4,-16.4 -42.4,-18 -60.7,-3.8 15.7,26.6 37.8,48.8 64.4,64.5 14.2,-18.3 12.7,-44.3 -3.7,-60.7 z"
   id="path15"
   style="fill:#e43d30" />
		<path
   class="st0"
   d="m 250.5,281.1 c -5.6,5.6 -5.6,14.8 0,20.4 5.6,5.6 14.8,5.6 20.4,0 5.6,-5.6 5.6,-14.8 0,-20.4 0,0 0,0 0,0 -5.6,-5.6 -14.7,-5.6 -20.4,0 z"
   id="path16"
   style="fill:#e43d30" />
		
		
		
		
		
		
	</g>
</g></svg>
