<?xml version="1.0" encoding="UTF-8"?>
<svg height="128px" viewBox="0 0 128 128" width="128px" xmlns="http://www.w3.org/2000/svg" xmlns:xlink="http://www.w3.org/1999/xlink">
    <linearGradient id="a" gradientUnits="userSpaceOnUse" x1="8.0000235" x2="120.0000235" y1="116.000002" y2="116.000002">
        <stop offset="0" stop-color="#7a5d04"/>
        <stop offset="0.0357143" stop-color="#c0920a"/>
        <stop offset="0.0713653" stop-color="#9a7505"/>
        <stop offset="0.928571" stop-color="#9a7505"/>
        <stop offset="0.964286" stop-color="#bf920a"/>
        <stop offset="1" stop-color="#7a6202"/>
    </linearGradient>
    <path d="m 16 40 h 96 c 4.417969 0 8 3.582031 8 8 v 60 c 0 4.417969 -3.582031 8 -8 8 h -96 c -4.417969 0 -8 -3.582031 -8 -8 v -60 c 0 -4.417969 3.582031 -8 8 -8 z m 0 0" fill="url(#a)"/>
    <path d="m 16 16 h 96 c 4.417969 0 8 4.09375 8 9.144531 v 77.710938 c 0 5.050781 -3.582031 9.144531 -8 9.144531 h -96 c -4.417969 0 -8 -4.09375 -8 -9.144531 v -77.710938 c 0 -5.050781 3.582031 -9.144531 8 -9.144531 z m 0 0" fill="#ffc107"/>
    <path d="m 109.332031 112 h -90.664062 c -5.882813 0 -10.667969 -4.785156 -10.667969 -10.667969 v -74.664062 c 0 -5.882813 4.785156 -10.667969 10.667969 -10.667969 h 90.664062 c 5.882813 0 10.667969 4.785156 10.667969 10.667969 v 74.664062 c 0 5.882813 -4.785156 10.667969 -10.667969 10.667969 z m 0 0" fill="#ffc107"/>
    <path d="m 18.667969 26.667969 h 90.664062 v 74.664062 h -90.664062 z m 0 0" fill="#388e3c"/>
    <path d="m 74.667969 96 h 21.332031 v 5.332031 h -21.332031 z m 0 0" fill="#ffffff"/>
    <path d="m 72 53.332031 c 0 4.417969 -3.582031 8 -8 8 s -8 -3.582031 -8 -8 s 3.582031 -8 8 -8 s 8 3.582031 8 8 z m 0 0" fill="#ffffff"/>
    <path d="m 48 61.332031 c 0 2.945313 -2.386719 5.335938 -5.332031 5.335938 c -2.945313 0 -5.335938 -2.390625 -5.335938 -5.335938 c 0 -2.945312 2.390625 -5.332031 5.335938 -5.332031 c 2.945312 0 5.332031 2.386719 5.332031 5.332031 z m 0 0" fill="#a5d6a7"/>
    <path d="m 18.667969 26.667969 h 90.664062 v 5.332031 h -90.664062 z m 0 0" fill="#2e7d32"/>
    <path d="m 96 101.332031 h -21.332031 l 10.664062 10.667969 h 21.335938 z m 0 0" fill="#ffab00"/>
    <g fill="#a5d6a7">
        <path d="m 90.667969 61.332031 c 0 2.945313 -2.390625 5.335938 -5.335938 5.335938 c -2.945312 0 -5.332031 -2.390625 -5.332031 -5.335938 c 0 -2.945312 2.386719 -5.332031 5.332031 -5.332031 c 2.945313 0 5.335938 2.386719 5.335938 5.332031 z m 0 0"/>
        <path d="m 98.667969 76.5 c 0 -1.183594 -0.4375 -2.328125 -1.25 -3.195312 c -1.847657 -1.972657 -5.785157 -3.972657 -12.085938 -3.972657 s -10.234375 2 -12.085937 3.972657 c -0.8125 0.867187 -1.246094 2.007812 -1.246094 3.195312 v 3.5 h 26.667969 z m 0 0"/>
        <path d="m 56 76.5 c 0 -1.183594 -0.433594 -2.328125 -1.246094 -3.195312 c -1.851562 -1.972657 -5.785156 -3.972657 -12.085937 -3.972657 s -10.238281 2 -12.085938 3.972657 c -0.8125 0.867187 -1.25 2.007812 -1.25 3.195312 v 3.5 h 26.667969 z m 0 0"/>
    </g>
    <path d="m 80 73.980469 c 0 -1.425781 -0.523438 -2.796875 -1.5 -3.835938 c -2.214844 -2.367187 -6.941406 -6.144531 -14.5 -6.144531 s -12.285156 3.777344 -14.5 6.140625 c -0.976562 1.039063 -1.5 2.410156 -1.5 3.839844 v 6.019531 h 32 z m 0 0" fill="#ffffff"/>
</svg>
