<?xml version="1.0" encoding="UTF-8"?>
<svg height="128px" viewBox="0 0 128 128" width="128px" xmlns="http://www.w3.org/2000/svg" xmlns:xlink="http://www.w3.org/1999/xlink">
    <linearGradient id="a" gradientUnits="userSpaceOnUse" x1="11.999998" x2="115.999998" y1="66.000004" y2="66.000004">
        <stop offset="0" stop-color="#8c8c8c"/>
        <stop offset="0.0356746" stop-color="#e4e4e4"/>
        <stop offset="0.0730247" stop-color="#8c8c8c"/>
        <stop offset="0.926818" stop-color="#8c8c8c" stop-opacity="0.99"/>
        <stop offset="0.960641" stop-color="#e4e4e4"/>
        <stop offset="1" stop-color="#8c8c8c"/>
    </linearGradient>
    <path d="m 20 16 h 88 c 4.417969 0 8 3.582031 8 8 v 84 c 0 4.417969 -3.582031 8 -8 8 h -88 c -4.417969 0 -8 -3.582031 -8 -8 v -84 c 0 -4.417969 3.582031 -8 8 -8 z m 0 0" fill="url(#a)"/>
    <path d="m 20 12 h 88 c 4.417969 0 8 3.582031 8 8 v 84 c 0 4.417969 -3.582031 8 -8 8 h -88 c -4.417969 0 -8 -3.582031 -8 -8 v -84 c 0 -4.417969 3.582031 -8 8 -8 z m 0 0" fill="#ffffff"/>
    <path d="m 66.054688 38.898438 v 18.476562 c 0 1.140625 0.925781 2.0625 2.0625 2.0625 h 18.476562 c 0 -5.667969 -1.261719 -11.824219 -4.988281 -15.550781 c -3.726563 -3.726563 -9.882813 -4.988281 -15.550781 -4.988281 z m 0 0" fill="#00832d"/>
    <path d="m 86.195312 100.117188 c -8.621093 1.417968 -19.0625 -1.136719 -29.070312 -7.113282 l 3.355469 -7.484375 l 7.605469 -3.507812 l 11.917968 6.804687 z m 0 0" fill="#00832d"/>
    <path d="m 26.390625 40.3125 c -1.414063 8.625 1.109375 19.0625 7.113281 29.070312 l 7.699219 -3.601562 l 3.296875 -7.390625 l -6.46875 -10.5625 z m 0 0" fill="#00832d"/>
    <g fill="#34a853">
        <path d="m 69.136719 23.5 c -1.695313 0 -3.082031 1.386719 -3.082031 3.078125 v 12.320313 c 11.332031 0 20.539062 9.207031 20.539062 20.539062 h 12.320312 c 1.691407 0 3.078126 -1.386719 3.078126 -3.078125 c 0 -18.140625 -14.71875 -32.859375 -32.855469 -32.859375 z m 0 0"/>
        <path d="m 99.066406 93.035156 c 1.632813 -1.570312 1.695313 -4.125 0.15625 -5.757812 l -14.84375 -15.828125 c -1.632812 -1.542969 -4.15625 -1.511719 -5.726562 0.058593 l -10.535156 10.503907 l 18.078124 18.074219 c 4.894532 -0.707032 8.5625 -2.800782 11.886719 -6.128907 z m 0 0"/>
        <path d="m 33.535156 69.382812 c 2.710938 4.496094 6.3125 9.023438 10.410156 13.121094 c 4.09375 4.09375 8.714844 7.757813 13.210938 10.46875 l 10.992188 -10.960937 l -23.648438 -23.621094"/>
        <path d="m 52.414062 50.722656 l 1.691407 -1.632812 c 2.003906 -2 2.003906 -5.296875 0 -7.296875 l -13.949219 -13.949219 c -2 -2.003906 -5.296875 -2.003906 -7.296875 0 l -0.492187 0.335938 c -3.234376 3.234374 -5.175782 7.421874 -5.976563 12.132812 l 18.109375 18.078125 z m 0 0"/>
    </g>
</svg>
