<?xml version="1.0" encoding="UTF-8"?>
<svg height="128px" viewBox="0 0 128 128" width="128px" xmlns="http://www.w3.org/2000/svg" xmlns:xlink="http://www.w3.org/1999/xlink">
    <linearGradient id="a" gradientUnits="userSpaceOnUse" x1="11.999998" x2="115.999998" y1="66.000004" y2="66.000004">
        <stop offset="0" stop-color="#8c8c8c"/>
        <stop offset="0.0356746" stop-color="#e4e4e4"/>
        <stop offset="0.0730247" stop-color="#8c8c8c"/>
        <stop offset="0.926818" stop-color="#8c8c8c" stop-opacity="0.99"/>
        <stop offset="0.960641" stop-color="#e4e4e4"/>
        <stop offset="1" stop-color="#8c8c8c"/>
    </linearGradient>
    <path d="m 20 16 h 88 c 4.417969 0 8 3.582031 8 8 v 84 c 0 4.417969 -3.582031 8 -8 8 h -88 c -4.417969 0 -8 -3.582031 -8 -8 v -84 c 0 -4.417969 3.582031 -8 8 -8 z m 0 0" fill="url(#a)"/>
    <path d="m 20 12 h 88 c 4.417969 0 8 3.582031 8 8 v 84 c 0 4.417969 -3.582031 8 -8 8 h -88 c -4.417969 0 -8 -3.582031 -8 -8 v -84 c 0 -4.417969 3.582031 -8 8 -8 z m 0 0" fill="#ffffff"/>
    <path d="m 69.054688 62 l 7.507812 8.578125 l 10.089844 6.449219 l 1.761718 -14.972656 l -1.761718 -14.644532 l -10.285156 5.667969 z m 0 0" fill="#00832d"/>
    <path d="m 25.5 75.636719 v 12.761719 c 0 2.914062 2.363281 5.277343 5.28125 5.277343 h 12.757812 l 2.636719 -9.644531 l -2.636719 -8.394531 l -8.757812 -2.636719 z m 0 0" fill="#0066da"/>
    <path d="m 43.539062 30.324219 l -18.039062 18.039062 l 9.28125 2.636719 l 8.757812 -2.636719 l 2.59375 -8.28125 z m 0 0" fill="#e94235"/>
    <path d="m 43.539062 48.363281 h -18.039062 v 27.273438 h 18.039062 z m 0 0" fill="#2684fc"/>
    <path d="m 98.179688 37.960938 l -11.527344 9.449218 v 29.617188 l 11.582031 9.496094 c 1.730469 1.355468 4.265625 0.117187 4.265625 -2.085938 v -44.433594 c 0 -2.230468 -2.589844 -3.453125 -4.320312 -2.042968 z m -29.125 24.039062 v 13.636719 h -25.515626 v 18.039062 h 37.835938 c 2.914062 0 5.277344 -2.363281 5.277344 -5.277343 v -11.371094 z m 0 0" fill="#00ac47"/>
    <path d="m 81.375 30.324219 h -37.835938 v 18.039062 h 25.515626 v 13.636719 l 17.597656 -14.578125 v -11.820313 c 0 -2.914062 -2.363282 -5.277343 -5.277344 -5.277343 z m 0 0" fill="#ffba00"/>
</svg>
