<?xml version="1.0" encoding="UTF-8"?>
<svg height="128px" viewBox="0 0 128 128" width="128px" xmlns="http://www.w3.org/2000/svg" xmlns:xlink="http://www.w3.org/1999/xlink">
    <filter id="a" height="100%" width="100%" x="0%" y="0%">
        <feColorMatrix color-interpolation-filters="sRGB" values="0 0 0 0 1 0 0 0 0 1 0 0 0 0 1 0 0 0 1 0"/>
    </filter>
    <clipPath id="b">
        <path d="m 8 28 h 112 v 88 h -112 z m 0 0"/>
    </clipPath>
    <clipPath id="c">
        <path d="m 16 28 h 16 l 16 -16 l 16 16 h 48 c 4.433594 0 8 3.566406 8 8 v 72 c 0 4.433594 -3.566406 8 -8 8 h -48 l -16 -16 l -16 16 h -16 c -4.433594 0 -8 -3.566406 -8 -8 v -72 c 0 -4.433594 3.601562 -8.550781 8 -8 z m 0 0"/>
    </clipPath>
    <clipPath id="d">
        <path d="m 8 28 h 24 v 69 h -24 z m 0 0"/>
    </clipPath>
    <clipPath id="e">
        <path d="m 16 28 h 16 l 16 -16 l 16 16 h 48 c 4.433594 0 8 3.566406 8 8 v 72 c 0 4.433594 -3.566406 8 -8 8 h -48 l -16 -16 l -16 16 h -16 c -4.433594 0 -8 -3.566406 -8 -8 v -72 c 0 -4.433594 3.601562 -8.550781 8 -8 z m 0 0"/>
    </clipPath>
    <clipPath id="f">
        <path d="m 36 12 h 68 v 85 h -68 z m 0 0"/>
    </clipPath>
    <clipPath id="g">
        <path d="m 16 28 h 16 l 16 -16 l 16 16 h 48 c 4.433594 0 8 3.566406 8 8 v 72 c 0 4.433594 -3.566406 8 -8 8 h -48 l -16 -16 l -16 16 h -16 c -4.433594 0 -8 -3.566406 -8 -8 v -72 c 0 -4.433594 3.601562 -8.550781 8 -8 z m 0 0"/>
    </clipPath>
    <clipPath id="h">
        <path d="m 8 12 h 100 v 89 h -100 z m 0 0"/>
    </clipPath>
    <clipPath id="i">
        <path d="m 16 28 h 16 l 16 -16 l 16 16 h 48 c 4.433594 0 8 3.566406 8 8 v 72 c 0 4.433594 -3.566406 8 -8 8 h -48 l -16 -16 l -16 16 h -16 c -4.433594 0 -8 -3.566406 -8 -8 v -72 c 0 -4.433594 3.601562 -8.550781 8 -8 z m 0 0"/>
    </clipPath>
    <clipPath id="j">
        <path d="m 8 12 h 112 v 104 h -112 z m 0 0"/>
    </clipPath>
    <clipPath id="k">
        <path d="m 16 28 h 16 l 16 -16 l 16 16 h 48 c 4.433594 0 8 3.566406 8 8 v 72 c 0 4.433594 -3.566406 8 -8 8 h -48 l -16 -16 l -16 16 h -16 c -4.433594 0 -8 -3.566406 -8 -8 v -72 c 0 -4.433594 3.601562 -8.550781 8 -8 z m 0 0"/>
    </clipPath>
    <mask id="l">
        <g filter="url(#a)">
            <rect fill-opacity="0.3" height="153.6" width="153.6" x="-12.8" y="-12.8"/>
        </g>
    </mask>
    <clipPath id="m">
        <rect height="152" width="192"/>
    </clipPath>
    <mask id="n">
        <g filter="url(#a)">
            <rect fill-opacity="0.15" height="153.6" width="153.6" x="-12.8" y="-12.8"/>
        </g>
    </mask>
    <clipPath id="o">
        <rect height="152" width="192"/>
    </clipPath>
    <linearGradient id="p" gradientTransform="matrix(0 0.252632 0.252632 0 109.179138 -56.96843)" gradientUnits="userSpaceOnUse" x1="320.5" x2="415.5" y1="-68" y2="-68">
        <stop offset="0" stop-color="#a51d2d"/>
        <stop offset="1" stop-color="#ce1921"/>
    </linearGradient>
    <linearGradient id="q" gradientUnits="userSpaceOnUse" x1="92.0003" x2="92.0003" y1="68.5" y2="8">
        <stop offset="0" stop-color="#d81d25"/>
        <stop offset="1" stop-color="#f66151"/>
    </linearGradient>
    <g clip-path="url(#b)">
        <g clip-path="url(#c)">
            <path d="m 64 96 h 40 v -68 h 24 v 96 h -64 l -16 -16 l -16 16 h -32 v -28 h 32 l 16 -16 z m 0 0" fill="#cdab8f"/>
        </g>
    </g>
    <g clip-path="url(#d)">
        <g clip-path="url(#e)">
            <path d="m 0 95.992188 l 32 0.015624 v -68.007812 h -32 z m 0 0" fill="#55a7eb"/>
        </g>
    </g>
    <g clip-path="url(#f)">
        <g clip-path="url(#g)">
            <path d="m 36 24 v 68 l 12 -12 l 16 16.015625 h 36 l 4 -4.015625 v -64 h -40 l -16 -16 z m 0 0" fill="#2ec27e"/>
        </g>
    </g>
    <g clip-path="url(#h)">
        <g clip-path="url(#i)">
            <path d="m 99.972656 28.027344 v 59.5 c 0 2.507812 -2.339844 4.488281 -4.234375 4.488281 h -31.738281 l -16 -15.867187 l -9.84375 9.882812 l -0.15625 -74.015625 h -6 v 79.984375 l -32 0.015625 v 8.023437 h 31.75 l 16.25 -16.039062 l 16 16.039062 h 31.738281 c 6.605469 0 11.988281 -5.511718 12.261719 -12.511718 v -59.5 z m 0 0" fill="#ffffff"/>
        </g>
    </g>
    <g clip-path="url(#j)">
        <g clip-path="url(#k)">
            <g mask="url(#l)">
                <g clip-path="url(#m)" transform="matrix(1 0 0 1 -8 -16)">
                    <path d="m 40 147.992188 l 16 0.015624 v -120.007812 h -16 z m 0 0" fill="#ffffff"/>
                </g>
            </g>
            <g mask="url(#n)">
                <g clip-path="url(#o)" transform="matrix(1 0 0 1 -8 -16)">
                    <path d="m 56 147.992188 l 16 0.015624 v -120.007812 h -16 z m 0 0"/>
                </g>
            </g>
        </g>
    </g>
    <path d="m 92 48 c 6.628906 0 12 -5.371094 12 -12 s -5.371094 -12 -12 -12 s -12 5.371094 -12 12 s 5.371094 12 12 12 z m 0 0" fill="url(#p)"/>
    <path d="m 92 10 c -7.164062 0 -14.332031 2.734375 -19.796875 8.199219 c -10.9375 10.9375 -10.9375 28.664062 0 39.601562 l 19.796875 19.796875 s 13.820312 -13.820312 19.800781 -19.796875 c 10.933594 -10.9375 10.933594 -28.664062 0 -39.601562 c -5.46875 -5.464844 -12.636719 -8.199219 -19.800781 -8.199219 z m 0 18 c 5.523438 0 10 4.476562 10 10 s -4.476562 10 -10 10 s -10 -4.476562 -10 -10 s 4.476562 -10 10 -10 z m 0 0" fill="#a51d2d"/>
    <path d="m 92 8 c -7.164062 0 -14.332031 2.734375 -19.796875 8.203125 c -10.9375 10.933594 -10.9375 28.660156 0 39.59375 l 19.796875 19.800781 s 13.820312 -13.820312 19.800781 -19.800781 c 10.933594 -10.933594 10.933594 -28.660156 0 -39.59375 c -5.46875 -5.46875 -12.636719 -8.203125 -19.800781 -8.203125 z m 0 18 c 5.523438 0 10 4.476562 10 10 s -4.476562 10 -10 10 s -10 -4.476562 -10 -10 s 4.476562 -10 10 -10 z m 0 0" fill="url(#q)"/>
</svg>
