<?xml version="1.0" encoding="UTF-8"?>
<svg height="128px" viewBox="0 0 128 128" width="128px" xmlns="http://www.w3.org/2000/svg" xmlns:xlink="http://www.w3.org/1999/xlink">
    <linearGradient id="a" gradientTransform="matrix(1.017673 0 0 0.981818 147.30497 -1.06795)" gradientUnits="userSpaceOnUse" x1="-125.094116" x2="-38.622375" y1="68.309952" y2="68.309952">
        <stop offset="0" stop-color="#773ea3"/>
        <stop offset="0.0416667" stop-color="#b289d2"/>
        <stop offset="0.0833333" stop-color="#773ea3"/>
        <stop offset="0.916667" stop-color="#773ea3"/>
        <stop offset="0.958333" stop-color="#b289d2"/>
        <stop offset="1" stop-color="#773ea3"/>
    </linearGradient>
    <path d="m 27.996094 12 h 49.976562 l 30.027344 28.847656 v 71.417969 c 0 4.273437 -3.609375 7.734375 -8.039062 7.734375 h -71.964844 c -4.429688 0 -7.996094 -3.441406 -7.996094 -7.714844 v -92.570312 c 0 -4.273438 3.566406 -7.714844 7.996094 -7.714844 z m 0 0" fill="url(#a)"/>
    <path d="m 27.996094 8 h 49.976562 l 30.027344 28.847656 v 71.417969 c 0 4.273437 -3.609375 7.734375 -8.039062 7.734375 h -71.964844 c -4.429688 0 -7.996094 -3.441406 -7.996094 -7.714844 v -92.570312 c 0 -4.273438 3.566406 -7.714844 7.996094 -7.714844 z m 0 0" fill="#8a4bba"/>
    <path d="m 77.972656 8 v 21.214844 c 0 4.273437 3.605469 7.640625 8.035156 7.640625 l 21.992188 -0.007813 z m 0 0" fill="#66388a"/>
    <g fill="#ffffff">
        <path d="m 86.089844 85.316406 h -31.238282 v -6.136718 h 31.238282 z m 0 0"/>
        <path d="m 45.589844 85.929688 c -2.03125 0 -3.679688 -1.648438 -3.679688 -3.679688 s 1.648438 -3.683594 3.679688 -3.683594 s 3.683594 1.652344 3.683594 3.683594 s -1.652344 3.679688 -3.683594 3.679688 z m 0 0"/>
        <path d="m 86.089844 70.589844 h -31.238282 v -6.136719 h 31.238282 z m 0 0"/>
        <path d="m 45.589844 71.203125 c -2.03125 0 -3.679688 -1.648437 -3.679688 -3.679687 s 1.648438 -3.683594 3.679688 -3.683594 s 3.683594 1.652344 3.683594 3.683594 s -1.652344 3.679687 -3.683594 3.679687 z m 0 0"/>
        <path d="m 86.089844 55.863281 h -31.238282 v -6.136719 h 31.238282 z m 0 0"/>
        <path d="m 45.589844 56.476562 c -2.03125 0 -3.679688 -1.648437 -3.679688 -3.679687 s 1.648438 -3.683594 3.679688 -3.683594 s 3.683594 1.652344 3.683594 3.683594 s -1.652344 3.679687 -3.683594 3.679687 z m 0 0"/>
    </g>
</svg>
