<?xml version="1.0" encoding="UTF-8"?>
<svg height="128px" viewBox="0 0 128 128" width="128px" xmlns="http://www.w3.org/2000/svg" xmlns:xlink="http://www.w3.org/1999/xlink">
    <linearGradient id="a" gradientUnits="userSpaceOnUse" x1="11.999998" x2="115.999998" y1="66.000004" y2="66.000004">
        <stop offset="0" stop-color="#8c8c8c"/>
        <stop offset="0.0356746" stop-color="#e4e4e4"/>
        <stop offset="0.0730247" stop-color="#8c8c8c"/>
        <stop offset="0.926818" stop-color="#8c8c8c" stop-opacity="0.99"/>
        <stop offset="0.960641" stop-color="#e4e4e4"/>
        <stop offset="1" stop-color="#8c8c8c"/>
    </linearGradient>
    <path d="m 20 16 h 88 c 4.417969 0 8 3.582031 8 8 v 84 c 0 4.417969 -3.582031 8 -8 8 h -88 c -4.417969 0 -8 -3.582031 -8 -8 v -84 c 0 -4.417969 3.582031 -8 8 -8 z m 0 0" fill="url(#a)"/>
    <path d="m 20 12 h 88 c 4.417969 0 8 3.582031 8 8 v 84 c 0 4.417969 -3.582031 8 -8 8 h -88 c -4.417969 0 -8 -3.582031 -8 -8 v -84 c 0 -4.417969 3.582031 -8 8 -8 z m 0 0" fill="#ffffff"/>
    <path d="m 31.320312 86.5625 l 3.398438 5.867188 c 0.703125 1.234374 1.71875 2.203124 2.910156 2.910156 l 12.125 -20.992188 h -24.253906 c 0 1.367188 0.351562 2.734375 1.058594 3.96875 z m 0 0" fill="#0066da"/>
    <path d="m 64 49.652344 l -12.128906 -20.992188 c -1.191406 0.707032 -2.203125 1.675782 -2.910156 2.910156 l -22.402344 38.808594 c -0.691406 1.207032 -1.058594 2.578125 -1.058594 3.96875 h 24.253906 z m 0 0" fill="#00ac47"/>
    <path d="m 90.371094 95.339844 c 1.191406 -0.707032 2.207031 -1.675782 2.910156 -2.910156 l 1.414062 -2.425782 l 6.746094 -11.6875 c 0.707032 -1.234375 1.058594 -2.601562 1.058594 -3.96875 h -24.257812 l 5.164062 10.144532 z m 0 0" fill="#ea4335"/>
    <path d="m 64 49.652344 l 12.128906 -20.992188 c -1.191406 -0.707031 -2.558594 -1.058594 -3.96875 -1.058594 h -16.320312 c -1.410156 0 -2.777344 0.398438 -3.96875 1.058594 z m 0 0" fill="#00832d"/>
    <path d="m 78.246094 74.347656 h -28.492188 l -12.125 20.992188 c 1.191406 0.707031 2.558594 1.058594 3.96875 1.058594 h 44.804688 c 1.410156 0 2.777344 -0.398438 3.96875 -1.058594 z m 0 0" fill="#2684fc"/>
    <path d="m 90.238281 50.976562 l -11.199219 -19.40625 c -0.707031 -1.234374 -1.71875 -2.203124 -2.910156 -2.910156 l -12.128906 20.992188 l 14.246094 24.695312 h 24.210937 c 0 -1.367187 -0.355469 -2.734375 -1.058593 -3.96875 z m 0 0" fill="#ffba00"/>
</svg>
