<?xml version="1.0" encoding="UTF-8"?>
<svg height="128px" viewBox="0 0 128 128" width="128px" xmlns="http://www.w3.org/2000/svg" xmlns:xlink="http://www.w3.org/1999/xlink">
    <linearGradient id="a" gradientUnits="userSpaceOnUse" x1="11.999998" x2="115.999998" y1="66.000004" y2="66.000004">
        <stop offset="0" stop-color="#8c8c8c"/>
        <stop offset="0.0356746" stop-color="#e4e4e4"/>
        <stop offset="0.0730247" stop-color="#8c8c8c"/>
        <stop offset="0.926818" stop-color="#8c8c8c" stop-opacity="0.99"/>
        <stop offset="0.960641" stop-color="#e4e4e4"/>
        <stop offset="1" stop-color="#8c8c8c"/>
    </linearGradient>
    <linearGradient id="b" gradientUnits="userSpaceOnUse" x1="83.92187220221" x2="15.8893508672" y1="88.00799140963" y2="27.34210014222">
        <stop offset="0" stop-color="#3c16d3"/>
        <stop offset="0.442708" stop-color="#1271ff"/>
        <stop offset="0.989583" stop-color="#2cf2ff"/>
    </linearGradient>
    <path d="m 20 16 h 88 c 4.417969 0 8 3.582031 8 8 v 84 c 0 4.417969 -3.582031 8 -8 8 h -88 c -4.417969 0 -8 -3.582031 -8 -8 v -84 c 0 -4.417969 3.582031 -8 8 -8 z m 0 0" fill="url(#a)"/>
    <path d="m 20 12 h 88 c 4.417969 0 8 3.582031 8 8 v 84 c 0 4.417969 -3.582031 8 -8 8 h -88 c -4.417969 0 -8 -3.582031 -8 -8 v -84 c 0 -4.417969 3.582031 -8 8 -8 z m 0 0" fill="#ffffff"/>
    <path d="m 82.167969 23.5 h -36.335938 c -8.601562 0 -15.574219 6.972656 -15.574219 15.574219 v 36.335937 c 0 8.601563 6.972657 15.574219 15.574219 15.574219 h 7.835938 c 2.261719 0 3.285156 0.1875 4.359375 0.804687 c 1.179687 0.679688 1.835937 2.46875 2.492187 4.25 c 0.820313 2.238282 1.636719 4.460938 3.480469 4.460938 c 1.773438 0 2.59375 -2.078125 3.449219 -4.234375 c 0.738281 -1.871094 1.503906 -3.800781 2.929687 -4.476563 c 1.148438 -0.542968 2.015625 -0.804687 4.035156 -0.804687 h 7.753907 c 8.601562 0 15.574219 -6.972656 15.574219 -15.574219 v -36.335937 c 0 -8.601563 -6.972657 -15.574219 -15.574219 -15.574219 z m -18.25 55.988281 c -9.28125 0 -17.925781 -4.59375 -23.125 -12.292969 c -0.882813 -1.308593 -0.535157 -3.082031 0.769531 -3.964843 c 1.308594 -0.882813 3.082031 -0.535157 3.964844 0.769531 c 4.132812 6.117188 11.011718 9.777344 18.390625 9.777344 c 7.382812 0 14.257812 -3.660156 18.402343 -9.785156 c 0.882813 -1.304688 2.65625 -1.652344 3.964844 -0.769532 c 1.304688 0.882813 1.652344 2.65625 0.769532 3.960938 c -5.210938 7.710937 -13.851563 12.304687 -23.136719 12.304687 z m 12.980469 -39.953125 v 5.191406 h -5.191407 v 5.191407 h 5.191407 v 5.191406 h -5.191407 v 5.1875 h -5.191406 v -5.1875 h -5.191406 v 5.1875 h -5.191407 v -5.1875 h -5.191406 v -5.191406 h 5.191406 v -5.191407 h -5.191406 v -5.191406 h 5.191406 v -5.191406 h 5.191407 v 5.191406 h 5.191406 v -5.191406 h 5.191406 v 5.191406 z m -15.574219 10.382813 h 5.191406 v -5.191407 h -5.191406 z m 0 0" fill="url(#b)" fill-rule="evenodd"/>
</svg>
