<?xml version="1.0" encoding="UTF-8" standalone="no"?>
<svg
   height="128px"
   viewBox="0 0 128 128"
   width="128px"
   version="1.1"
   id="svg24"
   sodipodi:docname="org.gnome.Polari.svg"
   inkscape:version="1.3.2 (091e20ef0f, 2023-11-25)"
   xmlns:inkscape="http://www.inkscape.org/namespaces/inkscape"
   xmlns:sodipodi="http://sodipodi.sourceforge.net/DTD/sodipodi-0.dtd"
   xmlns="http://www.w3.org/2000/svg"
   xmlns:svg="http://www.w3.org/2000/svg">
  <sodipodi:namedview
     id="namedview24"
     pagecolor="#ffffff"
     bordercolor="#000000"
     borderopacity="0.25"
     inkscape:showpageshadow="2"
     inkscape:pageopacity="0.0"
     inkscape:pagecheckerboard="true"
     inkscape:deskcolor="#d1d1d1"
     inkscape:zoom="3.3125"
     inkscape:cx="64"
     inkscape:cy="76.528302"
     inkscape:window-width="960"
     inkscape:window-height="1011"
     inkscape:window-x="20"
     inkscape:window-y="20"
     inkscape:window-maximized="0"
     inkscape:current-layer="svg24" />
  <defs
     id="defs24">
    <clipPath
       clipPathUnits="userSpaceOnUse"
       id="clipPath12">
      <path
         style="display:none;opacity:1;fill:none;fill-opacity:1;stroke:#000000;stroke-width:28;stroke-linecap:round;stroke-linejoin:round;stroke-miterlimit:4;stroke-dasharray:none;stroke-opacity:1"
         d="m 512.00082,713.08977 c -45.86417,0 -75.13006,31.84485 -74.14159,71.10084 1.07048,42.51275 32.46865,71.10323 74.14159,71.10323 41.67296,0 74.05118,-32.99608 74.14161,-71.10323 0.0932,-39.26839 -28.27742,-71.10084 -74.14161,-71.10084 z"
         id="path12" />
      <path
         id="lpe_path-effect12"
         style="display:inline;opacity:1;fill:none;fill-opacity:1;stroke:#000000;stroke-width:28;stroke-linecap:round;stroke-linejoin:round;stroke-miterlimit:4;stroke-dasharray:none;stroke-opacity:1"
         class="powerclip"
         d="M 196.16611,299.30843 H 828.16308 V 849.27378 H 196.16611 Z m 315.83471,413.78134 c -45.86417,0 -75.13006,31.84485 -74.14159,71.10084 1.07048,42.51275 32.46865,71.10323 74.14159,71.10323 41.67296,0 74.05118,-32.99608 74.14161,-71.10323 0.0932,-39.26839 -28.27742,-71.10084 -74.14161,-71.10084 z" />
    </clipPath>
    <inkscape:path-effect
       effect="powerclip"
       id="path-effect12"
       is_visible="true"
       lpeversion="1"
       inverse="true"
       flatten="false"
       hide_clip="false"
       message="Use fill-rule evenodd on &lt;b&gt;fill and stroke&lt;/b&gt; dialog if no flatten result after convert clip to paths." />
    <clipPath
       clipPathUnits="userSpaceOnUse"
       id="clipPath14">
      <path
         style="display:none;fill:none;fill-opacity:1;stroke:#000000;stroke-width:28;stroke-linecap:round;stroke-linejoin:round;stroke-miterlimit:4;stroke-dasharray:none;stroke-opacity:1"
         d="M 801.23205,576.8699 C 812.73478,427.06971 720.58431,321.98291 511.99999,325.38859 303.41568,328.79426 213.71393,428.0311 222.76794,576.8699 c 8.64289,142.08048 176.80223,246.40388 288.12038,246.40388 111.31815,0 279.45076,-104.5447 290.34373,-246.40388 z"
         id="path14-7"
         clip-path="none" />
      <path
         id="lpe_path-effect14"
         style="display:inline;fill:none;fill-opacity:1;stroke:#000000;stroke-width:28;stroke-linecap:round;stroke-linejoin:round;stroke-miterlimit:4;stroke-dasharray:none;stroke-opacity:1"
         class="powerclip"
         d="M 38.375814,258.78249 H 985.62417 V 553.47741 H 38.375814 Z M 801.23205,576.8699 C 812.73478,427.06971 720.58431,321.98291 511.99999,325.38859 303.41568,328.79426 213.71393,428.0311 222.76794,576.8699 c 8.64289,142.08048 176.80223,246.40388 288.12038,246.40388 111.31815,0 279.45076,-104.5447 290.34373,-246.40388 z" />
    </clipPath>
    <inkscape:path-effect
       effect="powerclip"
       id="path-effect14"
       is_visible="true"
       lpeversion="1"
       inverse="true"
       flatten="false"
       hide_clip="false"
       message="Use fill-rule evenodd on &lt;b&gt;fill and stroke&lt;/b&gt; dialog if no flatten result after convert clip to paths." />
  </defs>
  <linearGradient
     id="a"
     gradientUnits="userSpaceOnUse"
     x1="44"
     x2="124"
     y1="105.999969"
     y2="105.999969">
    <stop
       offset="0"
       stop-color="#c0bfbc"
       id="stop1"
       style="stop-color:#969895;stop-opacity:1;" />
    <stop
       offset="0.05"
       stop-color="#e4e3e2"
       id="stop2"
       style="stop-color:#b2b2b2;stop-opacity:1;" />
    <stop
       offset="0.1"
       stop-color="#c0bfbc"
       id="stop3"
       style="stop-color:#969895;stop-opacity:1;" />
    <stop
       offset="0.87452334"
       stop-color="#c0bfbc"
       id="stop4"
       style="stop-color:#969895;stop-opacity:1;" />
    <stop
       offset="0.9375"
       stop-color="#e4e3e2"
       id="stop5"
       style="stop-color:#b2b2b2;stop-opacity:1;" />
    <stop
       offset="0.99893045"
       stop-color="#c0bfbc"
       id="stop6"
       style="stop-color:#969895;stop-opacity:1;" />
  </linearGradient>
  <linearGradient
     id="b"
     gradientUnits="userSpaceOnUse"
     x1="4"
     x2="84"
     y1="82"
     y2="82">
    <stop
       offset="0"
       stop-color="#1f8556"
       id="stop7"
       style="stop-color:#18141f;stop-opacity:1;" />
    <stop
       offset="0.05"
       stop-color="#33d17a"
       id="stop8"
       style="stop-color:#251f32;stop-opacity:1;" />
    <stop
       offset="0.1"
       stop-color="#26a269"
       stop-opacity="0.973791"
       id="stop9"
       style="stop-color:#1d1825;stop-opacity:0.973791;" />
    <stop
       offset="0.875"
       stop-color="#26a269"
       stop-opacity="0.972178"
       id="stop10"
       style="stop-color:#1d1825;stop-opacity:0.97217798;" />
    <stop
       offset="0.9378143"
       stop-color="#33d17a"
       id="stop11"
       style="stop-color:#251f32;stop-opacity:1;" />
    <stop
       offset="1"
       stop-color="#1f8456"
       id="stop12"
       style="stop-color:#16141f;stop-opacity:1;" />
  </linearGradient>
  <filter
     id="c"
     height="1"
     width="1"
     x="0"
     y="0">
    <feColorMatrix
       in="SourceGraphic"
       type="matrix"
       values="0 0 0 0 1 0 0 0 0 1 0 0 0 0 1 0 0 0 1 0"
       id="feColorMatrix12" />
  </filter>
  <mask
     id="d">
    <g
       filter="url(#c)"
       id="g12">
      <rect
         fill-opacity="0.35"
         height="128"
         width="128"
         id="rect12" />
    </g>
  </mask>
  <clipPath
     id="e">
    <rect
       height="152"
       width="192"
       id="rect13" />
  </clipPath>
  <path
     d="m 108.1875 94 v 26 l -26 -26 z m 0 0"
     fill="#f6f5f4"
     fill-rule="evenodd"
     id="path13"
     style="fill:#c0bfbc;fill-opacity:1" />
  <path
     d="m 116 36 h -64 c -4.417969 0 -8 3.582031 -8 8 v 52 c 0 4.417969 3.582031 8 8 8 h 64 c 4.417969 0 8 -3.582031 8 -8 v -52 c 0 -4.417969 -3.582031 -8 -8 -8 z m 0 0"
     fill="#f6f5f4"
     id="path14"
     style="fill:#c0bfbc;fill-opacity:1" />
  <path
     d="m 124 92 v 4 c 0 4.433594 -3.566406 8 -8 8 h -8 v -4 h 8 c 4.433594 0 8 -3.566406 8 -8 z m -80 0 c 0 4.433594 3.566406 8 8 8 h 40 l 16 16 v 4 l -16 -16 h -40 c -4.433594 0 -8 -3.566406 -8 -8 z m 0 0"
     fill="url(#a)"
     fill-rule="evenodd"
     id="path15" />
  <path
     d="m 20 70 v 26 l 26 -26 z m 0 0"
     fill="#33d17a"
     fill-rule="evenodd"
     id="path16"
     style="fill:#251f32;fill-opacity:1" />
  <path
     d="m 12 12 h 64 c 4.417969 0 8 3.582031 8 8 v 52 c 0 4.417969 -3.582031 8 -8 8 h -64 c -4.417969 0 -8 -3.582031 -8 -8 v -52 c 0 -4.417969 3.582031 -8 8 -8 z m 0 0"
     fill="#33d17a"
     id="path17"
     style="fill:#251f32;fill-opacity:1" />
  <path
     d="m 4 68 v 4 c 0 4.433594 3.566406 8 8 8 h 8 v -4 h -8 c -4.433594 0 -8 -3.566406 -8 -8 z m 80 0 c 0 4.433594 -3.566406 8 -8 8 h -40 l -16 16 v 4 l 16 -16 h 40 c 4.433594 0 8 -3.566406 8 -8 z m 0 0"
     fill="url(#b)"
     fill-rule="evenodd"
     id="path18" />
  <g
     fill="#ffffff"
     id="g22"
     style="display:none">
    <path
       d="m 60,48 v 4 H 28 v -4 z m 0,0"
       id="path22" />
    <path
       d="m 36,28 h 4 v 32 h -4 z m 0,0"
       id="path19" />
    <path
       d="m 48,28 h 4 v 32 h -4 z m 0,0"
       id="path20" />
    <path
       d="m 60,36 v 4 H 28 v -4 z m 0,0"
       id="path21" />
  </g>
  <g
     clip-path="url(#e)"
     fill="#241f31"
     mask="url(#d)"
     transform="matrix(1 0 0 1 -8 -16)"
     id="g24">
    <path
       d="m 182 18 v 7 c 0 1.644531 -1.355469 3 -3 3 h -4.585938 l -1 1 h 8.585938 c 1.109375 0 2 -0.890625 2 -2 v -7 c 0 -1.109375 -0.890625 -2 -2 -2 z m 0 0"
       id="path23" />
    <path
       d="m 181 29 v 3 l -3 -3 z m 0 0"
       id="path24" />
  </g>
  <g
     id="g25"
     transform="matrix(1.7869593,0,0,1.7869593,-70.365481,-68.21651)">
    <path
       style="color:#000000;font-style:normal;font-variant:normal;font-weight:normal;font-stretch:normal;font-size:medium;line-height:normal;font-family:sans-serif;font-variant-ligatures:normal;font-variant-position:normal;font-variant-caps:normal;font-variant-numeric:normal;font-variant-alternates:normal;font-feature-settings:normal;text-indent:0;text-align:start;text-decoration:none;text-decoration-line:none;text-decoration-style:solid;text-decoration-color:#000000;letter-spacing:normal;word-spacing:normal;text-transform:none;writing-mode:lr-tb;direction:ltr;text-orientation:mixed;dominant-baseline:auto;baseline-shift:baseline;text-anchor:start;white-space:normal;shape-padding:0;clip-rule:nonzero;display:inline;overflow:visible;visibility:visible;isolation:auto;mix-blend-mode:normal;color-interpolation:sRGB;color-interpolation-filters:linearRGB;solid-color:#000000;solid-opacity:1;fill:none;fill-opacity:1;fill-rule:nonzero;stroke:none;stroke-width:1.45563;stroke-linecap:round;stroke-linejoin:round;stroke-miterlimit:4;stroke-dasharray:none;stroke-dashoffset:0;stroke-opacity:1;color-rendering:auto;image-rendering:auto;shape-rendering:auto;text-rendering:auto;enable-background:accumulate"
       d="m 52.04447,53.00005 c -0.0328,-7e-5 -0.0656,1.4e-4 -0.0984,7.5e-4 -0.14956,0.003 -0.29769,0.0124 -0.44405,0.0293 -1.17092,0.13486 -2.22557,0.75775 -2.87213,1.84634 -0.63354,1.06667 -0.78941,2.24119 -0.46652,3.32951 0.32289,1.08833 1.10505,2.0771 2.26304,2.86042 0.007,0.005 0.0141,0.009 0.0213,0.0136 0.9931,0.59881 1.98179,1.00272 3.04095,1.21147 -0.0258,0.43715 -0.0251,0.88626 0.003,1.34624 0.0846,1.3901 0.57557,2.66994 1.32031,3.80098 l -2.66891,1.08955 c -0.28787,0.11296 -0.42774,0.43954 -0.31087,0.72585 0.11687,0.2863 0.44532,0.42171 0.73001,0.30096 l 2.93542,-1.19834 c 0.54436,0.64904 1.16982,1.2367 1.84105,1.75266 0.0257,0.0197 0.0517,0.0389 0.0774,0.0584 l -1.71941,2.27671 c -0.18904,0.24425 -0.14212,0.59587 0.10435,0.782 0.24647,0.18613 0.59751,0.13504 0.7807,-0.11362 l 1.7463,-2.31232 c 0.95952,0.60771 1.9781,1.08146 2.98307,1.39504 0.51576,0.94547 1.52389,1.54735 2.68902,1.54735 1.1762,0 2.18491,-0.64765 2.6964,-1.57476 0.99493,-0.3193 2.00158,-0.79477 2.95106,-1.40026 l 1.77093,2.34495 c 0.18319,0.24866 0.53423,0.29975 0.7807,0.11362 0.24647,-0.18613 0.29339,-0.53775 0.10436,-0.782 l -1.74542,-2.31117 c 0.0116,-0.009 0.0233,-0.0174 0.0349,-0.0262 0.66326,-0.5077 1.28323,-1.08429 1.82657,-1.72023 l 2.86143,1.16815 c 0.28469,0.12075 0.61314,-0.0147 0.73001,-0.30096 0.11687,-0.28631 -0.023,-0.61289 -0.31087,-0.72585 l -2.58335,-1.05455 c 0.76843,-1.13781 1.28366,-2.42723 1.39125,-3.82833 0.0355,-0.46277 0.0426,-0.91585 0.0221,-1.35775 1.05206,-0.20982 2.03498,-0.61234 3.0222,-1.20761 0.007,-0.004 0.0143,-0.009 0.0213,-0.0136 1.15799,-0.78332 1.94016,-1.77209 2.26305,-2.86042 0.32289,-1.08832 0.16701,-2.26284 -0.46653,-3.32951 -0.64655,-1.08859 -1.70121,-1.71148 -2.87213,-1.84634 -0.14636,-0.0169 -0.29449,-0.0266 -0.44405,-0.0293 -1.04693,-0.0189 -2.16405,0.30583 -3.23813,0.92588 -0.79011,0.45611 -1.50249,1.15459 -2.05997,1.91673 -1.55949,-0.89247 -3.58862,-1.39499 -6.08169,-1.4362 -0.22362,-0.004 -0.45099,-0.004 -0.68206,7e-5 -2.77916,0.0454 -5.00399,0.57215 -6.68448,1.52467 -0.004,-0.007 -0.008,-0.0131 -0.0129,-0.0196 C 56.7302,55.12338 55.9982,54.3965 55.18424,53.92662 54.14373,53.32595 53.06282,53.00247 52.04447,53 Z"
       id="path1" />
    <path
       style="display:inline;fill:none;fill-opacity:1;stroke:#ffffff;stroke-width:42;stroke-linecap:round;stroke-linejoin:round;stroke-miterlimit:4;stroke-dasharray:none;stroke-opacity:1.0"
       d="m 716.85595,362.96478 c 15.29075,-21.36763 35.36198,-41.10921 56.50979,-53.31749 66.66377,-38.48393 137.02617,-33.22172 170.08018,22.43043 33.09493,55.72093 14.98656,117.48866 -47.64399,159.85496 -31.95554,19.26819 -62.93318,30.92309 -97.22892,35.54473 M 307.14407,362.96478 C 291.85332,341.59715 271.78209,321.85557 250.63429,309.64729 183.97051,271.16336 113.60811,276.42557 80.554051,332.07772 47.459131,387.79865 65.56752,449.56638 128.19809,491.93268 c 31.95554,19.26819 62.93319,30.92309 97.22893,35.54473"
       id="path2"
       clip-path="url(#clipPath14)"
       inkscape:path-effect="#path-effect14"
       inkscape:original-d="m 716.85595,362.96478 c 15.29075,-21.36763 35.36198,-41.10921 56.50979,-53.31749 66.66377,-38.48393 137.02617,-33.22172 170.08018,22.43043 33.09493,55.72093 14.98656,117.48866 -47.64399,159.85496 -31.95554,19.26819 -62.93318,30.92309 -97.22892,35.54473 M 307.14407,362.96478 C 291.85332,341.59715 271.78209,321.85557 250.63429,309.64729 183.97051,271.16336 113.60811,276.42557 80.554051,332.07772 47.459131,387.79865 65.56752,449.56638 128.19809,491.93268 c 31.95554,19.26819 62.93319,30.92309 97.22893,35.54473"
       transform="matrix(0.03465777,0,0,0.03465777,46.25527,43.61517)" />
    <path
       style="display:inline;fill:none;fill-opacity:1;stroke:#ffffff;stroke-width:42;stroke-linecap:round;stroke-linejoin:round;stroke-miterlimit:4;stroke-dasharray:none;stroke-opacity:1.0"
       d="M 801.23205,576.8699 C 812.73478,427.06971 720.58431,321.98291 511.99999,325.38859 303.41568,328.79426 213.71393,428.0311 222.76794,576.8699 c 8.64289,142.08048 176.80223,246.40388 288.12038,246.40388 111.31815,0 279.45076,-104.5447 290.34373,-246.40388 z"
       id="path3"
       clip-path="url(#clipPath12)"
       inkscape:path-effect="#path-effect12"
       inkscape:original-d="M 801.23205,576.8699 C 812.73478,427.06971 720.58431,321.98291 511.99999,325.38859 303.41568,328.79426 213.71393,428.0311 222.76794,576.8699 c 8.64289,142.08048 176.80223,246.40388 288.12038,246.40388 111.31815,0 279.45076,-104.5447 290.34373,-246.40388 z"
       transform="matrix(0.03465777,0,0,0.03465777,46.25527,43.61517)" />
    <path
       style="display:inline;fill:#ffffff;fill-opacity:1.0;stroke:#ffffff;stroke-width:0;stroke-linecap:round;stroke-linejoin:round;stroke-miterlimit:4;stroke-dasharray:none;stroke-opacity:1.0"
       d="m 67.4138,65.9448 c 0,0.80101 0.64831,1.45035 1.44803,1.45035 0.79973,0 1.44804,-0.64934 1.44804,-1.45035 0,-0.80101 -0.64831,-1.45036 -1.44804,-1.45036 -0.79972,0 -1.44803,0.64935 -1.44803,1.45036 z m -9.72358,0 c 0,0.80839 0.65428,1.46372 1.46137,1.46372 0.8071,0 1.46138,-0.65533 1.46138,-1.46372 0,-0.80839 -0.65428,-1.46372 -1.46138,-1.46372 -0.80709,0 -1.46137,0.65533 -1.46137,1.46372 z"
       id="path4" />
    <path
       style="display:inline;fill:none;stroke:#ffffff;stroke-width:1.66358;stroke-linecap:round;stroke-linejoin:miter;stroke-miterlimit:4;stroke-dasharray:none;stroke-opacity:1.0"
       d="m 58.02952,70.27554 -1.89038,2.50315 m 13.83142,-2.50315 1.89038,2.50315 m -16.467,-4.97864 -3.04142,1.24156 m 20.09657,-1.24156 3.04142,1.24156"
       id="path5" />
    <path
       style="display:inline;fill:none;fill-opacity:1;stroke:#ffffff;stroke-width:1.45563;stroke-linecap:round;stroke-linejoin:round;stroke-miterlimit:4;stroke-dasharray:none;stroke-opacity:1.0"
       d="m 64.00007,68.32927 c -1.58955,0 -2.60384,1.10367 -2.56958,2.46419 0.0371,1.4734 1.12529,2.46428 2.56958,2.46428 1.44429,0 2.56645,-1.14357 2.56958,-2.46428 0.003,-1.36095 -0.98003,-2.46419 -2.56958,-2.46419 z"
       id="path6-3"
       inkscape:label="path6" />
  </g>
</svg>
