<?xml version="1.0" encoding="UTF-8" standalone="no"?>
<!-- Generator: Adobe Illustrator 25.4.1, SVG Export Plug-In . SVG Version: 6.00 Build 0)  -->

<svg
   version="1.1"
   x="0px"
   y="0px"
   viewBox="0 0 128 128"
   xml:space="preserve"
   id="svg13"
   sodipodi:docname="icons8-super-mario(2).svg"
   inkscape:version="1.4 (e7c3feb100, 2024-10-09)"
   width="128"
   height="128"
   xmlns:inkscape="http://www.inkscape.org/namespaces/inkscape"
   xmlns:sodipodi="http://sodipodi.sourceforge.net/DTD/sodipodi-0.dtd"
   xmlns="http://www.w3.org/2000/svg"
   xmlns:svg="http://www.w3.org/2000/svg"><defs
   id="defs13" /><sodipodi:namedview
   id="namedview13"
   pagecolor="#ffffff"
   bordercolor="#000000"
   borderopacity="0.25"
   inkscape:showpageshadow="2"
   inkscape:pageopacity="0.0"
   inkscape:pagecheckerboard="0"
   inkscape:deskcolor="#d1d1d1"
   inkscape:zoom="4.1"
   inkscape:cx="7.5609756"
   inkscape:cy="66.829268"
   inkscape:window-width="1920"
   inkscape:window-height="1011"
   inkscape:window-x="0"
   inkscape:window-y="0"
   inkscape:window-maximized="1"
   inkscape:current-layer="Слой_1" />
<g
   id="Слой_1">
	
	<path
   style="fill:#ffb789;stroke-width:1.42858"
   d="m 63.999996,121.85714 c 25.714285,0 37.142854,-24.285714 37.142854,-24.285714 8.57143,0 14.28572,-8.571427 14.28572,-18.571426 0,-10.000001 -8.57143,-11.428572 -8.57143,-11.428572 0,0 2.85714,-4.285715 2.85714,-14.285713 0,-31.428571 -28.571427,-47.1428555 -45.714284,-47.1428555 -17.142855,0 -45.714283,15.7142845 -45.714283,47.1428555 0,9.999998 2.857142,14.285713 2.857142,14.285713 0,0 -8.571427,1.428571 -8.571427,11.428572 0,10 5.714285,18.571426 14.285713,18.571426 0,0 11.428571,24.285714 37.142855,24.285714 z"
   id="path3" />
	<path
   style="fill:#241f31;stroke-width:1.42858"
   d="M 92.597138,83.575714 C 88.31428,87.53 78.999995,91.142856 63.999996,91.142856 c -13.571427,0 -24.314285,-3.612856 -28.597141,-7.567142 -2.111429,1.241429 -3.545714,3.511428 -3.545714,6.138571 0,3.944284 3.198571,7.142856 7.142857,7.142856 0.494286,0 0.977142,-0.05 1.442857,-0.145713 0,0.05 -0.01429,0.09571 -0.01429,0.145713 0,3.944289 3.198571,7.142859 7.142857,7.142859 1.828571,0 3.479999,-0.70857 4.742856,-1.83857 1.002858,2.73428 3.604287,4.69572 6.685715,4.69572 1.948571,0 3.711429,-0.7843 4.999999,-2.05001 1.288571,1.26571 3.051429,2.05001 5.000001,2.05001 3.081427,0 5.682857,-1.96144 6.685713,-4.69572 1.262858,1.13 2.914286,1.83857 4.742858,1.83857 3.944285,0 7.142856,-3.19857 7.142856,-7.142859 0,-0.05 -0.01428,-0.09571 -0.01428,-0.145713 0.465714,0.09571 0.948571,0.145713 1.442856,0.145713 3.944285,0 7.142855,-3.198572 7.142855,-7.142856 0,-2.627144 -1.43428,-4.897143 -3.545713,-6.138571 z"
   id="path4" />
	<path
   style="fill:#f2f2f2;stroke-width:1.42858"
   d="m 57.571426,72.571428 c 0,2.58143 -1.221429,4.458572 -2.302858,6.372857 -1.081429,1.911429 -2.022857,3.858572 -3.782857,4.568572 -0.787142,0.317143 -1.621428,0.487142 -2.485714,0.487142 -4.734285,0 -8.571427,-5.117142 -8.571427,-11.428571 0,-6.311427 3.837142,-11.42857 8.571427,-11.42857 4.734285,0 8.571429,5.117143 8.571429,11.42857 z"
   id="path5" />
	<path
   style="fill:#70bfff;stroke-width:1.42858"
   d="M 53.835711,63.138571 C 53.422854,63.054283 53.002854,63 52.571426,63 c -4.340001,0 -7.857143,4.381429 -7.857143,9.785714 0,5.404285 3.517142,9.785713 7.857143,9.785713 0.21,0 -0.08572,-0.645714 0.12,-0.665714 2.611428,-1.958572 4.879999,-5.055714 4.879999,-9.334286 0,-3.918571 -1.481428,-7.374285 -3.735714,-9.432856 z"
   id="path6" />
	<ellipse
   style="fill:#241f31;stroke-width:1.42858"
   cx="52.810001"
   cy="73.285721"
   rx="4.7614279"
   ry="6.4285712"
   id="ellipse6" />
	<circle
   style="fill:#f2f2f2;stroke-width:1.42858"
   cx="51.857143"
   cy="71.14286"
   r="1.4285715"
   id="circle6" />
	<path
   style="fill:#f2f2f2;stroke-width:1.42858"
   d="m 70.428567,72.571428 c 0,3.284286 1.955714,5.882858 3.620001,7.967144 0.804286,1.008571 0.837143,2.172856 1.887142,2.70857 0.95143,0.487144 1.984285,0.752856 3.064285,0.752856 4.734286,0 8.571429,-5.117141 8.571429,-11.428571 0,-6.311427 -3.837143,-11.42857 -8.571429,-11.42857 -4.734285,0 -8.571428,5.117143 -8.571428,11.428571 z"
   id="path7" />
	<path
   style="fill:#70bfff;stroke-width:1.42858"
   d="M 74.164282,63.138571 C 74.577139,63.055714 74.99714,63 75.428567,63 c 4.340001,0 7.857143,4.381429 7.857143,9.785714 0,5.404285 -3.517144,9.785713 -7.857143,9.785713 -0.209999,0 -0.417142,-0.01856 -0.622857,-0.03857 -1.228571,-0.921429 -1.822856,-2.547144 -2.581428,-4.124287 -0.852857,-1.775711 -1.795715,-3.571426 -1.795715,-5.837141 0,-3.918571 1.48143,-7.374285 3.735715,-9.432855 z"
   id="path8" />
	<ellipse
   style="fill:#241f31;stroke-width:1.42858"
   cx="75.189995"
   cy="73.285721"
   rx="4.7614279"
   ry="6.4285712"
   id="ellipse8" />
	<circle
   style="fill:#f2f2f2;stroke-width:1.42858"
   cx="76.142845"
   cy="71.14286"
   r="1.4285715"
   id="circle8" />
	<ellipse
   style="fill:#ffb789;stroke-width:1.42858"
   cx="64.714279"
   cy="88.285721"
   rx="15.714285"
   ry="12.857142"
   id="ellipse9" />
	<path
   style="fill:#241f31;stroke-width:1.42858"
   d="m 58.999996,61.142857 c 0,0 0,-12.857143 -12.857142,-12.857143 -8.571427,0 -8.571427,12.857143 -8.571427,12.857143 0,0 8.571427,-11.42857 21.428569,0 z"
   id="path9" />
	<path
   style="fill:#241f31;stroke-width:1.42858"
   d="m 68.999996,61.142857 c 0,0 0,-12.857143 12.857142,-12.857143 8.571428,0 8.571428,12.857143 8.571428,12.857143 0,0 -8.571428,-11.42857 -21.42857,0 z"
   id="path10" />
	<path
   style="fill:#de5147;stroke-width:1.42858"
   d="M 107.57142,39.714288 97.571421,21.14286 77.571424,8.2857179 64.714282,6.357146 64.298568,6.2328607 l -0.0014,-0.09 v 0.088569 L 64.00004,6.1428607 V 6.4014318 L 51.440041,8.2857179 31.440042,21.14286 l -10,18.571428 -1.925714,17.174284 1.854285,12.832856 c -0.0014,0.0014 1.917143,-1.435713 6.202858,2.85 0,0 -0.28857,-23.739998 36.934284,-24.257141 37.222815,0.517143 35.922815,24.257141 35.922815,24.257141 4.28571,-4.285713 7.11857,-2.614285 7.11857,-2.614285 l 1.95,-13.067142 z"
   id="path11" />
	<circle
   style="fill:#f2f2f2;stroke-width:1.42858"
   cx="64.714279"
   cy="28.285717"
   r="15.714285"
   id="circle11" />
	<g
   id="g11"
   transform="matrix(1.4285713,0,0,1.4285713,-6.7142862,-7.428568)">
		<polygon
   style="fill:#de5147"
   points="55.299,30.968 53.034,24.174 50,27.966 46.966,24.174 44.701,30.968 41.855,30.02 45.864,17.995 50,23.165 54.136,17.995 58.145,30.02 "
   id="polygon11" />
	</g>
	<path
   style="fill:#b73b3b;stroke-width:1.42858"
   d="m 68.542853,48.48 c 0.33,0.02286 0.654286,0.04858 0.977143,0.07428 19.732856,1.532858 26.892855,10.262857 29.467145,16.765714 1.991429,-2.5 4.298569,-6.447143 4.298569,-11.32 0,-8.571427 -12.857145,-21.428569 -38.571429,-21.428569 -25.714283,0 -38.571425,12.857142 -38.571425,21.428569 0,4.32 1.809999,7.902857 3.607142,10.401429 3.149999,-6.388571 10.887142,-14.408571 29.815713,-15.852856 0.305714,-0.02429 0.609999,-0.05 0.921428,-0.07 0.391429,-0.02572 0.787144,-0.04858 1.188571,-0.06714 0.918572,-0.04715 1.854286,-0.08286 2.83,-0.09571 0.977143,0.01429 1.915715,0.05 2.835713,0.09714 0.407143,0.01715 0.805716,0.04142 1.20143,0.06714 z"
   id="path12" />
	<path
   style="fill:none;stroke:#241f31;stroke-width:4.28572;stroke-linecap:round;stroke-linejoin:round;stroke-miterlimit:10"
   d="m 63.999996,121.85714 c 25.714285,0 37.142854,-24.285714 37.142854,-24.285714 8.57143,0 14.28572,-8.571427 14.28572,-18.571426 0,-10.000001 -8.57143,-11.428572 -8.57143,-11.428572 0,0 2.85714,-4.285715 2.85714,-14.285713 0,-31.428571 -28.571427,-47.1428555 -45.714284,-47.1428555 -17.142855,0 -45.714283,15.7142845 -45.714283,47.1428555 0,9.999998 2.857142,14.285713 2.857142,14.285713 0,0 -8.571427,1.428571 -8.571427,11.428572 0,10 5.714285,18.571426 14.285713,18.571426 0,0 11.428571,24.285714 37.142855,24.285714 z"
   id="path13" />
</g>
<g
   id="Слой_2">
</g>
</svg>
