<?xml version="1.0" encoding="UTF-8" standalone="no"?>
<svg
   width="512"
   height="512"
   viewBox="0 0 480.00001 480.00001"
   version="1.1"
   id="svg29"
   sodipodi:docname="max.svg"
   inkscape:version="1.3 (0e150ed6c4, 2023-07-21)"
   inkscape:export-filename="netflix.png"
   inkscape:export-xdpi="96"
   inkscape:export-ydpi="96"
   xml:space="preserve"
   xmlns:inkscape="http://www.inkscape.org/namespaces/inkscape"
   xmlns:sodipodi="http://sodipodi.sourceforge.net/DTD/sodipodi-0.dtd"
   xmlns:xlink="http://www.w3.org/1999/xlink"
   xmlns="http://www.w3.org/2000/svg"
   xmlns:svg="http://www.w3.org/2000/svg"><sodipodi:namedview
     id="namedview31"
     pagecolor="#ffffff"
     bordercolor="#000000"
     borderopacity="0.25"
     inkscape:showpageshadow="2"
     inkscape:pageopacity="0.0"
     inkscape:pagecheckerboard="0"
     inkscape:deskcolor="#d1d1d1"
     inkscape:document-units="mm"
     showgrid="false"
     inkscape:zoom="1.4751067"
     inkscape:cx="59.6567"
     inkscape:cy="228.797"
     inkscape:window-width="1803"
     inkscape:window-height="1133"
     inkscape:window-x="0"
     inkscape:window-y="0"
     inkscape:window-maximized="1"
     inkscape:current-layer="svg29" /><defs
     id="defs9"><radialGradient
       inkscape:collect="always"
       xlink:href="#linearGradient3406"
       id="radialGradient3408"
       cx="232.6469"
       cy="87.652237"
       fx="232.6469"
       fy="87.652237"
       r="71.269508"
       gradientUnits="userSpaceOnUse"
       gradientTransform="matrix(1.895876,0,0,1.8266516,-335.21735,-54.257818)" /><linearGradient
       inkscape:collect="always"
       id="linearGradient3406"><stop
         style="stop-color:#0131fd;stop-opacity:1;"
         offset="0.3361111"
         id="stop3402" /><stop
         style="stop-color:#0124d4;stop-opacity:1;"
         offset="0.57222217"
         id="stop6324" /><stop
         style="stop-color:#0018ad;stop-opacity:1;"
         offset="0.70277774"
         id="stop3625" /><stop
         style="stop-color:#000f96;stop-opacity:1;"
         offset="0.78749996"
         id="stop4248" /><stop
         style="stop-color:#000066;stop-opacity:1;"
         offset="0.96944445"
         id="stop3404" /></linearGradient><clipPath
       clipPathUnits="userSpaceOnUse"
       id="clipPath7"><rect
         width="211.70457"
         height="211.70457"
         x="6.7453152e-07"
         y="6.7453152e-07"
         ry="19.468906"
         id="rect7"
         style="stroke-width:0.519786" /></clipPath></defs><g
     id="g1"
     transform="matrix(1.8421897,0,0,1.8421897,45.000014,45.000014)"
     clip-path="none"><rect
       style="fill:url(#radialGradient3408);fill-opacity:1;stroke-width:0.594096;stroke-linecap:round;stroke-linejoin:round"
       id="rect3363"
       width="211.70457"
       height="211.70457"
       x="0"
       y="0"
       inkscape:label="rect3363"
       clip-path="url(#clipPath7)" /><path
       fill-rule="evenodd"
       clip-rule="evenodd"
       d="M 34.405487,100.81928 H 27.063243 V 74.120899 h 6.897189 v 3.337198 c 3.648765,-2.802958 6.496241,-4.049151 9.299752,-4.049151 2.358524,0 4.983552,1.023576 6.18503,4.004652 3.738016,-2.847626 6.585585,-4.004652 9.389003,-4.004652 3.292652,0 6.719072,2.002439 6.719072,8.00953 V 100.81918 H 58.211402 V 83.999427 c 0,-2.225073 -0.934597,-3.114759 -2.358523,-3.114759 -1.246005,0 -2.669743,0.800735 -5.87381,3.29268 V 100.81928 H 42.637182 V 83.999427 c 0,-2.225054 -0.934598,-3.114741 -2.358054,-3.114741 -1.201479,0 -2.669931,0.800717 -5.873641,3.337189 z m 46.054024,0.71196 c 3.604247,0 6.719073,-1.33496 9.122029,-4.227342 V 100.819 h 6.985953 V 74.121143 H 89.58154 v 3.515109 c -2.402956,-2.89235 -5.517782,-4.227306 -9.122029,-4.227306 -7.297173,0 -13.348903,6.274018 -13.348903,14.061148 0,7.787157 6.05173,14.061146 13.348903,14.061146 z M 73.696193,87.470094 c 0,-4.360737 3.5151,-7.876118 7.875836,-7.876118 4.360549,0 7.876024,3.515381 7.876024,7.876118 0,4.360736 -3.515475,7.876023 -7.876024,7.876023 -4.360736,9.4e-5 -7.875836,-3.515287 -7.875836,-7.876023 z m 1.824294,0 c 0,3.381612 2.714363,6.096069 6.051542,6.096069 3.337367,0 6.051824,-2.714363 6.051824,-6.096069 0,-3.381706 -2.714457,-6.096089 -6.051824,-6.096089 -3.337179,1.9e-5 -6.051542,2.714383 -6.051542,6.096089 z m 22.337725,13.349466 h 8.855058 c 2.09117,-3.381613 4.44932,-6.452099 7.16396,-9.344477 2.66984,2.892378 4.8945,5.962864 6.98605,9.344477 h 8.94383 c -3.07002,-4.672051 -6.40814,-9.122029 -10.41256,-13.526824 3.96037,-4.227531 7.34254,-8.588296 10.41256,-13.171462 h -8.76572 c -2.1807,3.381669 -4.53875,6.22952 -7.16416,9.032891 -2.67011,-2.803371 -5.02826,-5.651222 -7.16387,-9.032891 h -8.855148 c 3.025768,4.716625 6.452098,8.943931 10.456998,13.171462 -4.0049,4.404795 -7.43123,8.988166 -10.456998,13.526824 z"
       fill="#ffffff"
       id="path132"
       style="fill:#ffffff;fill-opacity:1;stroke-width:0.93741"
       clip-path="none"
       transform="matrix(1.4852395,0,0,1.4852395,-9.2820687,-24.332279)"
       class="UnoptimicedTransforms" /></g><g
     transform="matrix(0.9575404,0,0,0.9575404,56.964044,51.468806)"
     id="g2" /></svg>
