<?xml version="1.0" encoding="UTF-8"?>
<svg height="128px" viewBox="0 0 128 128" width="128px" xmlns="http://www.w3.org/2000/svg" xmlns:xlink="http://www.w3.org/1999/xlink">
    <linearGradient id="a" gradientUnits="userSpaceOnUse" x1="11.999998" x2="115.999998" y1="66.000004" y2="66.000004">
        <stop offset="0" stop-color="#8c8c8c"/>
        <stop offset="0.0356746" stop-color="#e4e4e4"/>
        <stop offset="0.0730247" stop-color="#8c8c8c"/>
        <stop offset="0.926818" stop-color="#8c8c8c" stop-opacity="0.99"/>
        <stop offset="0.960641" stop-color="#e4e4e4"/>
        <stop offset="1" stop-color="#8c8c8c"/>
    </linearGradient>
    <radialGradient id="b" cx="-750.940002" cy="816.140015" gradientTransform="matrix(-63.004694 32.547016 37.980364 73.360797 -78242.061525 -35439.333321)" gradientUnits="userSpaceOnUse" r="0.91">
        <stop offset="0.62" stop-color="#974cff" stop-opacity="0.898039"/>
        <stop offset="1" stop-color="#5000b0" stop-opacity="0.898039"/>
    </radialGradient>
    <radialGradient id="c" cx="-755.52002" cy="805.619995" gradientTransform="matrix(-57.374159 24.970817 55.25693 126.687333 -87754.116519 -83184.740876)" gradientUnits="userSpaceOnUse" r="0.91">
        <stop offset="0.15" stop-color="#de91ff" stop-opacity="0.6"/>
        <stop offset="0.68" stop-color="#d373fc" stop-opacity="0"/>
    </radialGradient>
    <radialGradient id="d" cx="-740.710022" cy="815.669983" gradientTransform="matrix(-23.899892 31.509777 79.845716 60.440988 -82760.649904 -25954.870516)" gradientUnits="userSpaceOnUse" r="0.91">
        <stop offset="0" stop-color="#ffc7a3" stop-opacity="0.4"/>
        <stop offset="0.83" stop-color="#de67fd" stop-opacity="0"/>
    </radialGradient>
    <linearGradient id="e" gradientTransform="matrix(0.153998 0 0 -0.153998 29.043255 101.035912)" gradientUnits="userSpaceOnUse" x1="225.25" x2="212.190002" y1="128.630005" y2="51.220001">
        <stop offset="0" stop-color="#330072" stop-opacity="0.4"/>
        <stop offset="1" stop-color="#7611f0" stop-opacity="0"/>
    </linearGradient>
    <linearGradient id="f" gradientTransform="matrix(0.153998 0 0 -0.153998 29.043255 101.035912)" gradientUnits="userSpaceOnUse" x1="227" x2="227" y1="117.379997" y2="2.96">
        <stop offset="0" stop-color="#9136f2" stop-opacity="0"/>
        <stop offset="0.84" stop-color="#b76aff" stop-opacity="0.14902"/>
    </linearGradient>
    <linearGradient id="g" gradientTransform="matrix(0.153998 0 0 -0.153998 29.043255 101.035912)" gradientUnits="userSpaceOnUse" x1="123.940002" x2="0.11" y1="110.910004" y2="109.790001">
        <stop offset="0" stop-color="#9136f2" stop-opacity="0"/>
        <stop offset="0.84" stop-color="#b76aff" stop-opacity="0.301961"/>
    </linearGradient>
    <linearGradient id="h" gradientTransform="matrix(0.153998 0 0 -0.153998 29.043255 101.035912)" gradientUnits="userSpaceOnUse" x1="256.51001" x2="442.070007" y1="50.34" y2="-103.150002">
        <stop offset="0" stop-color="#9136f2" stop-opacity="0"/>
        <stop offset="0.84" stop-color="#b76aff" stop-opacity="0.2"/>
    </linearGradient>
    <linearGradient id="i" gradientTransform="matrix(0.153998 0 0 -0.153998 29.043255 101.035912)" gradientUnits="userSpaceOnUse" x1="123.82" x2="-0.01" y1="270.76001" y2="270.76001">
        <stop offset="0" stop-color="#bc80ff" stop-opacity="0"/>
        <stop offset="0.84" stop-color="#ecb4ff"/>
    </linearGradient>
    <linearGradient id="j" gradientTransform="matrix(0.153998 0 0 -0.153998 29.043255 101.035912)" gradientUnits="userSpaceOnUse" x1="303.589996" x2="454" y1="270.76001" y2="270.76001">
        <stop offset="0" stop-color="#bc7fff" stop-opacity="0"/>
        <stop offset="0.84" stop-color="#ecb4ff" stop-opacity="0.8"/>
    </linearGradient>
    <radialGradient id="k" cx="-735.51001" cy="817.830017" gradientTransform="matrix(-25.149207 38.934327 77.794042 50.144283 -82030.62995 -12371.034351)" gradientUnits="userSpaceOnUse" r="0.91">
        <stop offset="0" stop-color="#ffc7a3"/>
        <stop offset="0.83" stop-color="#de67fd" stop-opacity="0"/>
    </radialGradient>
    <linearGradient id="l" gradientTransform="matrix(0.153998 0 0 -0.153998 29.043255 101.035912)" gradientUnits="userSpaceOnUse" x1="231.960007" x2="226.190002" y1="297.769989" y2="158.169998">
        <stop offset="0" stop-color="#6200d5" stop-opacity="0.4"/>
        <stop offset="1" stop-color="#3e008d" stop-opacity="0"/>
    </linearGradient>
    <linearGradient id="m" gradientTransform="matrix(0.153998 0 0 -0.153998 29.043255 101.035912)" gradientUnits="userSpaceOnUse" x1="330.200012" x2="454.040009" y1="177.809998" y2="177.809998">
        <stop offset="0" stop-color="#9b54fd" stop-opacity="0"/>
        <stop offset="0.84" stop-color="#ecb4ff" stop-opacity="0.4"/>
    </linearGradient>
    <linearGradient id="n" gradientTransform="matrix(0.153998 0 0 -0.153998 29.043255 101.035912)" gradientUnits="userSpaceOnUse" x1="123.82" x2="-0.01" y1="182.360001" y2="182.360001">
        <stop offset="0" stop-color="#944ef6" stop-opacity="0"/>
        <stop offset="0.84" stop-color="#ecb4ff" stop-opacity="0.6"/>
    </linearGradient>
    <path d="m 20 16 h 88 c 4.417969 0 8 3.582031 8 8 v 84 c 0 4.417969 -3.582031 8 -8 8 h -88 c -4.417969 0 -8 -3.582031 -8 -8 v -84 c 0 -4.417969 3.582031 -8 8 -8 z m 0 0" fill="url(#a)"/>
    <path d="m 20 12 h 88 c 4.417969 0 8 3.582031 8 8 v 84 c 0 4.417969 -3.582031 8 -8 8 h -88 c -4.417969 0 -8 -3.582031 -8 -8 v -84 c 0 -4.417969 3.582031 -8 8 -8 z m 0 0" fill="#ffffff"/>
    <path d="m 88.222656 23.621094 c 4.195313 -0.742188 8.25 2.042968 9.0625 6.21875 l 0.328125 1.714844 c 0.808594 4.175781 -1.9375 8.164062 -6.128906 8.90625 l -56.960937 10.054687 c -1.957032 0.34375 -3.847657 -0.957031 -4.226563 -2.90625 l -1.113281 -5.746094 c -0.808594 -4.179687 1.9375 -8.164062 6.132812 -8.902343 z m 0 0" fill="#750ff0"/>
    <path d="m 88.222656 23.621094 c 4.195313 -0.742188 8.25 2.042968 9.0625 6.21875 l 0.328125 1.714844 c 0.808594 4.175781 -1.9375 8.164062 -6.128906 8.90625 l -56.960937 10.054687 c -1.957032 0.34375 -3.847657 -0.957031 -4.226563 -2.90625 l -1.113281 -5.746094 c -0.808594 -4.179687 1.9375 -8.164062 6.132812 -8.902343 z m 0 0" fill="url(#b)"/>
    <path d="m 88.222656 23.621094 c 4.195313 -0.742188 8.25 2.042968 9.0625 6.21875 l 0.328125 1.714844 c 0.808594 4.175781 -1.9375 8.164062 -6.128906 8.90625 l -56.960937 10.054687 c -1.957032 0.34375 -3.847657 -0.957031 -4.226563 -2.90625 l -1.113281 -5.746094 c -0.808594 -4.179687 1.9375 -8.164062 6.132812 -8.902343 z m 0 0" fill="url(#c)"/>
    <path d="m 88.222656 23.621094 c 4.195313 -0.742188 8.25 2.042968 9.0625 6.21875 l 0.328125 1.714844 c 0.808594 4.175781 -1.9375 8.164062 -6.128906 8.90625 l -56.960937 10.054687 c -1.957032 0.34375 -3.847657 -0.957031 -4.226563 -2.90625 l -1.113281 -5.746094 c -0.808594 -4.179687 1.9375 -8.164062 6.132812 -8.902343 z m 0 0" fill="url(#d)"/>
    <path d="m 29.042969 91.253906 c 0 5.105469 4.144531 9.246094 9.253906 9.246094 h 51.40625 c 5.109375 0 9.253906 -4.140625 9.253906 -9.246094 v -3.457031 c 0 -5.105469 -4.144531 -9.246094 -9.253906 -9.246094 h -51.40625 c -5.109375 0 -9.253906 -4.136719 -9.253906 -9.246093 v -2.097657 z m 0 0" fill="#750ff0"/>
    <path d="m 29.042969 91.253906 c 0 5.105469 4.144531 9.246094 9.253906 9.246094 h 51.40625 c 5.109375 0 9.253906 -4.140625 9.253906 -9.246094 v -3.457031 c 0 -5.105469 -4.144531 -9.246094 -9.253906 -9.246094 h -51.40625 c -5.109375 0 -9.253906 -4.136719 -9.253906 -9.246093 v -2.097657 z m 0 0" fill="#a866ff" fill-opacity="0.2"/>
    <path d="m 29.042969 91.253906 c 0 5.105469 4.144531 9.246094 9.253906 9.246094 h 51.40625 c 5.109375 0 9.253906 -4.140625 9.253906 -9.246094 v -3.457031 c 0 -5.105469 -4.144531 -9.246094 -9.253906 -9.246094 h -51.40625 c -5.109375 0 -9.253906 -4.136719 -9.253906 -9.246093 v -2.097657 z m 0 0" fill="url(#e)"/>
    <path d="m 29.042969 91.253906 c 0 5.105469 4.144531 9.246094 9.253906 9.246094 h 51.40625 c 5.109375 0 9.253906 -4.140625 9.253906 -9.246094 v -3.457031 c 0 -5.105469 -4.144531 -9.246094 -9.253906 -9.246094 h -51.40625 c -5.109375 0 -9.253906 -4.136719 -9.253906 -9.246093 v -2.097657 z m 0 0" fill="url(#f)"/>
    <path d="m 29.042969 91.253906 c 0 5.105469 4.144531 9.246094 9.253906 9.246094 h 51.40625 c 5.109375 0 9.253906 -4.140625 9.253906 -9.246094 v -3.457031 c 0 -5.105469 -4.144531 -9.246094 -9.253906 -9.246094 h -51.40625 c -5.109375 0 -9.253906 -4.136719 -9.253906 -9.246093 v -2.097657 z m 0 0" fill="url(#g)"/>
    <path d="m 29.042969 91.253906 c 0 5.105469 4.144531 9.246094 9.253906 9.246094 h 51.40625 c 5.109375 0 9.253906 -4.140625 9.253906 -9.246094 v -3.457031 c 0 -5.105469 -4.144531 -9.246094 -9.253906 -9.246094 h -51.40625 c -5.109375 0 -9.253906 -4.136719 -9.253906 -9.246093 v -2.097657 z m 0 0" fill="url(#h)"/>
    <path d="m 29.042969 57.859375 c 0 5.105469 4.144531 9.246094 9.253906 9.246094 h 51.40625 c 5.109375 0 9.253906 4.136719 9.253906 9.242187 v 2.433594 v -21.421875 c 0 -5.105469 -4.144531 -9.246094 -9.253906 -9.246094 h -52.433594 c -4.542969 0 -8.226562 -3.679687 -8.226562 -8.214843 z m 0 0" fill="#ba7dff"/>
    <path d="m 29.042969 57.859375 c 0 5.105469 4.144531 9.246094 9.253906 9.246094 h 51.40625 c 5.109375 0 9.253906 4.136719 9.253906 9.242187 v 2.433594 v -21.421875 c 0 -5.105469 -4.144531 -9.246094 -9.253906 -9.246094 h -52.433594 c -4.542969 0 -8.226562 -3.679687 -8.226562 -8.214843 z m 0 0" fill="url(#i)"/>
    <path d="m 29.042969 57.859375 c 0 5.105469 4.144531 9.246094 9.253906 9.246094 h 51.40625 c 5.109375 0 9.253906 4.136719 9.253906 9.242187 v 2.433594 v -21.421875 c 0 -5.105469 -4.144531 -9.246094 -9.253906 -9.246094 h -52.433594 c -4.542969 0 -8.226562 -3.679687 -8.226562 -8.214843 z m 0 0" fill="url(#j)"/>
    <path d="m 29.042969 57.859375 c 0 5.105469 4.144531 9.246094 9.253906 9.246094 h 51.40625 c 5.109375 0 9.253906 4.136719 9.253906 9.242187 v 2.433594 v -21.421875 c 0 -5.105469 -4.144531 -9.246094 -9.253906 -9.246094 h -52.433594 c -4.542969 0 -8.226562 -3.679687 -8.226562 -8.214843 z m 0 0" fill="url(#k)"/>
    <path d="m 29.042969 73.78125 c 0 5.105469 4.144531 9.246094 9.253906 9.246094 h 52.027344 c 4.765625 0 8.632812 3.859375 8.632812 8.625 c 0 5.699218 0 -7.21875 0 -16.832032 c 0 -5.105468 -4.144531 -9.242187 -9.253906 -9.242187 h -51.40625 c -5.109375 0 -9.253906 -4.140625 -9.253906 -9.246094 v -2.078125 z m 0 0" fill="#974aff"/>
    <path d="m 29.042969 73.78125 c 0 5.105469 4.144531 9.246094 9.253906 9.246094 h 52.027344 c 4.765625 0 8.632812 3.859375 8.632812 8.625 c 0 5.699218 0 -7.21875 0 -16.832032 c 0 -5.105468 -4.144531 -9.242187 -9.253906 -9.242187 h -51.40625 c -5.109375 0 -9.253906 -4.140625 -9.253906 -9.246094 v -2.078125 z m 0 0" fill="#a866ff" fill-opacity="0.34902"/>
    <path d="m 29.042969 73.78125 c 0 5.105469 4.144531 9.246094 9.253906 9.246094 h 52.027344 c 4.765625 0 8.632812 3.859375 8.632812 8.625 c 0 5.699218 0 -7.21875 0 -16.832032 c 0 -5.105468 -4.144531 -9.242187 -9.253906 -9.242187 h -51.40625 c -5.109375 0 -9.253906 -4.140625 -9.253906 -9.246094 v -2.078125 z m 0 0" fill="url(#l)"/>
    <path d="m 29.042969 73.78125 c 0 5.105469 4.144531 9.246094 9.253906 9.246094 h 52.027344 c 4.765625 0 8.632812 3.859375 8.632812 8.625 c 0 5.699218 0 -7.21875 0 -16.832032 c 0 -5.105468 -4.144531 -9.242187 -9.253906 -9.242187 h -51.40625 c -5.109375 0 -9.253906 -4.140625 -9.253906 -9.246094 v -2.078125 z m 0 0" fill="url(#m)"/>
    <path d="m 29.042969 73.78125 c 0 5.105469 4.144531 9.246094 9.253906 9.246094 h 52.027344 c 4.765625 0 8.632812 3.859375 8.632812 8.625 v -16.832032 c 0 -5.105468 -4.144531 -9.242187 -9.253906 -9.242187 h -51.40625 c -5.109375 0 -9.253906 -4.140625 -9.253906 -9.246094 v -2.078125 z m 0 0" fill="url(#n)"/>
</svg>
