<?xml version="1.0" encoding="UTF-8"?>
<svg height="128px" viewBox="0 0 128 128" width="128px" xmlns="http://www.w3.org/2000/svg" xmlns:xlink="http://www.w3.org/1999/xlink">
    <linearGradient id="a" gradientUnits="userSpaceOnUse" x1="11.999998" x2="115.999998" y1="66.000004" y2="66.000004">
        <stop offset="0" stop-color="#8c8c8c"/>
        <stop offset="0.0356746" stop-color="#e4e4e4"/>
        <stop offset="0.0730247" stop-color="#8c8c8c"/>
        <stop offset="0.926818" stop-color="#8c8c8c" stop-opacity="0.99"/>
        <stop offset="0.960641" stop-color="#e4e4e4"/>
        <stop offset="1" stop-color="#8c8c8c"/>
    </linearGradient>
    <radialGradient id="b" cx="-748.950012" cy="775.26001" gradientTransform="matrix(-2.822694 -4.597208 -4.154449 2.551944 1188.869866 -5313.077612)" gradientUnits="userSpaceOnUse" r="13.89">
        <stop offset="0" stop-color="#1a7f7c"/>
        <stop offset="0.45" stop-color="#14717c"/>
        <stop offset="0.8" stop-color="#08567b"/>
    </radialGradient>
    <radialGradient id="c" cx="-774.340027" cy="772.299988" gradientTransform="matrix(-1.84418 -1.739084 -1.343933 1.42515 -338.782379 -2386.056325)" gradientUnits="userSpaceOnUse" r="13.89">
        <stop offset="0" stop-color="#06517b" stop-opacity="0.8"/>
        <stop offset="0.99" stop-color="#06517b" stop-opacity="0"/>
    </radialGradient>
    <linearGradient id="d" gradientTransform="matrix(0.154 0 0 -0.154 21.231119 100.808)" gradientUnits="userSpaceOnUse" x1="98.419998" x2="492.720001" y1="265.380005" y2="493.040009">
        <stop offset="0.23" stop-color="#15b4d5"/>
        <stop offset="1" stop-color="#43e5ca"/>
    </linearGradient>
    <linearGradient id="e" gradientTransform="matrix(0.154 0 0 -0.154 21.231119 100.808)" gradientUnits="userSpaceOnUse" x1="184.190002" x2="69.43" y1="334.959991" y2="334.959991">
        <stop offset="0.18" stop-color="#29cbdc" stop-opacity="0"/>
        <stop offset="1" stop-color="#36dff1"/>
    </linearGradient>
    <linearGradient id="f" gradientTransform="matrix(0.154 0 0 -0.154 21.231119 100.808)" gradientUnits="userSpaceOnUse" x1="305.769989" x2="403.980011" y1="453.73999" y2="311.880005">
        <stop offset="0" stop-color="#119fc5"/>
        <stop offset="1" stop-color="#22918b"/>
    </linearGradient>
    <linearGradient id="g" gradientTransform="matrix(0.154 0 0 -0.154 21.231119 100.808)" gradientUnits="userSpaceOnUse" x1="327.730011" x2="381.299988" y1="422.01001" y2="344.640015">
        <stop offset="0" stop-color="#06517b"/>
        <stop offset="1" stop-color="#1a7f7c"/>
    </linearGradient>
    <linearGradient id="h" gradientTransform="matrix(0.154 0 0 -0.154 21.231119 100.808)" gradientUnits="userSpaceOnUse" x1="314.549988" x2="394.899994" y1="191.050003" y2="74.989998">
        <stop offset="0" stop-color="#119fc5"/>
        <stop offset="1" stop-color="#20ac9d"/>
    </linearGradient>
    <radialGradient id="i" cx="-675.640015" cy="797.47998" gradientTransform="matrix(2.462762 2.463622 2.463192 -2.463192 -278.914879 3689.620972)" gradientUnits="userSpaceOnUse" r="13.89">
        <stop offset="0.06" stop-color="#009bbc"/>
        <stop offset="0.59" stop-color="#01657d"/>
        <stop offset="0.94" stop-color="#014354"/>
    </radialGradient>
    <radialGradient id="j" cx="-657.619995" cy="854.72998" gradientTransform="matrix(0 1.7248 1.9635 0 -1639.544876 1214.659163)" gradientUnits="userSpaceOnUse" r="13.89">
        <stop offset="0.57" stop-color="#1e8581" stop-opacity="0"/>
        <stop offset="0.97" stop-color="#1ecbe6" stop-opacity="0.6"/>
    </radialGradient>
    <path d="m 20 16 h 88 c 4.417969 0 8 3.582031 8 8 v 84 c 0 4.417969 -3.582031 8 -8 8 h -88 c -4.417969 0 -8 -3.582031 -8 -8 v -84 c 0 -4.417969 3.582031 -8 8 -8 z m 0 0" fill="url(#a)"/>
    <path d="m 20 12 h 88 c 4.417969 0 8 3.582031 8 8 v 84 c 0 4.417969 -3.582031 8 -8 8 h -88 c -4.417969 0 -8 -3.582031 -8 -8 v -84 c 0 -4.417969 3.582031 -8 8 -8 z m 0 0" fill="#ffffff"/>
    <path d="m 31.921875 70.554688 c 0 -9.449219 7.660156 -17.109376 17.109375 -17.109376 h 47.046875 v 40.636719 c 0 3.542969 -2.875 6.417969 -6.417969 6.417969 h -44.832031 c -7.125 0 -12.90625 -5.78125 -12.90625 -12.910156 z m 0 0" fill="url(#b)"/>
    <path d="m 31.921875 70.554688 c 0 -9.449219 7.660156 -17.109376 17.109375 -17.109376 h 47.046875 v 40.636719 c 0 3.542969 -2.875 6.417969 -6.417969 6.417969 h -44.832031 c -7.125 0 -12.90625 -5.78125 -12.90625 -12.910156 z m 0 0" fill="url(#c)"/>
    <path d="m 31.921875 36.410156 c 0 -7.128906 5.78125 -12.910156 12.90625 -12.910156 h 44.246094 c 3.867187 0 7 3.132812 7 7 v 24.5 c 0 3.863281 -3.132813 7 -7 7 h -44.246094 c -7.125 0 -12.90625 5.820312 -12.90625 12.949219 z m 0 0" fill="url(#d)"/>
    <path d="m 31.921875 36.410156 c 0 -7.128906 5.78125 -12.910156 12.90625 -12.910156 h 44.246094 c 3.867187 0 7 3.132812 7 7 v 24.5 c 0 3.863281 -3.132813 7 -7 7 h -44.246094 c -7.125 0 -12.90625 5.820312 -12.90625 12.949219 z m 0 0" fill="url(#e)"/>
    <path d="m 75.761719 53.445312 c 6.496093 0 11.761719 -5.269531 11.761719 -11.765624 c 0 -6.496094 -5.265626 -11.765626 -11.761719 -11.765626 c -6.496094 0 -11.761719 5.269532 -11.761719 11.765626 c 0 6.496093 5.265625 11.765624 11.761719 11.765624 z m 0 0" fill="url(#f)"/>
    <path d="m 75.761719 48.097656 c 3.542969 0 6.414062 -2.871094 6.414062 -6.417968 c 0 -3.546876 -2.871093 -6.417969 -6.414062 -6.417969 s -6.417969 2.871093 -6.417969 6.417969 c 0 3.546874 2.875 6.417968 6.417969 6.417968 z m 0 0" fill="url(#g)"/>
    <path d="m 83.632812 70.554688 h -15.746093 c -0.964844 0 -1.75 0.785156 -1.75 1.75 v 15.75 c 0 0.964843 0.785156 1.75 1.75 1.75 h 15.746093 c 0.964844 0 1.75 -0.785157 1.75 -1.75 v -15.75 c 0 -0.96875 -0.785156 -1.75 -1.75 -1.75 z m 0 0" fill="url(#h)"/>
    <path d="m 28.179688 59.859375 h 20.316406 c 3.835937 0 6.949218 3.113281 6.949218 6.953125 v 20.320312 c 0 3.839844 -3.113281 6.949219 -6.949218 6.949219 h -20.316406 c -3.835938 0 -6.949219 -3.109375 -6.949219 -6.949219 v -20.320312 c 0 -3.839844 3.113281 -6.953125 6.949219 -6.953125 z m 0 0" fill="url(#i)"/>
    <path d="m 28.179688 59.859375 h 20.316406 c 3.835937 0 6.949218 3.113281 6.949218 6.953125 v 20.320312 c 0 3.839844 -3.113281 6.949219 -6.949218 6.949219 h -20.316406 c -3.835938 0 -6.949219 -3.109375 -6.949219 -6.949219 v -20.320312 c 0 -3.839844 3.113281 -6.953125 6.949219 -6.953125 z m 0 0" fill="url(#j)"/>
    <path d="m 43.992188 70.84375 h -6.902344 v 4.707031 h 6.34375 v 3.628907 h -6.34375 v 7.570312 h -4.402344 v -19.558594 h 11.304688 v 3.65625 z m 0 0" fill="#ffffff"/>
</svg>
