<?xml version="1.0" encoding="UTF-8"?>
<svg height="128px" viewBox="0 0 128 128" width="128px" xmlns="http://www.w3.org/2000/svg" xmlns:xlink="http://www.w3.org/1999/xlink">
    <linearGradient id="a" gradientUnits="userSpaceOnUse" x1="65.166528" x2="65.166528" y1="28.075254216" y2="64.98659301">
        <stop offset="0" stop-color="#0571bf"/>
        <stop offset="1" stop-color="#0268ba"/>
    </linearGradient>
    <linearGradient id="b" gradientUnits="userSpaceOnUse" x1="41.19845952" x2="41.19845952" y1="44.843802126" y2="88.10883040668">
        <stop offset="0" stop-color="#1684da"/>
        <stop offset="1" stop-color="#107cd4"/>
    </linearGradient>
    <linearGradient id="c" gradientUnits="userSpaceOnUse" x1="97.19862185334" x2="97.19862185334" y1="55.40706564" y2="91.22616798">
        <stop offset="0" stop-color="#138cdd"/>
        <stop offset="1" stop-color="#0c7dd4"/>
    </linearGradient>
    <linearGradient id="d" gradientUnits="userSpaceOnUse" x1="47.96934786534" x2="80.67204130134" y1="67.860567888" y2="108.10975421868">
        <stop offset="0" stop-color="#27a7ea"/>
        <stop offset="1" stop-color="#1c94e3"/>
    </linearGradient>
    <path d="m 65.167969 28 c -18.6875 0 -33.835938 15.148438 -33.835938 33.832031 c 0 18.6875 15.148438 33.835938 33.835938 33.835938 c 18.683593 0 33.832031 -15.148438 33.832031 -33.835938 c 0 -18.683593 -15.148438 -33.832031 -33.832031 -33.832031 z m 0 0" fill="url(#a)"/>
    <path d="m 45.695312 46.601562 c -3.082031 -1.179687 -6.425781 -1.824218 -9.917968 -1.824218 c -15.339844 0 -27.777344 12.4375 -27.777344 27.78125 c 0 5.777344 1.765625 11.136718 4.78125 15.582031 c 0.144531 -0.0625 38.375 -16.074219 61.617188 -25.40625 c -12.84375 -7.742187 -24.625 -14.574219 -28.703126 -16.132813 z m 0 0" fill="url(#b)"/>
    <path d="m 120 77.871094 c 0 -12.40625 -10.058594 -22.464844 -22.464844 -22.464844 c -2.324218 0 -4.566406 0.355469 -6.679687 1.011719 c -2.324219 0.722656 -8.519531 3.128906 -16.457031 6.316406 c 19.546874 11.785156 41.507812 25.660156 42.585937 26.339844 c 1.90625 -3.300781 3.015625 -7.121094 3.015625 -11.203125 z m 0 0" fill="url(#c)"/>
    <path d="m 116.988281 89.074219 c -1.082031 -0.679688 -23.042969 -14.554688 -42.589843 -26.339844 c -23.242188 9.332031 -61.472657 25.34375 -61.617188 25.40625 c 0.976562 1.429687 8.347656 12.191406 22.996094 12.191406 h 61.492187 c 12.625 0 18.410157 -8.992187 19.71875 -11.257812 z m 0 0" fill="url(#d)"/>
</svg>
