<?xml version="1.0" encoding="UTF-8"?>
<svg height="128px" viewBox="0 0 128 128" width="128px" xmlns="http://www.w3.org/2000/svg" xmlns:xlink="http://www.w3.org/1999/xlink">
    <linearGradient id="a" gradientUnits="userSpaceOnUse" x1="11.999998" x2="115.999998" y1="66.000004" y2="66.000004">
        <stop offset="0" stop-color="#8c8c8c"/>
        <stop offset="0.0356746" stop-color="#e4e4e4"/>
        <stop offset="0.0730247" stop-color="#8c8c8c"/>
        <stop offset="0.926818" stop-color="#8c8c8c" stop-opacity="0.99"/>
        <stop offset="0.960641" stop-color="#e4e4e4"/>
        <stop offset="1" stop-color="#8c8c8c"/>
    </linearGradient>
    <radialGradient id="b" cx="0" cy="0" gradientTransform="matrix(15.55027 18.632647 -30.905708 25.793011 27.005607 47.04531)" gradientUnits="userSpaceOnUse" r="1">
        <stop offset="0" stop-color="#4894fe"/>
        <stop offset="0.695072" stop-color="#0934b3"/>
    </radialGradient>
    <radialGradient id="c" cx="0" cy="0" gradientTransform="matrix(-68.359933 78.852869 -58.43061 -50.655261 92.15688 19.103535)" gradientUnits="userSpaceOnUse" r="1">
        <stop offset="0.165327" stop-color="#23c0fe"/>
        <stop offset="0.534" stop-color="#1c91ff"/>
    </radialGradient>
    <radialGradient id="d" cx="0" cy="0" gradientTransform="matrix(-16.249992 -13.642133 31.229741 -37.199683 42.753436 48.427209)" gradientUnits="userSpaceOnUse" r="1">
        <stop offset="0" stop-color="#ffffff" stop-opacity="0.4"/>
        <stop offset="0.660528" stop-color="#adc0ff" stop-opacity="0"/>
    </radialGradient>
    <radialGradient id="e" cx="0" cy="0" gradientTransform="matrix(-18.25639 -15.447514 23.460368 -27.726249 65.824527 73.504394)" gradientUnits="userSpaceOnUse" r="1">
        <stop offset="0" stop-color="#033acc"/>
        <stop offset="1" stop-color="#368eff" stop-opacity="0"/>
    </radialGradient>
    <radialGradient id="f" cx="0" cy="0" gradientTransform="matrix(20.864343 48.148457 -51.979021 22.524254 41.34908 34.785074)" gradientUnits="userSpaceOnUse" r="1">
        <stop offset="0.592618" stop-color="#3464e3" stop-opacity="0"/>
        <stop offset="1" stop-color="#033acc" stop-opacity="0.6"/>
    </radialGradient>
    <radialGradient id="g" cx="0" cy="0" gradientTransform="matrix(-54.580736 54.580736 -85.509609 -85.509609 91.31559 24.553521)" gradientUnits="userSpaceOnUse" r="1">
        <stop offset="0" stop-color="#4bfde8" stop-opacity="0.898039"/>
        <stop offset="0.543937" stop-color="#4bfde8" stop-opacity="0"/>
    </radialGradient>
    <linearGradient id="h" gradientUnits="userSpaceOnUse" x1="74.69396206091" x2="74.69396206091" y1="87.5615204315" y2="52.6547208886">
        <stop offset="0" stop-color="#0086ff"/>
        <stop offset="0.49" stop-color="#00bbff"/>
    </linearGradient>
    <radialGradient id="i" cx="0" cy="0" gradientTransform="matrix(32.513687 12.894353 -24.41757 61.569991 56.453177 56.394023)" gradientUnits="userSpaceOnUse" r="1">
        <stop offset="0" stop-color="#ffffff" stop-opacity="0.4"/>
        <stop offset="0.785262" stop-color="#ffffff" stop-opacity="0"/>
    </radialGradient>
    <radialGradient id="j" cx="0" cy="0" gradientTransform="matrix(-36.323494 31.306064 -31.412188 -36.446629 101.412199 49.494514)" gradientUnits="userSpaceOnUse" r="1">
        <stop offset="0" stop-color="#4bfde8" stop-opacity="0.898039"/>
        <stop offset="0.584724" stop-color="#4bfde8" stop-opacity="0"/>
    </radialGradient>
    <path d="m 20 16 h 88 c 4.417969 0 8 3.582031 8 8 v 84 c 0 4.417969 -3.582031 8 -8 8 h -88 c -4.417969 0 -8 -3.582031 -8 -8 v -84 c 0 -4.417969 3.582031 -8 8 -8 z m 0 0" fill="url(#a)"/>
    <path d="m 20 12 h 88 c 4.417969 0 8 3.582031 8 8 v 84 c 0 4.417969 -3.582031 8 -8 8 h -88 c -4.417969 0 -8 -3.582031 -8 -8 v -84 c 0 -4.417969 3.582031 -8 8 -8 z m 0 0" fill="#ffffff"/>
    <path d="m 46.78125 44.230469 c -11.773438 0 -20.574219 9.636719 -21.234375 20.371093 c 0.410156 2.316407 1.757813 6.882813 3.867187 6.648438 c 2.640626 -0.292969 9.285157 0 14.953126 -10.261719 c 4.140624 -7.496093 12.65625 -16.757812 2.414062 -16.757812 z m 0 0" fill="url(#b)"/>
    <path d="m 44.058594 48.238281 c -3.957032 6.265625 -9.285156 15.242188 -11.082032 18.066407 c -2.136718 3.359374 -7.796874 1.933593 -7.328124 -2.878907 c -0.046876 0.390625 -0.082032 0.785157 -0.105469 1.179688 c -0.773438 12.523437 9.152343 22.921875 21.507812 22.921875 c 13.617188 0 46.09375 -16.964844 42.808594 -33.964844 c -3.464844 -9.992188 -13.203125 -17.160156 -24.234375 -17.160156 c -11.035156 0 -18.105469 6.355468 -21.566406 11.835937 z m 0 0" fill="url(#c)"/>
    <path d="m 44.058594 48.238281 c -3.957032 6.265625 -9.285156 15.242188 -11.082032 18.066407 c -2.136718 3.359374 -7.796874 1.933593 -7.328124 -2.878907 c -0.046876 0.390625 -0.082032 0.785157 -0.105469 1.179688 c -0.773438 12.523437 9.152343 22.921875 21.507812 22.921875 c 13.617188 0 46.09375 -16.964844 42.808594 -33.964844 c -3.464844 -9.992188 -13.203125 -17.160156 -24.234375 -17.160156 c -11.035156 0 -18.105469 6.355468 -21.566406 11.835937 z m 0 0" fill="url(#d)"/>
    <path d="m 44.058594 48.238281 c -3.957032 6.265625 -9.285156 15.242188 -11.082032 18.066407 c -2.136718 3.359374 -7.796874 1.933593 -7.328124 -2.878907 c -0.046876 0.390625 -0.082032 0.785157 -0.105469 1.179688 c -0.773438 12.523437 9.152343 22.921875 21.507812 22.921875 c 13.617188 0 46.09375 -16.964844 42.808594 -33.964844 c -3.464844 -9.992188 -13.203125 -17.160156 -24.234375 -17.160156 c -11.035156 0 -18.105469 6.355468 -21.566406 11.835937 z m 0 0" fill="url(#e)"/>
    <path d="m 44.058594 48.238281 c -3.957032 6.265625 -9.285156 15.242188 -11.082032 18.066407 c -2.136718 3.359374 -7.796874 1.933593 -7.328124 -2.878907 c -0.046876 0.390625 -0.082032 0.785157 -0.105469 1.179688 c -0.773438 12.523437 9.152343 22.921875 21.507812 22.921875 c 13.617188 0 46.09375 -16.964844 42.808594 -33.964844 c -3.464844 -9.992188 -13.203125 -17.160156 -24.234375 -17.160156 c -11.035156 0 -18.105469 6.355468 -21.566406 11.835937 z m 0 0" fill="url(#f)"/>
    <path d="m 44.058594 48.238281 c -3.957032 6.265625 -9.285156 15.242188 -11.082032 18.066407 c -2.136718 3.359374 -7.796874 1.933593 -7.328124 -2.878907 c -0.046876 0.390625 -0.082032 0.785157 -0.105469 1.179688 c -0.773438 12.523437 9.152343 22.921875 21.507812 22.921875 c 13.617188 0 46.09375 -16.964844 42.808594 -33.964844 c -3.464844 -9.992188 -13.203125 -17.160156 -24.234375 -17.160156 c -11.035156 0 -18.105469 6.355468 -21.566406 11.835937 z m 0 0" fill="url(#g)"/>
    <path d="m 46.851562 87.53125 s 32.515626 0.066406 38.03125 0.066406 c 10.007813 0 17.617188 -8.171875 17.617188 -17.707031 s -7.761719 -17.65625 -17.617188 -17.65625 c -9.855468 0 -15.53125 7.375 -19.796874 15.421875 c -4.992188 9.433594 -11.367188 19.765625 -18.234376 19.875 z m 0 0" fill="url(#h)"/>
    <path d="m 46.851562 87.53125 s 32.515626 0.066406 38.03125 0.066406 c 10.007813 0 17.617188 -8.171875 17.617188 -17.707031 s -7.761719 -17.65625 -17.617188 -17.65625 c -9.855468 0 -15.53125 7.375 -19.796874 15.421875 c -4.992188 9.433594 -11.367188 19.765625 -18.234376 19.875 z m 0 0" fill="url(#i)"/>
    <path d="m 46.851562 87.53125 s 32.515626 0.066406 38.03125 0.066406 c 10.007813 0 17.617188 -8.171875 17.617188 -17.707031 s -7.761719 -17.65625 -17.617188 -17.65625 c -9.855468 0 -15.53125 7.375 -19.796874 15.421875 c -4.992188 9.433594 -11.367188 19.765625 -18.234376 19.875 z m 0 0" fill="url(#j)"/>
</svg>
