<?xml version="1.0" encoding="UTF-8"?>
<svg height="128px" viewBox="0 0 128 128" width="128px" xmlns="http://www.w3.org/2000/svg" xmlns:xlink="http://www.w3.org/1999/xlink">
    <linearGradient id="a" gradientUnits="userSpaceOnUse" x1="11.999998" x2="115.999998" y1="66.000004" y2="66.000004">
        <stop offset="0" stop-color="#8c8c8c"/>
        <stop offset="0.0356746" stop-color="#e4e4e4"/>
        <stop offset="0.0730247" stop-color="#8c8c8c"/>
        <stop offset="0.926818" stop-color="#8c8c8c" stop-opacity="0.99"/>
        <stop offset="0.960641" stop-color="#e4e4e4"/>
        <stop offset="1" stop-color="#8c8c8c"/>
    </linearGradient>
    <linearGradient id="b" gradientUnits="userSpaceOnUse" x1="34.0337117034" x2="78.82800649215" y1="58.46951232835" y2="30.68589068225">
        <stop offset="0" stop-color="#20a7fa"/>
        <stop offset="0.4" stop-color="#3bd5ff"/>
        <stop offset="1" stop-color="#c4b0ff"/>
    </linearGradient>
    <linearGradient id="c" gradientUnits="userSpaceOnUse" x1="49.45083734486" x2="74.38774351215" y1="67.9437822975" y2="28.01403301625">
        <stop offset="0" stop-color="#165ad9"/>
        <stop offset="0.5008" stop-color="#1880e5"/>
        <stop offset="1" stop-color="#8587ff"/>
    </linearGradient>
    <linearGradient id="d" gradientUnits="userSpaceOnUse" x1="67.6381609275" x2="39.9523940365" y1="68.48683972086" y2="45.92812215036">
        <stop offset="0.236946" stop-color="#448aff" stop-opacity="0"/>
        <stop offset="0.792113" stop-color="#0032b1" stop-opacity="0.2"/>
    </linearGradient>
    <linearGradient id="e" gradientUnits="userSpaceOnUse" x1="64.115252857" x2="107.86894977229" y1="77.1737971645" y2="49.1714797335">
        <stop offset="0" stop-color="#1a43a6"/>
        <stop offset="0.492267" stop-color="#2052cb"/>
        <stop offset="1" stop-color="#5f20cb"/>
    </linearGradient>
    <linearGradient id="f" gradientUnits="userSpaceOnUse" x1="76.4664988255" x2="49.87924572365" y1="75.49992710264" y2="52.49333757286">
        <stop offset="0" stop-color="#0045b9" stop-opacity="0"/>
        <stop offset="0.669859" stop-color="#0d1f69" stop-opacity="0.2"/>
    </linearGradient>
    <radialGradient id="g" cx="0" cy="0" gradientTransform="matrix(0 -57.754858 62.510602 0 64.004889 25.216689)" gradientUnits="userSpaceOnUse" r="1">
        <stop offset="0.568182" stop-color="#275ff0" stop-opacity="0"/>
        <stop offset="0.992424" stop-color="#002177"/>
    </radialGradient>
    <linearGradient id="h" gradientUnits="userSpaceOnUse" x1="102.49615242886" x2="63.6838458035" y1="74.6781811505" y2="74.6781811505">
        <stop offset="0" stop-color="#4dc4ff"/>
        <stop offset="0.196145" stop-color="#0fafff"/>
    </linearGradient>
    <radialGradient id="i" cx="0" cy="0" gradientTransform="matrix(17.501479 -17.501479 17.501479 17.501479 72.754943 91.72186)" gradientUnits="userSpaceOnUse" r="1">
        <stop offset="0.259477" stop-color="#0060d1" stop-opacity="0.4"/>
        <stop offset="0.908166" stop-color="#0383f1" stop-opacity="0"/>
    </radialGradient>
    <radialGradient id="j" cx="0" cy="0" gradientTransform="matrix(50.962787 -66.795865 60.400489 46.08335 35.407541 110.031101)" gradientUnits="userSpaceOnUse" r="1">
        <stop offset="0.732317" stop-color="#f4a7f7" stop-opacity="0"/>
        <stop offset="1" stop-color="#f4a7f7" stop-opacity="0.5"/>
    </radialGradient>
    <radialGradient id="k" cx="0" cy="0" gradientTransform="matrix(-24.36311 37.034332 -96.108469 -63.225151 52.388767 69.520973)" gradientUnits="userSpaceOnUse" r="1">
        <stop offset="0" stop-color="#49deff"/>
        <stop offset="0.724349" stop-color="#29c3ff"/>
    </radialGradient>
    <linearGradient id="l" gradientUnits="userSpaceOnUse" x1="20.0637374938" x2="57.4328281805" y1="91.63758807765" y2="91.61063850465">
        <stop offset="0.205882" stop-color="#6ce0ff"/>
        <stop offset="0.535" stop-color="#50d5ff" stop-opacity="0"/>
    </linearGradient>
    <radialGradient id="m" cx="0" cy="0" gradientTransform="matrix(30.766314 32.905447 -32.905447 30.766314 21.101831 61.144147)" gradientUnits="userSpaceOnUse" r="1">
        <stop offset="0.038877" stop-color="#0091ff"/>
        <stop offset="0.919119" stop-color="#183dad"/>
    </radialGradient>
    <radialGradient id="n" cx="0" cy="0" gradientTransform="matrix(0 23.955177 -27.631439 0 38.334778 80.668686)" gradientUnits="userSpaceOnUse" r="1">
        <stop offset="0.557796" stop-color="#0fa5f7" stop-opacity="0"/>
        <stop offset="1" stop-color="#74c6ff" stop-opacity="0.5"/>
    </radialGradient>
    <path d="m 20 16 h 88 c 4.417969 0 8 3.582031 8 8 v 84 c 0 4.417969 -3.582031 8 -8 8 h -88 c -4.417969 0 -8 -3.582031 -8 -8 v -84 c 0 -4.417969 3.582031 -8 8 -8 z m 0 0" fill="url(#a)"/>
    <path d="m 20 12 h 88 c 4.417969 0 8 3.582031 8 8 v 84 c 0 4.417969 -3.582031 8 -8 8 h -88 c -4.417969 0 -8 -3.582031 -8 -8 v -84 c 0 -4.417969 3.582031 -8 8 -8 z m 0 0" fill="#ffffff"/>
    <path d="m 78.828125 30.617188 l -49.101563 31.125 l -4.222656 -6.664063 v -5.738281 c 0 -2.089844 1.058594 -4.039063 2.8125 -5.175782 l 28.542969 -18.519531 c 4.347656 -2.824219 9.949219 -2.824219 14.296875 -0.003906 z m 0 0" fill="url(#b)"/>
    <path d="m 70.71875 25.371094 c 0.144531 0.085937 0.292969 0.175781 0.4375 0.269531 l 22.277344 14.449219 l -55.234375 35.011718 l -8.472657 -13.371093 l 40.53125 -25.742188 c 3.839844 -2.441406 4.007813 -7.925781 0.460938 -10.617187 z m 0 0" fill="url(#c)"/>
    <path d="m 70.71875 25.371094 c 0.144531 0.085937 0.292969 0.175781 0.4375 0.269531 l 22.277344 14.449219 l -55.234375 35.011718 l -8.472657 -13.371093 l 40.53125 -25.742188 c 3.839844 -2.441406 4.007813 -7.925781 0.460938 -10.617187 z m 0 0" fill="url(#d)"/>
    <path d="m 60.238281 81.785156 l -22.035156 -6.683594 l 46.847656 -29.699218 c 3.945313 -2.5 3.9375 -8.261719 -0.019531 -10.746094 l -0.210938 -0.132812 l 0.609376 0.375 l 14.257812 9.25 c 1.753906 1.136718 2.8125 3.085937 2.8125 5.175781 v 5.554687 z m 0 0" fill="url(#e)"/>
    <path d="m 60.238281 81.785156 l -22.035156 -6.683594 l 46.847656 -29.699218 c 3.945313 -2.5 3.9375 -8.261719 -0.019531 -10.746094 l -0.210938 -0.132812 l 0.609376 0.375 l 14.257812 9.25 c 1.753906 1.136718 2.8125 3.085937 2.8125 5.175781 v 5.554687 z m 0 0" fill="url(#f)"/>
    <path d="m 71.15625 25.640625 c -4.347656 -2.820313 -9.949219 -2.820313 -14.296875 0.003906 l -28.542969 18.519531 c -1.753906 1.136719 -2.8125 3.085938 -2.8125 5.175782 v 0.28125 c 0.070313 2.097656 1.175782 4.03125 2.957032 5.15625 l 35.488281 22.371094 l 35.578125 -22.339844 c 1.847656 -1.160156 2.972656 -3.1875 2.972656 -5.371094 v 5.445312 v -5.558593 c 0 -2.089844 -1.058594 -4.039063 -2.8125 -5.175781 z m 0 0" fill="url(#g)"/>
    <path d="m 57.695312 100.472656 h 31.433594 c 7.382813 0 13.367188 -5.984375 13.367188 -13.367187 v -37.667969 c 0 2.183594 -1.121094 4.210938 -2.96875 5.371094 l -46.757813 29.359375 c -2.519531 1.582031 -4.050781 4.351562 -4.050781 7.332031 c 0 4.957031 4.019531 8.972656 8.976562 8.972656 z m 0 0" fill="url(#h)"/>
    <path d="m 57.695312 100.472656 h 31.433594 c 7.382813 0 13.367188 -5.984375 13.367188 -13.367187 v -37.667969 c 0 2.183594 -1.121094 4.210938 -2.96875 5.371094 l -46.757813 29.359375 c -2.519531 1.582031 -4.050781 4.351562 -4.050781 7.332031 c 0 4.957031 4.019531 8.972656 8.976562 8.972656 z m 0 0" fill="url(#i)"/>
    <path d="m 57.695312 100.472656 h 31.433594 c 7.382813 0 13.367188 -5.984375 13.367188 -13.367187 v -37.667969 c 0 2.183594 -1.121094 4.210938 -2.96875 5.371094 l -46.757813 29.359375 c -2.519531 1.582031 -4.050781 4.351562 -4.050781 7.332031 c 0 4.957031 4.019531 8.972656 8.976562 8.972656 z m 0 0" fill="url(#j)"/>
    <path d="m 70.476562 100.472656 h -31.609374 c -7.382813 0 -13.367188 -5.988281 -13.367188 -13.371094 v -37.691406 c 0 2.179688 1.117188 4.203125 2.960938 5.363282 l 46.707031 29.449218 c 2.558593 1.613282 4.109375 4.425782 4.109375 7.445313 c 0 4.863281 -3.941406 8.804687 -8.800782 8.804687 z m 0 0" fill="url(#k)"/>
    <path d="m 70.476562 100.472656 h -31.609374 c -7.382813 0 -13.367188 -5.988281 -13.367188 -13.371094 v -37.691406 c 0 2.179688 1.117188 4.203125 2.960938 5.363282 l 46.707031 29.449218 c 2.558593 1.613282 4.109375 4.425782 4.109375 7.445313 c 0 4.863281 -3.941406 8.804687 -8.800782 8.804687 z m 0 0" fill="url(#l)"/>
    <path d="m 28.175781 59.828125 h 20.320313 c 3.835937 0 6.949218 3.113281 6.949218 6.949219 v 20.320312 c 0 3.839844 -3.113281 6.953125 -6.949218 6.953125 h -20.320313 c -3.839843 0 -6.953125 -3.113281 -6.953125 -6.953125 v -20.320312 c 0 -3.835938 3.113282 -6.949219 6.953125 -6.949219 z m 0 0" fill="url(#m)"/>
    <path d="m 28.175781 59.828125 h 20.320313 c 3.835937 0 6.949218 3.113281 6.949218 6.949219 v 20.320312 c 0 3.839844 -3.113281 6.953125 -6.949218 6.953125 h -20.320313 c -3.839843 0 -6.953125 -3.113281 -6.953125 -6.953125 v -20.320312 c 0 -3.835938 3.113282 -6.949219 6.953125 -6.949219 z m 0 0" fill="url(#n)"/>
    <g fill="#ffffff">
        <path d="m 38.246094 86.777344 c -2.828125 0 -5.152344 -0.886719 -6.96875 -2.65625 c -1.816406 -1.769532 -2.722656 -4.078125 -2.722656 -6.929688 c 0 -3.011718 0.921874 -5.445312 2.765624 -7.304687 c 1.84375 -1.855469 4.257813 -2.785157 7.242188 -2.785157 c 2.820312 0 5.117188 0.886719 6.886719 2.667969 c 1.78125 1.777344 2.667969 4.125 2.667969 7.035157 c 0 2.992187 -0.921876 5.40625 -2.765626 7.238281 c -1.832031 1.824219 -4.203124 2.734375 -7.105468 2.734375 z m 0.082031 -3.757813 c 1.542969 0 2.785156 -0.527343 3.726563 -1.578125 c 0.9375 -1.054687 1.410156 -2.519531 1.410156 -4.398437 c 0 -1.953125 -0.457032 -3.476563 -1.371094 -4.566407 c -0.914062 -1.089843 -2.128906 -1.632812 -3.65625 -1.632812 c -1.570312 0 -2.832031 0.5625 -3.792969 1.6875 c -0.957031 1.113281 -1.4375 2.59375 -1.4375 4.433594 c 0 1.867187 0.480469 3.347656 1.4375 4.433594 c 0.960938 1.082031 2.1875 1.621093 3.683594 1.621093 z m 0 0"/>
        <path d="m 38.238281 87.042969 c -2.816406 0 -5.132812 -0.910157 -6.941406 -2.730469 c -1.808594 -1.816406 -2.714844 -4.191406 -2.714844 -7.117188 c 0 -3.09375 0.917969 -5.59375 2.753907 -7.503906 c 1.839843 -1.910156 4.242187 -2.863281 7.21875 -2.863281 c 2.808593 0 5.09375 0.914063 6.859374 2.742187 c 1.773438 1.828126 2.660157 4.234376 2.660157 7.226563 c 0 3.074219 -0.917969 5.550781 -2.757813 7.433594 c -1.824218 1.875 -4.183594 2.8125 -7.078125 2.8125 z m 0.082031 -3.863281 c 1.539063 0 2.773438 -0.539063 3.710938 -1.621094 c 0.9375 -1.082032 1.40625 -2.585938 1.40625 -4.515625 c 0 -2.007813 -0.457031 -3.574219 -1.367188 -4.691407 c -0.90625 -1.117187 -2.121093 -1.675781 -3.640624 -1.675781 c -1.5625 0 -2.824219 0.574219 -3.777344 1.730469 c -0.953125 1.144531 -1.433594 2.664062 -1.433594 4.554688 c 0 1.917968 0.480469 3.4375 1.433594 4.554687 c 0.953125 1.109375 2.175781 1.664063 3.667968 1.664063 z m 0 0"/>
    </g>
</svg>
