<?xml version="1.0" encoding="UTF-8"?>
<svg height="128px" viewBox="0 0 128 128" width="128px" xmlns="http://www.w3.org/2000/svg" xmlns:xlink="http://www.w3.org/1999/xlink">
    <linearGradient id="a" gradientUnits="userSpaceOnUse" x1="11.999998" x2="115.999998" y1="66.000004" y2="66.000004">
        <stop offset="0" stop-color="#8c8c8c"/>
        <stop offset="0.0356746" stop-color="#e4e4e4"/>
        <stop offset="0.0730247" stop-color="#8c8c8c"/>
        <stop offset="0.926818" stop-color="#8c8c8c" stop-opacity="0.99"/>
        <stop offset="0.960641" stop-color="#e4e4e4"/>
        <stop offset="1" stop-color="#8c8c8c"/>
    </linearGradient>
    <linearGradient id="b" gradientTransform="matrix(0.159091 0 0 -0.159091 22.944206 100.818181)" gradientUnits="userSpaceOnUse" x1="373.790009" x2="77.330002" y1="354.730011" y2="71.120003">
        <stop offset="0.06" stop-color="#ff7f48"/>
        <stop offset="1" stop-color="#e5495b"/>
    </linearGradient>
    <radialGradient id="c" cx="-719.820007" cy="799.200012" gradientTransform="matrix(-4.23467 4.236148 7.128527 7.128995 -8665.759658 -2603.068492)" gradientUnits="userSpaceOnUse" r="12.9">
        <stop offset="0.15" stop-color="#aa1d2d"/>
        <stop offset="0.38" stop-color="#d12b18" stop-opacity="0.44"/>
        <stop offset="0.6" stop-color="#ff3c00" stop-opacity="0"/>
    </radialGradient>
    <radialGradient id="d" cx="-700.460022" cy="769.02002" gradientTransform="matrix(5.133763 -2.425622 -4.392737 -9.301746 6985.985902 5548.103244)" gradientUnits="userSpaceOnUse" r="12.9">
        <stop offset="0.41" stop-color="#ff66fb" stop-opacity="0.5"/>
        <stop offset="1" stop-color="#ea3d01" stop-opacity="0"/>
    </radialGradient>
    <linearGradient id="e" gradientTransform="matrix(0.159091 0 0 -0.159091 22.944206 100.818181)" gradientUnits="userSpaceOnUse" x1="256.5" x2="516.909973" y1="254.070007" y2="447.079987">
        <stop offset="0.31" stop-color="#ff6e30"/>
        <stop offset="0.63" stop-color="#ffa05c"/>
    </linearGradient>
    <radialGradient id="f" cx="-667.25" cy="768.090027" gradientTransform="matrix(3.774317 0.791246 0.754361 -3.598369 1996.778712 3358.815373)" gradientUnits="userSpaceOnUse" r="12.9">
        <stop offset="0.79" stop-color="#ffa05c" stop-opacity="0"/>
        <stop offset="0.9" stop-color="#ffce84"/>
    </radialGradient>
    <radialGradient id="g" cx="-687.330017" cy="742.47998" gradientTransform="matrix(3.258816 -2.13251 -2.038731 -3.116749 3818.682956 909.773145)" gradientUnits="userSpaceOnUse" r="12.9">
        <stop offset="0.3" stop-color="#ff99e9" stop-opacity="0.8"/>
        <stop offset="0.73" stop-color="#ff99e9" stop-opacity="0"/>
    </radialGradient>
    <radialGradient id="h" cx="-700.97998" cy="738.880005" gradientTransform="matrix(2.727054 -3.122778 -2.851485 -2.4911 4078.462559 -281.147958)" gradientUnits="userSpaceOnUse" r="12.9">
        <stop offset="0" stop-color="#fd6ef9" stop-opacity="0.6"/>
        <stop offset="0.64" stop-color="#ff9944" stop-opacity="0.6"/>
        <stop offset="0.85" stop-color="#fcc479" stop-opacity="0.6"/>
    </radialGradient>
    <radialGradient id="i" cx="-694.280029" cy="814.179993" gradientTransform="matrix(-0.308037 2.088543 4.718501 0.695926 -3998.74651 911.255922)" gradientUnits="userSpaceOnUse" r="12.9">
        <stop offset="0.14" stop-color="#ff8d13"/>
        <stop offset="0.54" stop-color="#ff7f29" stop-opacity="0"/>
    </radialGradient>
    <radialGradient id="j" cx="-670.640015" cy="789.289978" gradientTransform="matrix(2.545301 2.546189 2.545745 -2.545745 -279.070789 3777.027147)" gradientUnits="userSpaceOnUse" r="12.9">
        <stop offset="0" stop-color="#f8193e"/>
        <stop offset="0.94" stop-color="#920616"/>
    </radialGradient>
    <radialGradient id="k" cx="-653.25" cy="845.710022" gradientTransform="matrix(0 1.781818 2.028409 0 -1676.087792 1243.915007)" gradientUnits="userSpaceOnUse" r="12.9">
        <stop offset="0.58" stop-color="#ffb055" stop-opacity="0"/>
        <stop offset="0.97" stop-color="#fff2be" stop-opacity="0.3"/>
    </radialGradient>
    <path d="m 20 16 h 88 c 4.417969 0 8 3.582031 8 8 v 84 c 0 4.417969 -3.582031 8 -8 8 h -88 c -4.417969 0 -8 -3.582031 -8 -8 v -84 c 0 -4.417969 3.582031 -8 8 -8 z m 0 0" fill="url(#a)"/>
    <path d="m 20 12 h 88 c 4.417969 0 8 3.582031 8 8 v 84 c 0 4.417969 -3.582031 8 -8 8 h -88 c -4.417969 0 -8 -3.582031 -8 -8 v -84 c 0 -4.417969 3.582031 -8 8 -8 z m 0 0" fill="#ffffff"/>
    <path d="m 102.484375 62 c 0 21.261719 -17.230469 38.5 -38.488281 38.5 c -21.253906 0 -38.484375 -17.238281 -38.484375 -38.5 s 17.230469 -38.5 38.484375 -38.5 c 21.257812 0 38.488281 17.238281 38.488281 38.5 z m 0 0" fill="url(#b)"/>
    <path d="m 102.484375 62 c 0 21.261719 -17.230469 38.5 -38.488281 38.5 c -21.253906 0 -38.484375 -17.238281 -38.484375 -38.5 s 17.230469 -38.5 38.484375 -38.5 c 21.257812 0 38.488281 17.238281 38.488281 38.5 z m 0 0" fill="url(#c)"/>
    <path d="m 102.484375 62 c 0 21.261719 -17.230469 38.5 -38.488281 38.5 c -21.253906 0 -38.484375 -17.238281 -38.484375 -38.5 s 17.230469 -38.5 38.484375 -38.5 c 21.257812 0 38.488281 17.238281 38.488281 38.5 z m 0 0" fill="url(#d)"/>
    <path d="m 64.003906 23.5 c 21.253906 0 38.484375 17.238281 38.484375 38.5 c 0 7.074219 -1.910156 13.699219 -5.238281 19.394531 l 0.625 -1.386719 c 3.808594 -8.457031 -2.378906 -18.03125 -11.65625 -18.023437 l -15.320312 0.011719 c -3.808594 0.003906 -6.898438 -3.085938 -6.898438 -6.894532 v -15.351562 c 0 -9.28125 -9.578125 -15.464844 -18.035156 -11.644531 l -1.230469 0.558593 c 5.667969 -3.285156 12.25 -5.164062 19.269531 -5.164062 z m 0 0" fill="url(#e)"/>
    <path d="m 64.003906 23.5 c 21.253906 0 38.484375 17.238281 38.484375 38.5 c 0 7.074219 -1.910156 13.699219 -5.238281 19.394531 l 0.625 -1.386719 c 3.808594 -8.457031 -2.378906 -18.03125 -11.65625 -18.023437 l -15.320312 0.011719 c -3.808594 0.003906 -6.898438 -3.085938 -6.898438 -6.894532 v -15.351562 c 0 -9.28125 -9.578125 -15.464844 -18.035156 -11.644531 l -1.230469 0.558593 c 5.667969 -3.285156 12.25 -5.164062 19.269531 -5.164062 z m 0 0" fill="url(#f)"/>
    <path d="m 64.003906 23.5 c 21.253906 0 38.484375 17.238281 38.484375 38.5 c 0 7.074219 -1.910156 13.699219 -5.238281 19.394531 l 0.625 -1.386719 c 3.808594 -8.457031 -2.378906 -18.03125 -11.65625 -18.023437 l -15.320312 0.011719 c -3.808594 0.003906 -6.898438 -3.085938 -6.898438 -6.894532 v -15.351562 c 0 -9.28125 -9.578125 -15.464844 -18.035156 -11.644531 l -1.230469 0.558593 c 5.667969 -3.285156 12.25 -5.164062 19.269531 -5.164062 z m 0 0" fill="url(#g)"/>
    <path d="m 64.003906 23.5 c 21.253906 0 38.484375 17.238281 38.484375 38.5 c 0 7.074219 -1.910156 13.699219 -5.238281 19.394531 l 0.625 -1.386719 c 3.808594 -8.457031 -2.378906 -18.03125 -11.65625 -18.023437 l -15.320312 0.011719 c -3.808594 0.003906 -6.898438 -3.085938 -6.898438 -6.894532 v -15.351562 c 0 -9.28125 -9.578125 -15.464844 -18.035156 -11.644531 l -1.230469 0.558593 c 5.667969 -3.285156 12.25 -5.164062 19.269531 -5.164062 z m 0 0" fill="url(#h)"/>
    <path d="m 64.003906 23.5 c 21.253906 0 38.484375 17.238281 38.484375 38.5 c 0 7.074219 -1.910156 13.699219 -5.238281 19.394531 l 0.625 -1.386719 c 3.808594 -8.457031 -2.378906 -18.03125 -11.65625 -18.023437 l -15.320312 0.011719 c -3.808594 0.003906 -6.898438 -3.085938 -6.898438 -6.894532 v -15.351562 c 0 -9.28125 -9.578125 -15.464844 -18.035156 -11.644531 l -1.230469 0.558593 c 5.667969 -3.285156 12.25 -5.164062 19.269531 -5.164062 z m 0 0" fill="url(#i)"/>
    <path d="m 29.617188 59.945312 h 19.5 c 3.6875 0 6.671874 2.988282 6.671874 6.671876 v 19.511718 c 0 3.683594 -2.984374 6.671875 -6.671874 6.671875 h -19.5 c -3.6875 0 -6.671876 -2.988281 -6.671876 -6.671875 v -19.511718 c 0 -3.683594 2.984376 -6.671876 6.671876 -6.671876 z m 0 0" fill="url(#j)"/>
    <path d="m 29.617188 59.945312 h 19.5 c 3.6875 0 6.671874 2.988282 6.671874 6.671876 v 19.511718 c 0 3.683594 -2.984374 6.671875 -6.671874 6.671875 h -19.5 c -3.6875 0 -6.671876 -2.988281 -6.671876 -6.671875 v -19.511718 c 0 -3.683594 2.984376 -6.671876 6.671876 -6.671876 z m 0 0" fill="url(#k)"/>
    <path d="m 37.765625 79.644531 v 6.117188 h -4.226563 v -18.773438 h 6.527344 c 2.335938 0 4.117188 0.511719 5.339844 1.53125 c 1.226562 1.019531 1.84375 2.535157 1.84375 4.542969 c 0 2.003906 -0.6875 3.683594 -2.066406 4.84375 c -1.371094 1.160156 -3.207032 1.738281 -5.519532 1.738281 z m 0 -9.410156 v 6.164063 h 1.765625 c 1.046875 0 1.851562 -0.273438 2.417969 -0.824219 c 0.566406 -0.550781 0.851562 -1.339844 0.851562 -2.367188 c 0 -0.953125 -0.277343 -1.683593 -0.835937 -2.199219 c -0.546875 -0.515624 -1.339844 -0.773437 -2.367188 -0.773437 z m 0 0" fill="#ffffff"/>
</svg>
