<?xml version="1.0" encoding="UTF-8"?>
<svg height="128px" viewBox="0 0 128 128" width="128px" xmlns="http://www.w3.org/2000/svg" xmlns:xlink="http://www.w3.org/1999/xlink">
    <linearGradient id="a" gradientUnits="userSpaceOnUse" x1="11.999998" x2="115.999998" y1="66.000004" y2="66.000004">
        <stop offset="0" stop-color="#8c8c8c"/>
        <stop offset="0.0356746" stop-color="#e4e4e4"/>
        <stop offset="0.0730247" stop-color="#8c8c8c"/>
        <stop offset="0.926818" stop-color="#8c8c8c" stop-opacity="0.99"/>
        <stop offset="0.960641" stop-color="#e4e4e4"/>
        <stop offset="1" stop-color="#8c8c8c"/>
    </linearGradient>
    <linearGradient id="b" gradientTransform="matrix(0.154 0 0 -0.154 26.457989 100.808)" gradientUnits="userSpaceOnUse" x1="92.18" x2="292.290009" y1="477.480011" y2="214.839996">
        <stop offset="0" stop-color="#00e3df"/>
        <stop offset="0.41" stop-color="#0097a8"/>
        <stop offset="1" stop-color="#007791"/>
    </linearGradient>
    <radialGradient id="c" cx="-777.140015" cy="770.840027" gradientTransform="matrix(-15.095395 -36.479516 -65.689548 27.100618 38968.149028 -49163.132421)" gradientUnits="userSpaceOnUse" r="0.9">
        <stop offset="0.29" stop-color="#003b5d" stop-opacity="0.2"/>
        <stop offset="0.61" stop-color="#004a6c" stop-opacity="0.138039"/>
        <stop offset="0.97" stop-color="#006f94" stop-opacity="0"/>
    </radialGradient>
    <radialGradient id="d" cx="-785.22998" cy="766.900024" gradientTransform="matrix(-12.53077 -30.875028 -55.529764 22.467964 32806.240905 -41411.335525)" gradientUnits="userSpaceOnUse" r="0.9">
        <stop offset="0.26" stop-color="#002a42" stop-opacity="0.309804"/>
        <stop offset="0.61" stop-color="#004261" stop-opacity="0.213825"/>
        <stop offset="0.97" stop-color="#006f94" stop-opacity="0"/>
    </radialGradient>
    <linearGradient id="e" gradientUnits="userSpaceOnUse">
        <stop offset="0" stop-color="#78edff" stop-opacity="0.698039"/>
        <stop offset="1" stop-color="#2ccfca" stop-opacity="0"/>
    </linearGradient>
    <radialGradient id="f" cx="-739.840027" cy="872.710022" gradientTransform="matrix(-15.790101 22.983337 23.018075 15.766731 -31701.314839 3272.009971)" r="0.9" xlink:href="#e"/>
    <linearGradient id="g" gradientTransform="matrix(0.154 0 0 -0.154 26.457989 100.808)" gradientUnits="userSpaceOnUse" x1="245.139999" x2="411.899994" y1="331.570007" y2="112.699997">
        <stop offset="0" stop-color="#00e3df"/>
        <stop offset="0.48" stop-color="#00a2b8"/>
        <stop offset="0.95" stop-color="#00637c"/>
    </linearGradient>
    <radialGradient id="h" cx="-746.380005" cy="743.75" gradientTransform="matrix(8.717524 -24.991171 -45.097331 -15.682113 40112.082678 -6909.464462)" gradientUnits="userSpaceOnUse" r="0.9">
        <stop offset="0" stop-color="#003b5d" stop-opacity="0.501961"/>
        <stop offset="0.49" stop-color="#004c6c" stop-opacity="0.362199"/>
        <stop offset="0.97" stop-color="#007a86" stop-opacity="0"/>
    </radialGradient>
    <radialGradient id="i" cx="-741.460022" cy="888.909973" gradientTransform="matrix(-13.158273 19.152567 19.181094 13.138507 -26719.597741 2571.722646)" r="0.9" xlink:href="#e"/>
    <linearGradient id="j" gradientTransform="matrix(0.154 0 0 -0.154 26.457989 100.808)" gradientUnits="userSpaceOnUse" x1="153.419998" x2="259.709991" y1="214.529999" y2="1.97">
        <stop offset="0.05" stop-color="#75fff6"/>
        <stop offset="0.51" stop-color="#00c7d1"/>
        <stop offset="0.96" stop-color="#0096ad"/>
    </linearGradient>
    <linearGradient id="k" gradientTransform="matrix(0.154 0 0 -0.154 26.457989 100.808)" gradientUnits="userSpaceOnUse" x1="292.440002" x2="235.630005" y1="-12.27" y2="67.449997">
        <stop offset="0.26" stop-color="#0e5a5d" stop-opacity="0.321569"/>
        <stop offset="0.54" stop-color="#126c6b" stop-opacity="0.221945"/>
        <stop offset="0.97" stop-color="#1c948a" stop-opacity="0"/>
    </linearGradient>
    <radialGradient id="l" cx="-686.599976" cy="804.179993" gradientTransform="matrix(34.324597 34.276704 34.330622 -34.270757 -4009.600157 51155.431535)" gradientUnits="userSpaceOnUse" r="0.9">
        <stop offset="0.06" stop-color="#00b6bd"/>
        <stop offset="0.89" stop-color="#00495c"/>
    </radialGradient>
    <radialGradient id="m" cx="-686.070007" cy="864.409973" gradientTransform="matrix(0 23.991659 27.353479 0 -23603.169539 16538.712567)" gradientUnits="userSpaceOnUse" r="0.9">
        <stop offset="0.57" stop-color="#1e8581" stop-opacity="0"/>
        <stop offset="0.97" stop-color="#1ecbe6" stop-opacity="0.6"/>
    </radialGradient>
    <path d="m 20 16 h 88 c 4.417969 0 8 3.582031 8 8 v 84 c 0 4.417969 -3.582031 8 -8 8 h -88 c -4.417969 0 -8 -3.582031 -8 -8 v -84 c 0 -4.417969 3.582031 -8 8 -8 z m 0 0" fill="url(#a)"/>
    <path d="m 20 12 h 88 c 4.417969 0 8 3.582031 8 8 v 84 c 0 4.417969 -3.582031 8 -8 8 h -88 c -4.417969 0 -8 -3.582031 -8 -8 v -84 c 0 -4.417969 3.582031 -8 8 -8 z m 0 0" fill="#ffffff"/>
    <path d="m 55.378906 69.699219 c 12.777344 0 23.132813 -10.34375 23.132813 -23.097657 c 0 -12.757812 -10.359375 -23.101562 -23.132813 -23.101562 c -12.777344 0 -23.136718 10.34375 -23.136718 23.101562 c 0 12.753907 10.359374 23.097657 23.136718 23.097657 z m 0 0" fill="url(#b)"/>
    <path d="m 55.378906 69.699219 c 12.777344 0 23.132813 -10.34375 23.132813 -23.097657 c 0 -12.757812 -10.359375 -23.101562 -23.132813 -23.101562 c -12.777344 0 -23.136718 10.34375 -23.136718 23.101562 c 0 12.753907 10.359374 23.097657 23.136718 23.097657 z m 0 0" fill="url(#c)"/>
    <path d="m 55.378906 69.699219 c 12.777344 0 23.132813 -10.34375 23.132813 -23.097657 c 0 -12.757812 -10.359375 -23.101562 -23.132813 -23.101562 c -12.777344 0 -23.136718 10.34375 -23.136718 23.101562 c 0 12.753907 10.359374 23.097657 23.136718 23.097657 z m 0 0" fill="url(#d)"/>
    <path d="m 55.378906 69.699219 c 12.777344 0 23.132813 -10.34375 23.132813 -23.097657 c 0 -12.757812 -10.359375 -23.101562 -23.132813 -23.101562 c -12.777344 0 -23.136718 10.34375 -23.136718 23.101562 c 0 12.753907 10.359374 23.097657 23.136718 23.097657 z m 0 0" fill="url(#f)"/>
    <path d="m 76.476562 85.101562 c 10.648438 0 19.28125 -8.621093 19.28125 -19.25 c 0 -10.632812 -8.632812 -19.25 -19.28125 -19.25 c -10.644531 0 -19.277343 8.617188 -19.277343 19.25 c 0 10.628907 8.632812 19.25 19.277343 19.25 z m 0 0" fill="url(#g)"/>
    <path d="m 76.476562 85.101562 c 10.648438 0 19.28125 -8.621093 19.28125 -19.25 c 0 -10.632812 -8.632812 -19.25 -19.28125 -19.25 c -10.644531 0 -19.277343 8.617188 -19.277343 19.25 c 0 10.628907 8.632812 19.25 19.277343 19.25 z m 0 0" fill="url(#h)"/>
    <path d="m 76.476562 85.101562 c 10.648438 0 19.28125 -8.621093 19.28125 -19.25 c 0 -10.632812 -8.632812 -19.25 -19.28125 -19.25 c -10.644531 0 -19.277343 8.617188 -19.277343 19.25 c 0 10.628907 8.632812 19.25 19.277343 19.25 z m 0 0" fill="url(#i)"/>
    <path d="m 58.269531 100.5 c 9.050781 0 16.386719 -7.324219 16.386719 -16.363281 c 0 -9.035157 -7.335938 -16.363281 -16.386719 -16.363281 s -16.390625 7.328124 -16.390625 16.363281 c 0 9.039062 7.339844 16.363281 16.390625 16.363281 z m 0 0" fill="url(#j)"/>
    <path d="m 58.269531 100.5 c 9.050781 0 16.386719 -7.324219 16.386719 -16.363281 c 0 -9.035157 -7.335938 -16.363281 -16.386719 -16.363281 s -16.390625 7.328124 -16.390625 16.363281 c 0 9.039062 7.339844 16.363281 16.390625 16.363281 z m 0 0" fill="url(#k)"/>
    <path d="m 32.71875 60.074219 h 18.324219 c 3.457031 0 6.261719 2.804687 6.261719 6.261719 v 18.277343 c 0 3.457031 -2.804688 6.261719 -6.261719 6.261719 h -18.324219 c -3.457031 0 -6.261719 -2.804688 -6.261719 -6.261719 v -18.277343 c 0 -3.457032 2.804688 -6.261719 6.261719 -6.261719 z m 0 0" fill="url(#l)"/>
    <path d="m 32.71875 60.074219 h 18.324219 c 3.457031 0 6.261719 2.804687 6.261719 6.261719 v 18.277343 c 0 3.457031 -2.804688 6.261719 -6.261719 6.261719 h -18.324219 c -3.457031 0 -6.261719 -2.804688 -6.261719 -6.261719 v -18.277343 c 0 -3.457032 2.804688 -6.261719 6.261719 -6.261719 z m 0 0" fill="url(#m)"/>
    <path d="m 35.234375 80.8125 l 3.347656 -1.746094 c 0.375 0.761719 0.867188 1.324219 1.472657 1.683594 c 0.617187 0.359375 1.289062 0.539062 2.015624 0.539062 c 0.8125 0 1.433594 -0.164062 1.859376 -0.492187 c 0.425781 -0.332031 0.636718 -0.835937 0.636718 -1.507813 c 0 -0.523437 -0.203125 -0.964843 -0.613281 -1.324218 c -0.410156 -0.371094 -1.136719 -0.648438 -2.175781 -0.835938 c -1.984375 -0.359375 -3.425782 -0.992187 -4.328125 -1.890625 c -0.894531 -0.902343 -1.339844 -2.023437 -1.339844 -3.363281 c 0 -1.667969 0.589844 -3.003906 1.769531 -4.003906 c 1.179688 -0.996094 2.738282 -1.496094 4.675782 -1.496094 c 1.300781 0 2.449218 0.265625 3.441406 0.796875 c 0.988281 0.53125 1.777344 1.292969 2.359375 2.285156 l -3.269531 1.679688 c -0.359376 -0.554688 -0.75 -0.957031 -1.167969 -1.199219 c -0.417969 -0.257812 -0.941407 -0.382812 -1.574219 -0.382812 c -0.753906 0 -1.328125 0.164062 -1.722656 0.492187 c -0.382813 0.328125 -0.574219 0.753906 -0.574219 1.277344 c 0 0.449219 0.183594 0.847656 0.550781 1.1875 c 0.378906 0.335937 1.132813 0.613281 2.261719 0.824219 c 1.902344 0.359374 3.320313 1.015624 4.253906 1.964843 c 0.941407 0.941407 1.414063 2.132813 1.414063 3.574219 c 0 1.75 -0.5625 3.136719 -1.683594 4.160156 c -1.125 1.023438 -2.726562 1.535156 -4.808594 1.535156 c -1.507812 0 -2.867187 -0.328124 -4.078125 -0.984374 c -1.207031 -0.660157 -2.109375 -1.585938 -2.71875 -2.773438 z m 0 0" fill="#ffffff"/>
</svg>
