<?xml version="1.0" encoding="UTF-8"?>
<svg height="128px" viewBox="0 0 128 128" width="128px" xmlns="http://www.w3.org/2000/svg" xmlns:xlink="http://www.w3.org/1999/xlink">
    <linearGradient id="a" gradientUnits="userSpaceOnUse" x1="11.999998" x2="115.999998" y1="66.000004" y2="66.000004">
        <stop offset="0" stop-color="#8c8c8c"/>
        <stop offset="0.0356746" stop-color="#e4e4e4"/>
        <stop offset="0.0730247" stop-color="#8c8c8c"/>
        <stop offset="0.926818" stop-color="#8c8c8c" stop-opacity="0.99"/>
        <stop offset="0.960641" stop-color="#e4e4e4"/>
        <stop offset="1" stop-color="#8c8c8c"/>
    </linearGradient>
    <linearGradient id="b" gradientUnits="userSpaceOnUse" x1="48.04964874029" x2="95.90054689294" y1="85.92542501166" y2="38.07452443098">
        <stop offset="0" stop-color="#2987e6" stop-opacity="0.8"/>
        <stop offset="0.994" stop-color="#58c1f5" stop-opacity="0.8"/>
    </linearGradient>
    <path d="m 20 16 h 88 c 4.417969 0 8 3.582031 8 8 v 84 c 0 4.417969 -3.582031 8 -8 8 h -88 c -4.417969 0 -8 -3.582031 -8 -8 v -84 c 0 -4.417969 3.582031 -8 8 -8 z m 0 0" fill="url(#a)"/>
    <path d="m 20 12 h 88 c 4.417969 0 8 3.582031 8 8 v 84 c 0 4.417969 -3.582031 8 -8 8 h -88 c -4.417969 0 -8 -3.582031 -8 -8 v -84 c 0 -4.417969 3.582031 -8 8 -8 z m 0 0" fill="#ffffff"/>
    <path d="m 26.476562 59.644531 l 11.246094 -11.242187 c 1.296875 -1.300782 3.40625 -1.300782 4.707032 0 l 27.191406 27.195312 c 1.300781 1.300782 1.300781 3.40625 0 4.707032 l -11.242188 11.242187 c -1.300781 1.300781 -3.40625 1.300781 -4.707031 0 l -27.195313 -27.191406 c -1.296874 -1.300781 -1.296874 -3.410157 0 -4.710938 z m 0 0" fill="#195abd"/>
    <path d="m 90.277344 32.453125 l 11.246094 11.242187 c 1.296874 1.300782 1.296874 3.40625 0 4.707032 l -43.144532 43.144531 c -1.300781 1.300781 -3.40625 1.300781 -4.707031 0 l -11.242187 -11.242187 c -1.300782 -1.300782 -1.300782 -3.410157 0 -4.707032 l 43.140624 -43.144531 c 1.300782 -1.300781 3.410157 -1.300781 4.707032 0 z m 0 0" fill="url(#b)"/>
</svg>
