<?xml version="1.0" encoding="UTF-8"?>
<svg height="128px" viewBox="0 0 128 128" width="128px" xmlns="http://www.w3.org/2000/svg" xmlns:xlink="http://www.w3.org/1999/xlink">
    <linearGradient id="a" gradientUnits="userSpaceOnUse" x1="11.999998" x2="115.999998" y1="66.000004" y2="66.000004">
        <stop offset="0" stop-color="#8c8c8c"/>
        <stop offset="0.0356746" stop-color="#e4e4e4"/>
        <stop offset="0.0730247" stop-color="#8c8c8c"/>
        <stop offset="0.926818" stop-color="#8c8c8c" stop-opacity="0.99"/>
        <stop offset="0.960641" stop-color="#e4e4e4"/>
        <stop offset="1" stop-color="#8c8c8c"/>
    </linearGradient>
    <radialGradient id="b" cx="71.599998" cy="81.999619" gradientTransform="matrix(1 0 0 0.951055 -7.599998 -11.986532)" gradientUnits="userSpaceOnUse" r="38.5">
        <stop offset="0" stop-color="#2aacfe" stop-opacity="0.25"/>
        <stop offset="1" stop-color="#2a89fe"/>
    </radialGradient>
    <path d="m 20 16 h 88 c 4.417969 0 8 3.582031 8 8 v 84 c 0 4.417969 -3.582031 8 -8 8 h -88 c -4.417969 0 -8 -3.582031 -8 -8 v -84 c 0 -4.417969 3.582031 -8 8 -8 z m 0 0" fill="url(#a)"/>
    <path d="m 20 12 h 88 c 4.417969 0 8 3.582031 8 8 v 84 c 0 4.417969 -3.582031 8 -8 8 h -88 c -4.417969 0 -8 -3.582031 -8 -8 v -84 c 0 -4.417969 3.582031 -8 8 -8 z m 0 0" fill="#ffffff"/>
    <path d="m 49.296875 57.355469 l -23.796875 17.285156 h 29.410156 l 9.089844 27.976563 l 9.089844 -27.976563 h 29.410156 s -12.566406 -9.113281 -23.796875 -17.285156 l 9.089844 -27.972657 l -23.800781 17.285157 c -11.230469 -8.136719 -23.796876 -17.285157 -23.796876 -17.285157 l 9.089844 27.972657 z m 0 0" fill="url(#b)"/>
</svg>
