<?xml version="1.0" encoding="UTF-8"?>
<svg height="128px" viewBox="0 0 128 128" width="128px" xmlns="http://www.w3.org/2000/svg" xmlns:xlink="http://www.w3.org/1999/xlink">
    <linearGradient id="a" gradientTransform="matrix(0.232143 0 0 0.328947 -8.566925 263.826965)" gradientUnits="userSpaceOnUse" x1="88.595886" x2="536.595886" y1="-449.394012" y2="-449.394012">
        <stop offset="0" stop-color="#b2000f"/>
        <stop offset="0.0384615" stop-color="#ff4251"/>
        <stop offset="0.0768555" stop-color="#cc0011"/>
        <stop offset="0.923077" stop-color="#cc0011"/>
        <stop offset="0.961538" stop-color="#ff4251"/>
        <stop offset="1" stop-color="#b2000f"/>
    </linearGradient>
    <path d="m 20 16 h 88 c 4.417969 0 8 3.582031 8 8 v 84 c 0 4.417969 -3.582031 8 -8 8 h -88 c -4.417969 0 -8 -3.582031 -8 -8 v -84 c 0 -4.417969 3.582031 -8 8 -8 z m 0 0" fill="url(#a)"/>
    <path d="m 20 12 h 88 c 4.417969 0 8 3.582031 8 8 v 84 c 0 4.417969 -3.582031 8 -8 8 h -88 c -4.417969 0 -8 -3.582031 -8 -8 v -84 c 0 -4.417969 3.582031 -8 8 -8 z m 0 0" fill="#e60012"/>
    <path d="m 94.355469 57.222656 c -0.023438 -0.445312 -0.0625 -0.890625 -0.121094 -1.332031 c -0.730469 -5.449219 -3.867187 -10.261719 -7.484375 -14.261719 c -0.976562 -1.070312 -1.992188 -2.105468 -3.046875 -3.101562 c -3.742187 -3.558594 -9.605469 -6.402344 -10.496094 -12.03125 c -0.046875 -0.292969 -0.113281 -0.675782 -0.113281 -1.859375 c -0.003906 -0.632813 -0.519531 -1.140625 -1.152344 -1.136719 h -4.796875 c -0.636719 0 -1.152343 0.515625 -1.152343 1.152344 v 46.066406 c -0.179688 -0.113281 -0.375 -0.242188 -0.519532 -0.316406 c -2.621094 -1.320313 -5.765625 -2.058594 -9.199218 -2.058594 c -2.582032 0 -5.1875 0.425781 -7.742188 1.25 c -5.140625 1.671875 -9.457031 4.804688 -12.160156 8.816406 c -2.660156 3.960938 -3.421875 8.300782 -2.144532 12.226563 c 1.945313 5.992187 8.304688 9.863281 16.195313 9.863281 c 2.582031 0 5.191406 -0.414062 7.742187 -1.246094 c 5.140626 -1.671875 9.460938 -4.804687 12.160157 -8.816406 c 1.871093 -2.785156 2.742187 -5.804688 2.742187 -11.0625 v -35.316406 c 1.082032 0.324218 8.792969 4.199218 11.238282 9.429687 c 1.101562 2.359375 1.246093 5.183594 0.390624 7.632813 c -0.777343 2.21875 -2.550781 4.765625 -4.101562 6.503906 c -0.4375 0.5 -0.402344 1.257812 0.082031 1.714844 l 5.167969 3.992187 c 0.238281 0.226563 0.558594 0.351563 0.890625 0.34375 c 0.335937 -0.011719 0.648437 -0.15625 0.875 -0.398437 c 3.925781 -4.367188 7.039063 -10.035156 6.75 -16.050782 z m 0 0" fill="#ffffff"/>
</svg>
