<?xml version="1.0" encoding="UTF-8" standalone="no"?>
<!-- Generator: Adobe Illustrator 25.4.1, SVG Export Plug-In . SVG Version: 6.00 Build 0)  -->

<svg
   version="1.1"
   id="Layer_1"
   x="0px"
   y="0px"
   viewBox="0 0 512 512"
   xml:space="preserve"
   sodipodi:docname="prime-video.svg"
   inkscape:version="1.3 (0e150ed6c4, 2023-07-21)"
   width="512"
   height="512"
   xmlns:inkscape="http://www.inkscape.org/namespaces/inkscape"
   xmlns:sodipodi="http://sodipodi.sourceforge.net/DTD/sodipodi-0.dtd"
   xmlns="http://www.w3.org/2000/svg"
   xmlns:svg="http://www.w3.org/2000/svg"><defs
   id="defs5"><clipPath
     clipPathUnits="userSpaceOnUse"
     id="clipPath5"><rect
       width="415.99997"
       height="415.99997"
       x="48.000015"
       y="48.000015"
       ry="38.256447"
       id="rect5"
       style="stroke-width:1.02138" /></clipPath></defs><sodipodi:namedview
   id="namedview5"
   pagecolor="#ffffff"
   bordercolor="#000000"
   borderopacity="0.25"
   inkscape:showpageshadow="2"
   inkscape:pageopacity="0.0"
   inkscape:pagecheckerboard="0"
   inkscape:deskcolor="#d1d1d1"
   inkscape:zoom="0.61799804"
   inkscape:cx="190.93912"
   inkscape:cy="415.04986"
   inkscape:window-width="1803"
   inkscape:window-height="1133"
   inkscape:window-x="0"
   inkscape:window-y="0"
   inkscape:window-maximized="1"
   inkscape:current-layer="layer1" />&#10;<linearGradient
   id="SVGID_1_"
   gradientUnits="userSpaceOnUse"
   x1="39.880402"
   y1="8.1196003"
   x2="9.6514997"
   y2="38.348499"
   gradientTransform="matrix(13.866667,0,0,13.866667,-35.199875,-35.199875)">&#10;	<stop
   offset="0"
   style="stop-color:#46CDEF"
   id="stop1" />&#10;	<stop
   offset="1"
   style="stop-color:#012962"
   id="stop2" />&#10;</linearGradient>&#10;&#10;&#10;&#10;&#10;<g
   inkscape:groupmode="layer"
   id="layer1"
   inkscape:label="Prime Logo"
   clip-path="url(#clipPath5)"><path
     style="fill:url(#SVGID_1_);stroke-width:13.8667"
     d="M 48,48 H 464 V 464 H 48 Z"
     id="path2" /><path
     style="fill:#ffffff;stroke-width:11.5556"
     d="m 302.43022,147.96711 c 1.77956,-1.06311 3.61689,-2.20711 5.54667,-3.20089 4.98044,-2.55378 10.51555,-3.83644 16.14311,-3.55911 4.056,0.21956 7.75378,1.352 10.59644,4.33333 2.704,2.77334 3.69778,6.18223 3.98667,9.88 0.0693,0.78578 0.0693,1.56 0.0693,2.41512 v 36.816 c 0,3.20088 -0.42755,3.61688 -3.61688,3.61688 h -8.66667 c -0.56622,0 -1.13245,0 -1.71022,-0.0693 -0.84356,-0.0693 -1.56,-0.78578 -1.71023,-1.62933 -0.15022,-0.78578 -0.15022,-1.56 -0.15022,-2.34578 v -32.92178 c 0.0693,-1.352 -0.0693,-2.62311 -0.42755,-3.90578 -0.56623,-2.20711 -2.55378,-3.76711 -4.83023,-3.90577 -4.19466,-0.27734 -8.38933,0.56622 -12.22577,2.34577 -0.56623,0.15023 -0.92445,0.71645 -0.84356,1.28267 v 37.39378 c 0,0.71644 0,1.352 -0.15022,2.05689 0,0.99378 -0.78578,1.71022 -1.77956,1.71022 v 0 c -1.06311,0.0693 -2.12622,0.0693 -3.27022,0.0693 h -7.53422 c -2.62311,0 -3.20089,-0.64711 -3.20089,-3.27022 v -33.62667 c 0,-1.21333 -0.0693,-2.496 -0.34667,-3.69777 -0.49689,-2.41511 -2.55377,-4.12534 -4.98044,-4.264 -4.264,-0.27734 -8.59733,0.56622 -12.44533,2.41511 -0.56623,0.15022 -0.92445,0.78578 -0.78578,1.352 v 37.89066 c 0,2.62312 -0.56622,3.20089 -3.20089,3.20089 h -9.53333 c -2.496,0 -3.12,-0.71644 -3.12,-3.12 v -49.34222 c 0,-0.56622 0.0693,-1.13244 0.21955,-1.71022 0.27733,-0.84356 1.13245,-1.352 1.98756,-1.352 h 8.88622 c 1.28267,0 2.05689,0.78578 2.496,1.98755 0.34667,0.99378 0.56622,1.92978 0.92444,2.99289 0.71645,0 1.13245,-0.49689 1.62934,-0.78577 3.90577,-2.41512 8.03111,-4.48356 12.65333,-5.32712 3.55911,-0.71644 7.10667,-0.71644 10.66578,0 3.33955,0.71645 6.33244,2.704 8.25066,5.54667 0.15023,0.21956 0.27734,0.34667 0.42756,0.49689 -0.0924,0.0809 -0.0231,0.0809 0.0462,0.23111 z m -105.06311,2.704 c 0.49689,-0.15022 0.92445,-0.42755 1.21333,-0.84355 1.28267,-1.28267 2.62312,-2.496 4.056,-3.61689 3.69778,-2.84267 8.32,-4.264 12.94223,-3.90578 1.84889,0.0693 2.496,0.64711 2.62311,2.41511 0.15022,2.41511 0.0693,4.89956 0.0693,7.32622 0.0693,0.99378 0,1.92978 -0.15022,2.912 -0.27733,1.28267 -0.78578,1.77956 -2.05689,1.92978 -0.99378,0.0693 -1.92978,0 -2.912,-0.0693 -4.76089,-0.42756 -9.38311,0.49689 -13.86667,1.98755 -0.99377,0.34667 -0.99377,1.06311 -0.99377,1.84889 v 34.10045 c 0,0.64711 0,1.21333 -0.0693,1.84888 -0.0693,0.92445 -0.78578,1.62934 -1.71022,1.62934 -0.49689,0.0693 -1.06311,0.0693 -1.56,0.0693 h -9.24444 c -0.49689,0 -1.06312,0 -1.56,-0.0693 -0.92445,-0.0693 -1.62934,-0.84356 -1.71023,-1.77956 -0.0693,-0.56622 -0.0693,-1.13244 -0.0693,-1.71022 v -48.34844 c 0,-3.27023 0.34667,-3.61689 3.61689,-3.61689 h 6.82933 c 1.84889,0 2.704,0.64711 3.20089,2.41511 0.49689,1.77955 0.92445,3.55911 1.352,5.47733 z m 27.72178,19.76 v -25.23733 c 0.0693,-1.71022 0.71644,-2.34578 2.41511,-2.41511 3.69778,-0.0693 7.39556,-0.0693 11.09333,0 1.62934,0 2.12623,0.49689 2.27645,2.12622 0.0693,0.64711 0.0693,1.21333 0.0693,1.84889 v 47.34311 c 0,0.78578 -0.0693,1.56 -0.15022,2.34578 -0.0693,0.92444 -0.78578,1.56 -1.71022,1.62933 -0.42756,0.0693 -0.78578,0.0693 -1.21334,0.0693 h -9.88 c -0.34666,0 -0.64711,0 -0.99377,-0.0693 -0.99378,-0.0693 -1.84889,-0.84356 -1.92978,-1.84889 -0.0693,-0.56622 -0.0693,-1.13244 -0.0693,-1.71022 0.0924,-7.88089 0.0924,-15.98133 0.0924,-24.08178 z m 8.25067,-53.10933 c 1.13244,-0.0693 2.27644,0.15022 3.33955,0.49689 3.83645,1.28266 5.824,4.62222 5.47733,8.95555 -0.27733,3.69778 -3.05066,6.67911 -6.76,7.25689 -1.56,0.27733 -3.20088,0.27733 -4.76088,0 -4.056,-0.78578 -7.03734,-3.76711 -6.76,-8.88622 0.42755,-5.04978 3.76711,-7.82311 9.464,-7.82311 z m -61.49867,47.28533 c -0.27733,-3.69778 -1.28267,-7.32622 -2.77333,-10.66578 -2.912,-6.11289 -7.39556,-10.59644 -14.21334,-12.15644 -7.82311,-1.71022 -14.86044,0 -21.26222,4.76089 -0.42756,0.42755 -0.92444,0.78578 -1.49067,1.06311 -0.15022,-0.0693 -0.27733,-0.15022 -0.27733,-0.21956 -0.21956,-0.71644 -0.34667,-1.42133 -0.56622,-2.12622 -0.56622,-1.77955 -1.28267,-2.41511 -3.20089,-2.41511 -2.12622,0 -4.33333,0.0693 -6.47111,0 -1.62934,-0.0693 -3.12,0.15022 -4.264,1.42133 0,24.87911 0,49.83911 0.0693,74.63734 0.92445,1.49066 2.34578,1.77955 3.98667,1.71022 2.55378,-0.0693 5.11911,0 7.67289,0 4.48355,0 4.48355,0 4.48355,-4.40267 v -20.25689 c 0,-0.49689 -0.21955,-1.06311 0.27734,-1.49066 3.55911,2.77333 7.89244,4.48355 12.376,4.89955 6.26311,0.64711 11.93688,-0.92444 16.70933,-5.18844 3.48978,-3.20089 6.04355,-7.32622 7.39555,-11.87911 1.91823,-5.824 2.04534,-11.72889 1.54845,-17.69156 z m -16.98667,14.71022 c -0.49689,2.20711 -1.62933,4.19467 -3.27022,5.68534 -1.84889,1.56 -4.12533,2.496 -6.54044,2.496 -3.61689,0.21955 -7.176,-0.56623 -10.37689,-2.27645 -0.78578,-0.34666 -1.28267,-1.13244 -1.21334,-1.98755 v -12.87289 c 0,-4.264 0.0693,-8.53956 0,-12.792 -0.0693,-0.99378 0.49689,-1.84889 1.42134,-2.20711 3.90577,-1.84889 7.96177,-2.704 12.22577,-1.84889 2.99289,0.42755 5.54667,2.34578 6.76,5.11911 1.06312,2.27644 1.71023,4.76089 1.84889,7.25689 0.42756,4.54133 0.42756,9.09422 -0.85511,13.42755 z m 209.86045,-4.264 c 5.32711,0.99378 10.80444,1.06311 16.14311,0.21956 3.12,-0.42756 6.11289,-1.352 8.88622,-2.84267 3.20089,-1.84889 5.54667,-4.40266 6.54044,-7.96178 2.496,-8.95555 -1.352,-17.992 -10.66577,-21.32 -4.55289,-1.49066 -9.38311,-1.98755 -14.144,-1.352 -11.232,1.28267 -18.54667,7.46489 -21.88623,18.2 -2.34577,7.32623 -2.05688,14.77956 -0.15022,22.17512 2.496,9.45244 8.74756,15.06844 18.2,17.056 5.39645,1.21333 10.87378,0.99377 16.28178,0.15022 2.84267,-0.49689 5.68533,-1.21334 8.38933,-2.27645 1.62934,-0.64711 2.496,-1.62933 2.41511,-3.48977 -0.0693,-1.71023 0,-3.48978 0,-5.25778 0,-2.12622 -0.84355,-2.77334 -2.912,-2.27645 -2.06844,0.49689 -4.056,0.92445 -6.11288,1.352 -4.40267,0.92445 -8.95556,0.92445 -13.36978,0.15023 -6.04356,-1.21334 -9.94934,-6.39023 -9.60267,-12.792 0.63556,0.0578 1.34045,0.11555 1.98756,0.26577 z m -1.77956,-10.87377 c 0.21956,-1.71023 0.71645,-3.33956 1.352,-4.89956 2.12622,-5.18844 6.60978,-6.968 11.16267,-6.67911 1.28266,0.0693 2.55378,0.34667 3.76711,0.84355 1.84889,0.78578 3.05067,2.496 3.27022,4.48356 0.21956,1.21333 0.15022,2.496 -0.21955,3.69778 -0.84356,2.55378 -2.912,3.61689 -5.39645,4.12533 -1.49067,0.34667 -3.05067,0.49689 -4.62222,0.34667 -2.77333,0 -5.616,-0.21956 -8.38933,-0.64711 -1.07467,-0.13867 -1.07467,-0.13867 -0.92445,-1.27111 z"
     id="path3" /><path
     style="fill:#ffffff;stroke-width:11.5556"
     d="m 144.16533,292.59644 c 0.45067,-1.52533 0.91289,-2.98133 1.37511,-4.49511 3.50134,-11.82133 7.01423,-23.56177 10.51556,-35.39466 l 0.45067,-1.37511 c 0.38133,-1.37512 1.67555,-2.21867 3.05066,-2.21867 h 11.60178 c 2.90045,0 3.50133,0.84355 2.51911,3.59378 l -4.576,12.12177 c -5.10755,13.27734 -10.22666,26.624 -15.33422,39.88978 -0.15022,0.45067 -0.38133,0.91289 -0.54311,1.37511 -0.54311,1.60623 -2.12622,2.66934 -3.81333,2.51911 -3.35112,-0.0693 -6.71378,-0.0693 -10.06489,0 -2.36889,0.0693 -3.73245,-0.99377 -4.576,-3.12 -1.90667,-5.03822 -3.89423,-10.14577 -5.78934,-15.17244 -4.576,-11.98311 -9.23289,-23.95467 -13.80889,-36.00711 -0.45066,-0.91289 -0.76266,-1.98756 -0.99377,-2.98133 -0.23111,-1.52534 0.30044,-2.288 1.82577,-2.288 4.34489,-0.0693 8.70134,0 12.96534,0 1.82578,0 2.66933,1.22488 3.12,2.81955 0.84355,2.90045 1.67555,5.88178 2.6,8.77067 3.12,10.608 6.17066,21.28533 9.31378,31.88178 -0.0693,0.0809 0.0115,0.0809 0.16177,0.0809 z m 54.01067,-13.728 v 27.456 c -0.15022,1.52534 -0.84356,2.21867 -2.36889,2.288 -4.11378,0.0693 -8.15822,0.0693 -12.28355,0 -1.52534,0 -2.21867,-0.76266 -2.36889,-2.21866 -0.0693,-0.45067 -0.0693,-0.99378 -0.0693,-1.44445 v -52.78577 c 0.0693,-2.36889 0.68178,-3.05067 3.05067,-3.05067 h 10.98933 c 2.36889,0 3.05067,0.68178 3.05067,3.05067 z m -8.47022,-57.14222 c 1.52533,-0.15022 3.05066,0.15022 4.49511,0.76267 2.98133,1.144 5.03822,3.89422 5.18844,7.09511 0.61245,6.94489 -4.04444,10.44622 -10.22666,10.296 -0.84356,0 -1.67556,-0.15022 -2.51911,-0.30044 -4.72623,-1.144 -7.16445,-4.80712 -6.71378,-10.06489 0.38133,-4.19467 3.66311,-7.32623 8.15822,-7.70756 0.54311,-0.0809 1.08622,-0.15022 1.61778,-0.0809 z m 208.08089,52.71645 c 0.0693,-0.86667 -0.23111,-2.66934 -0.23111,-2.73867 -0.15023,-1.44444 -0.45067,-2.90044 -0.84356,-4.27556 -2.81956,-10.06488 -9.152,-16.70933 -19.448,-19.29777 -4.80711,-1.144 -9.68356,-1.29423 -14.57156,-0.54311 -10.296,1.52533 -17.70311,7.01422 -21.28533,16.77866 -3.50133,9.31378 -3.432,19.52889 0.0693,28.83111 3.05067,8.45867 9.152,13.80889 17.93423,16.016 4.65689,1.144 9.53333,1.44445 14.34044,0.76267 16.016,-1.90667 22.66045,-14.04 23.72356,-24.55556 0,0 0.38133,-3.16622 0.38133,-4.61066 z m -18.304,14.17866 c -0.45067,1.60623 -1.144,3.05067 -2.12623,4.42578 -1.67555,2.36889 -4.34488,3.89422 -7.24533,4.11378 -1.44444,0.15022 -2.90044,0.15022 -4.34489,-0.15022 -3.21244,-0.61245 -5.88178,-2.73867 -7.16444,-5.72 -1.144,-2.36889 -1.82578,-4.95734 -2.05689,-7.55734 -0.38133,-4.49511 -0.45067,-9.00177 0.61244,-13.42755 0.38134,-1.75645 1.144,-3.50134 2.05689,-5.03822 1.67556,-2.73867 4.576,-4.49512 7.77689,-4.72623 1.44445,-0.15022 2.90045,-0.15022 4.34489,0.15023 3.05067,0.61244 5.56978,2.6 6.94489,5.408 1.29422,2.66933 2.05689,5.65066 2.21867,8.62044 0.0693,1.37511 0.15022,2.73867 0.0693,4.11378 0.208,3.38578 -0.17333,6.66755 -1.08622,9.78755 z m -115.40534,-66.352 h -10.608 c -2.90044,0 -3.432,0.54311 -3.432,3.432 v 24.71734 c 0,0.54311 0.23111,1.06311 -0.15022,1.60622 -0.68178,-0.0693 -1.06311,-0.54311 -1.60622,-0.84356 -7.93867,-4.65689 -16.24711,-5.48889 -24.648,-1.60622 -5.88178,2.73867 -9.53333,7.70756 -11.90222,13.57778 -2.288,5.65067 -2.81956,11.60178 -2.66934,17.62222 0,5.65067 1.29423,11.20889 3.81334,16.24711 2.90044,5.56978 7.09511,9.83378 13.19644,11.67111 8.32,2.6 16.09689,1.29423 23.18045,-3.96355 0.54311,-0.30045 0.84355,-0.84356 1.52533,-0.99378 0.38133,0.84356 0.68178,1.75644 0.84355,2.66933 0.30045,1.22489 1.37512,2.05689 2.66934,2.05689 h 1.82578 c 2.73866,0 5.408,0.0693 8.08888,0 2.12623,0 2.73867,-0.68178 2.81956,-2.90044 v -80.392 c -0.0578,-2.36889 -0.65867,-2.90045 -2.94667,-2.90045 z m -13.95911,56.13689 v 13.87822 c 0.15022,0.91289 -0.38133,1.75645 -1.22489,2.12623 -3.66311,2.05689 -7.85777,2.90044 -11.98311,2.288 -3.50133,-0.38134 -6.56355,-2.51911 -8.15822,-5.65067 -1.22489,-2.43822 -1.90667,-5.03822 -2.12622,-7.70756 -0.61245,-4.80711 -0.23111,-9.68355 0.91289,-14.34044 0.38133,-1.29422 0.84355,-2.51911 1.52533,-3.73244 1.60622,-2.98134 4.65689,-4.888 8.008,-5.10756 4.04444,-0.38133 8.08889,0.38133 11.74044,2.05689 0.91289,0.30044 1.44445,1.22489 1.37512,2.21867 -0.15023,4.73777 -0.0693,9.32533 -0.0693,13.97066 z m 60.01956,6.032 c 4.42578,-0.30044 8.84,-1.144 12.81511,-3.28178 4.04444,-1.98755 6.864,-5.72 7.70755,-10.14577 0.54312,-2.73867 0.54312,-5.65067 -0.0693,-8.38934 -1.60622,-6.864 -5.95111,-11.128 -12.50311,-13.34666 -3.66311,-1.144 -7.55733,-1.60623 -11.37067,-1.44445 -12.81511,0.30045 -22.568,6.78311 -26.54311,19.60978 -2.66933,8.45867 -2.288,17.09067 0.30045,25.54933 2.66933,8.70134 8.77066,13.95911 17.46044,16.328 3.73245,0.91289 7.62667,1.29423 11.44,1.144 5.56978,-0.0693 11.128,-1.144 16.39733,-3.12 2.21867,-0.84355 2.73867,-1.60622 2.73867,-3.96355 v -5.48889 c -0.0693,-2.21867 -0.99378,-2.98133 -3.21244,-2.43822 -1.67556,0.45066 -3.28178,0.84355 -4.95734,1.22489 -5.10755,1.22488 -10.44622,1.44444 -15.64622,0.54311 -5.18844,-0.99378 -8.70133,-3.96356 -10.06489,-9.152 -0.38133,-1.52534 -0.68178,-3.05067 -0.84355,-4.65689 0.38133,0 0.76266,0 1.06311,0.15022 5.07289,0.87822 10.18044,1.25956 15.288,0.87822 z M 294.20267,272.224 c 0.54311,-2.98133 1.22489,-5.88178 3.05066,-8.32 2.81956,-3.73244 6.71378,-4.80711 11.128,-4.34489 0.38134,0 0.68178,0.15022 1.06311,0.15022 5.33867,0.84356 6.63289,5.10756 5.65067,9.23289 -0.76267,3.05067 -3.28178,4.19467 -6.10133,4.72622 -1.52534,0.30045 -3.12,0.45067 -4.72622,0.38134 -3.12,-0.0693 -6.17067,-0.30045 -9.23289,-0.76267 -0.68178,-0.0693 -0.98223,-0.36978 -0.832,-1.06311 z"
     id="path4" /><path
     style="fill:#ffffff;stroke-width:11.5556"
     d="m 260.32178,394.64356 c -2.66934,-0.0693 -5.35022,-0.0693 -8.008,0 -3.67467,-0.19645 -7.34934,-0.33512 -11.024,-0.60089 -9.75289,-0.73956 -19.448,-2.20711 -28.92356,-4.41423 -32.80622,-7.61511 -61.60266,-22.91466 -86.72444,-45.15911 -2.34578,-2.08 -4.54134,-4.20622 -6.81778,-6.35555 -0.53156,-0.47378 -1.00533,-1.144 -1.27111,-1.80267 -0.40445,-0.936 -0.19645,-1.94133 0.47378,-2.66933 0.67022,-0.728 1.74489,-1.00534 2.66933,-0.60089 0.60089,0.26578 1.20178,0.53155 1.74489,0.86667 23.98933,14.83733 50.17422,25.65333 77.63022,32.06666 9.22133,2.13778 18.50045,3.80178 27.86045,5.01511 13.42755,1.67556 26.98222,2.27645 40.47911,1.80267 7.28,-0.19644 14.50222,-0.86667 21.71289,-1.80267 16.83644,-2.13777 33.47644,-5.95111 49.57333,-11.28977 8.48178,-2.79645 16.76711,-6.02045 24.856,-9.75289 1.20178,-0.67023 2.66933,-0.86667 4.00978,-0.53156 2.20711,0.53156 3.536,2.79645 3.00444,5.01511 -0.0693,0.26578 -0.19644,0.60089 -0.33511,0.86667 -0.53156,1.00533 -1.27111,1.872 -2.20711,2.53067 -7.68445,6.02044 -15.96978,11.28977 -24.71733,15.704 -16.50134,8.34311 -34.14667,14.29422 -52.312,17.70311 -10.49245,1.872 -21.04267,3.00444 -31.67378,3.40889 z m 114.85066,-65.13867 c 4.41423,0.13867 8.74756,0.40444 13.02312,1.53689 1.20177,0.33511 2.34577,0.73955 3.46666,1.27111 1.53689,0.60089 2.53067,2.08 2.73867,3.67467 0.26578,1.872 0.33511,3.80177 0.19644,5.74311 -0.86666,11.42844 -4.41422,22.44089 -10.296,32.26311 -2.13777,3.536 -4.73777,6.74844 -7.74222,9.55644 -0.60089,0.60089 -1.34044,1.07467 -2.13778,1.34045 -1.27111,0.33511 -2.08,-0.33511 -2.13777,-1.60623 0.0693,-0.67022 0.19644,-1.34044 0.47377,-2.01066 2.34578,-6.28622 4.61067,-12.49156 6.41334,-18.97422 1.07466,-3.536 1.80266,-7.14134 2.27644,-10.82756 0.13867,-1.34044 0.19645,-2.66933 0.0693,-4.00978 -0.0693,-2.27644 -1.53688,-4.20622 -3.744,-4.87644 -2.08,-0.67022 -4.20622,-1.07467 -6.41333,-1.20178 -6.14755,-0.26578 -12.28355,0 -18.37333,0.80889 l -8.07734,1.00533 c -0.86666,0.0693 -1.67555,0 -2.13777,-0.80889 -0.47378,-0.80889 -0.26578,-1.60622 0.19644,-2.40355 0.53156,-0.73956 1.20178,-1.40978 2.01067,-1.872 4.94578,-3.536 10.49244,-5.68534 16.37422,-7.08356 4.52978,-0.936 9.14044,-1.38666 13.82044,-1.52533 z"
     id="path5" /></g></svg>
