<?xml version="1.0" encoding="UTF-8"?>
<svg height="128px" viewBox="0 0 128 128" width="128px" xmlns="http://www.w3.org/2000/svg" xmlns:xlink="http://www.w3.org/1999/xlink">
    <linearGradient id="a" gradientTransform="matrix(0.232143 0 0 0.328947 -8.566925 263.826965)" gradientUnits="userSpaceOnUse" x1="88.595886" x2="536.595886" y1="-449.394012" y2="-449.394012">
        <stop offset="0" stop-color="#0056b2"/>
        <stop offset="0.0384615" stop-color="#409dff"/>
        <stop offset="0.0768555" stop-color="#0063cc"/>
        <stop offset="0.923077" stop-color="#0063cc"/>
        <stop offset="0.961538" stop-color="#409dff"/>
        <stop offset="1" stop-color="#0056b2"/>
    </linearGradient>
    <path d="m 20 16 h 88 c 4.417969 0 8 3.582031 8 8 v 84 c 0 4.417969 -3.582031 8 -8 8 h -88 c -4.417969 0 -8 -3.582031 -8 -8 v -84 c 0 -4.417969 3.582031 -8 8 -8 z m 0 0" fill="url(#a)"/>
    <path d="m 20 12 h 88 c 4.417969 0 8 3.582031 8 8 v 84 c 0 4.417969 -3.582031 8 -8 8 h -88 c -4.417969 0 -8 -3.582031 -8 -8 v -84 c 0 -4.417969 3.582031 -8 8 -8 z m 0 0" fill="#007bff"/>
    <g fill="#ffffff">
        <path d="m 80.160156 49.453125 c -0.003906 0.003906 -0.007812 1.679687 -0.007812 3.726563 c 0 2.515624 -0.003906 3.714843 -0.015625 3.714843 c -0.007813 0 -0.023438 -0.015625 -0.03125 -0.039062 c -0.007813 -0.019531 -0.023438 -0.035157 -0.035157 -0.035157 c -0.011718 0 -0.019531 -0.007812 -0.019531 -0.019531 s -0.011719 -0.023437 -0.023437 -0.027343 c -0.011719 -0.007813 -0.019532 -0.019532 -0.019532 -0.03125 c 0 -0.011719 -0.011718 -0.023438 -0.023437 -0.023438 s -0.019531 -0.003906 -0.019531 -0.011719 c 0 -0.007812 -0.097656 -0.105469 -0.210938 -0.21875 c -0.117187 -0.117187 -0.226562 -0.222656 -0.246094 -0.242187 c -0.015624 -0.019532 -0.035156 -0.03125 -0.042968 -0.03125 c -0.003906 0 -0.03125 -0.023438 -0.054688 -0.050782 c -0.070312 -0.074218 -0.21875 -0.195312 -0.238281 -0.195312 c -0.007813 0 -0.023437 -0.011719 -0.027344 -0.023438 c -0.015625 -0.023437 -0.121093 -0.105468 -0.171875 -0.132812 c -0.019531 -0.011719 -0.035156 -0.027344 -0.035156 -0.035156 c 0 -0.007813 -0.007812 -0.011719 -0.019531 -0.011719 s -0.03125 -0.015625 -0.046875 -0.03125 s -0.035156 -0.027344 -0.046875 -0.027344 c -0.007813 0 -0.023438 -0.011719 -0.027344 -0.023437 c -0.003906 -0.011719 -0.015625 -0.019532 -0.023437 -0.023438 c -0.011719 0 -0.058594 -0.027344 -0.105469 -0.0625 s -0.109375 -0.074218 -0.132813 -0.085937 c -0.027344 -0.011719 -0.046875 -0.027344 -0.046875 -0.035157 c 0 -0.011718 -0.011719 -0.015624 -0.027343 -0.015624 c -0.015626 0 -0.035157 -0.007813 -0.042969 -0.019532 c -0.011719 -0.011718 -0.054688 -0.039062 -0.09375 -0.058594 c -0.042969 -0.023437 -0.082031 -0.046874 -0.09375 -0.054687 c -0.039063 -0.03125 -0.507813 -0.273437 -0.53125 -0.273437 c -0.007813 0 -0.027344 -0.011719 -0.042969 -0.027344 s -0.035156 -0.03125 -0.046875 -0.03125 s -0.039063 -0.007813 -0.058594 -0.019532 c -0.078125 -0.039062 -0.171875 -0.078124 -0.1875 -0.078124 s -0.085937 -0.03125 -0.199219 -0.082032 c -0.042968 -0.019531 -0.09375 -0.035156 -0.238281 -0.089844 c -0.042969 -0.015624 -0.101562 -0.035156 -0.128906 -0.046874 c -0.027344 -0.007813 -0.070313 -0.023438 -0.09375 -0.027344 c -0.027344 -0.007813 -0.058594 -0.019532 -0.078125 -0.027344 c -0.015625 -0.011719 -0.058594 -0.023438 -0.09375 -0.03125 s -0.078125 -0.019531 -0.105469 -0.027344 c -0.136719 -0.046875 -0.347656 -0.101562 -0.464843 -0.121094 c -0.042969 -0.003906 -0.09375 -0.019531 -0.117188 -0.027343 c -0.019531 -0.011719 -0.074219 -0.023438 -0.117188 -0.027344 c -0.042968 -0.007813 -0.121093 -0.015625 -0.167968 -0.027344 c -0.3125 -0.058593 -0.429688 -0.074219 -0.492188 -0.074219 c -0.039062 0 -0.125 -0.007812 -0.195312 -0.019531 c -0.222656 -0.039062 -0.902344 -0.058593 -1.375 -0.039062 c -0.234375 0.007812 -0.484375 0.027343 -0.558594 0.039062 c -0.070312 0.011719 -0.167969 0.019531 -0.214844 0.019531 s -0.132812 0.011719 -0.1875 0.023438 c -0.054687 0.011719 -0.125 0.023438 -0.152344 0.027344 c -0.132812 0.019531 -0.332031 0.054687 -0.410156 0.074218 c -0.050781 0.011719 -0.121094 0.027344 -0.160156 0.035157 c -0.101562 0.015625 -0.203125 0.039062 -0.3125 0.070312 c -0.210938 0.0625 -0.257812 0.074219 -0.289062 0.074219 c -0.019532 0 -0.042969 0.007812 -0.050782 0.015625 c -0.019531 0.015625 -0.164062 0.058594 -0.269531 0.082031 c -0.03125 0.007813 -0.0625 0.019532 -0.074219 0.027344 c -0.007812 0.011719 -0.042968 0.023438 -0.074218 0.03125 c -0.070313 0.015625 -0.148438 0.042969 -0.1875 0.0625 c -0.03125 0.019531 -0.171876 0.066406 -0.234376 0.082031 c -0.019531 0.007813 -0.066406 0.023438 -0.09375 0.039063 c -0.105468 0.054687 -0.128906 0.0625 -0.144531 0.0625 c -0.011719 0 -0.050781 0.015625 -0.085937 0.035156 c -0.035156 0.015625 -0.085938 0.039062 -0.113282 0.050781 c -0.03125 0.011719 -0.0625 0.027344 -0.074218 0.035157 c -0.011719 0.003906 -0.050782 0.023437 -0.082032 0.039062 c -0.125 0.058594 -0.335937 0.164062 -0.488281 0.246094 c -0.089843 0.046875 -0.175781 0.09375 -0.191406 0.101562 c -0.015625 0.007813 -0.035156 0.019532 -0.042969 0.027344 c -0.003906 0.007812 -0.042968 0.03125 -0.085937 0.050781 c -0.039063 0.023438 -0.082031 0.046875 -0.09375 0.058594 c -0.007813 0.011719 -0.023438 0.023437 -0.03125 0.023437 c -0.007813 0 -0.058594 0.03125 -0.117188 0.066407 c -0.058593 0.039062 -0.117187 0.074219 -0.128906 0.085937 c -0.109375 0.066406 -0.40625 0.28125 -0.460937 0.332032 c -0.011719 0.011718 -0.03125 0.019531 -0.039063 0.019531 s -0.023437 0.011719 -0.027344 0.019531 c -0.007812 0.011719 -0.046875 0.046875 -0.089843 0.078125 c -0.046876 0.027344 -0.101563 0.070313 -0.125 0.09375 c -0.023438 0.023437 -0.074219 0.066406 -0.117188 0.101563 c -0.203125 0.164062 -0.847656 0.789062 -0.980469 0.957031 c -0.039062 0.046875 -0.117187 0.136719 -0.167969 0.195312 c -0.121093 0.148438 -0.289062 0.359375 -0.324218 0.414063 c -0.015625 0.023437 -0.035156 0.050781 -0.046875 0.054687 c -0.011719 0.007813 -0.019531 0.023438 -0.019531 0.035157 c 0 0.007812 -0.003907 0.019531 -0.011719 0.023437 c -0.003907 0 -0.027344 0.03125 -0.054688 0.070313 c -0.050781 0.074218 -0.050781 0.078124 -0.101562 0.136718 c -0.019531 0.027344 -0.035157 0.050782 -0.035157 0.058594 c 0 0.003906 -0.023437 0.042969 -0.050781 0.078125 c -0.027343 0.039063 -0.050781 0.078125 -0.050781 0.085937 c 0 0.007813 -0.003906 0.015626 -0.011719 0.015626 c -0.007812 0 -0.015625 0.007812 -0.015625 0.015624 c 0 0.011719 -0.015625 0.039063 -0.035156 0.0625 c -0.015625 0.023438 -0.046875 0.074219 -0.066406 0.109376 c -0.019532 0.035156 -0.039063 0.066406 -0.042969 0.074218 c -0.003906 0.003906 -0.03125 0.042969 -0.054687 0.085938 c -0.113282 0.207031 -0.140626 0.253906 -0.152344 0.273437 c -0.011719 0.011719 -0.035156 0.058594 -0.058594 0.101563 c -0.019531 0.042968 -0.042969 0.089844 -0.050781 0.101562 c -0.007813 0.011719 -0.027344 0.050782 -0.042969 0.085938 s -0.039062 0.082031 -0.050781 0.101562 c -0.011719 0.019532 -0.03125 0.0625 -0.046875 0.09375 c -0.011719 0.03125 -0.03125 0.070313 -0.035156 0.082032 c -0.007813 0.015624 -0.019532 0.039062 -0.027344 0.050781 c -0.007813 0.015625 -0.023438 0.054687 -0.039063 0.085937 c -0.011719 0.03125 -0.035156 0.074219 -0.046875 0.097656 c -0.007812 0.019532 -0.035156 0.082032 -0.054687 0.132813 c -0.019531 0.054687 -0.042969 0.113281 -0.054688 0.128906 s -0.023437 0.039063 -0.023437 0.054688 c 0 0.011719 -0.011719 0.042969 -0.023438 0.0625 c -0.011718 0.023437 -0.019531 0.054687 -0.019531 0.066406 s -0.011719 0.039063 -0.03125 0.0625 c -0.015625 0.023437 -0.027344 0.058594 -0.027344 0.074219 s -0.011719 0.046875 -0.019531 0.070312 c -0.011719 0.019532 -0.023438 0.050782 -0.023438 0.0625 c 0 0.007813 -0.011718 0.042969 -0.027343 0.074219 c -0.019531 0.035156 -0.03125 0.074219 -0.03125 0.089844 c 0 0.019531 -0.007813 0.054687 -0.019531 0.078125 c -0.011719 0.019531 -0.023438 0.054687 -0.023438 0.070312 s -0.011719 0.058594 -0.027344 0.09375 s -0.03125 0.082032 -0.03125 0.101563 s -0.007812 0.054687 -0.019531 0.074219 c -0.011719 0.019531 -0.023437 0.054687 -0.023437 0.074218 c 0 0.023438 -0.011719 0.074219 -0.027344 0.117188 c -0.015625 0.042968 -0.03125 0.09375 -0.03125 0.113281 c 0 0.023437 -0.007813 0.066406 -0.019532 0.101563 c -0.011718 0.03125 -0.023437 0.078124 -0.023437 0.097656 c 0 0.023437 -0.011719 0.082031 -0.027344 0.140625 c -0.03125 0.109375 -0.054687 0.238281 -0.074219 0.410156 c -0.007812 0.058594 -0.023437 0.144531 -0.035156 0.191406 c -0.011718 0.042969 -0.023437 0.113281 -0.023437 0.15625 c 0 0.039063 -0.007813 0.121094 -0.019531 0.183594 c -0.011719 0.0625 -0.023438 0.148437 -0.023438 0.195313 c 0 0.042968 -0.011719 0.207031 -0.027344 0.359374 c -0.039062 0.367188 -0.042968 1.496094 -0.007812 1.828126 c 0.011718 0.117187 0.027344 0.285156 0.035156 0.382812 c 0.015625 0.226562 0.039062 0.417969 0.070312 0.566406 c 0.011719 0.070313 0.027344 0.164063 0.03125 0.210938 c 0.015626 0.121094 0.042969 0.257812 0.070313 0.359375 c 0.011719 0.050781 0.027344 0.121093 0.035156 0.160156 c 0.019531 0.132813 0.042969 0.230469 0.070313 0.308594 c 0.015625 0.042969 0.027344 0.089843 0.027344 0.105469 c 0 0.027343 0.019531 0.101562 0.0625 0.222656 c 0.011718 0.039062 0.046874 0.148437 0.082031 0.277344 c 0.007812 0.019531 0.03125 0.085937 0.050781 0.144531 c 0.023438 0.054687 0.042969 0.117187 0.046875 0.136719 c 0.003906 0.019531 0.019531 0.0625 0.03125 0.09375 c 0.015625 0.03125 0.039063 0.085937 0.050781 0.121093 c 0.042969 0.113281 0.085938 0.210938 0.105469 0.25 c 0.011719 0.019531 0.019531 0.050781 0.019531 0.066407 c 0 0.015624 0.011719 0.039062 0.027344 0.054687 c 0.015625 0.011719 0.03125 0.035156 0.03125 0.046875 s 0.007812 0.039062 0.023438 0.066406 c 0.023437 0.042969 0.027343 0.058594 0.0625 0.121094 c 0.003906 0.011719 0.023437 0.050781 0.035156 0.082031 c 0.015625 0.03125 0.03125 0.070313 0.039062 0.082031 c 0.007813 0.011719 0.035156 0.066407 0.0625 0.121094 c 0.027344 0.054688 0.070313 0.128906 0.085938 0.164063 c 0.023437 0.035156 0.039062 0.070312 0.039062 0.082031 s 0.011719 0.027344 0.027344 0.042969 s 0.027344 0.039062 0.027344 0.050781 c 0 0.015625 0.011718 0.035156 0.023437 0.042969 c 0.011719 0.011719 0.023438 0.027343 0.023438 0.039062 c 0 0.007813 0.007812 0.027344 0.015625 0.035157 c 0.011718 0.011718 0.039062 0.054687 0.0625 0.09375 c 0.035156 0.0625 0.09375 0.160156 0.171875 0.292968 c 0.011719 0.011719 0.054687 0.082032 0.101562 0.152344 s 0.09375 0.136719 0.101563 0.152344 c 0.027344 0.046875 0.085937 0.125 0.121094 0.160156 c 0.015624 0.019531 0.03125 0.042969 0.03125 0.046875 c 0 0.007813 0.023437 0.042969 0.050781 0.074219 c 0.027343 0.035156 0.050781 0.070312 0.050781 0.082031 c 0 0.007813 0.003906 0.015625 0.011719 0.015625 c 0.007812 0 0.03125 0.027344 0.054687 0.058594 c 0.027344 0.035156 0.066406 0.085937 0.089844 0.113281 c 0.027344 0.027344 0.046875 0.054687 0.046875 0.0625 c 0 0.003906 0.015625 0.027344 0.039063 0.050781 c 0.023437 0.023438 0.058593 0.066406 0.082031 0.09375 c 0.027343 0.03125 0.0625 0.078125 0.085937 0.101563 c 0.019532 0.023437 0.039063 0.046875 0.039063 0.050781 s 0.023437 0.027344 0.050781 0.050781 c 0.027344 0.023438 0.050781 0.050781 0.050781 0.054688 c 0 0.011719 0.484375 0.496093 0.605469 0.609375 c 0.042969 0.039062 0.082031 0.070312 0.089844 0.070312 c 0.007812 0 0.011718 0.007813 0.011718 0.019532 c 0 0.011718 0.011719 0.023437 0.023438 0.023437 c 0.007812 0 0.023438 0.007813 0.03125 0.019531 c 0.003906 0.011719 0.0625 0.0625 0.125 0.113282 c 0.066406 0.046874 0.125 0.097656 0.128906 0.109374 c 0.007813 0.007813 0.019532 0.015626 0.023438 0.015626 c 0.007812 0 0.035156 0.019531 0.054687 0.039062 c 0.058594 0.054688 0.300781 0.242188 0.34375 0.265625 c 0.019531 0.007813 0.035157 0.023437 0.035157 0.03125 s 0.011718 0.011719 0.023437 0.011719 s 0.023437 0.007812 0.023437 0.015625 c 0 0.007812 0.015626 0.023437 0.039063 0.035156 c 0.042969 0.027344 0.082031 0.050781 0.199219 0.132813 c 0.140625 0.09375 0.15625 0.105468 0.179687 0.117187 c 0.023438 0.011719 0.113281 0.070313 0.136719 0.089844 c 0.007812 0.003906 0.023438 0.015625 0.035156 0.019531 c 0.011719 0.007812 0.050782 0.027344 0.082032 0.046875 s 0.066406 0.039063 0.078124 0.042969 c 0.011719 0.007812 0.03125 0.019531 0.046876 0.03125 c 0.03125 0.027344 0.128906 0.078125 0.148437 0.078125 c 0.011719 0 0.03125 0.011719 0.042969 0.027343 c 0.015625 0.015626 0.039062 0.03125 0.050781 0.03125 c 0.015625 0 0.035156 0.007813 0.042969 0.019532 c 0.011718 0.011718 0.03125 0.023437 0.046875 0.023437 c 0.011719 0 0.03125 0.003907 0.035156 0.015625 c 0.003906 0.003906 0.046875 0.03125 0.089844 0.050782 c 0.042969 0.019531 0.09375 0.042968 0.105469 0.050781 c 0.011718 0.007812 0.035156 0.019531 0.054687 0.027343 c 0.023437 0.007813 0.046875 0.023438 0.058594 0.03125 c 0.011719 0.003907 0.03125 0.015626 0.042969 0.019532 c 0.011718 0.003906 0.035156 0.015625 0.050781 0.023437 c 0.011719 0.007813 0.035156 0.019531 0.050781 0.023438 c 0.011719 0.007812 0.042969 0.023437 0.070312 0.035156 c 0.027344 0.015625 0.058594 0.027344 0.070313 0.027344 s 0.046875 0.011719 0.074219 0.027343 c 0.03125 0.015626 0.078125 0.035157 0.105468 0.046876 c 0.027344 0.011718 0.082032 0.035156 0.121094 0.054687 c 0.035156 0.015625 0.078125 0.027344 0.09375 0.027344 c 0.011719 0 0.035156 0.011719 0.050782 0.023437 c 0.015624 0.011719 0.042968 0.019532 0.058593 0.019532 s 0.042969 0.011718 0.058594 0.019531 c 0.03125 0.023437 0.214844 0.082031 0.246094 0.082031 c 0.011719 0 0.046875 0.015625 0.074219 0.03125 c 0.03125 0.015625 0.0625 0.027344 0.078124 0.027344 c 0.011719 0 0.046876 0.007812 0.078126 0.019531 c 0.054687 0.019531 0.152343 0.050781 0.339843 0.105469 c 0.042969 0.011718 0.089844 0.019531 0.109375 0.019531 c 0.015625 0 0.050782 0.011719 0.074219 0.023437 c 0.023437 0.011719 0.082031 0.027344 0.128906 0.035157 c 0.113281 0.015625 0.21875 0.039062 0.355469 0.074219 c 0.058594 0.015624 0.132812 0.027343 0.160156 0.027343 c 0.03125 0 0.089844 0.011719 0.136719 0.019531 c 0.046875 0.011719 0.113281 0.023438 0.148437 0.023438 c 0.039063 0 0.136719 0.011719 0.226563 0.027344 c 0.21875 0.039062 0.492187 0.050781 1.0625 0.050781 c 0.511719 0 0.910156 -0.019531 1.078125 -0.054687 c 0.054688 -0.011719 0.132812 -0.023438 0.171875 -0.023438 c 0.042969 0 0.113281 -0.011719 0.15625 -0.023438 c 0.046875 -0.007812 0.101563 -0.019531 0.125 -0.019531 s 0.089844 -0.011719 0.148437 -0.027343 c 0.058594 -0.019532 0.125 -0.03125 0.148438 -0.03125 c 0.027344 0 0.074219 -0.007813 0.109375 -0.019532 c 0.0625 -0.019531 0.125 -0.035156 0.269531 -0.070312 c 0.097656 -0.023438 0.210938 -0.054688 0.289063 -0.082032 c 0.148437 -0.050781 0.21875 -0.074218 0.246093 -0.074218 c 0.015626 0 0.042969 -0.007813 0.058594 -0.019532 c 0.015625 -0.011718 0.058594 -0.027343 0.097656 -0.039062 c 0.035157 -0.007812 0.070313 -0.023438 0.074219 -0.027344 c 0.003907 -0.007812 0.019531 -0.015625 0.03125 -0.015625 c 0.015625 0 0.050781 -0.011719 0.085938 -0.027343 c 0.03125 -0.015626 0.0625 -0.03125 0.070312 -0.03125 c 0.011719 0 0.039063 -0.007813 0.0625 -0.019532 c 0.042969 -0.023437 0.160157 -0.074218 0.226563 -0.101562 c 0.023437 -0.011719 0.105468 -0.050782 0.179687 -0.085938 c 0.132813 -0.066406 0.160157 -0.078125 0.214844 -0.109375 c 0.015625 -0.007812 0.035156 -0.019531 0.046875 -0.023437 s 0.039062 -0.015625 0.058594 -0.027344 c 0.019531 -0.011719 0.078125 -0.039062 0.125 -0.066406 c 0.050781 -0.023438 0.089844 -0.050782 0.089844 -0.058594 s 0.015624 -0.011719 0.027343 -0.011719 c 0.019531 0 0.035157 -0.007812 0.039063 -0.015625 c 0.007812 -0.007812 0.03125 -0.023437 0.054687 -0.035156 c 0.027344 -0.011719 0.066407 -0.035156 0.089844 -0.050781 s 0.054687 -0.035157 0.070313 -0.039063 c 0.011718 -0.003906 0.023437 -0.011718 0.023437 -0.019531 c 0 -0.003906 0.023437 -0.019531 0.050781 -0.035156 c 0.027344 -0.011719 0.050782 -0.03125 0.050782 -0.035157 c 0 -0.011718 0.011718 -0.015624 0.03125 -0.015624 c 0.015624 0 0.027343 -0.007813 0.027343 -0.015626 c 0 -0.007812 0.019531 -0.023437 0.046875 -0.035156 c 0.023438 -0.015625 0.082032 -0.054687 0.128906 -0.089844 c 0.046876 -0.035156 0.089844 -0.0625 0.097657 -0.0625 c 0.011719 0 0.019531 -0.011718 0.023437 -0.023437 s 0.042969 -0.039063 0.082032 -0.0625 c 0.039062 -0.023437 0.070312 -0.050781 0.070312 -0.058594 c 0 -0.007812 0.007812 -0.015625 0.019531 -0.015625 c 0.007813 0 0.042969 -0.023437 0.074219 -0.050781 c 0.03125 -0.03125 0.09375 -0.082031 0.132812 -0.113281 c 0.042969 -0.03125 0.078126 -0.0625 0.078126 -0.070313 c 0 -0.003906 0.007812 -0.011719 0.015624 -0.011719 c 0.011719 0 0.039063 -0.023437 0.058594 -0.050781 c 0.023438 -0.027343 0.050782 -0.050781 0.0625 -0.050781 c 0.011719 0 0.023438 -0.011719 0.027344 -0.027344 s 0.015625 -0.027344 0.019531 -0.027344 c 0.007813 0 0.105469 -0.09375 0.214844 -0.207031 s 0.222656 -0.226562 0.253906 -0.253906 s 0.054688 -0.054687 0.054688 -0.0625 c 0 -0.011719 0.050781 -0.070313 0.121093 -0.148437 c 0.019532 -0.019532 0.039063 -0.046876 0.039063 -0.050782 s 0.019531 -0.027344 0.042969 -0.050781 l 0.042968 -0.042969 v 2.535156 h 4.511719 v -24.722656 h -2.265625 c -1.25 0 -2.273437 0.007813 -2.28125 0.011719 z m -4.8125 8.90625 c 0.085938 0.015625 0.207032 0.035156 0.277344 0.046875 c 0.066406 0.015625 0.152344 0.027344 0.1875 0.035156 c 0.101562 0.015625 0.265625 0.054688 0.410156 0.101563 c 0.058594 0.015625 0.125 0.035156 0.152344 0.042969 c 0.027344 0.003906 0.070312 0.019531 0.09375 0.035156 c 0.027344 0.011718 0.054688 0.023437 0.070312 0.023437 c 0.023438 0 0.066407 0.015625 0.191407 0.070313 c 0.03125 0.015625 0.085937 0.039062 0.121093 0.050781 c 0.039063 0.015625 0.089844 0.035156 0.121094 0.054687 c 0.027344 0.011719 0.058594 0.027344 0.070313 0.027344 c 0.007812 0 0.023437 0.007813 0.035156 0.019532 c 0.015625 0.011718 0.035156 0.023437 0.046875 0.023437 c 0.015625 0 0.035156 0.007813 0.046875 0.019531 c 0.007813 0.011719 0.035156 0.027344 0.058594 0.03125 c 0.023437 0.003906 0.046875 0.011719 0.050781 0.019532 c 0.003906 0.007812 0.046875 0.035156 0.101562 0.058593 c 0.050782 0.023438 0.09375 0.050781 0.09375 0.058594 s 0.011719 0.015625 0.023438 0.015625 c 0.015625 0 0.039062 0.011719 0.054688 0.027344 c 0.015624 0.015625 0.035156 0.027344 0.046874 0.027344 c 0.019532 0 0.105469 0.054687 0.121094 0.078124 c 0.007813 0.011719 0.054688 0.039063 0.101563 0.0625 c 0.023437 0.011719 0.148437 0.105469 0.191406 0.144532 c 0.011719 0.007812 0.03125 0.019531 0.039063 0.019531 c 0.007812 0 0.019531 0.011719 0.023437 0.023437 c 0.003906 0.011719 0.015625 0.019532 0.023437 0.019532 c 0.011719 0 0.152344 0.113281 0.207032 0.171875 c 0.019531 0.015625 0.039062 0.03125 0.042968 0.03125 c 0.007813 0 0.03125 0.023437 0.054688 0.050781 s 0.046875 0.050781 0.054688 0.050781 c 0.011718 0 0.289062 0.277344 0.289062 0.292969 c 0 0.003906 0.007812 0.011719 0.019531 0.011719 s 0.023438 0.007812 0.023438 0.019531 c 0 0.015625 0.007812 0.027344 0.019531 0.03125 c 0.011719 0.007812 0.023438 0.019531 0.023438 0.027344 c 0 0.011718 0.007812 0.023437 0.019531 0.023437 c 0.015625 0 0.027343 0.011719 0.035156 0.023438 c 0.003906 0.015625 0.015625 0.03125 0.027344 0.039062 c 0.007812 0.007813 0.042969 0.054688 0.082031 0.097657 c 0.039062 0.046874 0.085938 0.105468 0.101562 0.125 c 0.023438 0.023437 0.039063 0.046874 0.039063 0.054687 c 0 0.011719 0.007813 0.023437 0.015625 0.03125 c 0.011719 0.003906 0.035156 0.035156 0.054688 0.0625 c 0.019531 0.027344 0.039062 0.054687 0.050781 0.0625 c 0.007812 0.007813 0.03125 0.042969 0.050781 0.074219 s 0.042969 0.070312 0.058594 0.085937 s 0.039062 0.058594 0.058594 0.089844 c 0.015624 0.035156 0.039062 0.070313 0.050781 0.078125 s 0.019531 0.023438 0.019531 0.035156 c 0 0.011719 0.011719 0.027344 0.023438 0.035156 c 0.011718 0.011719 0.019531 0.03125 0.019531 0.042969 c 0 0.015625 0.011719 0.035157 0.023437 0.046875 c 0.015625 0.007813 0.03125 0.03125 0.035156 0.046875 c 0.007813 0.019531 0.019532 0.042969 0.027344 0.054688 c 0.035156 0.058593 0.046875 0.085937 0.132813 0.257812 c 0.089843 0.183594 0.121093 0.25 0.167969 0.355469 c 0.011718 0.03125 0.035156 0.082031 0.050781 0.109375 s 0.027343 0.066406 0.027343 0.082031 s 0.003907 0.035156 0.011719 0.039063 c 0.007813 0.003906 0.019531 0.027343 0.023438 0.054687 c 0.007812 0.023438 0.023437 0.070313 0.039062 0.101563 c 0.015625 0.027343 0.027344 0.066406 0.027344 0.089843 c 0 0.019532 0.003906 0.039063 0.011719 0.042969 c 0.007812 0.003907 0.015625 0.03125 0.023437 0.054688 c 0.011719 0.046875 0.054688 0.203125 0.082031 0.300781 c 0.011719 0.027344 0.023438 0.078125 0.027344 0.113281 c 0.003906 0.039063 0.019532 0.109375 0.03125 0.160157 c 0.035156 0.144531 0.054688 0.257812 0.070313 0.382812 c 0.003906 0.066406 0.019531 0.167969 0.027343 0.226562 c 0.015626 0.078126 0.023438 0.261719 0.023438 0.691407 c 0 0.496093 -0.007812 0.609375 -0.027344 0.71875 c -0.011718 0.070312 -0.023437 0.160156 -0.023437 0.195312 c 0 0.035157 -0.011719 0.101563 -0.023438 0.144531 c -0.011719 0.042969 -0.019531 0.105469 -0.019531 0.136719 s -0.015625 0.09375 -0.03125 0.136719 s -0.027344 0.101562 -0.027344 0.132812 c 0 0.027344 -0.011718 0.066407 -0.023437 0.089844 c -0.011719 0.023438 -0.019531 0.058594 -0.019531 0.074219 c 0 0.019531 -0.011719 0.070313 -0.027344 0.113281 c -0.015625 0.039063 -0.039063 0.113282 -0.050782 0.160156 c -0.03125 0.105469 -0.046874 0.152344 -0.085937 0.246094 c -0.015625 0.039063 -0.035156 0.09375 -0.042969 0.117188 c -0.003906 0.023437 -0.023437 0.066406 -0.03125 0.089844 c -0.011718 0.027343 -0.035156 0.074218 -0.046875 0.101562 c -0.03125 0.070312 -0.0625 0.144531 -0.125 0.277344 c -0.03125 0.0625 -0.054687 0.121094 -0.058593 0.132812 c -0.007813 0.011719 -0.027344 0.046875 -0.042969 0.078125 c -0.019531 0.03125 -0.054688 0.089844 -0.074219 0.128907 c -0.019531 0.039062 -0.054688 0.101562 -0.074219 0.132812 s -0.042969 0.074219 -0.050781 0.097656 c -0.007812 0.019532 -0.027344 0.039063 -0.035156 0.042969 c -0.011719 0.007813 -0.023438 0.019531 -0.023438 0.03125 s -0.019531 0.046875 -0.046875 0.082031 c -0.027343 0.035156 -0.050781 0.074219 -0.058593 0.085938 c -0.023438 0.046875 -0.050782 0.089844 -0.074219 0.113281 c -0.027344 0.03125 -0.121094 0.160156 -0.121094 0.167969 c 0 0.003906 -0.019531 0.027344 -0.039063 0.046875 c -0.019531 0.023437 -0.054687 0.066406 -0.082031 0.101562 c -0.023437 0.035157 -0.058593 0.082031 -0.082031 0.101563 c -0.019531 0.023437 -0.074219 0.085937 -0.117188 0.132812 c -0.136718 0.160156 -0.535156 0.550782 -0.5625 0.550782 c -0.003906 0 -0.019531 0.011718 -0.03125 0.027343 c -0.015624 0.015625 -0.0625 0.054688 -0.109374 0.089844 c -0.046876 0.035156 -0.101563 0.078125 -0.121094 0.09375 c -0.019532 0.019531 -0.042969 0.035156 -0.054688 0.035156 c -0.007812 0 -0.015625 0.003907 -0.015625 0.011719 s -0.023437 0.023438 -0.050781 0.039062 c -0.027344 0.015626 -0.050781 0.03125 -0.050781 0.039063 s -0.007813 0.011719 -0.015625 0.011719 c -0.007813 0 -0.070313 0.035156 -0.132813 0.082031 c -0.066406 0.042969 -0.148437 0.09375 -0.179687 0.109375 s -0.082032 0.042969 -0.113282 0.0625 c -0.035156 0.015625 -0.113281 0.058594 -0.183593 0.09375 c -0.066407 0.03125 -0.132813 0.066406 -0.144531 0.070312 c -0.011719 0.007813 -0.035157 0.023438 -0.058594 0.03125 c -0.050782 0.019532 -0.113282 0.046876 -0.1875 0.082032 c -0.035156 0.015625 -0.074219 0.03125 -0.085938 0.03125 c -0.011718 0 -0.035156 0.011718 -0.050781 0.023437 s -0.046875 0.019531 -0.066406 0.019531 c -0.023438 0 -0.042969 0.007813 -0.046875 0.015626 c -0.007813 0.011718 -0.121094 0.046874 -0.355469 0.117187 c -0.210937 0.058594 -0.257813 0.070313 -0.292969 0.070313 c -0.015625 0 -0.066406 0.011718 -0.105468 0.023437 c -0.09375 0.027344 -0.285157 0.054687 -0.722657 0.101563 c -0.277343 0.027343 -0.746093 0.027343 -0.96875 0 c -0.097656 -0.011719 -0.210937 -0.023438 -0.253906 -0.023438 s -0.117187 -0.011719 -0.167969 -0.023438 c -0.046875 -0.007812 -0.105468 -0.019531 -0.132812 -0.019531 c -0.03125 0 -0.101563 -0.011719 -0.160156 -0.027343 c -0.105469 -0.027344 -0.183594 -0.042969 -0.328126 -0.074219 c -0.03125 -0.003907 -0.082031 -0.019531 -0.113281 -0.035157 c -0.03125 -0.011718 -0.074219 -0.023437 -0.09375 -0.023437 c -0.023437 0 -0.054687 -0.007813 -0.070312 -0.019531 c -0.011719 -0.011719 -0.039063 -0.023438 -0.058594 -0.023438 s -0.0625 -0.011718 -0.09375 -0.027344 c -0.03125 -0.015624 -0.070313 -0.03125 -0.085937 -0.03125 c -0.023438 0 -0.042969 -0.007812 -0.175782 -0.074218 c -0.027344 -0.015625 -0.058594 -0.027344 -0.070312 -0.027344 c -0.019532 0 -0.152344 -0.054688 -0.199219 -0.085938 c -0.011719 -0.003906 -0.101563 -0.050781 -0.203125 -0.101562 c -0.101562 -0.046875 -0.21875 -0.109375 -0.269531 -0.136719 c -0.046875 -0.027343 -0.105469 -0.058593 -0.132813 -0.074219 c -0.023437 -0.007812 -0.046875 -0.027343 -0.046875 -0.035156 c 0 -0.007812 -0.003906 -0.011718 -0.015625 -0.011718 c -0.003906 0 -0.058594 -0.03125 -0.117187 -0.070313 c -0.054688 -0.039063 -0.117188 -0.078125 -0.136719 -0.089844 c -0.085938 -0.058593 -0.15625 -0.109375 -0.167969 -0.125 c -0.007812 -0.011719 -0.023437 -0.019531 -0.035156 -0.019531 s -0.023437 -0.011719 -0.027344 -0.023438 c -0.003906 -0.011718 -0.027343 -0.03125 -0.050781 -0.042968 c -0.019531 -0.011719 -0.054688 -0.035156 -0.070312 -0.054688 c -0.019532 -0.023437 -0.042969 -0.039062 -0.050782 -0.039062 c -0.011718 0 -0.035156 -0.023438 -0.058594 -0.050782 c -0.023437 -0.027343 -0.046874 -0.050781 -0.058593 -0.050781 c -0.019531 0 -0.527344 -0.511719 -0.527344 -0.535156 c 0 -0.007813 -0.007813 -0.015625 -0.015625 -0.015625 s -0.015625 -0.007812 -0.023438 -0.019531 c -0.003906 -0.015625 -0.023437 -0.042969 -0.046874 -0.0625 c -0.078126 -0.085938 -0.117188 -0.132813 -0.117188 -0.144531 c 0 -0.003907 -0.011719 -0.027344 -0.03125 -0.046876 c -0.050781 -0.054687 -0.113281 -0.140624 -0.113281 -0.15625 c 0 -0.003906 -0.011719 -0.023437 -0.023438 -0.03125 c -0.015625 -0.015624 -0.042969 -0.058593 -0.070312 -0.09375 c -0.058594 -0.097656 -0.074219 -0.125 -0.105469 -0.171874 c -0.011719 -0.019532 -0.050781 -0.082032 -0.082031 -0.136719 c -0.03125 -0.050781 -0.058594 -0.101563 -0.0625 -0.105469 c -0.007813 -0.003906 -0.023438 -0.035156 -0.039063 -0.070312 c -0.015625 -0.039063 -0.035156 -0.078126 -0.042968 -0.085938 c -0.011719 -0.011719 -0.03125 -0.058594 -0.050782 -0.101562 c -0.019531 -0.046876 -0.046875 -0.097657 -0.058594 -0.121094 c -0.015624 -0.019532 -0.027343 -0.042969 -0.027343 -0.054688 c 0 -0.007812 -0.007813 -0.035156 -0.019531 -0.054687 c -0.058594 -0.113281 -0.082032 -0.171875 -0.082032 -0.191407 c 0 -0.011718 -0.011718 -0.035156 -0.023437 -0.046874 c -0.011719 -0.015626 -0.019531 -0.039063 -0.019531 -0.050782 c -0.003907 -0.015625 -0.015626 -0.050781 -0.03125 -0.082031 c -0.015626 -0.03125 -0.027344 -0.066406 -0.027344 -0.078125 s -0.011719 -0.042969 -0.023438 -0.066406 c -0.007812 -0.019532 -0.019531 -0.050782 -0.019531 -0.0625 c 0 -0.011719 -0.011719 -0.054688 -0.027344 -0.097656 c -0.03125 -0.082032 -0.0625 -0.191407 -0.117187 -0.410157 c -0.007813 -0.027343 -0.023438 -0.101562 -0.035156 -0.160156 c -0.011719 -0.058594 -0.03125 -0.164063 -0.042969 -0.230469 c -0.015625 -0.070312 -0.03125 -0.183594 -0.039063 -0.261718 c -0.007812 -0.074219 -0.019531 -0.171876 -0.03125 -0.214844 c -0.027344 -0.132813 -0.019531 -1.191406 0.007813 -1.351563 c 0.015625 -0.074219 0.023437 -0.160156 0.023437 -0.199219 c 0 -0.039062 0.011719 -0.109374 0.023438 -0.152343 c 0.011718 -0.046875 0.027344 -0.125 0.035156 -0.171875 c 0.019531 -0.140625 0.046875 -0.253906 0.070312 -0.332032 c 0.011719 -0.042968 0.027344 -0.101562 0.03125 -0.132812 c 0.019532 -0.089844 0.042969 -0.183594 0.066407 -0.222656 c 0.011719 -0.023438 0.023437 -0.0625 0.035156 -0.09375 c 0.015625 -0.078125 0.042969 -0.148438 0.074219 -0.21875 c 0.015625 -0.03125 0.027344 -0.0625 0.027344 -0.074219 c 0 -0.019531 0.011718 -0.046875 0.09375 -0.222656 c 0.027343 -0.0625 0.050781 -0.121094 0.050781 -0.132813 c 0 -0.011718 0.003906 -0.027344 0.011719 -0.03125 c 0.003906 -0.003906 0.03125 -0.042968 0.050781 -0.089844 c 0.023437 -0.046874 0.046875 -0.097656 0.058593 -0.113281 c 0.003907 -0.015625 0.03125 -0.066406 0.058594 -0.117187 c 0.023438 -0.046875 0.0625 -0.113282 0.085938 -0.144532 c 0.019531 -0.03125 0.039062 -0.0625 0.039062 -0.074218 c 0 -0.007813 0.007813 -0.023438 0.023438 -0.035156 c 0.011718 -0.007813 0.039062 -0.046876 0.054687 -0.082032 c 0.023438 -0.039062 0.0625 -0.105468 0.09375 -0.148437 s 0.078125 -0.113281 0.105469 -0.152344 s 0.066406 -0.089844 0.089844 -0.109375 c 0.019531 -0.023438 0.035156 -0.046875 0.035156 -0.050781 c 0 -0.007813 0.011719 -0.023438 0.027344 -0.035157 c 0.011718 -0.015624 0.058594 -0.066406 0.097656 -0.113281 c 0.074219 -0.09375 0.503906 -0.535156 0.519531 -0.535156 c 0.003907 0 0.027344 -0.023437 0.050781 -0.050781 c 0.027344 -0.027344 0.050782 -0.050782 0.058594 -0.050782 c 0.007813 0 0.027344 -0.015624 0.046875 -0.035156 c 0.101563 -0.09375 0.140625 -0.125 0.152344 -0.125 s 0.023437 -0.007812 0.027344 -0.019531 c 0.011719 -0.019531 0.15625 -0.125 0.175781 -0.125 c 0.003906 0 0.019531 -0.011719 0.027344 -0.027344 c 0.011718 -0.015625 0.027344 -0.03125 0.035156 -0.03125 s 0.039062 -0.019531 0.070312 -0.039062 c 0.027344 -0.023438 0.078126 -0.058594 0.117188 -0.078125 c 0.035156 -0.019532 0.070312 -0.039063 0.078125 -0.050782 c 0.007813 -0.007812 0.0625 -0.042968 0.121094 -0.078124 c 0.0625 -0.035157 0.136719 -0.078126 0.167969 -0.09375 c 0.058593 -0.035157 0.097656 -0.054688 0.136718 -0.070313 c 0.011719 -0.003906 0.035156 -0.015625 0.046875 -0.023437 c 0.015625 -0.007813 0.039063 -0.019532 0.050781 -0.027344 c 0.027344 -0.015625 0.0625 -0.03125 0.148438 -0.070313 c 0.027344 -0.011719 0.0625 -0.027343 0.078125 -0.035156 c 0.011719 -0.003906 0.035156 -0.015625 0.050781 -0.023437 c 0.011719 -0.007813 0.046875 -0.023438 0.070313 -0.035157 c 0.027343 -0.011719 0.058593 -0.023437 0.070312 -0.023437 s 0.039063 -0.015625 0.066407 -0.03125 c 0.027343 -0.015625 0.058593 -0.027344 0.070312 -0.027344 s 0.039062 -0.011719 0.0625 -0.023438 c 0.023438 -0.011718 0.054688 -0.019531 0.066406 -0.019531 c 0.019532 0 0.054688 -0.015625 0.082032 -0.03125 c 0.03125 -0.015625 0.066406 -0.027343 0.082031 -0.027343 s 0.046875 -0.007813 0.070312 -0.019532 c 0.027344 -0.011718 0.070313 -0.023437 0.089844 -0.027344 c 0.027344 -0.003906 0.074219 -0.015624 0.109375 -0.03125 c 0.070312 -0.023437 0.175781 -0.046874 0.304688 -0.066406 c 0.042968 -0.007812 0.117187 -0.023437 0.167968 -0.035156 c 0.042969 -0.011719 0.109375 -0.023438 0.144532 -0.023438 c 0.03125 0 0.085937 -0.007812 0.121093 -0.015624 c 0.199219 -0.046876 1.265625 -0.050782 1.546875 -0.007813 z m 0 0"/>
        <path d="m 25.503906 49.773438 c 0 0.003906 -0.003906 5.492187 -0.003906 12.199218 v 12.191406 h 4.359375 c 2.695313 0 4.429687 -0.003906 4.542969 -0.011718 c 0.105468 -0.011719 0.316406 -0.023438 0.472656 -0.03125 c 0.152344 -0.007813 0.347656 -0.023438 0.425781 -0.035156 c 0.078125 -0.011719 0.183594 -0.023438 0.230469 -0.023438 s 0.132812 -0.007812 0.1875 -0.019531 s 0.132812 -0.023438 0.167969 -0.023438 c 0.035156 0 0.109375 -0.007812 0.167969 -0.023437 c 0.054687 -0.011719 0.144531 -0.027344 0.199218 -0.035156 c 0.058594 -0.003907 0.121094 -0.015626 0.144532 -0.027344 c 0.023437 -0.007813 0.066406 -0.015625 0.09375 -0.015625 c 0.03125 0 0.097656 -0.011719 0.148437 -0.027344 s 0.105469 -0.027344 0.121094 -0.027344 c 0.035156 0 0.195312 -0.035156 0.324219 -0.074219 c 0.109374 -0.03125 0.222656 -0.058593 0.277343 -0.066406 c 0.019531 -0.007812 0.066407 -0.019531 0.105469 -0.035156 c 0.042969 -0.015625 0.113281 -0.035156 0.160156 -0.050781 c 0.089844 -0.023438 0.121094 -0.03125 0.210938 -0.066407 c 0.027344 -0.007812 0.074218 -0.023437 0.101562 -0.035156 c 0.027344 -0.007812 0.070313 -0.023437 0.097656 -0.035156 c 0.023438 -0.007812 0.066407 -0.023438 0.09375 -0.03125 c 0.023438 -0.007812 0.066407 -0.023438 0.085938 -0.035156 c 0.023438 -0.011719 0.046875 -0.019532 0.058594 -0.019532 c 0.011718 0 0.097656 -0.039062 0.1875 -0.082031 c 0.023437 -0.011719 0.054687 -0.019531 0.066406 -0.019531 c 0.015625 0 0.042969 -0.015625 0.066406 -0.03125 c 0.019532 -0.015625 0.042969 -0.027344 0.050782 -0.027344 c 0.011718 0 0.035156 -0.007812 0.054687 -0.019531 c 0.085937 -0.046875 0.257813 -0.125 0.273437 -0.125 c 0.007813 0 0.027344 -0.011719 0.042969 -0.027344 c 0.011719 -0.019531 0.03125 -0.03125 0.042969 -0.03125 c 0.019531 0 0.125 -0.054687 0.289062 -0.152343 c 0.03125 -0.019532 0.085938 -0.046876 0.121094 -0.066407 c 0.039063 -0.019531 0.078125 -0.046875 0.09375 -0.058593 c 0.015625 -0.015626 0.039063 -0.027344 0.054688 -0.035157 c 0.015625 -0.003906 0.027344 -0.015625 0.027344 -0.019531 c 0 -0.007812 0.007812 -0.015625 0.019531 -0.015625 s 0.035156 -0.007813 0.050781 -0.023437 c 0.011719 -0.011719 0.066406 -0.050782 0.121094 -0.085938 c 0.054687 -0.035156 0.105468 -0.066406 0.109375 -0.074219 c 0.003906 -0.007812 0.019531 -0.019531 0.03125 -0.023437 c 0.105469 -0.066406 0.167969 -0.113282 0.175781 -0.132813 c 0.007812 -0.011719 0.023438 -0.019531 0.035156 -0.019531 c 0.011719 0 0.023438 -0.011719 0.03125 -0.019531 c 0.003906 -0.011719 0.035156 -0.039063 0.070313 -0.0625 c 0.03125 -0.023438 0.0625 -0.050781 0.070312 -0.058594 c 0.011719 -0.007813 0.042969 -0.03125 0.074219 -0.054687 c 0.089844 -0.074219 0.585938 -0.574219 0.671875 -0.679688 c 0.042969 -0.054688 0.085937 -0.105469 0.097656 -0.117188 c 0.007813 -0.011718 0.015625 -0.027343 0.015625 -0.035156 c 0 -0.007812 0.011719 -0.019531 0.019532 -0.027344 c 0.023437 -0.011718 0.125 -0.15625 0.125 -0.171874 c 0 -0.007813 0.011718 -0.019532 0.027343 -0.027344 c 0.011719 -0.007813 0.039063 -0.046875 0.058594 -0.085938 c 0.019531 -0.035156 0.039063 -0.066406 0.042969 -0.066406 c 0.007812 0 0.027344 -0.027344 0.046875 -0.066406 c 0.019531 -0.039063 0.042969 -0.082032 0.058593 -0.097656 c 0.011719 -0.015626 0.027344 -0.042969 0.035157 -0.0625 c 0.003906 -0.019532 0.015625 -0.03125 0.023437 -0.03125 c 0.007813 0 0.011719 -0.011719 0.011719 -0.023438 s 0.011719 -0.042969 0.027344 -0.0625 c 0.058593 -0.085938 0.277343 -0.535156 0.277343 -0.574219 c 0 -0.015625 0.011719 -0.042969 0.027344 -0.0625 c 0.015625 -0.023437 0.03125 -0.050781 0.03125 -0.0625 c 0 -0.015625 0.007813 -0.046875 0.019532 -0.066406 c 0.011718 -0.023437 0.027343 -0.0625 0.035156 -0.089844 c 0.03125 -0.089843 0.085937 -0.265625 0.121094 -0.367187 c 0.015624 -0.058594 0.039062 -0.132813 0.050781 -0.167969 s 0.019531 -0.078125 0.019531 -0.089844 c 0 -0.015625 0.011719 -0.066406 0.027344 -0.117187 c 0.03125 -0.101563 0.058594 -0.226563 0.074218 -0.34375 c 0.003907 -0.042969 0.019532 -0.128906 0.03125 -0.1875 c 0.039063 -0.183594 0.085938 -0.621094 0.113282 -1.070313 c 0.019531 -0.273437 0.007812 -0.898437 -0.015625 -1.085937 c -0.007813 -0.058594 -0.019531 -0.183594 -0.027344 -0.28125 c -0.007813 -0.09375 -0.023437 -0.195313 -0.03125 -0.222656 c -0.007813 -0.027344 -0.015625 -0.078126 -0.015625 -0.109376 s -0.011719 -0.105468 -0.027344 -0.164062 c -0.015625 -0.054688 -0.027344 -0.121094 -0.027344 -0.148438 c 0 -0.023437 -0.011718 -0.066406 -0.023437 -0.09375 c -0.011719 -0.027343 -0.019531 -0.066406 -0.019531 -0.085937 c 0 -0.027344 -0.027344 -0.125 -0.082032 -0.296875 c -0.011718 -0.035156 -0.019531 -0.074219 -0.019531 -0.082031 c 0 -0.011719 -0.015625 -0.046875 -0.03125 -0.078125 c -0.015625 -0.035156 -0.027343 -0.074219 -0.027343 -0.085938 c 0 -0.015625 -0.007813 -0.046875 -0.019532 -0.074218 c -0.011718 -0.027344 -0.035156 -0.082032 -0.054687 -0.128907 c -0.058594 -0.148437 -0.125 -0.296875 -0.144531 -0.332031 c -0.007813 -0.011719 -0.019532 -0.03125 -0.023438 -0.042969 s -0.011719 -0.03125 -0.019531 -0.046875 c -0.007813 -0.011718 -0.019531 -0.035156 -0.027344 -0.050781 c -0.007813 -0.011719 -0.015625 -0.035156 -0.019531 -0.046875 c -0.007813 -0.011719 -0.027344 -0.046875 -0.046875 -0.078125 c -0.015625 -0.03125 -0.046875 -0.089844 -0.066407 -0.125 c -0.015624 -0.035156 -0.042968 -0.074219 -0.054687 -0.089844 c -0.023437 -0.027343 -0.050781 -0.074219 -0.074219 -0.117187 c -0.003906 -0.019532 -0.019531 -0.039063 -0.035156 -0.050782 c -0.011719 -0.011718 -0.023438 -0.027343 -0.023438 -0.039062 c 0 -0.007812 -0.007812 -0.019531 -0.019531 -0.027344 c -0.011719 -0.003906 -0.023437 -0.019531 -0.023437 -0.035156 s -0.003906 -0.03125 -0.011719 -0.03125 s -0.03125 -0.027344 -0.050781 -0.0625 c -0.023438 -0.03125 -0.050782 -0.070312 -0.0625 -0.082031 c -0.011719 -0.011719 -0.046875 -0.058594 -0.078125 -0.101563 c -0.035157 -0.042968 -0.070313 -0.085937 -0.082031 -0.089844 c -0.007813 -0.007812 -0.019532 -0.015624 -0.019532 -0.027343 c 0 -0.019531 -0.0625 -0.089844 -0.351562 -0.378907 c -0.144532 -0.144531 -0.273438 -0.269531 -0.285156 -0.273437 c -0.015626 -0.003906 -0.027344 -0.015625 -0.027344 -0.023437 c 0 -0.007813 -0.011719 -0.015626 -0.019532 -0.015626 c -0.011718 0 -0.023437 -0.007812 -0.023437 -0.011718 c 0 -0.007813 -0.046875 -0.046875 -0.101563 -0.089844 c -0.054687 -0.042969 -0.101562 -0.082031 -0.101562 -0.089844 c 0 -0.003906 -0.011719 -0.011718 -0.027344 -0.011718 s -0.03125 -0.007813 -0.03125 -0.015626 c 0 -0.007812 -0.03125 -0.035156 -0.070312 -0.058593 c -0.039063 -0.023438 -0.074219 -0.050781 -0.074219 -0.054688 c 0 -0.003906 -0.035156 -0.027343 -0.078125 -0.050781 s -0.078125 -0.046875 -0.078125 -0.054688 c 0 -0.003906 -0.03125 -0.023437 -0.0625 -0.039062 c -0.035156 -0.019531 -0.074219 -0.042969 -0.089844 -0.058594 s -0.042969 -0.03125 -0.0625 -0.035156 s -0.03125 -0.015625 -0.03125 -0.023438 c 0 -0.007812 -0.011719 -0.015624 -0.027343 -0.015624 c -0.015626 0 -0.039063 -0.011719 -0.054688 -0.027344 s -0.035156 -0.027344 -0.050781 -0.027344 s -0.03125 -0.007812 -0.035157 -0.015625 c -0.003906 -0.007813 -0.03125 -0.023437 -0.054687 -0.035156 c -0.027344 -0.011719 -0.058594 -0.027344 -0.066406 -0.035157 c -0.011719 -0.007812 -0.035157 -0.019531 -0.046875 -0.023437 c -0.011719 -0.003906 -0.050782 -0.027344 -0.09375 -0.050781 c -0.039063 -0.023438 -0.082032 -0.042969 -0.09375 -0.042969 c -0.011719 0 -0.03125 -0.011719 -0.042969 -0.023437 c -0.007813 -0.011719 -0.027344 -0.019532 -0.042969 -0.019532 c -0.011718 0 -0.039062 -0.011718 -0.054687 -0.023437 c -0.039063 -0.027344 -0.027344 -0.054688 0.050781 -0.089844 c 0.027344 -0.011719 0.046875 -0.027344 0.046875 -0.035156 c 0 -0.007813 0.011719 -0.011719 0.03125 -0.011719 c 0.015625 0 0.027344 -0.007812 0.027344 -0.011719 c 0 -0.007812 0.011719 -0.019531 0.027343 -0.023437 c 0.023438 -0.007813 0.148438 -0.09375 0.207032 -0.140625 c 0.011718 -0.011719 0.03125 -0.027344 0.042968 -0.035157 c 0.082032 -0.050781 0.230469 -0.15625 0.230469 -0.164062 c 0 -0.003906 0.054688 -0.050781 0.121094 -0.101562 c 0.066406 -0.054688 0.125 -0.101563 0.125 -0.113282 c 0 -0.007812 0.007813 -0.019531 0.019531 -0.019531 c 0.027344 0 0.425782 -0.398437 0.515625 -0.519531 c 0.019531 -0.027344 0.058594 -0.078125 0.089844 -0.113282 c 0.03125 -0.035156 0.078125 -0.101562 0.109375 -0.144531 c 0.027344 -0.039062 0.054688 -0.074219 0.0625 -0.074219 c 0.003906 0 0.011719 -0.011718 0.011719 -0.027343 s 0.007812 -0.03125 0.019531 -0.035157 c 0.011719 -0.007812 0.03125 -0.023437 0.039062 -0.042968 c 0.007813 -0.019532 0.023438 -0.050782 0.039063 -0.070313 c 0.082031 -0.121093 0.207031 -0.34375 0.207031 -0.367187 c 0 -0.011719 0.011719 -0.027344 0.027344 -0.042969 s 0.027344 -0.035156 0.027344 -0.046875 c 0 -0.007812 0.011718 -0.035156 0.023437 -0.058594 c 0.085938 -0.179687 0.191407 -0.433594 0.222657 -0.558594 c 0.007812 -0.027343 0.023437 -0.074218 0.035156 -0.109374 c 0.050781 -0.148438 0.066406 -0.210938 0.066406 -0.238282 c 0.003906 -0.015625 0.015625 -0.066406 0.03125 -0.109375 s 0.027344 -0.101562 0.027344 -0.128906 s 0.011718 -0.078125 0.023437 -0.109375 s 0.019531 -0.089844 0.019531 -0.125 c 0 -0.039062 0.011719 -0.105469 0.023438 -0.152344 c 0.023438 -0.085937 0.042969 -0.335937 0.0625 -0.722656 c 0.015625 -0.335938 -0.015625 -1.027344 -0.0625 -1.335938 c -0.042969 -0.3125 -0.066406 -0.441406 -0.089844 -0.535156 c -0.011718 -0.054687 -0.027344 -0.132812 -0.035156 -0.175781 c -0.003906 -0.042969 -0.015625 -0.09375 -0.023438 -0.109375 c -0.007812 -0.015625 -0.019531 -0.054688 -0.023437 -0.089844 c -0.007813 -0.035156 -0.019531 -0.082031 -0.03125 -0.105468 c -0.011719 -0.019532 -0.023437 -0.058594 -0.023437 -0.082032 c 0 -0.019531 -0.007813 -0.058594 -0.019532 -0.082031 c -0.011718 -0.019531 -0.023437 -0.050781 -0.023437 -0.066406 s -0.011719 -0.054688 -0.027344 -0.089844 c -0.03125 -0.074219 -0.058594 -0.152344 -0.066406 -0.199219 c -0.007813 -0.019531 -0.023438 -0.054687 -0.035157 -0.074218 c -0.015624 -0.019532 -0.027343 -0.046876 -0.027343 -0.0625 c 0 -0.011719 -0.011719 -0.042969 -0.023438 -0.066407 c -0.078125 -0.175781 -0.125 -0.285156 -0.140625 -0.308593 c -0.015625 -0.03125 -0.058594 -0.113282 -0.085937 -0.171876 c -0.007813 -0.015624 -0.03125 -0.058593 -0.046875 -0.089843 c -0.023438 -0.03125 -0.042969 -0.074219 -0.054688 -0.097657 c -0.007812 -0.023437 -0.019531 -0.039062 -0.023437 -0.039062 c -0.007813 0 -0.027344 -0.035156 -0.050781 -0.078125 c -0.023438 -0.039063 -0.058594 -0.101563 -0.082032 -0.132813 c -0.023437 -0.03125 -0.042968 -0.066406 -0.042968 -0.074218 c 0 -0.011719 -0.007813 -0.019532 -0.015626 -0.019532 c -0.007812 0 -0.03125 -0.027343 -0.050781 -0.058593 c -0.050781 -0.085938 -0.253906 -0.335938 -0.277343 -0.351563 c -0.007813 -0.003906 -0.019532 -0.015625 -0.019532 -0.023437 c 0 -0.039063 -0.597656 -0.636719 -0.632812 -0.636719 c -0.007813 0 -0.015625 -0.011719 -0.023438 -0.023438 c -0.003906 -0.007812 -0.011718 -0.019531 -0.019531 -0.019531 c -0.011719 0 -0.085937 -0.058593 -0.15625 -0.128906 c -0.019531 -0.015625 -0.042969 -0.03125 -0.054687 -0.03125 c -0.011719 0 -0.023438 -0.003906 -0.023438 -0.011719 c 0 -0.007812 -0.027344 -0.03125 -0.0625 -0.054687 c -0.03125 -0.023438 -0.066406 -0.046875 -0.070312 -0.054688 c -0.003907 -0.003906 -0.019532 -0.019531 -0.039063 -0.027343 c -0.015625 -0.011719 -0.085937 -0.054688 -0.15625 -0.105469 c -0.070313 -0.046875 -0.140625 -0.09375 -0.15625 -0.101563 c -0.019531 -0.007812 -0.058594 -0.03125 -0.089844 -0.054687 c -0.027343 -0.019531 -0.0625 -0.039063 -0.066406 -0.039063 c -0.007813 0 -0.027344 -0.007812 -0.039063 -0.019531 c -0.011718 -0.011719 -0.058593 -0.042969 -0.101562 -0.0625 c -0.042969 -0.023437 -0.09375 -0.046875 -0.109375 -0.058594 c -0.015625 -0.007812 -0.058594 -0.03125 -0.101563 -0.046875 c -0.039062 -0.023437 -0.085937 -0.046875 -0.101562 -0.054687 c -0.015625 -0.007813 -0.0625 -0.03125 -0.105469 -0.054688 c -0.042969 -0.019531 -0.089843 -0.039062 -0.101562 -0.046875 c -0.039063 -0.023437 -0.214844 -0.09375 -0.355469 -0.148437 c -0.046875 -0.019531 -0.09375 -0.039063 -0.105469 -0.046875 c -0.007812 -0.007813 -0.039062 -0.019532 -0.0625 -0.023438 c -0.054687 -0.011718 -0.117187 -0.035156 -0.214843 -0.074218 c -0.117188 -0.042969 -0.164063 -0.058594 -0.230469 -0.070313 c -0.03125 -0.007813 -0.074219 -0.023437 -0.09375 -0.03125 c -0.015625 -0.007813 -0.054688 -0.023437 -0.082031 -0.027344 c -0.085938 -0.019531 -0.179688 -0.042969 -0.222657 -0.058593 c -0.023437 -0.011719 -0.078125 -0.023438 -0.117187 -0.03125 c -0.039063 -0.007813 -0.09375 -0.023438 -0.121094 -0.035157 c -0.023438 -0.011719 -0.066406 -0.019531 -0.09375 -0.019531 s -0.085938 -0.011719 -0.132812 -0.027344 c -0.046876 -0.015625 -0.101563 -0.03125 -0.128907 -0.03125 c -0.023437 0 -0.074219 -0.007812 -0.113281 -0.019531 s -0.09375 -0.023437 -0.125 -0.023437 c -0.027344 0 -0.101562 -0.011719 -0.160156 -0.027344 s -0.136719 -0.03125 -0.171875 -0.03125 c -0.039063 0 -0.105469 -0.007813 -0.152344 -0.019532 c -0.046875 -0.011718 -0.117187 -0.023437 -0.152344 -0.023437 c -0.035156 0 -0.148437 -0.011719 -0.246093 -0.027344 c -0.101563 -0.015625 -0.222657 -0.03125 -0.273438 -0.03125 c -0.054688 0 -0.183594 -0.011719 -0.292969 -0.023437 c -0.175781 -0.019532 -0.613281 -0.023438 -4.539062 -0.03125 c -2.386719 -0.003906 -4.347657 -0.003906 -4.351563 -0.003906 z m 8.488282 4.195312 c 0.121093 0.007812 0.269531 0.023438 0.324218 0.03125 c 0.277344 0.035156 0.339844 0.046875 0.421875 0.0625 c 0.046875 0.007812 0.117188 0.019531 0.15625 0.023438 c 0.078125 0.011718 0.25 0.050781 0.320313 0.074218 c 0.023437 0.011719 0.074218 0.023438 0.109375 0.027344 c 0.039062 0.007812 0.085937 0.023438 0.101562 0.035156 c 0.019531 0.011719 0.050781 0.023438 0.070313 0.023438 c 0.019531 0 0.050781 0.011718 0.0625 0.019531 c 0.015625 0.011719 0.042968 0.023437 0.054687 0.023437 s 0.054688 0.015626 0.089844 0.03125 c 0.03125 0.015626 0.082031 0.039063 0.109375 0.050782 c 0.027344 0.011718 0.0625 0.027344 0.074219 0.035156 s 0.042969 0.023438 0.066406 0.035156 c 0.050781 0.027344 0.082031 0.042969 0.167969 0.105469 c 0.039062 0.023437 0.074218 0.046875 0.082031 0.046875 s 0.019531 0.007812 0.027344 0.019531 c 0.003906 0.007813 0.035156 0.03125 0.0625 0.054688 c 0.054687 0.042969 0.214843 0.199219 0.277343 0.273437 c 0.070313 0.082032 0.199219 0.273438 0.199219 0.292969 c 0 0.011719 0.011719 0.03125 0.027344 0.046875 c 0.015625 0.011719 0.03125 0.035156 0.03125 0.042969 c 0 0.011719 0.007813 0.035156 0.019531 0.058593 c 0.085938 0.175782 0.164063 0.4375 0.203125 0.6875 c 0.03125 0.207032 0.03125 0.847657 0 1.03125 c -0.039062 0.226563 -0.109375 0.496094 -0.152343 0.574219 c -0.015626 0.03125 -0.027344 0.0625 -0.027344 0.070313 c 0 0.03125 -0.144532 0.316406 -0.195313 0.390625 c -0.027343 0.039062 -0.050781 0.074219 -0.050781 0.078125 c 0 0.035156 -0.285156 0.359375 -0.40625 0.464844 c -0.042969 0.039062 -0.085938 0.082031 -0.089844 0.089843 c -0.007812 0.011719 -0.023437 0.019531 -0.035156 0.019531 s -0.023438 0.007813 -0.027344 0.019532 c -0.011718 0.027344 -0.195312 0.144531 -0.347656 0.222656 c -0.015625 0.007812 -0.046875 0.023438 -0.074219 0.039062 c -0.023437 0.011719 -0.050781 0.023438 -0.0625 0.023438 c -0.007812 0 -0.03125 0.011719 -0.054687 0.027344 c -0.019532 0.015625 -0.046875 0.027344 -0.058594 0.027344 c -0.015625 0 -0.046875 0.011718 -0.070312 0.023437 c -0.019532 0.011719 -0.050782 0.019531 -0.0625 0.019531 c -0.011719 0 -0.046876 0.015625 -0.078126 0.03125 s -0.074218 0.027344 -0.09375 0.027344 c -0.023437 0 -0.042968 0.007812 -0.050781 0.015625 c -0.007812 0.007813 -0.050781 0.019531 -0.09375 0.027344 c -0.042969 0.007812 -0.121093 0.023437 -0.167969 0.035156 c -0.183593 0.046875 -0.289062 0.066406 -0.335937 0.066406 c -0.023437 0 -0.09375 0.011719 -0.152344 0.023438 c -0.054687 0.011719 -0.199219 0.03125 -0.3125 0.035156 c -0.117187 0.007813 -0.285156 0.019531 -0.378906 0.027344 c -0.089844 0.007812 -0.945313 0.015625 -1.898437 0.015625 h -1.730469 v -2.765625 c 0 -1.523438 0.003906 -2.773438 0.007812 -2.78125 c 0.019531 -0.015625 3.691407 0 3.941407 0.019531 z m 0.597656 9.800781 c 0.09375 0.011719 0.238281 0.03125 0.324218 0.039063 c 0.203126 0.015625 0.363282 0.039062 0.484376 0.066406 c 0.054687 0.011719 0.132812 0.027344 0.175781 0.035156 c 0.136719 0.023438 0.328125 0.070313 0.480469 0.125 c 0.03125 0.007813 0.066406 0.019532 0.074218 0.019532 c 0.007813 0 0.046875 0.011718 0.085938 0.03125 c 0.039062 0.015624 0.074218 0.03125 0.082031 0.027343 c 0.007813 0 0.027344 0.007813 0.050781 0.019531 c 0.074219 0.039063 0.171875 0.078126 0.183594 0.078126 s 0.023438 0.011718 0.035156 0.023437 c 0.011719 0.011719 0.027344 0.023437 0.042969 0.023437 s 0.035156 0.007813 0.042969 0.019532 c 0.007812 0.011718 0.046875 0.035156 0.085937 0.054687 c 0.066407 0.03125 0.167969 0.101563 0.226563 0.15625 c 0.019531 0.015625 0.035156 0.027344 0.042968 0.027344 c 0.003907 0 0.03125 0.027344 0.058594 0.054687 c 0.03125 0.03125 0.085938 0.078126 0.113282 0.109376 c 0.105468 0.097656 0.152343 0.152343 0.152343 0.167968 c 0 0.007813 0.007813 0.015625 0.011719 0.015625 c 0.015625 0 0.132812 0.167969 0.132812 0.1875 c 0 0.007813 0.011719 0.019531 0.023438 0.03125 c 0.015625 0.011719 0.03125 0.03125 0.035156 0.050781 c 0.007813 0.015626 0.03125 0.054688 0.050782 0.085938 c 0.070312 0.121094 0.128906 0.253906 0.21875 0.503906 c 0.023437 0.078125 0.035156 0.125 0.0625 0.261719 c 0.007812 0.046875 0.027343 0.128906 0.039062 0.179687 c 0.011719 0.054688 0.027344 0.230469 0.039062 0.390626 c 0.015626 0.339843 0 0.78125 -0.039062 0.949218 c -0.015625 0.054688 -0.039062 0.15625 -0.054688 0.222656 c -0.015624 0.070313 -0.039062 0.144532 -0.050781 0.167969 c -0.011719 0.019531 -0.019531 0.054688 -0.019531 0.066407 c 0 0.046874 -0.234375 0.535156 -0.261719 0.546874 c -0.007812 0 -0.03125 0.035157 -0.050781 0.074219 c -0.023438 0.039063 -0.042969 0.070313 -0.050781 0.070313 c -0.003907 0 -0.03125 0.03125 -0.0625 0.074218 c -0.085938 0.121094 -0.253907 0.285157 -0.414063 0.414063 c -0.085937 0.066406 -0.164062 0.121094 -0.167968 0.121094 c -0.007813 0 -0.023438 0.011719 -0.039063 0.027343 c -0.011719 0.011719 -0.050781 0.039063 -0.085937 0.058594 c -0.03125 0.019532 -0.085938 0.046875 -0.117188 0.066406 c -0.03125 0.019532 -0.070312 0.039063 -0.082031 0.042969 c -0.011719 0.003907 -0.03125 0.015625 -0.046875 0.023438 c -0.050782 0.027343 -0.078125 0.039062 -0.132813 0.0625 c -0.03125 0.015625 -0.082031 0.039062 -0.117187 0.050781 c -0.132813 0.0625 -0.320313 0.125 -0.496094 0.167969 c -0.042969 0.011719 -0.117188 0.027343 -0.160156 0.039062 c -0.175782 0.046875 -0.273438 0.066407 -0.320313 0.066407 c -0.027343 0 -0.085937 0.011718 -0.128906 0.023437 s -0.152344 0.027344 -0.246094 0.035156 c -0.089843 0.007813 -0.21875 0.023438 -0.28125 0.03125 c -0.085937 0.011719 -0.683593 0.015625 -2.292969 0.019531 h -2.175781 l -0.003906 -3.101562 c -0.003906 -1.707031 0 -3.113281 0.003906 -3.125 c 0.003907 -0.015625 0.355469 -0.015625 2.1875 -0.011719 c 1.933594 0.007813 2.199219 0.011719 2.351563 0.03125 z m 0 0"/>
        <path d="m 93.582031 54.199219 c -0.03125 0 -0.140625 0.011719 -0.242187 0.023437 c -0.101563 0.011719 -0.222656 0.023438 -0.273438 0.023438 c -0.050781 0 -0.117187 0.007812 -0.144531 0.015625 c -0.027344 0.007812 -0.109375 0.019531 -0.179687 0.027343 c -0.070313 0.007813 -0.179688 0.023438 -0.242188 0.035157 c -0.117188 0.019531 -0.25 0.046875 -0.363281 0.066406 c -0.050781 0.007813 -0.140625 0.027344 -0.320313 0.074219 c -0.03125 0.007812 -0.082031 0.019531 -0.113281 0.027344 c -0.03125 0.003906 -0.085937 0.019531 -0.121094 0.035156 c -0.035156 0.011718 -0.078125 0.023437 -0.09375 0.023437 c -0.019531 0 -0.039062 0.003907 -0.046875 0.011719 c -0.007812 0.007812 -0.042968 0.023438 -0.078125 0.027344 c -0.035156 0.007812 -0.097656 0.027344 -0.136719 0.039062 c -0.039062 0.015625 -0.097656 0.035156 -0.125 0.042969 c -0.050781 0.019531 -0.121093 0.042969 -0.195312 0.070313 c -0.023438 0.007812 -0.0625 0.023437 -0.089844 0.035156 c -0.023437 0.007812 -0.054687 0.019531 -0.0625 0.019531 c -0.011718 0 -0.042968 0.011719 -0.070312 0.027344 c -0.023438 0.015625 -0.054688 0.027343 -0.066406 0.027343 c -0.011719 0 -0.039063 0.011719 -0.058594 0.023438 c -0.023438 0.011719 -0.09375 0.042969 -0.15625 0.074219 c -0.066406 0.027343 -0.144532 0.0625 -0.175782 0.078125 c -0.136718 0.0625 -0.324218 0.15625 -0.378906 0.1875 c -0.015625 0.007812 -0.046875 0.023437 -0.070312 0.035156 c -0.027344 0.011719 -0.050782 0.027344 -0.058594 0.039062 c -0.003906 0.003907 -0.019531 0.011719 -0.035156 0.011719 s -0.027344 0.007813 -0.027344 0.015625 c 0 0.003906 -0.023438 0.023438 -0.046875 0.035156 c -0.058594 0.027344 -0.078125 0.042969 -0.207031 0.125 c -0.050782 0.035157 -0.125 0.078126 -0.160156 0.101563 c -0.03125 0.019531 -0.082032 0.054687 -0.105469 0.074219 c -0.027344 0.023437 -0.066407 0.050781 -0.089844 0.0625 c -0.023437 0.011718 -0.042969 0.027344 -0.042969 0.035156 s -0.007812 0.015625 -0.019531 0.015625 s -0.027344 0.007813 -0.035156 0.019531 c -0.003907 0.007813 -0.039063 0.039063 -0.078125 0.066406 c -0.039063 0.023438 -0.082032 0.054688 -0.09375 0.070313 c -0.015625 0.015625 -0.066406 0.058594 -0.113282 0.097656 c -0.113281 0.09375 -0.152343 0.128907 -0.25 0.21875 c -0.042968 0.042969 -0.082031 0.074219 -0.089843 0.074219 c -0.007813 0 -0.015625 0.011719 -0.019531 0.027344 c -0.003907 0.011718 -0.03125 0.042968 -0.058594 0.058594 c -0.027344 0.019531 -0.050782 0.039062 -0.050782 0.046874 c 0 0.007813 -0.046874 0.058594 -0.105468 0.117188 s -0.117188 0.125 -0.132813 0.144531 s -0.0625 0.074219 -0.101562 0.121094 c -0.148438 0.175781 -0.316407 0.402344 -0.394531 0.527344 c -0.023438 0.035156 -0.042969 0.070312 -0.050782 0.070312 c -0.007812 0.003907 -0.027344 0.039063 -0.042968 0.078125 c -0.015626 0.039063 -0.035157 0.070313 -0.039063 0.070313 c -0.007813 0 -0.023437 0.019531 -0.035156 0.046875 c -0.015625 0.023437 -0.042969 0.070312 -0.058594 0.105468 c -0.019531 0.03125 -0.042969 0.070313 -0.050781 0.089844 c -0.023438 0.046875 -0.066406 0.136719 -0.085938 0.167969 c -0.03125 0.0625 -0.117187 0.253906 -0.117187 0.265625 c 0 0.015625 -0.054688 0.140625 -0.082031 0.195312 c -0.011719 0.019532 -0.019532 0.046876 -0.019532 0.0625 c 0 0.015626 -0.011718 0.046876 -0.023437 0.070313 c -0.011719 0.019531 -0.019531 0.050781 -0.019531 0.0625 s -0.015626 0.054687 -0.027344 0.097656 c -0.03125 0.074219 -0.054688 0.164063 -0.074219 0.257813 c -0.007813 0.035156 -0.019531 0.101562 -0.035156 0.152344 c -0.0625 0.261718 -0.101563 0.664062 -0.101563 1.035156 c 0 0.296875 0.027344 0.710937 0.058594 0.882812 c 0.011719 0.0625 0.019531 0.136719 0.019531 0.164063 c 0 0.027343 0.011719 0.09375 0.027344 0.148437 c 0.015625 0.058594 0.03125 0.121094 0.03125 0.140625 s 0.007813 0.066407 0.019531 0.101563 c 0.011719 0.035156 0.035156 0.117187 0.050782 0.175781 c 0.019531 0.058594 0.042968 0.128906 0.054687 0.15625 s 0.019531 0.058594 0.019531 0.074219 c 0 0.011718 0.011719 0.046875 0.027344 0.082031 c 0.015625 0.03125 0.039062 0.085937 0.054688 0.121094 c 0.011718 0.035156 0.042968 0.105469 0.0625 0.152343 c 0.023437 0.046876 0.046874 0.101563 0.058593 0.121094 c 0.007813 0.023438 0.03125 0.0625 0.050781 0.097656 c 0.019532 0.03125 0.042969 0.074219 0.050782 0.09375 c 0.007812 0.023438 0.019531 0.042969 0.027344 0.042969 c 0.003906 0 0.027343 0.035157 0.046874 0.074219 c 0.023438 0.042969 0.070313 0.117188 0.105469 0.164062 c 0.035157 0.046876 0.082031 0.113282 0.101563 0.152344 c 0.023437 0.035156 0.046875 0.066406 0.050781 0.070313 c 0.007813 0.003906 0.050781 0.058593 0.101563 0.125 c 0.046874 0.0625 0.097656 0.121093 0.109374 0.125 c 0.011719 0.007812 0.019532 0.019531 0.019532 0.03125 c 0 0.019531 0.554687 0.574219 0.570312 0.574219 c 0.007813 0 0.035156 0.019531 0.066406 0.046874 c 0.027344 0.023438 0.070313 0.0625 0.097657 0.082032 c 0.027343 0.019531 0.058593 0.046875 0.070312 0.054687 c 0.007813 0.007813 0.023438 0.019531 0.027344 0.019531 s 0.039063 0.019532 0.070313 0.050782 c 0.035156 0.027344 0.066406 0.046875 0.074218 0.046875 c 0.003906 0 0.039063 0.023437 0.070313 0.050781 c 0.035156 0.027344 0.074219 0.050781 0.085937 0.050781 c 0.015625 0 0.023438 0.007813 0.023438 0.015625 c 0 0.011719 0.050781 0.046875 0.136718 0.09375 c 0.078126 0.042969 0.101563 0.058594 0.121094 0.074219 c 0.011719 0.011719 0.027344 0.019531 0.039063 0.019531 s 0.027343 0.011719 0.035156 0.023438 c 0.011719 0.011718 0.03125 0.019531 0.046875 0.019531 c 0.011719 0 0.035156 0.015625 0.050781 0.03125 c 0.011719 0.015625 0.03125 0.027344 0.042969 0.027344 c 0.007812 0 0.042969 0.015625 0.078125 0.035156 c 0.035156 0.023437 0.082031 0.046875 0.101563 0.054687 c 0.019531 0.007813 0.046874 0.019532 0.058593 0.027344 c 0.011719 0.007813 0.03125 0.019532 0.042969 0.023438 s 0.03125 0.011718 0.042969 0.019531 s 0.039062 0.019531 0.058593 0.03125 c 0.019532 0.007813 0.050782 0.023437 0.074219 0.035156 c 0.019531 0.011719 0.046875 0.019531 0.058594 0.019531 c 0.007813 0 0.035156 0.011719 0.054687 0.03125 c 0.019532 0.015626 0.050782 0.027344 0.066407 0.027344 s 0.039062 0.011719 0.050781 0.019532 c 0.007812 0.011718 0.03125 0.023437 0.046875 0.023437 s 0.050781 0.011719 0.078125 0.027344 c 0.027344 0.019531 0.058594 0.03125 0.070312 0.03125 c 0.011719 0 0.039063 0.007812 0.058594 0.019531 c 0.023438 0.011719 0.0625 0.027344 0.089844 0.035156 c 0.101562 0.035156 0.140625 0.050782 0.183594 0.070313 c 0.027344 0.011719 0.054687 0.019531 0.070312 0.019531 c 0.011719 0 0.046875 0.011719 0.082032 0.027344 c 0.03125 0.015625 0.066406 0.03125 0.082031 0.03125 s 0.046875 0.007812 0.070312 0.019531 c 0.023438 0.011719 0.058594 0.023437 0.078125 0.023437 c 0.019532 0 0.054688 0.007813 0.078125 0.019532 c 0.023438 0.011718 0.066407 0.027344 0.101563 0.03125 c 0.03125 0.007812 0.070312 0.015625 0.085937 0.023437 c 0.015625 0.011719 0.054688 0.023438 0.089844 0.027344 c 0.03125 0.007813 0.089844 0.023437 0.128906 0.035156 c 0.113281 0.039063 0.167969 0.054688 0.230469 0.066407 c 0.03125 0.007812 0.085938 0.019531 0.125 0.03125 c 0.078125 0.027343 0.175781 0.054687 0.25 0.066406 c 0.035156 0.007812 0.089844 0.023437 0.125 0.035156 c 0.03125 0.015625 0.082031 0.023438 0.105469 0.023438 c 0.027343 0.003906 0.0625 0.011718 0.082031 0.023437 s 0.054688 0.019531 0.078125 0.023437 c 0.027344 0 0.082031 0.011719 0.128906 0.027344 c 0.042969 0.015625 0.097657 0.027344 0.117188 0.027344 s 0.054687 0.007812 0.078125 0.015625 c 0.019531 0.011719 0.070312 0.023437 0.109375 0.027344 c 0.042969 0.007812 0.121093 0.023437 0.175781 0.039062 c 0.1875 0.042969 0.230469 0.054688 0.296875 0.0625 c 0.035156 0.007813 0.109375 0.023438 0.164063 0.039063 c 0.183593 0.042968 0.230468 0.054687 0.304687 0.066406 c 0.042969 0.003906 0.105469 0.019531 0.144531 0.03125 c 0.042969 0.011719 0.09375 0.023438 0.117188 0.023438 c 0.027344 0 0.070312 0.011718 0.097656 0.023437 s 0.074219 0.019531 0.101562 0.019531 c 0.03125 0 0.082032 0.011719 0.121094 0.023438 c 0.039063 0.011718 0.101563 0.03125 0.140625 0.035156 c 0.117188 0.019531 0.238281 0.042969 0.347657 0.074219 c 0.058593 0.015625 0.121093 0.027343 0.148437 0.027343 c 0.023437 0 0.066406 0.011719 0.09375 0.019532 c 0.03125 0.011718 0.078125 0.023437 0.105469 0.023437 s 0.097656 0.011719 0.15625 0.027344 c 0.175781 0.046875 0.234375 0.0625 0.277344 0.066406 c 0.042968 0.007813 0.160156 0.042969 0.3125 0.089844 c 0.035156 0.011719 0.074218 0.019531 0.089843 0.019531 s 0.054688 0.011719 0.085938 0.027344 c 0.035156 0.015625 0.101562 0.039062 0.148437 0.050781 c 0.046875 0.015625 0.109375 0.039063 0.140625 0.054688 c 0.027344 0.015625 0.0625 0.027343 0.078125 0.027343 s 0.039063 0.007813 0.054688 0.019532 c 0.015625 0.011718 0.042968 0.023437 0.058594 0.023437 c 0.015624 0 0.046874 0.011719 0.066406 0.027344 c 0.019531 0.015625 0.042968 0.03125 0.054687 0.03125 s 0.039063 0.007813 0.058594 0.019531 c 0.019531 0.011719 0.054687 0.027344 0.074219 0.035156 c 0.019531 0.007813 0.046875 0.023438 0.058594 0.027344 c 0.011718 0.007813 0.058593 0.03125 0.101562 0.054688 c 0.042969 0.023437 0.082031 0.042968 0.085938 0.046875 c 0.003906 0.003906 0.035156 0.027343 0.074218 0.042969 c 0.066406 0.035156 0.179688 0.109374 0.246094 0.164062 c 0.019531 0.015625 0.078125 0.058594 0.128906 0.101562 c 0.050782 0.039063 0.09375 0.078126 0.097656 0.085938 c 0.003907 0.007812 0.027344 0.035156 0.058594 0.066406 c 0.074219 0.078125 0.105469 0.117188 0.105469 0.140625 c 0 0.011719 0.007813 0.027344 0.019531 0.039063 c 0.011719 0.007812 0.023438 0.027344 0.023438 0.039062 c 0 0.011719 0.007812 0.035156 0.019531 0.046875 c 0.082031 0.09375 0.121094 0.644531 0.058594 0.894531 c -0.042969 0.1875 -0.054688 0.21875 -0.066407 0.226563 c -0.007812 0.003906 -0.011718 0.027344 -0.011718 0.046875 c 0 0.023438 -0.011719 0.050781 -0.023438 0.066406 c -0.011718 0.015625 -0.019531 0.039063 -0.019531 0.050782 c 0 0.011718 -0.015625 0.039062 -0.03125 0.058593 s -0.027344 0.046875 -0.027344 0.054688 c 0 0.011719 -0.023437 0.054687 -0.050781 0.101562 c -0.027344 0.042969 -0.050781 0.082031 -0.050781 0.082031 c 0 0.023438 -0.199219 0.261719 -0.316407 0.382813 c -0.136718 0.136719 -0.335937 0.304687 -0.359374 0.304687 c -0.007813 0 -0.023438 0.011719 -0.035157 0.023438 c -0.011719 0.015625 -0.03125 0.03125 -0.050781 0.035156 c -0.015625 0.007813 -0.054688 0.03125 -0.085938 0.050782 c -0.03125 0.019531 -0.113281 0.0625 -0.179687 0.09375 c -0.070313 0.035156 -0.140625 0.070312 -0.164063 0.082031 c -0.023437 0.011719 -0.050781 0.019531 -0.0625 0.019531 c -0.007812 0 -0.046874 0.011719 -0.082031 0.027344 c -0.089843 0.039062 -0.199219 0.074218 -0.238281 0.074218 c -0.019531 0 -0.054688 0.011719 -0.078125 0.023438 c -0.027344 0.011719 -0.082031 0.027344 -0.128906 0.035156 c -0.125 0.019532 -0.257813 0.042969 -0.386719 0.066406 c -0.289062 0.050782 -1.289062 0.058594 -1.59375 0.007813 c -0.074219 -0.011719 -0.183594 -0.027344 -0.238281 -0.03125 c -0.125 -0.015625 -0.242188 -0.039063 -0.375 -0.074219 c -0.144531 -0.035156 -0.222657 -0.054687 -0.285157 -0.070312 c -0.054687 -0.011719 -0.167968 -0.050782 -0.242187 -0.082032 c -0.023437 -0.011718 -0.058594 -0.019531 -0.070313 -0.019531 c -0.015624 0 -0.042968 -0.011719 -0.070312 -0.027343 c -0.023438 -0.019532 -0.054688 -0.03125 -0.070312 -0.03125 c -0.011719 0 -0.070313 -0.019532 -0.128907 -0.046876 c -0.058593 -0.03125 -0.117187 -0.054687 -0.136719 -0.0625 c -0.015624 -0.003906 -0.03125 -0.015624 -0.03125 -0.023437 c 0 -0.003906 -0.011718 -0.011719 -0.027343 -0.011719 s -0.042969 -0.011718 -0.066407 -0.027344 c -0.019531 -0.015624 -0.042968 -0.03125 -0.054687 -0.03125 c -0.015625 0 -0.027344 -0.007812 -0.03125 -0.011718 c -0.007813 -0.011719 -0.03125 -0.027344 -0.058594 -0.039063 c -0.058593 -0.027343 -0.203125 -0.109375 -0.210937 -0.121093 c -0.003906 -0.007813 -0.042969 -0.03125 -0.082032 -0.054688 c -0.042968 -0.019531 -0.078124 -0.042969 -0.078124 -0.050781 c 0 -0.003907 -0.023438 -0.023438 -0.050782 -0.039063 c -0.03125 -0.015625 -0.070312 -0.039062 -0.085937 -0.058594 c -0.015625 -0.015624 -0.035157 -0.027343 -0.042969 -0.027343 c -0.011719 0 -0.023438 -0.007813 -0.023438 -0.011719 c -0.003906 -0.007812 -0.03125 -0.03125 -0.0625 -0.054688 c -0.03125 -0.023437 -0.066406 -0.050781 -0.070312 -0.0625 c -0.003906 -0.007812 -0.019531 -0.015624 -0.027344 -0.015624 c -0.011718 0 -0.039062 -0.023438 -0.0625 -0.050782 c -0.023437 -0.027344 -0.046875 -0.050781 -0.054687 -0.050781 c -0.019531 0 -0.53125 -0.523437 -0.53125 -0.542969 c 0 -0.003906 -0.019531 -0.027344 -0.042969 -0.054687 c -0.023438 -0.027344 -0.0625 -0.074219 -0.085938 -0.105469 c -0.019531 -0.03125 -0.042968 -0.066406 -0.054687 -0.074219 c -0.007813 -0.007812 -0.03125 -0.039062 -0.054687 -0.074219 c -0.019532 -0.035156 -0.042969 -0.0625 -0.050782 -0.0625 c -0.007812 0 -0.015625 -0.011718 -0.015625 -0.027343 c 0 -0.011719 -0.007812 -0.03125 -0.019531 -0.035157 c -0.011719 -0.003906 -0.023438 -0.015624 -0.023438 -0.027343 s -0.011718 -0.03125 -0.027343 -0.046875 s -0.03125 -0.03125 -0.03125 -0.039063 c 0 -0.007812 -0.015625 -0.039062 -0.039063 -0.070312 c -0.039062 -0.0625 -0.117187 -0.191407 -0.15625 -0.265625 c -0.078125 -0.152344 -0.082031 -0.160156 -0.132812 -0.15625 c -0.027344 0.003906 -0.066406 0.015625 -0.085938 0.03125 c -0.019531 0.015625 -0.046875 0.03125 -0.058594 0.03125 c -0.015624 0 -0.039062 0.007812 -0.050781 0.019531 c -0.019531 0.011719 -0.039062 0.023437 -0.050781 0.023437 s -0.03125 0.011719 -0.050781 0.027344 c -0.015625 0.015625 -0.039063 0.03125 -0.050781 0.03125 c -0.011719 0 -0.039063 0.007813 -0.066407 0.023438 c -0.023437 0.011718 -0.054687 0.027344 -0.066406 0.035156 c -0.027344 0.007812 -0.085937 0.042969 -0.117187 0.058594 c -0.011719 0.007812 -0.03125 0.015625 -0.042969 0.019531 c -0.035157 0.015625 -0.234375 0.109375 -0.257813 0.125 c -0.011718 0.007813 -0.039062 0.019531 -0.058594 0.027344 c -0.019531 0.007812 -0.054687 0.023437 -0.074218 0.035156 c -0.023438 0.011719 -0.050782 0.023437 -0.058594 0.023437 c -0.011719 0 -0.035156 0.011719 -0.050781 0.027344 c -0.011719 0.015625 -0.03125 0.027344 -0.042969 0.027344 s -0.039062 0.011719 -0.066406 0.027344 c -0.027344 0.011718 -0.058594 0.027344 -0.074219 0.035156 c -0.042969 0.019531 -0.074219 0.035156 -0.121094 0.058594 c -0.023437 0.015625 -0.054687 0.023437 -0.066406 0.023437 s -0.03125 0.015625 -0.046875 0.03125 s -0.035156 0.027344 -0.046875 0.027344 s -0.039063 0.011719 -0.066406 0.023437 c -0.023438 0.011719 -0.058594 0.03125 -0.070313 0.035157 c -0.039062 0.023437 -0.089844 0.046875 -0.113281 0.0625 c -0.011719 0.003906 -0.03125 0.015625 -0.042969 0.019531 c -0.03125 0.007812 -0.148437 0.0625 -0.171875 0.082031 c -0.011719 0.003907 -0.035156 0.015625 -0.042969 0.019531 c -0.039062 0.015626 -0.238281 0.109376 -0.261718 0.121094 c -0.011719 0.007813 -0.050782 0.027344 -0.085938 0.042969 c -0.125 0.058594 -0.339844 0.160156 -0.386718 0.1875 c -0.023438 0.011719 -0.199219 0.097656 -0.367188 0.171875 c -0.019531 0.007812 -0.046875 0.023438 -0.058594 0.027344 c -0.019531 0.011718 -0.148437 0.074218 -0.316406 0.152344 c -0.042969 0.023437 -0.089844 0.046874 -0.101562 0.050781 c -0.011719 0.007812 -0.046876 0.027343 -0.082032 0.039062 c -0.03125 0.015625 -0.066406 0.03125 -0.078125 0.039063 c -0.066406 0.035156 -0.171875 0.082031 -0.1875 0.082031 c -0.007812 0 -0.03125 0.019531 -0.054687 0.035156 l -0.035156 0.035157 l 0.046874 0.09375 c 0.050782 0.105468 0.125 0.242187 0.171876 0.316406 c 0.015624 0.027344 0.039062 0.066406 0.046874 0.089844 c 0.007813 0.023437 0.019532 0.039062 0.023438 0.039062 c 0.007812 0 0.027344 0.03125 0.046875 0.066406 c 0.019531 0.039063 0.054687 0.101563 0.082031 0.136719 c 0.023438 0.035156 0.046875 0.070313 0.050782 0.078125 c 0.015624 0.042969 0.074218 0.125 0.085937 0.125 c 0.007813 0 0.011719 0.011719 0.011719 0.027344 s 0.007812 0.035156 0.019531 0.039062 c 0.023437 0.015625 0.082031 0.101563 0.082031 0.121094 c 0 0.007812 0.007813 0.015625 0.011719 0.015625 c 0.007813 0 0.035156 0.03125 0.0625 0.074219 c 0.027344 0.042968 0.050781 0.078125 0.058594 0.082031 c 0.003906 0.003906 0.039062 0.046875 0.074219 0.09375 c 0.039062 0.050781 0.074218 0.09375 0.082031 0.105469 c 0.007812 0.011718 0.015625 0.023437 0.015625 0.035156 c 0 0.003906 0.003906 0.011719 0.011718 0.011719 c 0.007813 0 0.058594 0.058593 0.117188 0.132812 c 0.058594 0.070313 0.113281 0.128907 0.121094 0.128907 c 0.003906 0 0.011718 0.003906 0.011718 0.011718 c 0 0.035156 0.640626 0.683594 0.671876 0.683594 c 0.007812 0 0.03125 0.023438 0.054687 0.050781 c 0.023437 0.027344 0.046875 0.050781 0.054687 0.050781 c 0.003907 0 0.027344 0.015626 0.050782 0.039063 c 0.0625 0.058594 0.136718 0.117187 0.148437 0.117187 c 0.003907 0 0.039063 0.03125 0.082031 0.066407 c 0.039063 0.039062 0.089844 0.078125 0.109376 0.089843 c 0.023437 0.011719 0.042968 0.027344 0.042968 0.03125 c 0 0.011719 0.007813 0.015626 0.019532 0.015626 c 0.011718 0 0.023437 0.011718 0.027343 0.023437 c 0.003907 0.011719 0.019531 0.019531 0.027344 0.019531 c 0.011719 0 0.03125 0.015625 0.046875 0.03125 s 0.03125 0.027344 0.039062 0.027344 c 0.011719 0 0.109376 0.070312 0.179688 0.128906 c 0.011719 0.007813 0.027344 0.015625 0.042969 0.015625 c 0.011719 0 0.019531 0.007813 0.019531 0.015625 c 0 0.007813 0.023438 0.023438 0.050781 0.039063 c 0.027344 0.011719 0.050781 0.027343 0.050781 0.035156 s 0.007813 0.011719 0.019532 0.011719 c 0.011718 0 0.03125 0.011718 0.046875 0.027344 c 0.015625 0.019531 0.039062 0.03125 0.054687 0.03125 c 0.011719 0 0.023438 0.003906 0.023438 0.015624 c 0 0.003907 0.023437 0.023438 0.046875 0.035157 c 0.027343 0.011719 0.085937 0.042969 0.136719 0.070312 c 0.046874 0.027344 0.105468 0.0625 0.128906 0.074219 c 0.023437 0.011719 0.054687 0.027344 0.070312 0.035156 c 0.011719 0.007813 0.035156 0.019532 0.050782 0.03125 c 0.011718 0.003906 0.058593 0.027344 0.101562 0.050782 c 0.042969 0.019531 0.089844 0.042968 0.101562 0.050781 c 0.023438 0.011719 0.054688 0.027343 0.144532 0.066406 c 0.027344 0.011719 0.0625 0.027344 0.078125 0.035156 c 0.011719 0.007813 0.035156 0.019531 0.050781 0.023438 c 0.011719 0.007812 0.046875 0.023437 0.070312 0.035156 c 0.027344 0.015625 0.058594 0.027344 0.070313 0.027344 s 0.046875 0.011719 0.074219 0.027343 c 0.03125 0.015626 0.082031 0.039063 0.121094 0.050782 c 0.035156 0.011718 0.085937 0.035156 0.113281 0.046875 c 0.027343 0.011719 0.074219 0.027343 0.09375 0.03125 c 0.027343 0.007812 0.066406 0.019531 0.097656 0.03125 c 0.027344 0.011719 0.082031 0.027343 0.121094 0.042969 c 0.039062 0.015624 0.09375 0.03125 0.121093 0.042968 c 0.027344 0.007813 0.074219 0.023438 0.101563 0.027344 c 0.027344 0.007812 0.082031 0.023438 0.117187 0.035156 c 0.035157 0.011719 0.105469 0.03125 0.160157 0.046875 c 0.050781 0.011719 0.125 0.03125 0.164062 0.042969 c 0.039063 0.015625 0.101563 0.027344 0.136719 0.035156 c 0.070312 0.011719 0.128906 0.023438 0.296875 0.066406 c 0.058594 0.011719 0.144531 0.03125 0.191406 0.035157 c 0.050781 0.003906 0.09375 0.015625 0.105469 0.019531 c 0.007812 0.007812 0.0625 0.015625 0.121094 0.023438 c 0.058594 0.007812 0.152344 0.023437 0.207031 0.035156 c 0.054687 0.011718 0.128906 0.023437 0.164063 0.023437 c 0.039062 0 0.113281 0.011719 0.167968 0.019531 c 0.054688 0.011719 0.144532 0.023438 0.195313 0.023438 s 0.15625 0.011719 0.230469 0.023438 c 0.488281 0.078124 2.292968 0.074218 2.769531 0 c 0.074219 -0.011719 0.164062 -0.023438 0.203125 -0.023438 c 0.039062 0 0.109375 -0.011719 0.152344 -0.023438 c 0.042968 -0.007812 0.113281 -0.019531 0.152343 -0.019531 c 0.039063 0 0.121094 -0.011719 0.175781 -0.027343 c 0.058594 -0.019532 0.125 -0.03125 0.152344 -0.03125 c 0.046875 0 0.175782 -0.027344 0.328125 -0.066407 c 0.042969 -0.011719 0.113281 -0.027343 0.15625 -0.035156 c 0.039063 -0.003906 0.085938 -0.019531 0.101563 -0.027344 c 0.015625 -0.007812 0.046875 -0.015625 0.066406 -0.015625 c 0.015625 0 0.058594 -0.011718 0.089844 -0.027344 c 0.03125 -0.015624 0.074218 -0.03125 0.09375 -0.03125 c 0.019531 0 0.050781 -0.007812 0.070312 -0.019531 c 0.023438 -0.011719 0.054688 -0.019531 0.074219 -0.023437 c 0.019531 0 0.0625 -0.011719 0.09375 -0.027344 s 0.070313 -0.03125 0.085937 -0.03125 c 0.015626 0 0.042969 -0.007812 0.058594 -0.019531 s 0.039063 -0.023438 0.054688 -0.023438 s 0.050781 -0.011719 0.078125 -0.027343 c 0.03125 -0.015626 0.0625 -0.03125 0.070312 -0.03125 c 0.015625 0 0.082031 -0.023438 0.203125 -0.078126 c 0.023438 -0.011718 0.070313 -0.03125 0.101563 -0.042968 c 0.03125 -0.015625 0.070312 -0.03125 0.082031 -0.039063 c 0.015625 -0.007812 0.035156 -0.015625 0.050781 -0.023437 c 0.011719 -0.007813 0.046875 -0.023438 0.074219 -0.035156 c 0.027344 -0.015626 0.054688 -0.027344 0.0625 -0.027344 s 0.03125 -0.011719 0.050781 -0.027344 s 0.050781 -0.027344 0.0625 -0.027344 c 0.015625 0 0.03125 -0.011718 0.042969 -0.023437 s 0.027344 -0.019531 0.042969 -0.019531 c 0.011719 0 0.035156 -0.015626 0.050781 -0.03125 c 0.015625 -0.015626 0.035156 -0.027344 0.046875 -0.027344 c 0.019531 0 0.082031 -0.03125 0.191406 -0.097656 c 0.027344 -0.019532 0.070313 -0.042969 0.09375 -0.054688 c 0.074219 -0.039062 0.171875 -0.097656 0.242188 -0.148438 c 0.039062 -0.027343 0.074219 -0.046874 0.082031 -0.046874 s 0.023438 -0.011719 0.039062 -0.03125 c 0.015626 -0.015626 0.03125 -0.027344 0.039063 -0.027344 c 0.003906 0 0.054687 -0.03125 0.113281 -0.070313 c 0.054688 -0.042969 0.101563 -0.074219 0.105469 -0.074219 s 0.023437 -0.015624 0.042969 -0.035156 c 0.054687 -0.046875 0.078125 -0.066406 0.09375 -0.066406 c 0.007812 0 0.023437 -0.015625 0.039062 -0.03125 c 0.015625 -0.019531 0.078125 -0.070312 0.132813 -0.113281 c 0.058593 -0.042969 0.105469 -0.082031 0.105469 -0.089844 s 0.011718 -0.015625 0.023437 -0.019531 c 0.027344 -0.011719 0.242187 -0.214844 0.453125 -0.433594 c 0.097656 -0.101562 0.203125 -0.210938 0.230469 -0.238281 c 0.03125 -0.027344 0.09375 -0.105469 0.144531 -0.171875 c 0.050781 -0.0625 0.097656 -0.117188 0.101562 -0.117188 c 0.007813 0 0.023438 -0.023437 0.039063 -0.046875 c 0.023437 -0.039062 0.046875 -0.074219 0.105469 -0.148437 c 0.011718 -0.015625 0.097656 -0.140625 0.125 -0.183594 c 0.007812 -0.011719 0.042968 -0.066406 0.078125 -0.121094 c 0.070312 -0.109375 0.097656 -0.148437 0.109375 -0.179687 c 0.007812 -0.011719 0.035156 -0.054688 0.0625 -0.097657 c 0.023437 -0.042968 0.046875 -0.082031 0.046875 -0.089843 c 0 -0.011719 0.011719 -0.035157 0.027343 -0.054688 c 0.011719 -0.023437 0.035157 -0.066406 0.050782 -0.097656 s 0.03125 -0.066406 0.035156 -0.078125 c 0.007812 -0.011719 0.019531 -0.035156 0.027344 -0.050781 c 0.007812 -0.015625 0.023437 -0.054688 0.035156 -0.082031 c 0.011719 -0.027344 0.035156 -0.078126 0.050781 -0.113282 c 0.015625 -0.039062 0.042969 -0.09375 0.054688 -0.132812 c 0.011719 -0.035156 0.035156 -0.085938 0.046875 -0.113282 c 0.011718 -0.027343 0.027344 -0.070312 0.03125 -0.09375 c 0.015625 -0.054687 0.042968 -0.128906 0.070312 -0.195312 c 0.015625 -0.027344 0.027344 -0.074219 0.035156 -0.101562 c 0.003907 -0.027344 0.023438 -0.097657 0.039063 -0.152344 c 0.019531 -0.058594 0.039063 -0.132813 0.046875 -0.167969 s 0.023438 -0.085937 0.03125 -0.113281 s 0.019531 -0.089844 0.027344 -0.140625 c 0.003906 -0.046875 0.019531 -0.136719 0.03125 -0.199219 c 0.058594 -0.3125 0.082031 -0.847656 0.054687 -1.167969 c -0.011719 -0.097656 -0.023437 -0.246093 -0.03125 -0.324219 c -0.007812 -0.140624 -0.035156 -0.308593 -0.082031 -0.5 c -0.011719 -0.050781 -0.019531 -0.105468 -0.019531 -0.121093 s -0.011719 -0.070313 -0.03125 -0.125 c -0.054688 -0.179688 -0.070313 -0.226563 -0.070313 -0.246094 c 0 -0.011719 -0.011718 -0.046875 -0.027344 -0.078125 c -0.015624 -0.03125 -0.027343 -0.066406 -0.027343 -0.078125 s -0.011719 -0.042969 -0.023438 -0.066406 c -0.011719 -0.019531 -0.023437 -0.050781 -0.023437 -0.0625 c 0 -0.015625 -0.011719 -0.039063 -0.027344 -0.058594 c -0.015625 -0.023437 -0.027344 -0.046875 -0.027344 -0.058594 c 0 -0.007812 -0.011718 -0.035156 -0.023437 -0.054687 c -0.011719 -0.023438 -0.027344 -0.054688 -0.035157 -0.078125 c -0.015624 -0.03125 -0.089843 -0.167969 -0.136718 -0.25 c -0.007813 -0.015625 -0.035156 -0.058594 -0.058594 -0.09375 c -0.023438 -0.039063 -0.046875 -0.074219 -0.050781 -0.082031 c -0.03125 -0.054688 -0.078125 -0.121094 -0.089844 -0.121094 c -0.007813 0 -0.011719 -0.015625 -0.011719 -0.03125 s -0.007812 -0.027344 -0.011718 -0.027344 c -0.007813 0 -0.035157 -0.035156 -0.0625 -0.074219 c -0.027344 -0.039062 -0.050782 -0.070312 -0.058594 -0.070312 c -0.007813 0 -0.011719 -0.007813 -0.011719 -0.015625 c 0 -0.015625 -0.136719 -0.1875 -0.238281 -0.292969 c -0.035156 -0.039063 -0.066406 -0.070313 -0.066406 -0.074219 c 0 -0.011718 -0.320313 -0.324218 -0.339844 -0.332031 c -0.011719 -0.003906 -0.019532 -0.015625 -0.019532 -0.023437 c 0 -0.007813 -0.011718 -0.015626 -0.023437 -0.015626 s -0.023437 -0.003906 -0.023437 -0.011718 c 0 -0.007813 -0.042969 -0.046875 -0.097657 -0.089844 c -0.058593 -0.042969 -0.101562 -0.082031 -0.101562 -0.089844 c 0 -0.003906 -0.011719 -0.011718 -0.023438 -0.011718 s -0.027343 -0.007813 -0.03125 -0.015626 c -0.015625 -0.027343 -0.171875 -0.136718 -0.269531 -0.191406 c -0.023438 -0.015625 -0.039062 -0.03125 -0.039062 -0.039062 c 0 -0.007813 -0.007813 -0.011719 -0.015626 -0.011719 c -0.007812 0 -0.039062 -0.019531 -0.074218 -0.042969 c -0.089844 -0.054687 -0.101563 -0.066406 -0.164063 -0.101562 c -0.03125 -0.015625 -0.074219 -0.042969 -0.101562 -0.058594 c -0.023438 -0.015625 -0.0625 -0.039062 -0.089844 -0.050781 c -0.023437 -0.011719 -0.046875 -0.027344 -0.046875 -0.035157 c 0 -0.007812 -0.007812 -0.015624 -0.019531 -0.015624 c -0.019531 0 -0.152344 -0.066407 -0.175781 -0.089844 c -0.007813 -0.003906 -0.023438 -0.011719 -0.039063 -0.011719 c -0.011719 0 -0.027344 -0.003906 -0.027344 -0.011719 c -0.003906 -0.003906 -0.0625 -0.039062 -0.136719 -0.074218 c -0.070312 -0.035157 -0.140624 -0.070313 -0.15625 -0.078126 c -0.039062 -0.019531 -0.058593 -0.027343 -0.132812 -0.058593 c -0.03125 -0.015625 -0.082031 -0.039063 -0.113281 -0.050781 c -0.113281 -0.054688 -0.164063 -0.074219 -0.179688 -0.074219 c -0.007812 0 -0.039062 -0.011719 -0.070312 -0.027344 c -0.101563 -0.046875 -0.164063 -0.074219 -0.191407 -0.074219 c -0.011718 0 -0.042968 -0.011718 -0.066406 -0.027344 c -0.023437 -0.015624 -0.054687 -0.03125 -0.074218 -0.03125 c -0.015626 0 -0.046876 -0.007812 -0.070313 -0.019531 c -0.019531 -0.011719 -0.050781 -0.023437 -0.066406 -0.023437 s -0.054688 -0.011719 -0.085938 -0.027344 s -0.066406 -0.027344 -0.082031 -0.027344 s -0.046875 -0.011718 -0.066406 -0.023437 c -0.023438 -0.011719 -0.058594 -0.023438 -0.078125 -0.023438 s -0.054688 -0.007812 -0.074219 -0.019531 c -0.023438 -0.011719 -0.066406 -0.027344 -0.097656 -0.035156 c -0.070313 -0.015625 -0.230469 -0.066406 -0.289063 -0.085938 c -0.023437 -0.007812 -0.085937 -0.027344 -0.136719 -0.039062 c -0.09375 -0.023438 -0.238281 -0.0625 -0.363281 -0.101563 c -0.039062 -0.011719 -0.082031 -0.019531 -0.097656 -0.019531 s -0.0625 -0.011719 -0.105469 -0.027344 c -0.074218 -0.027344 -0.160156 -0.046875 -0.316406 -0.078125 c -0.039062 -0.003906 -0.089844 -0.019531 -0.105469 -0.027343 c -0.015625 -0.007813 -0.0625 -0.023438 -0.101562 -0.027344 c -0.117188 -0.019532 -0.238281 -0.042969 -0.351563 -0.074219 c -0.058594 -0.015625 -0.121094 -0.027344 -0.140625 -0.027344 s -0.0625 -0.011719 -0.097656 -0.023437 c -0.03125 -0.007813 -0.082031 -0.019532 -0.105469 -0.019532 c -0.023437 0 -0.082031 -0.011718 -0.125 -0.023437 c -0.042968 -0.011719 -0.097656 -0.027344 -0.121094 -0.027344 c -0.070312 -0.011719 -0.238281 -0.050781 -0.351562 -0.082031 c -0.058594 -0.011719 -0.121094 -0.027344 -0.140625 -0.027344 s -0.0625 -0.007812 -0.089844 -0.019531 c -0.027343 -0.011719 -0.074219 -0.023437 -0.101562 -0.023437 c -0.023438 0 -0.082031 -0.011719 -0.121094 -0.027344 s -0.09375 -0.03125 -0.117187 -0.03125 c -0.023438 0 -0.066407 -0.007813 -0.09375 -0.019532 c -0.027344 -0.011718 -0.066407 -0.023437 -0.082032 -0.023437 c -0.019531 0 -0.074218 -0.011719 -0.125 -0.027344 c -0.125 -0.035156 -0.210937 -0.058593 -0.292968 -0.074219 c -0.035157 -0.003906 -0.089844 -0.019531 -0.117188 -0.035156 c -0.03125 -0.011718 -0.066406 -0.023437 -0.082031 -0.023437 s -0.0625 -0.007813 -0.101563 -0.019531 c -0.179687 -0.050782 -0.273437 -0.078126 -0.355468 -0.101563 c -0.046876 -0.011719 -0.105469 -0.03125 -0.128907 -0.039063 c -0.074219 -0.023437 -0.230469 -0.070312 -0.28125 -0.082031 c -0.027343 -0.007812 -0.070312 -0.023437 -0.09375 -0.035156 c -0.023437 -0.015625 -0.058593 -0.023437 -0.074219 -0.023437 c -0.015624 0 -0.046874 -0.011719 -0.070312 -0.023438 s -0.054688 -0.019531 -0.074219 -0.019531 c -0.015625 0 -0.046875 -0.015625 -0.074219 -0.03125 c -0.019531 -0.015625 -0.050781 -0.027344 -0.0625 -0.027344 c -0.027343 0 -0.179687 -0.0625 -0.207031 -0.082031 c -0.007812 -0.011719 -0.035156 -0.019532 -0.058593 -0.027344 c -0.023438 -0.003906 -0.039063 -0.015625 -0.039063 -0.023438 c 0 -0.007812 -0.011719 -0.011718 -0.023437 -0.011718 c -0.015626 0 -0.058594 -0.023438 -0.101563 -0.050782 c -0.042969 -0.027343 -0.082031 -0.050781 -0.089844 -0.050781 c -0.007812 0 -0.023437 -0.015625 -0.03125 -0.03125 c -0.007812 -0.015625 -0.023437 -0.027343 -0.03125 -0.027343 c -0.054687 0 -0.375 -0.335938 -0.375 -0.386719 c 0 -0.007813 -0.011719 -0.027344 -0.027343 -0.039063 c -0.015626 -0.015625 -0.027344 -0.035156 -0.027344 -0.046875 c 0 -0.007812 -0.011719 -0.035156 -0.023438 -0.058593 c -0.097656 -0.195313 -0.152344 -0.5625 -0.105468 -0.757813 c 0.007812 -0.035156 0.019531 -0.101563 0.027343 -0.152344 c 0.023438 -0.160156 0.160157 -0.496093 0.25 -0.59375 c 0.007813 -0.007812 0.039063 -0.050781 0.066407 -0.09375 c 0.058593 -0.085937 0.40625 -0.445312 0.429687 -0.445312 c 0.011719 0 0.023437 -0.007813 0.03125 -0.019531 c 0.015625 -0.023438 0.097656 -0.082032 0.117187 -0.082032 c 0.007813 0 0.015626 -0.007812 0.015626 -0.015625 c 0 -0.007812 0.023437 -0.027343 0.046874 -0.035156 c 0.023438 -0.011719 0.074219 -0.039063 0.105469 -0.058594 s 0.066407 -0.039062 0.078125 -0.042969 c 0.023438 -0.011718 0.0625 -0.027343 0.183594 -0.078124 c 0.082031 -0.039063 0.15625 -0.066407 0.28125 -0.101563 c 0.058594 -0.019531 0.136719 -0.042969 0.175781 -0.054687 c 0.035157 -0.011719 0.082031 -0.019532 0.097657 -0.019532 c 0.019531 0 0.089843 -0.011718 0.15625 -0.027344 c 0.1875 -0.042968 0.351562 -0.058593 0.710937 -0.074218 c 0.351563 -0.011719 0.984375 0.003906 1.078125 0.027344 c 0.03125 0.011718 0.085938 0.015624 0.125 0.015624 c 0.035156 0 0.113281 0.015626 0.167969 0.03125 c 0.058593 0.015626 0.121093 0.027344 0.144531 0.027344 c 0.019531 0 0.070312 0.007813 0.113281 0.019532 c 0.039063 0.011718 0.097657 0.027343 0.128907 0.035156 c 0.03125 0.007812 0.078124 0.019531 0.101562 0.03125 c 0.023438 0.007812 0.082031 0.023437 0.128906 0.039062 c 0.050782 0.011719 0.113282 0.035156 0.148438 0.050782 c 0.03125 0.015624 0.066406 0.027343 0.082031 0.027343 c 0.011719 0 0.039063 0.007813 0.0625 0.019531 c 0.039063 0.019532 0.101563 0.046876 0.238281 0.105469 c 0.027344 0.011719 0.058594 0.027344 0.070313 0.035157 c 0.011719 0.007812 0.070312 0.035156 0.125 0.0625 c 0.054687 0.03125 0.136719 0.074218 0.179687 0.101562 c 0.042969 0.027344 0.101563 0.0625 0.128906 0.078125 c 0.023438 0.011719 0.042969 0.027344 0.042969 0.035156 c 0 0.003907 0.015625 0.011719 0.03125 0.011719 s 0.027344 0.003906 0.027344 0.011719 c 0 0.011719 0.113281 0.089843 0.132813 0.089843 c 0.007812 0 0.011718 0.003907 0.011718 0.011719 c 0 0.007813 0.035156 0.035157 0.082032 0.066407 c 0.042968 0.03125 0.078124 0.058593 0.078124 0.066406 c 0 0.007812 0.007813 0.011718 0.019532 0.011718 c 0.011718 0 0.023437 0.011719 0.03125 0.023438 c 0.003906 0.011719 0.011718 0.023438 0.019531 0.023438 c 0.03125 0 0.425781 0.382812 0.539063 0.527343 c 0.03125 0.039063 0.066406 0.078125 0.078124 0.082031 c 0.011719 0.007813 0.019532 0.019532 0.019532 0.027344 c 0 0.007813 0.011718 0.027344 0.023437 0.039063 c 0.039063 0.042969 0.121094 0.160156 0.121094 0.175781 c 0 0.007812 0.007813 0.015625 0.015625 0.015625 c 0.011719 0 0.070312 0.082031 0.085938 0.121094 c 0.003906 0.007812 0.027343 0.046875 0.054687 0.082031 c 0.027344 0.039062 0.046875 0.078125 0.046875 0.085938 c 0 0.023437 0.03125 0.015624 0.070312 -0.015626 c 0.019532 -0.015624 0.046876 -0.027343 0.0625 -0.027343 c 0.011719 0 0.03125 -0.011719 0.042969 -0.023438 c 0.007813 -0.011719 0.027344 -0.019531 0.039063 -0.019531 c 0.011718 0 0.035156 -0.015625 0.058594 -0.03125 c 0.019531 -0.015625 0.046874 -0.027344 0.0625 -0.027344 c 0.015624 0 0.027343 -0.007812 0.03125 -0.015625 c 0.003906 -0.003906 0.09375 -0.054687 0.199218 -0.105469 c 0.105469 -0.054687 0.203125 -0.105468 0.214844 -0.109374 c 0.011719 -0.007813 0.039062 -0.019532 0.058594 -0.027344 c 0.019531 -0.011719 0.046875 -0.023438 0.0625 -0.03125 c 0.011718 -0.007813 0.035156 -0.023438 0.050781 -0.03125 c 0.011719 -0.007813 0.035156 -0.015625 0.046875 -0.023438 c 0.03125 -0.011718 0.074219 -0.03125 0.105469 -0.046875 c 0.011719 -0.007812 0.035156 -0.023437 0.050781 -0.03125 c 0.011719 -0.007812 0.035156 -0.015625 0.046875 -0.023437 c 0.03125 -0.011719 0.074219 -0.03125 0.105469 -0.046875 c 0.011718 -0.007813 0.035156 -0.023438 0.050781 -0.03125 c 0.011719 -0.007813 0.039063 -0.019531 0.058594 -0.027344 s 0.046875 -0.019531 0.058593 -0.027344 c 0.011719 -0.007812 0.082032 -0.042969 0.15625 -0.082031 c 0.074219 -0.035156 0.136719 -0.074219 0.140626 -0.078125 c 0.003906 -0.007813 0.019531 -0.015625 0.035156 -0.015625 s 0.042968 -0.011719 0.0625 -0.027344 c 0.019531 -0.015625 0.046875 -0.03125 0.058594 -0.03125 c 0.011718 0 0.027343 -0.007812 0.039062 -0.019531 s 0.027344 -0.023437 0.042969 -0.023437 c 0.011719 0 0.042969 -0.011719 0.0625 -0.027344 s 0.046875 -0.027344 0.058593 -0.027344 c 0.011719 0 0.027344 -0.011719 0.039063 -0.023438 c 0.007813 -0.011718 0.027344 -0.023437 0.042969 -0.023437 c 0.011718 0 0.039062 -0.011719 0.058594 -0.027344 c 0.019531 -0.015625 0.042968 -0.027343 0.058593 -0.027343 c 0.011719 0 0.03125 -0.011719 0.042969 -0.023438 c 0.007812 -0.011719 0.027344 -0.023438 0.042969 -0.023438 s 0.03125 -0.003906 0.035156 -0.011718 c 0.003906 -0.007813 0.054687 -0.039063 0.113281 -0.066406 c 0.058594 -0.027344 0.113282 -0.054688 0.125 -0.0625 c 0.011719 -0.007813 0.058594 -0.03125 0.101563 -0.050782 c 0.042969 -0.023437 0.089843 -0.042968 0.101562 -0.050781 s 0.054688 -0.027344 0.09375 -0.046875 c 0.039063 -0.015625 0.082031 -0.039062 0.09375 -0.050781 c 0.011719 -0.007813 0.039063 -0.019531 0.0625 -0.027344 c 0.023438 -0.003906 0.039063 -0.015625 0.039063 -0.023437 c 0 -0.007813 0.011718 -0.011719 0.027344 -0.011719 c 0.015624 0 0.042968 -0.015625 0.0625 -0.03125 c 0.023437 -0.015625 0.046874 -0.027344 0.058593 -0.027344 s 0.03125 -0.011719 0.039063 -0.023437 c 0.011718 -0.011719 0.03125 -0.019532 0.046875 -0.019532 c 0.011719 0 0.027343 -0.007812 0.03125 -0.011718 c 0.003906 -0.007813 0.046875 -0.03125 0.089843 -0.050782 c 0.046876 -0.023437 0.097657 -0.050781 0.113282 -0.058594 c 0.128906 -0.066406 0.160156 -0.082031 0.175781 -0.082031 c 0.011719 0 0.019531 -0.011719 0.019531 -0.027343 c 0 -0.015626 -0.003906 -0.03125 -0.011718 -0.03125 c -0.003907 0 -0.019532 -0.015626 -0.03125 -0.039063 c -0.011719 -0.023437 -0.042969 -0.070313 -0.066407 -0.109375 c -0.027343 -0.035156 -0.046875 -0.074219 -0.046875 -0.082031 c 0 -0.007813 -0.007812 -0.015625 -0.011718 -0.015625 c -0.007813 0 -0.023438 -0.019532 -0.039063 -0.046875 c -0.074219 -0.117188 -0.15625 -0.234375 -0.179687 -0.246094 c -0.007813 -0.003906 -0.015626 -0.015625 -0.015626 -0.023437 c 0 -0.019532 -0.132812 -0.1875 -0.148437 -0.1875 c -0.007813 0 -0.011719 -0.011719 -0.011719 -0.023438 c 0 -0.019531 -0.03125 -0.058594 -0.148437 -0.1875 c -0.03125 -0.035156 -0.054688 -0.0625 -0.054688 -0.066406 c 0 -0.039063 -0.847656 -0.882813 -0.882812 -0.882813 c -0.007813 0 -0.019531 -0.007812 -0.023438 -0.019531 c -0.007812 -0.011719 -0.0625 -0.058594 -0.128906 -0.109375 c -0.0625 -0.050781 -0.121094 -0.097656 -0.125 -0.109375 c -0.007813 -0.011719 -0.023437 -0.019531 -0.03125 -0.019531 c -0.011719 0 -0.023437 -0.003907 -0.023437 -0.011719 s -0.035157 -0.03125 -0.074219 -0.058594 c -0.039063 -0.027344 -0.070313 -0.054687 -0.070313 -0.0625 c 0 -0.003906 -0.011718 -0.011718 -0.023437 -0.019531 c -0.015625 -0.003906 -0.0625 -0.035156 -0.105469 -0.066406 c -0.074219 -0.054688 -0.1875 -0.132813 -0.273438 -0.191407 c -0.023437 -0.011718 -0.054687 -0.03125 -0.070312 -0.039062 s -0.035156 -0.019531 -0.039062 -0.027344 c -0.007813 -0.011718 -0.027344 -0.023437 -0.042969 -0.03125 c -0.015625 -0.007812 -0.042969 -0.023437 -0.058594 -0.03125 c -0.117187 -0.078125 -0.175781 -0.113281 -0.191406 -0.113281 c -0.007813 0 -0.023438 -0.011719 -0.035157 -0.019531 c -0.015624 -0.023438 -0.128906 -0.082032 -0.148437 -0.082032 c -0.007813 0 -0.023437 -0.011718 -0.042969 -0.027343 c -0.015625 -0.015625 -0.039062 -0.03125 -0.046875 -0.03125 c -0.011719 0 -0.046875 -0.015625 -0.082031 -0.035157 c -0.035156 -0.019531 -0.078125 -0.042968 -0.097656 -0.050781 c -0.042969 -0.019531 -0.152344 -0.074219 -0.195313 -0.097656 c -0.015625 -0.007813 -0.054687 -0.023437 -0.085937 -0.039063 c -0.035156 -0.011718 -0.085938 -0.035156 -0.113282 -0.050781 c -0.027343 -0.015625 -0.0625 -0.027343 -0.074218 -0.027343 c -0.023438 0 -0.136719 -0.046876 -0.199219 -0.082032 c -0.019531 -0.011718 -0.050781 -0.019531 -0.066406 -0.019531 s -0.039063 -0.011719 -0.054688 -0.023437 c -0.015625 -0.011719 -0.042969 -0.019532 -0.0625 -0.019532 c -0.015625 0 -0.058593 -0.015625 -0.089843 -0.03125 s -0.066407 -0.027344 -0.082032 -0.027344 s -0.046875 -0.011718 -0.066406 -0.023437 c -0.023438 -0.011719 -0.058594 -0.019531 -0.074219 -0.019531 s -0.058593 -0.015625 -0.09375 -0.03125 c -0.035156 -0.015625 -0.074219 -0.027344 -0.089843 -0.027344 c -0.015626 0 -0.0625 -0.007812 -0.097657 -0.019531 c -0.167969 -0.054688 -0.277343 -0.082031 -0.386719 -0.105469 c -0.0625 -0.011719 -0.15625 -0.03125 -0.207031 -0.046875 c -0.054687 -0.011719 -0.132812 -0.027344 -0.175781 -0.03125 c -0.042969 -0.007813 -0.113281 -0.015625 -0.160156 -0.027344 c -0.253906 -0.050781 -0.664063 -0.101562 -0.910156 -0.117187 c -0.105469 -0.007813 -0.296876 -0.023438 -0.417969 -0.035156 c -0.171875 -0.015626 -0.378907 -0.023438 -0.875 -0.019532 c -0.359375 0 -0.679688 0.003906 -0.710938 0.007813 z m 0 0"/>
        <path d="m 44.496094 60.875 c 0.007812 5.757812 0.007812 6.277344 0.03125 6.410156 c 0.011718 0.082032 0.023437 0.195313 0.023437 0.257813 c 0 0.058593 0.011719 0.160156 0.023438 0.214843 c 0.011719 0.058594 0.027343 0.160157 0.03125 0.222657 c 0.003906 0.0625 0.015625 0.152343 0.027343 0.195312 c 0.011719 0.042969 0.019532 0.105469 0.019532 0.136719 s 0.011718 0.109375 0.027344 0.167969 c 0.019531 0.058593 0.03125 0.125 0.03125 0.152343 c 0 0.023438 0.007812 0.070313 0.019531 0.101563 s 0.023437 0.078125 0.023437 0.109375 c 0 0.027344 0.011719 0.078125 0.023438 0.109375 c 0.011718 0.027344 0.027344 0.082031 0.035156 0.117187 c 0.03125 0.164063 0.046875 0.230469 0.074219 0.296876 c 0.015625 0.035156 0.027343 0.078124 0.027343 0.09375 c 0 0.015624 0.007813 0.046874 0.019532 0.070312 c 0.011718 0.023438 0.023437 0.054688 0.023437 0.074219 c 0 0.015625 0.011719 0.058593 0.027344 0.089843 s 0.03125 0.070313 0.03125 0.085938 s 0.007813 0.046875 0.019531 0.070312 c 0.011719 0.019532 0.027344 0.0625 0.035156 0.085938 c 0.007813 0.023438 0.023438 0.070312 0.03125 0.09375 c 0.007813 0.027344 0.027344 0.066406 0.039063 0.085938 c 0.007813 0.023437 0.019531 0.050781 0.019531 0.058593 c 0 0.015625 0.015625 0.054688 0.078125 0.1875 c 0.011719 0.023438 0.023438 0.054688 0.023438 0.070313 c 0 0.011718 0.007812 0.03125 0.019531 0.042968 c 0.011719 0.011719 0.023438 0.023438 0.023438 0.03125 c 0 0.015626 0.046874 0.128907 0.074218 0.171876 c 0.003906 0.011718 0.027344 0.058593 0.046875 0.101562 s 0.042969 0.089844 0.050781 0.101562 c 0.007813 0.011719 0.035157 0.058594 0.058594 0.105469 c 0.027344 0.050781 0.0625 0.113281 0.082032 0.144531 c 0.019531 0.035157 0.039062 0.074219 0.046874 0.089844 c 0.007813 0.015625 0.023438 0.039063 0.035157 0.046875 c 0.015625 0.011719 0.023437 0.03125 0.023437 0.046875 s 0.011719 0.03125 0.023438 0.035156 c 0.011718 0.007813 0.019531 0.015626 0.019531 0.023438 c 0 0.011719 0.03125 0.0625 0.070313 0.117188 c 0.078124 0.117187 0.101562 0.152343 0.140624 0.210937 c 0.015626 0.027344 0.03125 0.046875 0.039063 0.046875 c 0.003906 0 0.011719 0.007812 0.011719 0.015625 s 0.007812 0.019531 0.015625 0.03125 c 0.007812 0.011719 0.042969 0.054687 0.074219 0.097656 c 0.035156 0.042969 0.070312 0.089844 0.078124 0.101563 c 0.011719 0.011718 0.054688 0.0625 0.09375 0.113281 c 0.042969 0.050781 0.101563 0.117187 0.132813 0.148437 c 0.027344 0.03125 0.054687 0.058594 0.054687 0.0625 c 0 0.015626 0.476563 0.484376 0.492188 0.484376 c 0.003906 0 0.011719 0.011718 0.011719 0.023437 s 0.011719 0.019531 0.019531 0.019531 c 0.011719 0 0.03125 0.011719 0.042969 0.027344 c 0.007812 0.015625 0.066406 0.0625 0.125 0.109375 c 0.0625 0.046875 0.117187 0.09375 0.121093 0.105469 c 0.007813 0.011718 0.019532 0.019531 0.03125 0.019531 c 0.011719 0 0.027344 0.007813 0.03125 0.019531 c 0.007813 0.007813 0.039063 0.035156 0.074219 0.058594 c 0.035157 0.023438 0.0625 0.046875 0.0625 0.054688 c 0 0.003906 0.007813 0.011718 0.019531 0.011718 c 0.011719 0 0.039063 0.015625 0.0625 0.035156 c 0.019532 0.019532 0.054688 0.042969 0.078126 0.054688 c 0.023437 0.011719 0.042968 0.023438 0.042968 0.03125 c 0 0.003906 0.023438 0.019531 0.050782 0.035156 c 0.027343 0.011719 0.050781 0.027344 0.050781 0.035156 c 0 0.003907 0.011719 0.011719 0.027343 0.011719 c 0.015626 0 0.027344 0.003907 0.027344 0.011719 c 0 0.011719 0.109375 0.082031 0.257813 0.160156 c 0.039062 0.019532 0.085937 0.046875 0.105469 0.0625 c 0.019531 0.015625 0.046874 0.023438 0.0625 0.023438 c 0.011718 0 0.023437 0.007812 0.023437 0.015625 c 0 0.007812 0.019531 0.019531 0.042969 0.023437 c 0.019531 0.007813 0.054687 0.023438 0.074218 0.039063 c 0.015626 0.011719 0.042969 0.023437 0.058594 0.023437 s 0.027344 0.007813 0.027344 0.015625 c 0 0.007813 0.015625 0.019531 0.035156 0.023438 c 0.015625 0.003906 0.078125 0.03125 0.132813 0.058593 c 0.058593 0.027344 0.113281 0.046876 0.125 0.046876 s 0.039062 0.015624 0.0625 0.03125 c 0.023437 0.015624 0.054687 0.027343 0.070312 0.027343 s 0.042969 0.011719 0.058594 0.023438 s 0.039063 0.019531 0.054687 0.019531 c 0.011719 0 0.054688 0.011719 0.085938 0.027344 c 0.082031 0.035156 0.152344 0.0625 0.214844 0.074218 c 0.027344 0.007813 0.074218 0.023438 0.105468 0.035157 c 0.027344 0.011719 0.066407 0.023437 0.082032 0.023437 c 0.011718 0 0.046875 0.011719 0.066406 0.023438 c 0.023438 0.011718 0.0625 0.019531 0.082031 0.019531 c 0.023438 0 0.066407 0.011719 0.09375 0.023437 c 0.03125 0.011719 0.082031 0.03125 0.121094 0.035157 c 0.183594 0.039062 0.226563 0.046875 0.28125 0.058593 c 0.03125 0.007813 0.097656 0.019532 0.152344 0.03125 c 0.050781 0.007813 0.140625 0.023438 0.195312 0.035157 c 0.054688 0.011719 0.125 0.019531 0.15625 0.019531 c 0.035157 0 0.117188 0.011719 0.191407 0.023438 c 0.25 0.042968 1 0.078124 1.390624 0.0625 c 0.382813 -0.015626 0.726563 -0.039063 0.808594 -0.058594 c 0.039063 -0.007813 0.125 -0.019532 0.191406 -0.027344 c 0.070313 -0.003906 0.164063 -0.019531 0.210938 -0.027344 c 0.109375 -0.023437 0.339844 -0.070312 0.425781 -0.089844 c 0.039063 -0.011718 0.097657 -0.023437 0.136719 -0.027343 c 0.035156 -0.007813 0.085938 -0.023438 0.109375 -0.035157 c 0.023437 -0.011718 0.0625 -0.023437 0.085937 -0.023437 c 0.019532 0 0.054688 -0.007813 0.074219 -0.019531 c 0.019531 -0.011719 0.050781 -0.023438 0.070313 -0.023438 c 0.019531 0 0.054687 -0.011718 0.078125 -0.023437 c 0.027343 -0.015625 0.066406 -0.03125 0.089843 -0.035157 c 0.082032 -0.023437 0.214844 -0.070312 0.230469 -0.085937 c 0.007813 -0.007813 0.023438 -0.015625 0.035157 -0.015625 c 0.023437 0 0.148437 -0.050781 0.296874 -0.125 c 0.023438 -0.007812 0.050782 -0.019531 0.058594 -0.019531 c 0.007813 0 0.03125 -0.011719 0.050782 -0.027344 c 0.023437 -0.015625 0.046874 -0.027344 0.0625 -0.027344 c 0.011718 0 0.03125 -0.011719 0.039062 -0.023437 c 0.011719 -0.011719 0.03125 -0.023438 0.042969 -0.023438 c 0.015625 0 0.039062 -0.011718 0.058593 -0.027344 c 0.015626 -0.015624 0.035157 -0.027343 0.042969 -0.027343 c 0.003907 0 0.039063 -0.015625 0.074219 -0.039063 c 0.035156 -0.019531 0.085938 -0.046875 0.109375 -0.058594 c 0.070313 -0.035156 0.105469 -0.058593 0.132813 -0.078124 c 0.011718 -0.011719 0.050781 -0.035157 0.085937 -0.054688 c 0.03125 -0.019531 0.097656 -0.058594 0.144531 -0.089844 s 0.109375 -0.078125 0.140625 -0.097656 c 0.175781 -0.117188 0.640625 -0.496094 0.644531 -0.519531 c 0 -0.011719 0.007813 -0.019531 0.015626 -0.019531 c 0.019531 0 0.390624 -0.371094 0.390624 -0.390626 c 0 -0.007812 0.007813 -0.015624 0.019532 -0.015624 c 0.011718 0 0.023437 -0.003907 0.027344 -0.011719 c 0.003906 -0.011719 0.171874 -0.214844 0.238281 -0.289063 c 0.019531 -0.019531 0.050781 -0.0625 0.070312 -0.089844 c 0.019531 -0.03125 0.042969 -0.050781 0.050781 -0.046874 c 0.007813 0.003906 0.011719 0.5 0.011719 1.101562 v 1.09375 l 2.242188 0.007812 h 2.242187 v -19.554687 h -4.511718 l -0.003907 5.585937 c -0.007812 5.671876 -0.011719 5.917969 -0.0625 6.203126 c -0.011719 0.066406 -0.019531 0.152343 -0.019531 0.1875 c 0 0.035156 -0.007812 0.085937 -0.015625 0.113281 c -0.007813 0.027343 -0.023437 0.101562 -0.03125 0.164062 c -0.007813 0.058594 -0.023437 0.136719 -0.035156 0.171875 c -0.011719 0.03125 -0.019531 0.078125 -0.019531 0.097656 c 0 0.035157 -0.027344 0.136719 -0.074219 0.285157 c -0.015625 0.046875 -0.027344 0.097656 -0.027344 0.113281 s -0.011719 0.046875 -0.019531 0.070312 c -0.027344 0.066407 -0.070313 0.183594 -0.082032 0.242188 c -0.007812 0.023438 -0.019531 0.054688 -0.027343 0.0625 c -0.007813 0.007812 -0.015625 0.027344 -0.015625 0.042969 s -0.011719 0.050781 -0.027344 0.078125 c -0.015625 0.03125 -0.039062 0.078125 -0.050781 0.105468 c -0.035157 0.082032 -0.050781 0.121094 -0.066407 0.148438 c -0.007812 0.011719 -0.023437 0.035156 -0.03125 0.050781 c -0.007812 0.011719 -0.019531 0.035157 -0.023437 0.046875 c -0.003906 0.011719 -0.015625 0.039063 -0.027344 0.058594 c -0.007812 0.019531 -0.035156 0.070312 -0.054687 0.109375 c -0.019532 0.039063 -0.046875 0.082031 -0.058594 0.09375 c -0.011719 0.007813 -0.023438 0.027344 -0.023438 0.042969 c 0 0.011718 -0.003906 0.027344 -0.011718 0.03125 c -0.003906 0 -0.042969 0.050781 -0.082032 0.109375 c -0.039062 0.058593 -0.078124 0.117187 -0.089843 0.125 c -0.011719 0.011719 -0.019531 0.027343 -0.019531 0.03125 c 0 0.007812 -0.015626 0.035156 -0.039063 0.054687 c -0.023437 0.023438 -0.078125 0.09375 -0.125 0.152344 c -0.105469 0.132812 -0.4375 0.464844 -0.554687 0.550781 c -0.046876 0.035157 -0.097657 0.078125 -0.121094 0.097657 c -0.019532 0.019531 -0.039063 0.03125 -0.050782 0.03125 c -0.007812 0 -0.019531 0.015624 -0.03125 0.03125 c -0.011718 0.015624 -0.023437 0.027343 -0.035156 0.027343 c -0.007812 0 -0.042968 0.023438 -0.074218 0.046875 c -0.035157 0.027344 -0.070313 0.054688 -0.082032 0.058594 c -0.011718 0.007812 -0.042968 0.027344 -0.070312 0.042969 c -0.070313 0.042969 -0.210938 0.117187 -0.304688 0.164062 c -0.042968 0.019531 -0.089844 0.042969 -0.101562 0.050781 c -0.03125 0.019532 -0.066406 0.035157 -0.144532 0.0625 c -0.035156 0.015626 -0.09375 0.039063 -0.128906 0.050782 c -0.039062 0.015625 -0.105468 0.039062 -0.152344 0.050781 c -0.050781 0.015625 -0.105468 0.03125 -0.132812 0.039063 c -0.023438 0.011718 -0.070312 0.023437 -0.105469 0.03125 c -0.039062 0.007812 -0.101562 0.023437 -0.144531 0.03125 c -0.046875 0.011718 -0.109375 0.023437 -0.140625 0.027343 c -0.03125 0.003907 -0.113281 0.019531 -0.1875 0.03125 c -0.1875 0.039063 -1.152344 0.035157 -1.34375 0 c -0.070313 -0.011719 -0.164063 -0.027343 -0.203125 -0.03125 c -0.039062 -0.003906 -0.113281 -0.015625 -0.160156 -0.027343 c -0.046875 -0.007813 -0.125 -0.027344 -0.167969 -0.035157 c -0.046875 -0.011719 -0.089844 -0.023437 -0.09375 -0.03125 c -0.003906 -0.007812 -0.027344 -0.011719 -0.054687 -0.011719 c -0.023438 0 -0.0625 -0.011718 -0.085938 -0.023437 s -0.054688 -0.019531 -0.074219 -0.019531 c -0.015625 0 -0.054687 -0.011719 -0.082031 -0.03125 c -0.03125 -0.015625 -0.066406 -0.027344 -0.082031 -0.027344 s -0.039063 -0.011719 -0.058594 -0.023438 c -0.015625 -0.011718 -0.035156 -0.019531 -0.039063 -0.015624 c -0.007812 0.007812 -0.035156 -0.007813 -0.0625 -0.027344 c -0.027343 -0.019532 -0.058593 -0.035156 -0.066406 -0.035156 c -0.023437 0 -0.125 -0.046876 -0.203125 -0.09375 c -0.03125 -0.019532 -0.078125 -0.042969 -0.105469 -0.054688 c -0.023437 -0.011719 -0.046874 -0.03125 -0.046874 -0.039062 c 0 -0.007813 -0.007813 -0.015626 -0.019532 -0.015626 c -0.027344 0 -0.136718 -0.074218 -0.136718 -0.089843 c 0 -0.003907 -0.007813 -0.011719 -0.019532 -0.011719 c -0.015625 0 -0.214844 -0.152344 -0.234375 -0.179688 c -0.003906 -0.011718 -0.015625 -0.023437 -0.023437 -0.023437 c -0.015625 0 -0.273438 -0.253906 -0.273438 -0.273437 c 0 -0.007813 -0.007812 -0.019532 -0.019531 -0.023438 c -0.023437 -0.015625 -0.183594 -0.214844 -0.183594 -0.230469 c 0 -0.003906 -0.007812 -0.015625 -0.015625 -0.023437 c -0.0625 -0.078125 -0.085937 -0.109375 -0.085937 -0.117188 c 0 -0.003906 -0.023438 -0.042968 -0.050781 -0.082031 c -0.027344 -0.035156 -0.050782 -0.074219 -0.050782 -0.078125 c 0 -0.007812 -0.019531 -0.039062 -0.039062 -0.074219 c -0.023438 -0.03125 -0.0625 -0.101562 -0.085938 -0.152343 c -0.027344 -0.050782 -0.054687 -0.105469 -0.0625 -0.113282 c -0.015625 -0.03125 -0.109375 -0.253906 -0.152344 -0.367187 c -0.019531 -0.054688 -0.042968 -0.109375 -0.046874 -0.121094 c -0.007813 -0.015625 -0.027344 -0.066406 -0.039063 -0.113281 c -0.015625 -0.046875 -0.035156 -0.121094 -0.050781 -0.160156 c -0.011719 -0.039063 -0.035156 -0.125 -0.050782 -0.1875 c -0.011718 -0.0625 -0.035156 -0.15625 -0.050781 -0.207032 c -0.015625 -0.050781 -0.027343 -0.105468 -0.027343 -0.121094 c 0 -0.019531 -0.011719 -0.078124 -0.023438 -0.136718 c -0.039062 -0.183594 -0.078125 -0.515625 -0.101562 -0.816406 c -0.019532 -0.257813 -0.019532 -1 -0.019532 -6.027344 v -5.730469 h -4.574218 z m 0 0"/>
    </g>
</svg>
