<?xml version="1.0" encoding="UTF-8"?>
<svg height="128px" viewBox="0 0 128 128" width="128px" xmlns="http://www.w3.org/2000/svg" xmlns:xlink="http://www.w3.org/1999/xlink">
    <linearGradient id="a" gradientUnits="userSpaceOnUse" x1="11.999998" x2="115.999998" y1="66.000004" y2="66.000004">
        <stop offset="0" stop-color="#8c8c8c"/>
        <stop offset="0.0356746" stop-color="#e4e4e4"/>
        <stop offset="0.0730247" stop-color="#8c8c8c"/>
        <stop offset="0.926818" stop-color="#8c8c8c" stop-opacity="0.99"/>
        <stop offset="0.960641" stop-color="#e4e4e4"/>
        <stop offset="1" stop-color="#8c8c8c"/>
    </linearGradient>
    <path d="m 20 16 h 88 c 4.417969 0 8 3.582031 8 8 v 84 c 0 4.417969 -3.582031 8 -8 8 h -88 c -4.417969 0 -8 -3.582031 -8 -8 v -84 c 0 -4.417969 3.582031 -8 8 -8 z m 0 0" fill="url(#a)"/>
    <path d="m 20 12 h 88 c 4.417969 0 8 3.582031 8 8 v 84 c 0 4.417969 -3.582031 8 -8 8 h -88 c -4.417969 0 -8 -3.582031 -8 -8 v -84 c 0 -4.417969 3.582031 -8 8 -8 z m 0 0" fill="#ffffff"/>
    <path d="m 71.1875 31.539062 c -1.386719 -0.902343 -4.40625 -2.355468 -5.027344 -2.667968 c -1.597656 -0.796875 -3.394531 0.519531 -3.121094 2.355468 c 0.3125 2.117188 1.664063 3.398438 2.042969 4.023438 c 0 0 -6.136719 0.136719 -7.210937 0 c -1.179688 -0.347656 -8.011719 -1.214844 -8.773438 -1.355469 c -2.910156 -0.527343 -3.777344 0.597657 -3.5 2.429688 c 0.347656 2.324219 0.832032 3.292969 1.144532 3.988281 c -1.042969 0.519531 -7.90625 4.226562 -9.917969 5.824219 c -2.011719 1.59375 -7.90625 5.859375 -9.050781 6.171875 c -1.144532 0.3125 -0.414063 0.589844 0 0.726562 c 0.417968 0.140625 5.0625 0.871094 7.386718 0.347656 c -2.011718 2.496094 -4.714844 9.050782 -5.617187 12.449219 c -0.902344 3.394531 -0.726563 3.082031 -0.035157 4.886719 l 0.691407 1.804688 s 3.605469 9.050781 3.917969 9.917968 c 0.3125 0.867188 0.484374 0.761719 0.796874 0.414063 c 0.3125 -0.347657 0.867188 -0.832031 1.109376 -1.210938 c 0.449218 0.832031 7.347656 11.058594 12.621093 13.242188 c 2.84375 -6.273438 5.640625 -9.386719 8.574219 -11.0625 c 5.941406 -3.394531 9.554688 -1.941407 11.359375 0.871093 c 0.625 0.972657 0.390625 0.660157 0.625 0.972657 c 0.519531 -0.246094 1.976563 -0.902344 1.976563 -0.902344 s 0.953124 2.90625 1.09375 3.355469 c 0.613281 -0.082032 2.234374 -0.410156 2.234374 -0.410156 s 1.109376 3.007812 1.351563 3.582031 c 0.425781 -0.425781 1.699219 -2.089844 1.699219 -2.089844 l 0.917968 2.050781 s 3.210938 -2.917968 3.417969 -3.089844 c 0.554688 0.378907 1.265625 1.171876 1.507813 1.308594 c 0.347656 -0.601562 1.648437 -2.210937 1.648437 -2.140625 c 0 0.066407 1.160157 1.265625 1.472657 1.644531 c 0.144531 -0.289062 0.882812 -1.816406 1.8125 -3.125 c 0.558593 -0.789062 1.136718 -1.519531 1.566406 -1.882812 c 1.144531 -0.972656 2.289062 -2.984375 0.730468 -5.097656 c 1.28125 -1.144532 2.632813 -3.574219 2.355469 -5.617188 c -0.136719 -0.996094 -0.453125 -0.453125 -0.972656 0 c -0.519531 0.449219 -3.605469 2.355469 -4.714844 2.425782 c -1.003906 -1.316407 -1.109375 -3.570313 -0.9375 -5.027344 c 0.171875 -1.457032 1.25 -3.1875 5.894531 -3.988282 c -0.347656 1.457032 -0.832031 3.054688 -1.210937 3.640626 c -0.382813 0.589843 -0.523437 1.214843 0.378906 0.796874 c 3.28125 -1.511718 4.15625 -2.777343 5.582031 -5.371093 c 0.378907 -0.695313 0.347657 -0.9375 0.972657 -1.316407 c 0.621093 -0.382812 2.835937 -2.1875 2.84375 -5.480468 c 0.003906 -4.886719 0.066406 -7.105469 -2.773438 -8.945313 c -2.84375 -1.835937 -7.386719 -4.507812 -8.597656 -5.511719 c -1.214844 -1.003906 -0.175781 -0.625 -1.769531 -2.117187 c -0.59375 -0.554687 -2.890625 -2.699219 -5.722656 -4.539063 c -4.765626 -3.105468 -10.78125 -6.277343 -10.78125 -6.277343 z m 0 0" fill="#231f20"/>
    <path d="m 98.960938 48.585938 c -1.027344 -0.664063 -2.28125 -1.441407 -3.488282 -2.1875 c -1.996094 -1.238282 -4.257812 -2.636719 -4.953125 -3.210938 c -0.144531 -0.121094 -0.226562 -0.195312 -0.265625 -0.238281 c -0.21875 -0.515625 -0.523437 -0.96875 -1.425781 -1.8125 c -2.46875 -2.304688 -4.597656 -3.839844 -5.949219 -4.71875 c -4.566406 -2.972657 -10.148437 -5.949219 -10.851562 -6.320313 c -1.3125 -0.839844 -3.746094 -2.039062 -4.796875 -2.558594 l -0.324219 -0.160156 c -0.550781 -0.273437 -1.128906 -0.414062 -1.730469 -0.414062 c -1.105469 0 -2.15625 0.484375 -2.882812 1.328125 c -0.742188 0.859375 -1.070313 2.015625 -0.898438 3.175781 c 0.121094 0.824219 0.367188 1.546875 0.65625 2.164062 c -0.609375 0.007813 -1.242187 0.011719 -1.828125 0.011719 c -1.332031 0 -1.851562 -0.023437 -2.046875 -0.039062 c -1.03125 -0.257813 -3.71875 -0.640625 -6.855469 -1.070313 c -0.886718 -0.125 -1.726562 -0.242187 -1.917968 -0.277344 c -0.578125 -0.101562 -1.113282 -0.15625 -1.597656 -0.15625 c -1.355469 0 -2.398438 0.410157 -3.097657 1.21875 c -0.699219 0.8125 -0.953125 1.90625 -0.75 3.246094 c 0.195313 1.332032 0.441407 2.273438 0.679688 2.976563 c -2.425781 1.304687 -7.144531 3.941406 -8.84375 5.289062 c -2.25 1.785157 -7.464844 5.484375 -8.480469 5.875 c -1.464844 0.410157 -1.792969 1.257813 -1.8125 1.898438 c -0.023438 0.933593 0.566406 1.609375 1.753906 2.007812 c 0.476563 0.15625 2.65625 0.503907 4.792969 0.59375 c -1.738281 3.242188 -3.425781 7.628907 -4.109375 10.191407 c -0.820312 3.097656 -0.890625 3.65625 -0.1875 5.390624 c 0.0625 0.15625 0.132812 0.324219 0.210938 0.523438 l 0.699218 1.824219 c 1 2.507812 3.648438 9.171875 3.898438 9.863281 c 0.160156 0.4375 0.640625 1.769531 2.015625 1.769531 c 0.554687 0 0.96875 -0.242187 1.25 -0.472656 c 2.339843 3.347656 7.5625 10.203125 12.191406 12.121094 l 1.488281 0.617187 l 0.664063 -1.464844 c 2.421875 -5.347656 4.925781 -8.621093 7.882812 -10.308593 c 2.039063 -1.160157 3.839844 -1.75 5.355469 -1.75 c 1.625 0 2.898438 0.699219 3.78125 2.074219 c 0.296875 0.460937 0.386719 0.609374 0.425781 0.683593 c 0.097657 0.160157 0.136719 0.214844 0.265625 0.386719 l 0.8125 1.082031 l 1.226563 -0.570312 c 0.074219 -0.035157 0.164062 -0.078125 0.269531 -0.125 c 0.230469 0.707031 0.445312 1.375 0.5 1.558593 l 0.414062 1.335938 l 1.386719 -0.175781 c 0.238281 -0.03125 0.59375 -0.09375 0.957031 -0.15625 c 0.335938 0.902343 0.742188 1.984375 0.894532 2.332031 l 0.964844 2.261719 l 1.742187 -1.738281 c 0.03125 -0.035157 0.070313 -0.074219 0.109375 -0.113282 l 0.75 1.671875 l 1.703125 -1.542969 c 0.675781 -0.617187 1.597656 -1.457031 2.308594 -2.097656 c 0.242187 0.226563 0.445312 0.402344 0.667969 0.527344 l 1.4375 0.820312 l 0.828124 -1.429687 c 0.054688 -0.09375 0.15625 -0.242187 0.277344 -0.40625 c 0.050782 0.054687 0.089844 0.101563 0.117188 0.132813 l 1.625 1.988281 l 1.1875 -2.378907 c 0.566406 -1.136718 1.117187 -2.085937 1.644531 -2.824218 c 0.808594 -1.136719 1.1875 -1.496094 1.289063 -1.582032 c 1.617187 -1.371093 2.667968 -3.742187 1.691406 -6.117187 c 1.289062 -1.617187 2.253906 -3.949219 1.964844 -6.089844 c -0.09375 -0.675781 -0.320313 -1.125 -0.59375 -1.425781 c 2.183593 -1.335938 3.164062 -2.777344 4.421874 -5.070312 c 0.121094 -0.21875 0.207032 -0.394532 0.273438 -0.535157 c 0.019531 -0.046875 0.046875 -0.097656 0.066406 -0.136719 c 0.007813 -0.007812 0.023438 -0.015624 0.042969 -0.027343 c 1.347656 -0.824219 3.636719 -3.207031 3.640625 -6.894531 v -0.304688 c 0.007812 -4.832031 0.007812 -7.75 -3.535156 -10.042969 z m 0 0" fill="#b2b4b5"/>
    <path d="m 71.1875 31.539062 c -1.386719 -0.902343 -4.40625 -2.355468 -5.027344 -2.667968 c -1.597656 -0.796875 -3.394531 0.519531 -3.121094 2.355468 c 0.3125 2.117188 1.664063 3.398438 2.042969 4.023438 c 0 0 -6.136719 0.136719 -7.210937 0 c -1.179688 -0.347656 -8.011719 -1.214844 -8.773438 -1.355469 c -2.910156 -0.527343 -3.777344 0.597657 -3.5 2.429688 c 0.347656 2.324219 0.832032 3.292969 1.144532 3.988281 c -1.042969 0.519531 -7.90625 4.226562 -9.917969 5.824219 c -2.011719 1.59375 -7.90625 5.859375 -9.050781 6.171875 c -1.144532 0.3125 -0.414063 0.589844 0 0.726562 c 0.417968 0.140625 5.0625 0.871094 7.386718 0.347656 c -2.011718 2.496094 -4.714844 9.050782 -5.617187 12.449219 c -0.902344 3.394531 -0.726563 3.082031 -0.035157 4.886719 l 0.691407 1.804688 s 3.605469 9.050781 3.917969 9.917968 c 0.3125 0.867188 0.484374 0.761719 0.796874 0.414063 c 0.3125 -0.347657 0.867188 -0.832031 1.109376 -1.210938 c 0.449218 0.832031 7.347656 11.058594 12.621093 13.242188 c 2.84375 -6.273438 5.640625 -9.386719 8.574219 -11.0625 c 5.941406 -3.394531 9.554688 -1.941407 11.359375 0.871093 c 0.625 0.972657 0.390625 0.660157 0.625 0.972657 c 0.519531 -0.246094 1.976563 -0.902344 1.976563 -0.902344 s 0.953124 2.90625 1.09375 3.355469 c 0.613281 -0.082032 2.234374 -0.410156 2.234374 -0.410156 s 1.109376 3.007812 1.351563 3.582031 c 0.425781 -0.425781 1.699219 -2.089844 1.699219 -2.089844 l 0.917968 2.050781 s 3.210938 -2.917968 3.417969 -3.089844 c 0.554688 0.378907 1.265625 1.171876 1.507813 1.308594 c 0.347656 -0.601562 1.648437 -2.210937 1.648437 -2.140625 c 0 0.066407 1.160157 1.265625 1.472657 1.644531 c 0.144531 -0.289062 0.882812 -1.816406 1.8125 -3.125 c 0.558593 -0.789062 1.136718 -1.519531 1.566406 -1.882812 c 1.144531 -0.972656 2.289062 -2.984375 0.730468 -5.097656 c 1.28125 -1.144532 2.632813 -3.574219 2.355469 -5.617188 c -0.136719 -0.996094 -0.453125 -0.453125 -0.972656 0 c -0.519531 0.449219 -3.605469 2.355469 -4.714844 2.425782 c -1.003906 -1.316407 -1.109375 -3.570313 -0.9375 -5.027344 c 0.171875 -1.457032 1.25 -3.1875 5.894531 -3.988282 c -0.347656 1.457032 -0.832031 3.054688 -1.210937 3.640626 c -0.382813 0.589843 -0.523437 1.214843 0.378906 0.796874 c 3.28125 -1.511718 4.15625 -2.777343 5.582031 -5.371093 c 0.378907 -0.695313 0.347657 -0.9375 0.972657 -1.316407 c 0.621093 -0.382812 2.835937 -2.1875 2.84375 -5.480468 c 0.003906 -4.886719 0.066406 -7.105469 -2.773438 -8.945313 c -2.84375 -1.835937 -7.386719 -4.507812 -8.597656 -5.511719 c -1.214844 -1.003906 -0.175781 -0.625 -1.769531 -2.117187 c -0.59375 -0.554687 -2.890625 -2.699219 -5.722656 -4.539063 c -4.765626 -3.105468 -10.78125 -6.277343 -10.78125 -6.277343 z m 0 0" fill="#723131"/>
    <g fill="#ffffff">
        <path d="m 85.824219 65.285156 c -0.960938 1.246094 -1.820313 3.484375 -1.792969 5.355469 c 3.199219 -3.457031 3.589844 -3.746094 5.097656 -4.160156 c 1.507813 -0.417969 2.132813 -0.601563 2.886719 -0.753907 c 0.75 -0.152343 1.300781 -0.183593 1.117187 0.78125 c -0.183593 0.960938 -0.234374 2.261719 -0.804687 3.066407 c 1.324219 -0.703125 2.910156 -2.546875 3.351563 -3.378907 c 0.441406 -0.832031 0.546874 -1.300781 0.78125 -1.507812 c -0.675782 -0.832031 -1.40625 -1.640625 -1.875 -1.925781 c -2.597657 2.105469 -4.703126 2.757812 -8.761719 2.523437 z m 0 0"/>
        <path d="m 94.902344 61.539062 c 0.625 0.519532 2 1.6875 2.183594 2.261719 c 1.417968 -1.421875 2.339843 -1.871093 2.523437 -4.496093 c 0.179687 -2.625 0.453125 -5.917969 -1.207031 -7.617188 c -1.351563 -1.386719 -2.042969 -1.285156 -2.703125 -1.386719 c -0.660157 -0.105469 -4.785157 -0.277343 -5.757813 0 c -0.96875 0.273438 -1.316406 0.066407 -0.171875 -0.523437 c 1.144531 -0.585938 3.1875 -1.210938 3.847657 -1.28125 c -0.867188 -0.519532 -1.179688 -0.691406 -2.042969 -0.691406 c -0.867188 0 -5.511719 0.136718 -6.382813 0.34375 c -0.867187 0.210937 -0.378906 -0.207032 0.140625 -0.519532 s 3.363281 -1.453125 4.472657 -1.488281 c -4.019532 -2.464844 -1.457032 -2.152344 -3.78125 -3.746094 c -2.320313 -1.597656 -6.171876 -4.40625 -7.105469 -5.097656 c -0.9375 -0.691406 -1.457031 -0.726563 -2.742188 -0.832031 l -1.28125 -0.105469 s -13.972656 0.246094 -16.160156 0 c -2.183594 -0.242187 -4.261719 -0.484375 -5.890625 0 c -1.628906 0.488281 -2.601562 1.421875 -2.773438 1.667969 c -0.171874 0.242187 0.035157 0.101562 0.277344 0.691406 c 0.238282 0.589844 2.113282 3.5 2.632813 4.089844 c 0.519531 0.59375 0.660156 0.347656 1.25 0.453125 c 0.589843 0.105469 8.804687 0.832031 10.816406 1.734375 c -0.59375 -1.691406 -1.210937 -2.359375 -1.351563 -2.808594 c -0.140624 -0.453125 -0.085937 -0.460938 0.554688 -0.070312 c 2.183594 1.316406 9.429688 3.570312 11.582031 4.265624 c 2.152344 0.691407 3.847657 1.246094 4.957031 1.90625 c 1.109376 0.660157 7.074219 3.226563 8.945313 3.746094 c 1.871094 0.519532 4.105469 0.53125 6.863281 0 c 0.902344 -0.171875 1.722656 -0.109375 2.046875 0.726563 c 0.242188 0.625 -0.242187 0.730469 -0.625 0.832031 c -0.378906 0.105469 -1.664062 0.554688 -2.078125 0.765625 c -0.417968 0.207031 -1.042968 0.761719 -1.042968 2.078125 v 5.105469 z m 0 0"/>
        <path d="m 75.9375 35.351562 c -2.222656 -1.351562 -5.046875 -2.960937 -5.480469 -3.050781 c -0.429687 -0.089843 -0.898437 -0.277343 -1.664062 0 c -0.761719 0.277344 -1.835938 1.285157 -1.835938 2.117188 s 0.035157 0.96875 0.796875 0.933593 c 0.761719 -0.035156 8.183594 0 8.183594 0 z m 0 0"/>
        <path d="m 82.59375 72.96875 c -0.9375 0.832031 -2.011719 2.773438 -2.21875 3.574219 c -0.210938 0.796875 -0.277344 0.691406 0 0.761719 c 0.273438 0.070312 1.386719 0.277343 1.90625 0.417968 c 0.519531 0.136719 1.742188 0.070313 2.460938 0.207032 c 1.664062 0.3125 3.742187 -0.035157 4.992187 0.484374 c 1.523437 -1.210937 2.328125 -3.070312 2.390625 -4.195312 c -1.246094 0.9375 -2.761719 2.230469 -4.644531 2.566406 c -3.917969 0.691406 -4.625 0.269532 -4.886719 -3.816406 z m 0 0"/>
        <path d="m 41.4375 58.339844 c 3.050781 -3.050782 10.542969 -9.464844 18.65625 -10.503906 c 1.558594 1.179687 3.222656 2.25 3.535156 2.390624 c 0.3125 0.140626 0.570313 0.207032 0 0.484376 c -7.140625 3.46875 -11.789062 7.734374 -15.429687 16.191406 c 5.996093 -6.519532 14.910156 -11.40625 20.457031 -13.382813 c 1.707031 -0.609375 1.144531 -0.378906 2.355469 -0.171875 c 1.210937 0.207032 4.851562 0.726563 7.210937 0.414063 s 3.328125 -0.414063 3.433594 0.175781 c 0.105469 0.585938 0.035156 0.554688 -0.972656 0.726562 c -1.003906 0.171876 -5.925782 0.972657 -7.867188 1.285157 c -1.941406 0.308593 -2.71875 0.738281 -4.265625 1.417969 c -9.015625 3.988281 -20.976562 16.003906 -18.792969 32.488281 c 2.1875 -3.898438 5.878907 -6.394531 7.074219 -7.070313 c -0.429687 -13.863281 10.992188 -23.5 24.859375 -26.421875 c 1.976563 -0.414062 3.171875 0.675781 1.5625 0.9375 c -11.609375 1.871094 -18.324218 14.535157 -18.722656 23.351563 c 1.386719 0.15625 4.054688 1.574218 4.992188 3.484375 c 0.988281 -0.367188 2.285156 -0.78125 2.285156 -0.78125 l 1.117187 3.378906 l 2.1875 -0.390625 l 1.0625 3.070312 s 1.25 -1.953124 1.429688 -2.289062 c 0.183593 -0.335938 0.441406 -0.15625 0.597656 0.3125 s 0.648437 1.976562 0.648437 1.976562 l 2.859376 -2.707031 l 1.484374 1.25 l 1.738282 -2.390625 l 1.378906 1.636719 s 1.117188 -2.289063 2.15625 -3.222656 c 1.042969 -0.9375 2.082031 -2.417969 1.769531 -3.589844 s -0.261719 -0.988281 -1.011719 -1.117187 c -0.753906 -0.132813 -8.738281 -0.234376 -11.988281 -1.898438 s -4.082031 -1.351562 -6.164062 -7.984375 c -0.304688 -0.980469 -0.554688 -1.292969 0.390625 -2.132813 c 1.820312 -1.613281 5.566406 -4.183593 6.472656 -4.679687 c 0.910156 -0.496094 0.753906 -0.496094 1.429688 -0.261719 c 5.117187 1.769532 10.550781 3.152344 13.914062 0.027344 c 0.363281 -0.339844 0.414062 -0.441406 0.4375 -1.378906 c 0.027344 -0.9375 0.027344 -3.746094 0 -4.523438 c -0.023438 -0.78125 -0.519531 -1.269531 -1.738281 -1.5625 c -1.746094 -0.414062 -2.132813 0.210938 -2.550781 -0.492187 c -0.414063 -0.703125 -0.542969 -0.808594 -1.820313 -1.433594 c -1.273437 -0.625 -5.199219 -2.289063 -11.648437 -2.546875 c 2.183593 -0.441406 2.808593 -0.910156 3.328124 -1.433594 c -0.753906 -0.335937 -1.871093 -0.855468 -1.871093 -0.855468 c -2.335938 1.347656 -3.925781 0.910156 -4.265625 -1.558594 c -0.832032 -0.261719 -1.976563 -0.601563 -1.976563 -0.601563 s 0.023438 2.550781 1.351563 3.617188 c -2.234375 -1.25 -8.242188 -3.640625 -13.703125 -4.394531 c -1.535157 -0.210938 -2.183594 -0.363282 -3.535157 0.15625 c -4.273437 1.644531 -9.699218 4.304687 -13.859374 13 z m 0 0"/>
    </g>
    <path d="m 74.582031 44.644531 v -0.140625 s -3.117187 -3.535156 -3.257812 -3.742187 s -0.382813 -0.207031 -0.382813 -0.207031 s -2.21875 1.523437 -2.5625 1.730468 c 0.519532 0.453125 6.066406 2.359375 6.066406 2.359375" fill="#723131"/>
</svg>
