<?xml version="1.0" encoding="UTF-8"?>
<svg height="16px" viewBox="0 0 16 16" width="16px" xmlns="http://www.w3.org/2000/svg">
    <path d="m 14.410156 13.949219 c -1.726562 1.269531 -4.308594 2.050781 -6.402344 2.050781 c -2.996093 0 -5.660156 -1.191406 -7.710937 -3.035156 c -0.164063 -0.164063 0 -0.328125 0.164063 -0.246094 c 2.214843 1.269531 4.714843 2.007812 7.507812 2.007812 c 1.886719 0 4.265625 -0.410156 6.191406 -1.230468 c 0.289063 -0.082032 0.535156 0.246094 0.25 0.453125 z m 0.613282 -0.863281 c -0.203126 -0.285157 -1.4375 -0.121094 -1.96875 -0.082032 c -0.164063 0 -0.207032 -0.121094 -0.042969 -0.246094 c 0.945312 -0.695312 2.546875 -0.492187 2.710937 -0.246093 c 0.164063 0.246093 -0.042968 1.847656 -0.945312 2.585937 c -0.121094 0.121094 -0.285156 0.039063 -0.203125 -0.082031 c 0.203125 -0.492187 0.65625 -1.640625 0.449219 -1.929687 z m 0 0"/>
    <path d="m 13.300781 10.175781 c -0.410156 -0.535156 -0.820312 -0.984375 -0.820312 -2.011719 v -3.40625 c 0 -1.433593 0 -2.707031 -1.027344 -3.691406 c -0.820313 -0.777344 -2.171875 -1.066406 -3.238281 -1.066406 c -2.257813 0 -4.226563 0.902344 -4.71875 3.445312 c -0.042969 0.289063 0.164062 0.410157 0.328125 0.453126 l 2.089843 0.246093 c 0.207032 0 0.328126 -0.207031 0.371094 -0.410156 c 0.164063 -0.863281 0.863282 -1.273437 1.683594 -1.273437 c 0.449219 0 1.3125 0.246093 1.3125 1.230468 v 1.230469 c -1.3125 0 -2.707031 0 -3.859375 0.492187 c -1.351563 0.574219 -2.296875 1.765626 -2.296875 3.53125 c 0 2.253907 1.394531 3.363282 3.199219 3.363282 c 1.519531 0 2.421875 -0.371094 3.613281 -1.558594 c 0.367188 0.574219 0.53125 0.902344 1.230469 1.515625 c 0.164062 0.082031 0.367187 0.082031 0.492187 -0.039063 c 0.410156 -0.371093 1.1875 -1.066406 1.640625 -1.4375 c 0.203125 -0.164062 0.164063 -0.410156 0 -0.613281 z m -4.0625 -3.160156 c 0 0.820313 -0.039062 2.832031 -2.050781 2.832031 c -1.230469 0 -1.230469 -1.230468 -1.230469 -1.230468 c 0 -1.847657 1.722657 -2.054688 3.28125 -2.054688 z m 0 0"/>
</svg>
