<?xml version="1.0" encoding="UTF-8"?>
<svg height="16px" viewBox="0 0 16 16" width="16px" xmlns="http://www.w3.org/2000/svg">
    <g fill="#222222">
        <path d="m 0.160156 7.300781 c 0.226563 0.90625 0.695313 1.742188 1.367188 2.414063 l 5.433594 5.433594 c 0.066406 0.066406 0.160156 0.105468 0.253906 0.105468 c 0.199218 0 0.359375 -0.160156 0.359375 -0.359375 v -3.589843 h 3.144531 c 2.949219 0 5.332031 -2.410157 5.28125 -5.367188 c -0.023438 -1.460938 -0.652344 -2.765625 -1.636719 -3.703125 z m 0 0"/>
        <path d="m 9.226562 8.746094 c 2.914063 0 5.28125 -2.363282 5.28125 -5.277344 c 0 -0.425781 -0.050781 -0.839844 -0.144531 -1.234375 c -0.972656 -0.921875 -2.292969 -1.488281 -3.730469 -1.488281 h -5.351562 c -2.917969 0 -5.28125 2.363281 -5.28125 5.28125 c 0 0.433594 0.0546875 0.859375 0.160156 1.273437 c 0.945313 0.898438 2.222656 1.445313 3.625 1.445313 z m 0 0"/>
    </g>
</svg>
