<?xml version="1.0" encoding="UTF-8" standalone="no"?>
<svg
   height="16px"
   viewBox="0 0 16 16"
   width="16px"
   version="1.1"
   id="svg2"
   sodipodi:docname="google-maps-symbolic.svg"
   inkscape:version="1.4.3 (0d15f75042, 2025-12-25)"
   xmlns:inkscape="http://www.inkscape.org/namespaces/inkscape"
   xmlns:sodipodi="http://sodipodi.sourceforge.net/DTD/sodipodi-0.dtd"
   xmlns="http://www.w3.org/2000/svg"
   xmlns:svg="http://www.w3.org/2000/svg">
  <defs
     id="defs2" />
  <sodipodi:namedview
     id="namedview2"
     pagecolor="#ffffff"
     bordercolor="#000000"
     borderopacity="0.25"
     inkscape:showpageshadow="2"
     inkscape:pageopacity="0.0"
     inkscape:pagecheckerboard="0"
     inkscape:deskcolor="#d1d1d1"
     inkscape:zoom="40.0625"
     inkscape:cx="7.9875195"
     inkscape:cy="8"
     inkscape:window-width="1410"
     inkscape:window-height="871"
     inkscape:window-x="0"
     inkscape:window-y="0"
     inkscape:window-maximized="1"
     inkscape:current-layer="svg2" />
  <g
     fill="#bebebe"
     id="g2"
     style="fill:#222222;fill-opacity:1">
    <path
       d="m 10.015625 0.015625 c -2.191406 0 -3.988281 1.699219 -3.988281 3.78125 c 0 3.097656 3.136718 8.125 3.988281 8.1875 c 0.847656 0.0625 3.957031 -5.152344 3.957031 -8.1875 c 0 -2.082031 -1.765625 -3.78125 -3.957031 -3.78125 z m -0.03125 2.96875 c 0.550781 0 0.996094 0.449219 0.996094 1 s -0.445313 1 -0.996094 1 s -0.996094 -0.449219 -0.996094 -1 s 0.445313 -1 0.996094 -1 z m 0 0"
       id="path1"
       style="fill:#222222;fill-opacity:1" />
    <path
       d="m 14.78125 10.984375 c -0.121094 0.03125 -0.238281 0.082031 -0.339844 0.15625 l -4.269531 2.65625 l -4.082031 -2.53125 c -0.316406 -0.191406 -0.710938 -0.191406 -1.027344 0 l -4.582031 2.8125 c -0.304688 0.1875 -0.4882815 0.527344 -0.47656275 0.890625 c 0.00781255 0.359375 0.21093775 0.6875 0.52734375 0.859375 c 0.320312 0.171875 0.703125 0.160156 1.007812 -0.03125 l 4.019532 -2.5 l 4.082031 2.53125 c 0.324219 0.203125 0.738281 0.203125 1.058594 0 l 4.800781 -3 c 0.429688 -0.246094 0.613281 -0.769531 0.433594 -1.234375 c -0.179688 -0.460938 -0.667969 -0.71875 -1.152344 -0.609375 z m 0 0"
       id="path2"
       style="fill:#222222;fill-opacity:1" />
  </g>
</svg>
