<?xml version="1.0" encoding="UTF-8"?>
<svg height="16px" viewBox="0 0 16 16" width="16px" xmlns="http://www.w3.org/2000/svg">
    <path d="m 9.050781 8 l 1.558594 1.78125 l 2.097656 1.339844 l 0.367188 -3.109375 l -0.367188 -3.042969 l -2.136719 1.175781 z m 0 0"/>
    <path d="m 0 10.832031 v 2.652344 c 0 0.605469 0.492188 1.097656 1.097656 1.097656 h 2.652344 l 0.546875 -2.003906 l -0.546875 -1.746094 l -1.820312 -0.546875 z m 0 0"/>
    <path d="m 3.75 1.417969 l -3.75 3.75 l 1.929688 0.546875 l 1.820312 -0.546875 l 0.539062 -1.722657 z m 0 0"/>
    <path d="m 3.75 5.167969 h -3.75 v 5.664062 h 3.75 z m 0 0"/>
    <path d="m 15.101562 3.003906 l -2.394531 1.964844 v 6.152344 l 2.40625 1.972656 c 0.359375 0.285156 0.886719 0.027344 0.886719 -0.429688 v -9.234374 c 0 -0.464844 -0.539062 -0.71875 -0.898438 -0.425782 z m -6.050781 4.996094 v 2.832031 h -5.300781 v 3.75 h 7.859375 c 0.605469 0 1.097656 -0.492187 1.097656 -1.097656 v -2.363281 z m 0 0"/>
    <path d="m 11.609375 1.417969 h -7.859375 v 3.75 h 5.300781 v 2.832031 l 3.65625 -3.03125 v -2.453125 c 0 -0.605469 -0.492187 -1.097656 -1.097656 -1.097656 z m 0 0"/>
</svg>
