<?xml version="1.0" encoding="UTF-8"?>
<svg height="16px" viewBox="0 0 16 16" width="16px" xmlns="http://www.w3.org/2000/svg">
    <path d="m 8 0 c 3.464844 0 6.273438 2.808594 6.273438 6.273438 c 0 1.285156 -0.386719 2.480468 -1.050782 3.476562 c -1.316406 1.96875 -3.371094 3.449219 -4.429687 5.566406 l -0.140625 0.28125 c -0.136719 0.269532 -0.394532 0.402344 -0.652344 0.402344 c -0.261719 0 -0.519531 -0.132812 -0.652344 -0.402344 l -0.140625 -0.28125 c -1.058593 -2.117187 -3.113281 -3.597656 -4.429687 -5.566406 c -0.664063 -0.996094 -1.050782 -2.191406 -1.050782 -3.476562 c 0 -3.464844 2.808594 -6.273438 6.273438 -6.273438 z m 0 2.90625 c -1.855469 0 -3.363281 1.507812 -3.363281 3.367188 c 0 1.855468 1.503906 3.363281 3.363281 3.363281 c 1.855469 0 3.363281 -1.507813 3.363281 -3.363281 c 0 -1.859376 -1.507812 -3.367188 -3.363281 -3.367188 z m 0 0" fill="#222222"/>
</svg>
