<?xml version="1.0" encoding="UTF-8"?>
<svg height="16px" viewBox="0 0 16 16" width="16px" xmlns="http://www.w3.org/2000/svg">
    <g fill="#222222">
        <path d="m 8.425781 3.199219 v 3.839843 c 0 0.238282 0.191407 0.429688 0.429688 0.429688 h 3.839843 c 0 -1.179688 -0.261718 -2.457031 -1.035156 -3.234375 c -0.777344 -0.773437 -2.054687 -1.035156 -3.234375 -1.035156 z m 0 0"/>
        <path d="m 12.613281 15.921875 c -1.792969 0.292969 -3.960937 -0.238281 -6.042969 -1.480469 l 0.699219 -1.554687 l 1.578125 -0.730469 l 2.476563 1.414062 z m 0 0"/>
        <path d="m 0.183594 3.492188 c -0.292969 1.792968 0.230468 3.960937 1.480468 6.042968 l 1.597657 -0.75 l 0.6875 -1.535156 l -1.34375 -2.195312 z m 0 0"/>
        <path d="m 9.066406 0 c -0.351562 0 -0.640625 0.289062 -0.640625 0.640625 v 2.558594 c 2.355469 0 4.269531 1.914062 4.269531 4.269531 h 2.558594 c 0.351563 0 0.640625 -0.289062 0.640625 -0.640625 c 0 -3.769531 -3.058593 -6.828125 -6.828125 -6.828125 z m 0 0"/>
        <path d="m 15.285156 14.449219 c 0.339844 -0.328125 0.355469 -0.859375 0.035156 -1.195313 l -3.085937 -3.289062 c -0.339844 -0.320313 -0.863281 -0.316406 -1.191406 0.011718 l -2.1875 2.179688 l 3.757812 3.757812 c 1.015625 -0.148437 1.777344 -0.582031 2.46875 -1.273437 z m 0 0"/>
        <path d="m 1.667969 9.535156 c 0.566406 0.933594 1.3125 1.875 2.164062 2.726563 c 0.851563 0.851562 1.8125 1.609375 2.746094 2.175781 l 2.285156 -2.28125 l -4.914062 -4.90625"/>
        <path d="m 5.59375 5.65625 l 0.351562 -0.339844 c 0.414063 -0.414062 0.414063 -1.097656 0 -1.515625 l -2.898437 -2.898437 c -0.417969 -0.417969 -1.101563 -0.417969 -1.519531 0 l -0.101563 0.070312 c -0.671875 0.671875 -1.074219 1.542969 -1.242187 2.519532 l 3.765625 3.757812 z m 0 0"/>
    </g>
</svg>
