<?xml version="1.0" encoding="UTF-8"?>
<svg height="16px" viewBox="0 0 16 16" width="16px" xmlns="http://www.w3.org/2000/svg">
    <g fill="#222222">
        <path d="m 1.210938 13.105469 l 0.703124 1.21875 c 0.148438 0.253906 0.359376 0.457031 0.605469 0.605469 l 2.519531 -4.363282 h -5.039062 c 0 0.285156 0.0742188 0.566406 0.21875 0.824219 z m 0 0"/>
        <path d="m 8 5.433594 l -2.519531 -4.363282 c -0.246094 0.148438 -0.457031 0.351563 -0.605469 0.605469 l -4.65625 8.066407 c -0.1445312 0.25 -0.21875 0.535156 -0.21875 0.824218 h 5.039062 z m 0 0"/>
        <path d="m 13.480469 14.929688 c 0.246093 -0.148438 0.457031 -0.351563 0.605469 -0.605469 l 0.292968 -0.503907 l 1.402344 -2.429687 c 0.144531 -0.257813 0.21875 -0.539063 0.21875 -0.824219 h -5.039062 l 1.070312 2.105469 z m 0 0"/>
        <path d="m 8 5.433594 l 2.519531 -4.363282 c -0.246093 -0.144531 -0.53125 -0.21875 -0.824219 -0.21875 h -3.390624 c -0.292969 0 -0.578126 0.082032 -0.824219 0.21875 z m 0 0"/>
        <path d="m 10.960938 10.566406 h -5.921876 l -2.519531 4.363282 c 0.246094 0.144531 0.53125 0.21875 0.824219 0.21875 h 9.3125 c 0.292969 0 0.578125 -0.082032 0.824219 -0.21875 z m 0 0"/>
        <path d="m 13.453125 5.710938 l -2.328125 -4.035157 c -0.148438 -0.253906 -0.359375 -0.457031 -0.605469 -0.605469 l -2.519531 4.363282 l 2.960938 5.132812 h 5.03125 c 0 -0.285156 -0.074219 -0.570312 -0.222657 -0.824218 z m 0 0"/>
    </g>
</svg>
