<?xml version="1.0" encoding="UTF-8"?>
<svg height="16px" viewBox="0 0 16 16" width="16px" xmlns="http://www.w3.org/2000/svg">
    <path d="m 4.800781 0 c -1.753906 0 -3.199219 1.445312 -3.199219 3.199219 v 9.601562 c 0 1.753907 1.445313 3.199219 3.199219 3.199219 h 6.398438 c 1.753906 0 3.199219 -1.445312 3.199219 -3.199219 v -8 c 0 -0.285156 -0.109376 -0.554687 -0.3125 -0.753906 l -3.730469 -3.734375 c -0.203125 -0.199219 -0.472657 -0.3125 -0.753907 -0.3125 z m 0 2.132812 h 4.265625 v 1.601563 c 0 1.066406 0.535156 1.597656 1.601563 1.597656 h 1.597656 v 7.46875 c 0 0.609375 -0.457031 1.066407 -1.066406 1.066407 h -6.398438 c -0.609375 0 -1.066406 -0.457032 -1.066406 -1.066407 v -9.601562 c 0 -0.609375 0.457031 -1.066407 1.066406 -1.066407 z m 0 0"/>
    <path d="m 11.199219 11.503906 h -4.523438 v -1.066406 h 4.523438 z m 0 0"/>
    <path d="m 5.441406 11.613281 c -0.355468 0 -0.640625 -0.289062 -0.640625 -0.640625 c 0 -0.355468 0.285157 -0.640625 0.640625 -0.640625 c 0.351563 0 0.636719 0.285157 0.636719 0.640625 c 0 0.351563 -0.285156 0.640625 -0.636719 0.640625 z m 0 0"/>
    <path d="m 11.199219 9.371094 h -4.523438 v -1.066406 h 4.523438 z m 0 0"/>
    <path d="m 5.441406 9.476562 c -0.355468 0 -0.640625 -0.285156 -0.640625 -0.636718 c 0 -0.355469 0.285157 -0.640625 0.640625 -0.640625 c 0.351563 0 0.636719 0.285156 0.636719 0.640625 c 0 0.351562 -0.285156 0.636718 -0.636719 0.636718 z m 0 0"/>
    <path d="m 11.199219 7.226562 h -4.523438 v -1.066406 h 4.523438 z m 0 0"/>
    <path d="m 5.441406 7.332031 c -0.355468 0 -0.640625 -0.285156 -0.640625 -0.640625 c 0 -0.351562 0.285157 -0.640625 0.640625 -0.640625 c 0.351563 0 0.636719 0.289063 0.636719 0.640625 c 0 0.355469 -0.285156 0.640625 -0.636719 0.640625 z m 0 0"/>
</svg>
