<?xml version="1.0" encoding="UTF-8"?>
<svg height="16px" viewBox="0 0 16 16" width="16px" xmlns="http://www.w3.org/2000/svg">
    <path d="m 1.523438 1.144531 c -0.839844 0 -1.523438 0.683594 -1.523438 1.523438 v 10.664062 c 0 0.839844 0.683594 1.523438 1.523438 1.523438 h 12.953124 c 0.839844 0 1.523438 -0.683594 1.523438 -1.523438 v -10.664062 c 0 -0.839844 -0.683594 -1.523438 -1.523438 -1.523438 z m 0 1.523438 h 12.953124 v 10.664062 h -12.953124 z m 0 0"/>
    <path d="m 9.523438 12.570312 h 3.046874 v 0.761719 h -3.046874 z m 0 0"/>
    <path d="m 9.144531 6.476562 c 0 0.628907 -0.511719 1.140626 -1.144531 1.140626 s -1.144531 -0.511719 -1.144531 -1.140626 c 0 -0.632812 0.511719 -1.144531 1.144531 -1.144531 s 1.144531 0.511719 1.144531 1.144531 z m 0 0"/>
    <path d="m 5.714844 7.617188 c 0 0.421874 -0.339844 0.765624 -0.761719 0.765624 s -0.761719 -0.34375 -0.761719 -0.765624 c 0 -0.417969 0.339844 -0.761719 0.761719 -0.761719 s 0.761719 0.34375 0.761719 0.761719 z m 0 0"/>
    <path d="m 11.808594 7.617188 c 0 0.421874 -0.339844 0.765624 -0.761719 0.765624 s -0.761719 -0.34375 -0.761719 -0.765624 c 0 -0.417969 0.339844 -0.761719 0.761719 -0.761719 s 0.761719 0.34375 0.761719 0.761719 z m 0 0"/>
    <path d="m 12.953125 9.785156 c 0 -0.167968 -0.0625 -0.332031 -0.179687 -0.457031 c -0.261719 -0.28125 -0.824219 -0.566406 -1.726563 -0.566406 c -0.898437 0 -1.460937 0.285156 -1.726563 0.566406 c -0.117187 0.125 -0.175781 0.289063 -0.175781 0.457031 v 0.5 h 3.808594 z m 0 0"/>
    <path d="m 6.855469 9.785156 c 0 -0.167968 -0.058594 -0.332031 -0.175781 -0.457031 c -0.265626 -0.28125 -0.828126 -0.566406 -1.726563 -0.566406 c -0.902344 0 -1.464844 0.285156 -1.726563 0.566406 c -0.117187 0.125 -0.179687 0.289063 -0.179687 0.457031 v 0.5 h 3.808594 z m 0 0"/>
    <path d="m 10.285156 9.425781 c 0 -0.203125 -0.074218 -0.398437 -0.214844 -0.546875 c -0.316406 -0.339844 -0.992187 -0.878906 -2.070312 -0.878906 s -1.753906 0.539062 -2.070312 0.878906 c -0.140626 0.148438 -0.214844 0.34375 -0.214844 0.546875 v 0.859375 h 4.570312 z m 0 0"/>
</svg>
