<?xml version="1.0" encoding="UTF-8"?>
<svg height="16px" viewBox="0 0 16 16" width="16px" xmlns="http://www.w3.org/2000/svg">
    <path d="m 11.773438 0 h -7.546876 c -1.789062 0 -3.238281 1.449219 -3.238281 3.234375 v 7.550781 c 0 1.789063 1.449219 3.238282 3.238281 3.238282 h 1.625 c 0.472657 0 0.683594 0.039062 0.90625 0.167968 c 0.246094 0.140625 0.382813 0.511719 0.519532 0.882813 c 0.171875 0.464843 0.339844 0.925781 0.722656 0.925781 c 0.367188 0 0.539062 -0.433594 0.714844 -0.878906 c 0.15625 -0.390625 0.3125 -0.789063 0.609375 -0.929688 c 0.238281 -0.113281 0.421875 -0.167968 0.839843 -0.167968 h 1.609376 c 1.789062 0 3.238281 -1.449219 3.238281 -3.238282 v -7.550781 c 0 -1.785156 -1.449219 -3.234375 -3.238281 -3.234375 z m -3.789063 11.632812 c -1.929687 0 -3.726563 -0.953124 -4.804687 -2.554687 c -0.183594 -0.269531 -0.113282 -0.640625 0.15625 -0.820313 c 0.273437 -0.183593 0.640624 -0.113281 0.824218 0.15625 c 0.859375 1.273438 2.289063 2.035157 3.824219 2.035157 c 1.53125 0 2.960937 -0.761719 3.824219 -2.035157 c 0.183594 -0.269531 0.550781 -0.34375 0.820312 -0.160156 c 0.273438 0.183594 0.34375 0.550782 0.160156 0.824219 c -1.082031 1.601563 -2.875 2.554687 -4.804687 2.554687 z m 2.695313 -8.300781 v 1.078125 h -1.078126 v 1.078125 h 1.078126 v 1.078125 h -1.078126 v 1.078125 h -1.078124 v -1.078125 h -1.078126 v 1.078125 h -1.082031 v -1.078125 h -1.078125 v -1.078125 h 1.078125 v -1.078125 h -1.078125 v -1.078125 h 1.078125 v -1.078125 h 1.082031 v 1.078125 h 1.078126 v -1.078125 h 1.078124 v 1.078125 z m -3.234376 2.15625 h 1.078126 v -1.078125 h -1.078126 z m 0 0" fill="#222222" fill-rule="evenodd"/>
</svg>
