<?xml version="1.0" encoding="UTF-8" standalone="no"?>
<svg
   height="16px"
   viewBox="0 0 16 16"
   width="16px"
   version="1.1"
   id="svg1104"
   sodipodi:docname="lemmy-symbolic.svg"
   inkscape:version="1.3.2 (091e20ef0f, 2023-11-25)"
   xmlns:inkscape="http://www.inkscape.org/namespaces/inkscape"
   xmlns:sodipodi="http://sodipodi.sourceforge.net/DTD/sodipodi-0.dtd"
   xmlns="http://www.w3.org/2000/svg"
   xmlns:svg="http://www.w3.org/2000/svg">
  <sodipodi:namedview
     id="namedview1"
     pagecolor="#ffffff"
     bordercolor="#000000"
     borderopacity="0.25"
     inkscape:showpageshadow="2"
     inkscape:pageopacity="0.0"
     inkscape:pagecheckerboard="0"
     inkscape:deskcolor="#d1d1d1"
     showgrid="false"
     inkscape:zoom="47.870216"
     inkscape:cx="7.9903546"
     inkscape:cy="8.0112445"
     inkscape:window-width="1521"
     inkscape:window-height="973"
     inkscape:window-x="35"
     inkscape:window-y="32"
     inkscape:window-maximized="0"
     inkscape:current-layer="svg1104" />
  <defs
     id="defs1108" />
  <filter
     id="a"
     height="1"
     width="1"
     x="0"
     y="0">
    <feColorMatrix
       in="SourceGraphic"
       type="matrix"
       values="0 0 0 0 1 0 0 0 0 1 0 0 0 0 1 0 0 0 1 0"
       id="feColorMatrix1079" />
  </filter>
  <mask
     id="b">
    <g
       filter="url(#a)"
       id="g1084">
      <rect
         fill-opacity="0.35"
         height="16"
         width="16"
         id="rect1082" />
    </g>
  </mask>
  <clipPath
     id="c">
    <rect
       height="152"
       width="192"
       id="rect1087" />
  </clipPath>
  <g
     fill="#241f31"
     id="g1102"
     style="fill:#000000;fill-opacity:1">
    <path
       d="M 2,0 C 0.890625,0 0,0.890625 0,2 v 7 c 0,1.109375 0.890625,2 2,2 h 9 c 1.109375,0 2,-0.890625 2,-2 V 2 C 13,0.890625 12.109375,0 11,0 Z"
       id="path1090"
       sodipodi:nodetypes="sssssssss"
       style="fill:#000000;fill-opacity:1" />
    <path
       d="m 3 11 v 3 l 3 -3 z m 0 0"
       id="path1092"
       style="fill:#000000;fill-opacity:1" />
    <g
       clip-path="url(#c)"
       mask="url(#b)"
       transform="matrix(1 0 0 1 -168 -16)"
       id="g1098"
       style="fill:#000000;fill-opacity:1">
      <path
         d="m 182 18 v 7 c 0 1.644531 -1.355469 3 -3 3 h -4.585938 l -1 1 h 8.585938 c 1.109375 0 2 -0.890625 2 -2 v -7 c 0 -1.109375 -0.890625 -2 -2 -2 z m 0 0"
         id="path1094"
         style="fill:#000000;fill-opacity:1" />
      <path
         d="m 181 29 v 3 l -3 -3 z m 0 0"
         id="path1096"
         style="fill:#000000;fill-opacity:1" />
    </g>
    <path
       d="m 3 11 v 3 l 3 -3 z m 0 0"
       id="path1100"
       style="fill:#000000;fill-opacity:1" />
  </g>
  <g
     id="g22108"
     style="display:inline;opacity:0.35;enable-background:new;fill:#000000;fill-opacity:1"
     transform="translate(-160,-172)">
    <g
       id="g22106"
       style="fill:#000000;fill-opacity:1">
      <path
         id="path22102"
         style="opacity:1;fill:#000000;fill-opacity:1;stroke:none;stroke-width:0.25;stroke-linecap:round;stroke-linejoin:round;stroke-dashoffset:26.4"
         d="m 182,18 v 7 c 0,1.6447 -1.3553,3 -3,3 h -4.58594 l -1,1 H 182 c 1.108,0 2,-0.892 2,-2 v -7 c 0,-1.108 -0.892,-2 -2,-2 z"
         transform="translate(-8,156)" />
      <path
         d="m 173,185 v 3 l -3,-3 z"
         id="path22104"
         style="color:#000000;display:inline;overflow:visible;visibility:visible;fill:#000000;fill-opacity:1;fill-rule:nonzero;stroke:none;stroke-width:1;marker:none;enable-background:accumulate" />
    </g>
  </g>
</svg>
