<svg xmlns="http://www.w3.org/2000/svg"  viewBox="0 0 24 24" width="24px" height="24px"><path d="M 12 4 C 9.0666667 4 6.3744295 5.8218705 4.375 8.0878906 C 2.3755705 10.353911 1 13.083333 1 15.5 C 1 16.561571 1.3669006 17.445957 1.8925781 18.158203 A 1.0001 1.0001 0 0 0 1.8984375 18.166016 C 2.766725 19.319064 4.129632 20 5.5742188 20 C 8.6288242 20 15.328232 19.999445 18.408203 19.982422 C 19.940654 19.982422 21.377182 19.223018 22.240234 17.957031 C 22.701772 17.289824 23 16.461435 23 15.5 C 23 13.083333 21.624429 10.353911 19.625 8.0878906 C 17.625571 5.8218705 14.933333 4 12 4 z M 12 6 C 14.066667 6 16.374429 7.4281295 18.125 9.4121094 C 19.875571 11.396089 21 13.916667 21 15.5 C 21 16.114565 20.888166 16.397522 20.595703 16.820312 A 1.0001 1.0001 0 0 0 20.589844 16.828125 C 20.520655 16.930017 20.4309 17.011678 20.349609 17.101562 C 18.988432 16.036312 15.952308 14 12 14 C 8.0250512 14 4.9826638 16.048586 3.6347656 17.109375 C 3.5911887 17.060033 3.5400521 17.019746 3.5 16.966797 C 3.1320302 16.467606 3 16.17654 3 15.5 C 3 13.916667 4.1244295 11.396089 5.875 9.4121094 C 7.6255705 7.4281295 9.9333333 6 12 6 z M 8.9882812 9 A 1.0001 1.0001 0 0 0 8.0507812 9.6835938 L 7.0507812 12.683594 A 1.0005644 1.0005644 0 1 0 8.9492188 13.316406 L 9.5351562 11.558594 L 11.445312 12.832031 A 1.0001 1.0001 0 0 0 12.554688 12.832031 L 14.464844 11.558594 L 15.050781 13.316406 A 1.0005646 1.0005646 0 1 0 16.949219 12.683594 L 15.949219 9.6835938 A 1.0001 1.0001 0 0 0 14.445312 9.1679688 L 12 10.798828 L 9.5546875 9.1679688 A 1.0001 1.0001 0 0 0 8.9882812 9 z M 12 16 C 14.464206 16 16.68034 17.071266 18.123047 17.982422 C 15.044748 17.997973 8.9224309 17.999967 5.8515625 18 C 7.2935359 17.085774 9.5219321 16 12 16 z"/></svg>