<?xml version="1.0" encoding="UTF-8"?>
<svg height="16px" viewBox="0 0 16 16" width="16px" xmlns="http://www.w3.org/2000/svg">
    <g fill="#222222">
        <path d="m 13.035156 0.0234375 c 0.871094 -0.1523435 1.710938 0.4257815 1.878906 1.2929685 l 0.070313 0.355469 c 0.167969 0.871094 -0.402344 1.699219 -1.273437 1.851563 l -11.835938 2.089843 c -0.40625 0.070313 -0.800781 -0.199219 -0.878906 -0.601562 l -0.230469 -1.195313 c -0.167969 -0.867187 0.402344 -1.695312 1.273437 -1.851562 z m 0 0"/>
        <path d="m 13.035156 0.0234375 c 0.871094 -0.1523435 1.710938 0.4257815 1.878906 1.2929685 l 0.070313 0.355469 c 0.167969 0.871094 -0.402344 1.699219 -1.273437 1.851563 l -11.835938 2.089843 c -0.40625 0.070313 -0.800781 -0.199219 -0.878906 -0.601562 l -0.230469 -1.195313 c -0.167969 -0.867187 0.402344 -1.695312 1.273437 -1.851562 z m 0 0"/>
        <path d="m 13.035156 0.0234375 c 0.871094 -0.1523435 1.710938 0.4257815 1.878906 1.2929685 l 0.070313 0.355469 c 0.167969 0.871094 -0.402344 1.699219 -1.273437 1.851563 l -11.835938 2.089843 c -0.40625 0.070313 -0.800781 -0.199219 -0.878906 -0.601562 l -0.230469 -1.195313 c -0.167969 -0.867187 0.402344 -1.695312 1.273437 -1.851562 z m 0 0"/>
        <path d="m 13.035156 0.0234375 c 0.871094 -0.1523435 1.710938 0.4257815 1.878906 1.2929685 l 0.070313 0.355469 c 0.167969 0.871094 -0.402344 1.699219 -1.273437 1.851563 l -11.835938 2.089843 c -0.40625 0.070313 -0.800781 -0.199219 -0.878906 -0.601562 l -0.230469 -1.195313 c -0.167969 -0.867187 0.402344 -1.695312 1.273437 -1.851562 z m 0 0"/>
        <path d="m 0.734375 14.078125 c 0 1.0625 0.863281 1.921875 1.925781 1.921875 h 10.679688 c 1.0625 0 1.925781 -0.859375 1.925781 -1.921875 v -0.71875 c 0 -1.058594 -0.863281 -1.921875 -1.925781 -1.921875 h -10.679688 c -1.0625 0 -1.925781 -0.859375 -1.925781 -1.917969 v -0.4375 z m 0 0"/>
        <path d="m 0.734375 14.078125 c 0 1.0625 0.863281 1.921875 1.925781 1.921875 h 10.679688 c 1.0625 0 1.925781 -0.859375 1.925781 -1.921875 v -0.71875 c 0 -1.058594 -0.863281 -1.921875 -1.925781 -1.921875 h -10.679688 c -1.0625 0 -1.925781 -0.859375 -1.925781 -1.917969 v -0.4375 z m 0 0"/>
        <path d="m 0.734375 14.078125 c 0 1.0625 0.863281 1.921875 1.925781 1.921875 h 10.679688 c 1.0625 0 1.925781 -0.859375 1.925781 -1.921875 v -0.71875 c 0 -1.058594 -0.863281 -1.921875 -1.925781 -1.921875 h -10.679688 c -1.0625 0 -1.925781 -0.859375 -1.925781 -1.917969 v -0.4375 z m 0 0"/>
        <path d="m 0.734375 14.078125 c 0 1.0625 0.863281 1.921875 1.925781 1.921875 h 10.679688 c 1.0625 0 1.925781 -0.859375 1.925781 -1.921875 v -0.71875 c 0 -1.058594 -0.863281 -1.921875 -1.925781 -1.921875 h -10.679688 c -1.0625 0 -1.925781 -0.859375 -1.925781 -1.917969 v -0.4375 z m 0 0"/>
        <path d="m 0.734375 14.078125 c 0 1.0625 0.863281 1.921875 1.925781 1.921875 h 10.679688 c 1.0625 0 1.925781 -0.859375 1.925781 -1.921875 v -0.71875 c 0 -1.058594 -0.863281 -1.921875 -1.925781 -1.921875 h -10.679688 c -1.0625 0 -1.925781 -0.859375 -1.925781 -1.917969 v -0.4375 z m 0 0"/>
        <path d="m 0.734375 14.078125 c 0 1.0625 0.863281 1.921875 1.925781 1.921875 h 10.679688 c 1.0625 0 1.925781 -0.859375 1.925781 -1.921875 v -0.71875 c 0 -1.058594 -0.863281 -1.921875 -1.925781 -1.921875 h -10.679688 c -1.0625 0 -1.925781 -0.859375 -1.925781 -1.917969 v -0.4375 z m 0 0"/>
        <path d="m 0.734375 7.140625 c 0 1.058594 0.863281 1.921875 1.925781 1.921875 h 10.679688 c 1.0625 0 1.925781 0.859375 1.925781 1.917969 v 0.507812 v -4.453125 c 0 -1.058594 -0.863281 -1.921875 -1.925781 -1.921875 h -10.894532 c -0.945312 0 -1.710937 -0.761719 -1.710937 -1.707031 z m 0 0"/>
        <path d="m 0.734375 7.140625 c 0 1.058594 0.863281 1.921875 1.925781 1.921875 h 10.679688 c 1.0625 0 1.925781 0.859375 1.925781 1.917969 v 0.507812 v -4.453125 c 0 -1.058594 -0.863281 -1.921875 -1.925781 -1.921875 h -10.894532 c -0.945312 0 -1.710937 -0.761719 -1.710937 -1.707031 z m 0 0"/>
        <path d="m 0.734375 7.140625 c 0 1.058594 0.863281 1.921875 1.925781 1.921875 h 10.679688 c 1.0625 0 1.925781 0.859375 1.925781 1.917969 v 0.507812 v -4.453125 c 0 -1.058594 -0.863281 -1.921875 -1.925781 -1.921875 h -10.894532 c -0.945312 0 -1.710937 -0.761719 -1.710937 -1.707031 z m 0 0"/>
        <path d="m 0.734375 7.140625 c 0 1.058594 0.863281 1.921875 1.925781 1.921875 h 10.679688 c 1.0625 0 1.925781 0.859375 1.925781 1.917969 v 0.507812 v -4.453125 c 0 -1.058594 -0.863281 -1.921875 -1.925781 -1.921875 h -10.894532 c -0.945312 0 -1.710937 -0.761719 -1.710937 -1.707031 z m 0 0"/>
        <path d="m 0.734375 10.449219 c 0 1.058593 0.863281 1.917969 1.925781 1.917969 h 10.808594 c 0.992188 0 1.796875 0.804687 1.796875 1.792968 c 0 1.1875 0 -1.5 0 -3.496094 c 0 -1.0625 -0.863281 -1.921874 -1.925781 -1.921874 h -10.679688 c -1.0625 0 -1.925781 -0.859376 -1.925781 -1.917969 v -0.433594 z m 0 0"/>
        <path d="m 0.734375 10.449219 c 0 1.058593 0.863281 1.917969 1.925781 1.917969 h 10.808594 c 0.992188 0 1.796875 0.804687 1.796875 1.792968 c 0 1.1875 0 -1.5 0 -3.496094 c 0 -1.0625 -0.863281 -1.921874 -1.925781 -1.921874 h -10.679688 c -1.0625 0 -1.925781 -0.859376 -1.925781 -1.917969 v -0.433594 z m 0 0"/>
        <path d="m 0.734375 10.449219 c 0 1.058593 0.863281 1.917969 1.925781 1.917969 h 10.808594 c 0.992188 0 1.796875 0.804687 1.796875 1.792968 c 0 1.1875 0 -1.5 0 -3.496094 c 0 -1.0625 -0.863281 -1.921874 -1.925781 -1.921874 h -10.679688 c -1.0625 0 -1.925781 -0.859376 -1.925781 -1.917969 v -0.433594 z m 0 0"/>
        <path d="m 0.734375 10.449219 c 0 1.058593 0.863281 1.917969 1.925781 1.917969 h 10.808594 c 0.992188 0 1.796875 0.804687 1.796875 1.792968 c 0 1.1875 0 -1.5 0 -3.496094 c 0 -1.0625 -0.863281 -1.921874 -1.925781 -1.921874 h -10.679688 c -1.0625 0 -1.925781 -0.859376 -1.925781 -1.917969 v -0.433594 z m 0 0"/>
        <path d="m 0.734375 10.449219 c 0 1.058593 0.863281 1.917969 1.925781 1.917969 h 10.808594 c 0.992188 0 1.796875 0.804687 1.796875 1.792968 v -3.496094 c 0 -1.0625 -0.863281 -1.921874 -1.925781 -1.921874 h -10.679688 c -1.0625 0 -1.925781 -0.859376 -1.925781 -1.917969 v -0.433594 z m 0 0"/>
    </g>
</svg>
