<?xml version="1.0" encoding="UTF-8"?>
<svg height="16px" viewBox="0 0 16 16" width="16px" xmlns="http://www.w3.org/2000/svg">
    <path d="m 3.253906 0 c -1.796875 0 -3.24999975 1.457031 -3.24999975 3.25 v 9.5 c 0 1.792969 1.45312475 3.25 3.24999975 3.25 h 9.496094 c 1.792969 0 3.25 -1.457031 3.25 -3.25 v -9.5 c 0 -1.792969 -1.457031 -3.25 -3.25 -3.25 z m 0.734375 3.429688 h 2.433594 l 1.375 2.601562 c 0.054687 0.105469 0.101563 0.199219 0.140625 0.28125 c 0.039062 0.074219 0.085938 0.164062 0.128906 0.273438 h 0.023438 c 0.058594 -0.125 0.105468 -0.222657 0.140625 -0.292969 c 0.035156 -0.074219 0.089843 -0.167969 0.152343 -0.285157 l 1.425782 -2.578124 h 2.320312 l -2.636718 4.496093 l 2.714843 4.648438 h -2.46875 l -1.546875 -2.914063 c -0.058594 -0.105468 -0.097656 -0.1875 -0.128906 -0.246094 c -0.023438 -0.0625 -0.050781 -0.136718 -0.082031 -0.214843 h -0.023438 c -0.039062 0.101562 -0.074219 0.183593 -0.109375 0.25 c -0.035156 0.0625 -0.074218 0.140625 -0.121094 0.234375 l -1.605468 2.886718 h -2.324219 l 2.789063 -4.578124 z m 0 0" fill="#222222"/>
</svg>
