<?xml version="1.0" encoding="UTF-8"?>
<svg height="16px" viewBox="0 0 16 16" width="16px" xmlns="http://www.w3.org/2000/svg">
    <path d="m 3.25 0 c -1.800781 0 -3.25 1.449219 -3.25 3.25 v 9.5 c 0 1.800781 1.449219 3.25 3.25 3.25 h 9.5 c 1.800781 0 3.25 -1.449219 3.25 -3.25 v -9.5 c 0 -1.800781 -1.449219 -3.25 -3.25 -3.25 z m 4.851562 3.273438 c 1.3125 0 2.382813 0.425781 3.210938 1.28125 c 0.421875 0.433593 0.734375 0.941406 0.941406 1.515624 c 0.214844 0.554688 0.320313 1.175782 0.320313 1.867188 c 0 0.738281 -0.121094 1.402344 -0.359375 1.992188 c -0.214844 0.558593 -0.53125 1.054687 -0.949219 1.480468 c -0.855469 0.875 -1.957031 1.3125 -3.3125 1.3125 c -1.316406 0 -2.398437 -0.425781 -3.246094 -1.273437 c -0.503906 -0.511719 -0.855469 -1.109375 -1.0625 -1.800781 c -0.144531 -0.46875 -0.21875 -0.976563 -0.21875 -1.53125 c 0 -0.59375 0.078125 -1.140626 0.230469 -1.640626 c 0.210938 -0.71875 0.566406 -1.339843 1.070312 -1.863281 c 0.859376 -0.894531 1.984376 -1.339843 3.375 -1.339843 z m -0.050781 1.878906 c -0.734375 0 -1.328125 0.261718 -1.777343 0.789062 c -0.289063 0.335938 -0.484376 0.742188 -0.585938 1.222656 c -0.050781 0.261719 -0.078125 0.542969 -0.078125 0.847657 c 0 0.328125 0.027344 0.628906 0.085937 0.90625 c 0.105469 0.460937 0.300782 0.847656 0.578126 1.167969 c 0.449218 0.503906 1.023437 0.757812 1.722656 0.757812 c 0.722656 0 1.300781 -0.246094 1.742187 -0.738281 c 0.195313 -0.21875 0.347657 -0.476563 0.457031 -0.769531 c 0.125 -0.371094 0.191407 -0.800782 0.191407 -1.285157 c 0 -0.507812 -0.0625 -0.957031 -0.1875 -1.339843 c -0.105469 -0.304688 -0.253907 -0.570313 -0.441407 -0.796876 c -0.425781 -0.507812 -0.996093 -0.761718 -1.707031 -0.761718 z m 0 0" fill="#222222"/>
</svg>
