<?xml version="1.0" encoding="UTF-8"?>
<svg height="16px" viewBox="0 0 16 16" width="16px" xmlns="http://www.w3.org/2000/svg">
    <g fill="#222222">
        <path d="m 4.421875 4.308594 c -2.445313 0 -4.273437 2 -4.4140625 4.230468 c 0.0859375 0.484376 0.3671875 1.429688 0.8046875 1.382813 c 0.550781 -0.0625 1.929688 0 3.109375 -2.132813 c 0.859375 -1.558593 2.628906 -3.480468 0.5 -3.480468 z m 0 0"/>
        <path d="m 3.855469 5.140625 c -0.820313 1.300781 -1.929688 3.167969 -2.300781 3.753906 c -0.445313 0.699219 -1.6210942 0.402344 -1.523438 -0.597656 c -0.0117188 0.082031 -0.015625 0.164063 -0.0234375 0.246094 c -0.1601565 2.601562 1.9023435 4.761719 4.4687495 4.761719 c 2.832032 0 9.578126 -3.527344 8.898438 -7.058594 c -0.722656 -2.074219 -2.746094 -3.566406 -5.039062 -3.566406 c -2.292969 0 -3.761719 1.324218 -4.480469 2.460937 z m 0 0"/>
        <path d="m 3.855469 5.140625 c -0.820313 1.300781 -1.929688 3.167969 -2.300781 3.753906 c -0.445313 0.699219 -1.6210942 0.402344 -1.523438 -0.597656 c -0.0117188 0.082031 -0.015625 0.164063 -0.0234375 0.246094 c -0.1601565 2.601562 1.9023435 4.761719 4.4687495 4.761719 c 2.832032 0 9.578126 -3.527344 8.898438 -7.058594 c -0.722656 -2.074219 -2.746094 -3.566406 -5.039062 -3.566406 c -2.292969 0 -3.761719 1.324218 -4.480469 2.460937 z m 0 0"/>
        <path d="m 3.855469 5.140625 c -0.820313 1.300781 -1.929688 3.167969 -2.300781 3.753906 c -0.445313 0.699219 -1.6210942 0.402344 -1.523438 -0.597656 c -0.0117188 0.082031 -0.015625 0.164063 -0.0234375 0.246094 c -0.1601565 2.601562 1.9023435 4.761719 4.4687495 4.761719 c 2.832032 0 9.578126 -3.527344 8.898438 -7.058594 c -0.722656 -2.074219 -2.746094 -3.566406 -5.039062 -3.566406 c -2.292969 0 -3.761719 1.324218 -4.480469 2.460937 z m 0 0"/>
        <path d="m 3.855469 5.140625 c -0.820313 1.300781 -1.929688 3.167969 -2.300781 3.753906 c -0.445313 0.699219 -1.6210942 0.402344 -1.523438 -0.597656 c -0.0117188 0.082031 -0.015625 0.164063 -0.0234375 0.246094 c -0.1601565 2.601562 1.9023435 4.761719 4.4687495 4.761719 c 2.832032 0 9.578126 -3.527344 8.898438 -7.058594 c -0.722656 -2.074219 -2.746094 -3.566406 -5.039062 -3.566406 c -2.292969 0 -3.761719 1.324218 -4.480469 2.460937 z m 0 0"/>
        <path d="m 3.855469 5.140625 c -0.820313 1.300781 -1.929688 3.167969 -2.300781 3.753906 c -0.445313 0.699219 -1.6210942 0.402344 -1.523438 -0.597656 c -0.0117188 0.082031 -0.015625 0.164063 -0.0234375 0.246094 c -0.1601565 2.601562 1.9023435 4.761719 4.4687495 4.761719 c 2.832032 0 9.578126 -3.527344 8.898438 -7.058594 c -0.722656 -2.074219 -2.746094 -3.566406 -5.039062 -3.566406 c -2.292969 0 -3.761719 1.324218 -4.480469 2.460937 z m 0 0"/>
        <path d="m 4.4375 13.304688 s 6.753906 0.015624 7.902344 0.015624 c 2.078125 0 3.660156 -1.699218 3.660156 -3.679687 s -1.613281 -3.667969 -3.660156 -3.667969 s -3.226563 1.53125 -4.113282 3.203125 c -1.039062 1.960938 -2.363281 4.105469 -3.789062 4.128907 z m 0 0"/>
        <path d="m 4.4375 13.304688 s 6.753906 0.015624 7.902344 0.015624 c 2.078125 0 3.660156 -1.699218 3.660156 -3.679687 s -1.613281 -3.667969 -3.660156 -3.667969 s -3.226563 1.53125 -4.113282 3.203125 c -1.039062 1.960938 -2.363281 4.105469 -3.789062 4.128907 z m 0 0"/>
        <path d="m 4.4375 13.304688 s 6.753906 0.015624 7.902344 0.015624 c 2.078125 0 3.660156 -1.699218 3.660156 -3.679687 s -1.613281 -3.667969 -3.660156 -3.667969 s -3.226563 1.53125 -4.113282 3.203125 c -1.039062 1.960938 -2.363281 4.105469 -3.789062 4.128907 z m 0 0"/>
    </g>
</svg>
