<?xml version="1.0" encoding="UTF-8"?>
<svg height="16px" viewBox="0 0 16 16" width="16px" xmlns="http://www.w3.org/2000/svg">
    <path d="m 3.25 0 c -1.796875 0 -3.25 1.453125 -3.25 3.25 v 9.5 c 0 1.796875 1.453125 3.25 3.25 3.25 h 9.5 c 1.796875 0 3.25 -1.453125 3.25 -3.25 v -9.5 c 0 -1.796875 -1.453125 -3.25 -3.25 -3.25 z m 0.640625 3.425781 h 2.21875 l 3.625 5.464844 c 0.074219 0.125 0.148437 0.25 0.222656 0.378906 c 0.078125 0.125 0.144531 0.246094 0.210938 0.367188 h 0.023437 c -0.007812 -0.105469 -0.011718 -0.261719 -0.015625 -0.472657 c -0.007812 -0.210937 -0.007812 -0.472656 -0.007812 -0.78125 v -4.957031 h 1.945312 v 9.144531 h -2.078125 l -3.765625 -5.640624 c -0.109375 -0.171876 -0.199219 -0.316407 -0.269531 -0.441407 c -0.074219 -0.128906 -0.128906 -0.234375 -0.164062 -0.320312 h -0.027344 c 0.007812 0.164062 0.011718 0.367187 0.019531 0.613281 c 0.003906 0.25 0.007813 0.535156 0.007813 0.867188 v 4.921874 h -1.945313 z m 0 0" fill="#222222"/>
</svg>
