<?xml version="1.0" encoding="UTF-8"?>
<svg height="16px" viewBox="0 0 16 16" width="16px" xmlns="http://www.w3.org/2000/svg">
    <path d="m 3.25 0 c -1.796875 0 -3.25 1.449219 -3.25 3.25 v 9.5 c 0 1.800781 1.453125 3.25 3.25 3.25 h 9.496094 c 1.800781 0 3.253906 -1.449219 3.253906 -3.25 v -9.5 c 0 -1.800781 -1.453125 -3.25 -3.253906 -3.25 z m 1.910156 3.429688 h 3.179688 c 1.140625 0 2.003906 0.25 2.597656 0.746093 c 0.601562 0.496094 0.902344 1.234375 0.902344 2.210938 c 0 0.976562 -0.335938 1.792969 -1.007813 2.359375 c -0.667969 0.566406 -1.5625 0.847656 -2.6875 0.847656 h -0.925781 v 2.980469 h -2.058594 z m 2.058594 1.582031 v 3.003906 h 0.859375 c 0.511719 0 0.902344 -0.136719 1.179687 -0.402344 c 0.277344 -0.269531 0.414063 -0.65625 0.414063 -1.15625 c 0 -0.464843 -0.132813 -0.820312 -0.40625 -1.070312 c -0.265625 -0.25 -0.652344 -0.375 -1.152344 -0.375 z m 0 0" fill="#222222"/>
</svg>
