<?xml version="1.0" encoding="UTF-8"?>
<svg height="16px" viewBox="0 0 16 16" width="16px" xmlns="http://www.w3.org/2000/svg">
    <path d="m 3.246094 0.0117188 c -1.792969 0 -3.246094 1.4531252 -3.246094 3.2500002 v 9.480469 c 0 1.792968 1.453125 3.246093 3.246094 3.246093 h 9.507812 c 1.792969 0 3.246094 -1.453125 3.246094 -3.246093 v -9.480469 c 0 -1.796875 -1.453125 -3.2500002 -3.246094 -3.2500002 z m 5.101562 3.2695312 c 0.675782 0 1.269532 0.136719 1.785156 0.414062 c 0.515626 0.273438 0.921876 0.667969 1.222657 1.183594 l -1.691407 0.871094 c -0.1875 -0.289062 -0.390624 -0.496094 -0.605468 -0.621094 c -0.21875 -0.132812 -0.492188 -0.199218 -0.820313 -0.199218 c -0.390625 0 -0.6875 0.082031 -0.890625 0.253906 c -0.199218 0.171875 -0.300781 0.390625 -0.300781 0.664062 c 0 0.230469 0.097656 0.4375 0.285156 0.617188 c 0.199219 0.175781 0.589844 0.316406 1.175781 0.425781 c 0.988282 0.1875 1.722657 0.527344 2.207032 1.019531 c 0.488281 0.488282 0.734375 1.105469 0.734375 1.855469 c 0 0.90625 -0.292969 1.625 -0.875 2.15625 s -1.414063 0.796875 -2.492188 0.796875 c -0.785156 0 -1.492187 -0.171875 -2.121093 -0.511719 c -0.621094 -0.34375 -1.089844 -0.824219 -1.40625 -1.4375 l 1.730468 -0.90625 c 0.199219 0.394531 0.453125 0.6875 0.765625 0.875 c 0.320313 0.183594 0.671875 0.277344 1.050781 0.277344 c 0.417969 0 0.742188 -0.082031 0.960938 -0.253906 c 0.222656 -0.175781 0.328125 -0.4375 0.328125 -0.78125 c 0 -0.273438 -0.105469 -0.503907 -0.316406 -0.6875 c -0.210938 -0.191407 -0.589844 -0.335938 -1.128907 -0.433594 c -1.027343 -0.1875 -1.777343 -0.515625 -2.246093 -0.980469 c -0.460938 -0.46875 -0.695313 -1.050781 -0.695313 -1.746094 c 0 -0.867187 0.308594 -1.558593 0.921875 -2.074218 c 0.613281 -0.519532 1.417969 -0.777344 2.421875 -0.777344 z m 0 0" fill="#222222"/>
</svg>
