<?xml version="1.0" encoding="UTF-8"?>
<svg height="16px" viewBox="0 0 16 16" width="16px" xmlns="http://www.w3.org/2000/svg">
    <path d="m 14.308594 7.007812 c -0.007813 -0.09375 -0.015625 -0.183593 -0.027344 -0.277343 c -0.148438 -1.132813 -0.800781 -2.132813 -1.554688 -2.964844 c -0.203124 -0.222656 -0.414062 -0.4375 -0.632812 -0.644531 c -0.777344 -0.738282 -1.996094 -1.328125 -2.179688 -2.5 c -0.011718 -0.058594 -0.023437 -0.140625 -0.023437 -0.386719 c -0.003906 -0.128906 -0.109375 -0.234375 -0.242187 -0.234375 h -0.996094 c -0.132813 0 -0.238282 0.105469 -0.238282 0.238281 v 9.574219 c -0.039062 -0.023438 -0.078124 -0.050781 -0.109374 -0.066406 c -0.542969 -0.273438 -1.195313 -0.425782 -1.910157 -0.425782 c -0.535156 0 -1.078125 0.085938 -1.609375 0.257813 c -1.066406 0.347656 -1.964844 1 -2.527344 1.832031 c -0.550781 0.824219 -0.710937 1.726563 -0.445312 2.539063 c 0.40625 1.246093 1.726562 2.050781 3.367188 2.050781 c 0.535156 0 1.078124 -0.085938 1.609374 -0.257812 c 1.066407 -0.347657 1.964844 -1 2.523438 -1.832032 c 0.390625 -0.578125 0.570312 -1.207031 0.570312 -2.300781 v -7.335937 c 0.226563 0.066406 1.828126 0.871093 2.335938 1.957031 c 0.230469 0.492187 0.257812 1.078125 0.082031 1.585937 c -0.164062 0.460938 -0.53125 0.992188 -0.851562 1.351563 c -0.09375 0.105469 -0.085938 0.261719 0.015625 0.355469 l 1.074218 0.832031 c 0.050782 0.046875 0.117188 0.074219 0.183594 0.070312 c 0.070313 -0.003906 0.136719 -0.03125 0.183594 -0.082031 c 0.816406 -0.90625 1.460938 -2.085938 1.402344 -3.335938 z m 0 0" fill="#222222"/>
</svg>
