<?xml version="1.0" encoding="UTF-8"?>
<svg height="16px" viewBox="0 0 16 16" width="16px" xmlns="http://www.w3.org/2000/svg">
    <g fill="#222222">
        <path d="m 12.070312 0.734375 c 0.078126 0.070313 0.160157 0.140625 0.242188 0.210937 l 0.113281 0.101563 c 0.769531 0.71875 1.203125 1.707031 1.246094 2.75 c 0.023437 1.164063 -0.433594 2.199219 -1.210937 3.050781 c -0.144532 0.152344 -0.292969 0.296875 -0.441407 0.445313 c -0.175781 0.175781 -0.167969 0.277343 -0.167969 0.519531 l -0.003906 0.195312 v 0.449219 c 0 0.167969 0 0.332031 -0.003906 0.496094 v 0.785156 c -0.003906 0.742188 -0.007812 1.484375 -0.011719 2.226563 c 0 0.410156 -0.003906 0.820312 -0.003906 1.230468 c 0 0.257813 -0.003906 0.519532 -0.003906 0.777344 v 0.484375 c -0.003907 0.078125 -0.003907 0.152344 -0.003907 0.226563 v 0.308594 v 0.171874 c -0.019531 0.214844 -0.066406 0.394532 -0.191406 0.570313 c -0.328125 0.242187 -0.742187 0.265625 -1.136718 0.265625 h -0.140626 c -0.097656 0 -0.195312 0 -0.292968 0 c -0.148438 -0.003906 -0.292969 0 -0.441406 0 c -0.09375 0 -0.191407 0 -0.285157 0 h -0.132812 c -0.363281 -0.003906 -0.6875 -0.0625 -0.972657 -0.296875 c -0.175781 -0.222656 -0.167968 -0.445313 -0.179687 -0.714844 l -0.007813 -0.136719 c -0.023437 -0.554687 -0.027343 -1.113281 -0.03125 -1.671874 l -0.003906 -0.34375 c -0.003906 -0.300782 -0.003906 -0.597657 -0.007812 -0.898438 c -0.003906 -0.308594 -0.003906 -0.613281 -0.007813 -0.921875 c -0.003906 -0.597656 -0.011719 -1.195313 -0.015625 -1.796875 l -0.15625 0.09375 l -0.304687 0.1875 c -0.71875 0.4375 -1.523438 0.546875 -2.339844 0.351562 c -1.058594 -0.324218 -1.871094 -0.933593 -2.40625 -1.90625 c -0.402344 -0.777343 -0.574219 -1.679687 -0.316406 -2.539062 c 0.339843 -0.828125 0.933593 -1.449219 1.722656 -1.855469 c 0.160156 -0.109375 0.230469 -0.25 0.316406 -0.417969 c 0.523438 -0.917968 1.226563 -1.59375 2.121094 -2.136718 l 0.089844 -0.054688 c 1.582031 -0.9648435 3.792969 -1.425781 5.371093 -0.207031 m -4.199218 1.019531 l -0.09375 0.042969 c -0.503906 0.238281 -0.910156 0.539063 -1.316406 0.914063 l -0.128907 0.113281 c -0.578125 0.539062 -0.945312 1.261719 -0.988281 2.054687 c 0.027344 0.910156 0.578125 1.667969 1.214844 2.28125 c 0.414062 0.363282 0.847656 0.582032 1.40625 0.5625 c 1.164062 -0.128906 2.4375 -0.683594 3.285156 -1.480468 l 0.097656 -0.082032 c 0.488282 -0.453125 0.777344 -1 0.964844 -1.632812 l 0.03125 -0.101563 c 0.132812 -0.695312 -0.054688 -1.382812 -0.4375 -1.964843 c -0.367188 -0.527344 -0.820312 -0.964844 -1.460938 -1.109376 l -0.117187 -0.03125 c -0.847656 -0.140624 -1.695313 0.078126 -2.457031 0.433594 m -3.882813 3.582032 c -0.042969 0.085937 -0.082031 0.175781 -0.125 0.265624 l -0.066406 0.148438 c -0.167969 0.390625 -0.167969 0.824219 -0.03125 1.226562 c 0.28125 0.6875 0.730469 1.175782 1.410156 1.488282 c 0.3125 0.121094 0.601563 0.164062 0.929688 0.148437 c -0.058594 -0.175781 -0.109375 -0.207031 -0.257813 -0.316406 c -0.375 -0.269531 -0.652344 -0.585937 -0.902344 -0.972656 l -0.078124 -0.121094 c -0.386719 -0.597656 -0.632813 -1.171875 -0.777344 -1.867187 z m 6.039063 3.09375 c -0.226563 0.105468 -0.453125 0.199218 -0.691406 0.285156 c -0.046876 0.320312 -0.058594 0.632812 -0.058594 0.957031 v 0.164063 v 0.535156 v 0.371094 v 0.773437 v 0.996094 v 0.765625 v 0.371094 v 0.511718 v 0.414063 c -0.003906 0.09375 -0.003906 0.09375 0.058594 0.144531 c 0.082031 0.003906 0.164062 0.003906 0.246093 0.003906 l 0.148438 0.003906 l 0.160156 -0.003906 l 0.15625 0.003906 l 0.152344 -0.003906 h 0.140625 c 0.105468 0.007813 0.105468 0.007813 0.15625 -0.054687 c 0.003906 -0.082031 0.003906 -0.164063 0.003906 -0.246094 v -0.53125 c 0 -0.171875 0 -0.339844 0 -0.511719 c 0 -0.179687 0 -0.355468 0 -0.535156 c 0 -0.335938 0 -0.671875 0 -1.011719 c 0 -0.382812 -0.003906 -0.765625 -0.003906 -1.152343 c 0 -0.789063 0 -1.578126 0 -2.367188 c -0.207032 0 -0.285156 0.027344 -0.46875 0.117188"/>
        <path d="m 10.796875 2.511719 c 0.191406 0.097656 0.285156 0.171875 0.40625 0.351562 c 0.03125 0.207031 0.042969 0.328125 -0.066406 0.507813 c -0.332031 0.394531 -0.832031 0.804687 -1.363281 0.867187 c -0.265626 -0.019531 -0.410157 -0.132812 -0.589844 -0.316406 c -0.078125 -0.160156 -0.066406 -0.277344 -0.050782 -0.453125 c 0.210938 -0.476562 0.585938 -0.695312 1.046876 -0.898438 c 0.214843 -0.078124 0.394531 -0.113281 0.617187 -0.058593"/>
    </g>
</svg>
