<?xml version="1.0" encoding="UTF-8"?>
<svg height="16px" viewBox="0 0 16 16" width="16px" xmlns="http://www.w3.org/2000/svg" xmlns:xlink="http://www.w3.org/1999/xlink">
    <filter id="a" height="100%" width="100%" x="0%" y="0%">
        <feColorMatrix color-interpolation-filters="sRGB" values="0 0 0 0 1 0 0 0 0 1 0 0 0 0 1 0 0 0 1 0"/>
    </filter>
    <mask id="b">
        <g filter="url(#a)">
            <rect fill-opacity="0.3" height="19.2" width="19.2" x="-1.6" y="-1.6"/>
        </g>
    </mask>
    <clipPath id="c">
        <rect height="152" width="192"/>
    </clipPath>
    <g mask="url(#b)">
        <g clip-path="url(#c)" transform="matrix(1 0 0 1 -168 -16)">
            <path d="m 100.875 107.550781 c 0 4.941407 -12.929688 8.949219 -28.875 8.949219 s -28.875 -4.007812 -28.875 -8.949219 c 0 -4.941406 12.929688 -8.949219 28.875 -8.949219 s 28.875 4.007813 28.875 8.949219 z m 0 0" fill="#ffffff" fill-rule="evenodd"/>
        </g>
    </g>
    <g fill="#222222" fill-rule="evenodd">
        <path d="m 8 0 c 3.003906 0 5.4375 2.261719 5.4375 5.054688 c 0 1.777343 -1.65625 4.578124 -4.964844 8.398437 c -0.019531 0.023437 -0.039062 0.046875 -0.0625 0.066406 c -0.261718 0.226563 -0.65625 0.195313 -0.882812 -0.066406 c -3.308594 -3.820313 -4.964844 -6.621094 -4.964844 -8.398437 c 0 -2.792969 2.433594 -5.054688 5.4375 -5.054688 z m 0 3.042969 c -1.238281 0 -2.238281 0.953125 -2.238281 2.128906 s 1 2.128906 2.238281 2.128906 s 2.238281 -0.953125 2.238281 -2.128906 s -1 -2.128906 -2.238281 -2.128906 z m 0 0"/>
        <path d="m 14 14.140625 c 0 1.027344 -2.6875 1.859375 -6 1.859375 s -6 -0.832031 -6 -1.859375 s 2.6875 -1.859375 6 -1.859375 s 6 0.832031 6 1.859375 z m 0 0" fill-opacity="0.3"/>
    </g>
</svg>
