<?xml version="1.0" encoding="UTF-8"?>
<svg height="16px" viewBox="0 0 16 16" width="16px" xmlns="http://www.w3.org/2000/svg" xmlns:xlink="http://www.w3.org/1999/xlink">
    <clipPath id="a">
        <path d="m 1.835938 7 h 12.328124 v 9 h -12.328124 z m 0 0"/>
    </clipPath>
    <clipPath id="b">
        <path d="m 1.835938 0 h 12.328124 v 5 h -12.328124 z m 0 0"/>
    </clipPath>
    <g clip-path="url(#a)">
        <path d="m 11.613281 16 h -1.433593 c -0.214844 0 -0.394532 -0.097656 -0.453126 -0.335938 l -1.726562 -6.085937 l -1.726562 6.085937 c -0.058594 0.238282 -0.238282 0.335938 -0.453126 0.335938 h -1.433593 c -0.234375 0 -0.375 -0.097656 -0.449219 -0.335938 c -0.925781 -2.566406 -1.554688 -5.117187 -2.085938 -7.683593 c -0.058593 -0.261719 0.058594 -0.4375 0.332032 -0.4375 h 1.277344 c 0.238281 0 0.394531 0.121093 0.433593 0.335937 c 0.332031 1.820313 0.730469 3.691406 1.257813 5.535156 l 1.53125 -5.535156 c 0.058594 -0.214844 0.214844 -0.335937 0.453125 -0.335937 h 1.726562 c 0.234375 0 0.394531 0.121093 0.449219 0.335937 l 1.535156 5.535156 c 0.527344 -1.835937 0.921875 -3.714843 1.253906 -5.535156 c 0.039063 -0.214844 0.199219 -0.335937 0.4375 -0.335937 h 1.277344 c 0.273438 0 0.390625 0.179687 0.332032 0.4375 c -0.53125 2.566406 -1.160157 5.117187 -2.082032 7.683593 c -0.082031 0.238282 -0.214844 0.335938 -0.453125 0.335938" fill="#222222"/>
    </g>
    <g clip-path="url(#b)">
        <path d="m 4.839844 3.265625 c 0.84375 -0.84375 1.96875 -1.308594 3.160156 -1.3125 c 1.195312 0 2.316406 0.464844 3.15625 1.308594 c 0.441406 0.4375 0.773438 0.953125 0.996094 1.507812 c 0.050781 0.128907 0.175781 0.214844 0.316406 0.214844 h 1.347656 c 0.226563 0 0.394532 -0.214844 0.328125 -0.429687 c -0.300781 -1 -0.84375 -1.917969 -1.601562 -2.675782 c -1.214844 -1.210937 -2.824219 -1.878906 -4.539063 -1.878906 c -1.71875 0 -3.332031 0.667969 -4.542968 1.882812 c -0.761719 0.761719 -1.304688 1.675782 -1.605469 2.671876 c -0.0625 0.214843 0.101562 0.433593 0.328125 0.433593 h 1.351562 c 0.136719 0 0.265625 -0.085937 0.316406 -0.214843 c 0.21875 -0.558594 0.550782 -1.070313 0.988282 -1.507813 z m 0 0" fill="#222222"/>
    </g>
</svg>
