<?xml version="1.0" encoding="UTF-8" standalone="no"?>
<!-- Generator: Adobe Illustrator 24.0.0, SVG Export Plug-In . SVG Version: 6.00 Build 0)  -->

<svg
   fill="#1a1a1a"
   version="1.1"
   id="Layer_1"
   x="0px"
   y="0px"
   viewBox="0 0 16 16"
   xml:space="preserve"
   sodipodi:docname="gmaps-symbolic.svg"
   width="16"
   height="16"
   inkscape:version="1.3.2 (091e20ef0f, 2023-11-25)"
   xmlns:inkscape="http://www.inkscape.org/namespaces/inkscape"
   xmlns:sodipodi="http://sodipodi.sourceforge.net/DTD/sodipodi-0.dtd"
   xmlns="http://www.w3.org/2000/svg"
   xmlns:svg="http://www.w3.org/2000/svg"><defs
   id="defs5" /><sodipodi:namedview
   id="namedview5"
   pagecolor="#ffffff"
   bordercolor="#000000"
   borderopacity="0.25"
   inkscape:showpageshadow="2"
   inkscape:pageopacity="0.0"
   inkscape:pagecheckerboard="0"
   inkscape:deskcolor="#d1d1d1"
   inkscape:zoom="16.42"
   inkscape:cx="25"
   inkscape:cy="25"
   inkscape:window-width="1920"
   inkscape:window-height="1011"
   inkscape:window-x="0"
   inkscape:window-y="0"
   inkscape:window-maximized="1"
   inkscape:current-layer="Layer_1" />
<path
   d="M 8.9601665,1.0950833 C 8.6492495,1.0338333 8.3287085,1 7.9999995,1 6.6262495,1 5.3808335,1.5629167 4.4824998,2.47 l 2.0183337,1.631 z"
   id="path1"
   style="stroke-width:0.291667" />
<path
   d="m 6.1318745,4.5519167 -2.0343747,-1.6415 c -0.6620833,0.84 -1.0558333,1.9016666 -1.0558333,3.0479166 0,0.6652917 0.1318333,1.3087084 0.3803333,1.90575 z"
   id="path2"
   style="stroke-width:0.291667" />
<path
   d="m 7.3023335,4.0426667 c 0.217291,-0.079625 0.450916,-0.126 0.697666,-0.126 1.12875,0 2.0416675,0.9129166 2.0416675,2.0416666 0,0.098583 -0.0093,0.1945417 -0.02275,0.2893334 L 12.28575,3.477125 C 11.6855,2.4449167 10.725917,1.6489583 9.5776245,1.2619167 Z"
   id="path3"
   style="stroke-width:0.291667" />
<path
   d="M 8.6827915,7.8807083 C 8.4689995,7.9565417 8.2397495,8 7.9999995,8 6.8712495,8 5.9583335,7.0870833 5.9583335,5.9583333 c 0,-0.10325 0.0099,-0.2041666 0.0245,-0.3030416 l -2.2758753,2.781625 c 0.1125833,0.19425 0.2359583,0.3835416 0.3759583,0.5635 0.1079167,0.1458333 0.25375,0.3325 0.4229167,0.55125 0.3695416,0.4762913 0.8630413,1.1130003 1.3387503,1.7978333 z"
   id="path4"
   style="stroke-width:0.291667" />
<path
   d="m 6.1852495,11.854375 c 0.60725,0.928667 1.1235,1.894958 1.216834,2.641042 C 7.4429165,14.784167 7.6908335,15 7.9824995,15 c 0.2975,0 0.545417,-0.21875 0.580417,-0.510417 0.177917,-1.40875 1.9162505,-3.64 2.8525005,-4.8416663 0.163333,-0.21 0.30625,-0.39375 0.4375,-0.5658334 0.711666,-0.8808333 1.105417,-1.9891666 1.105417,-3.12375 0,-0.67725 -0.137375,-1.323 -0.38471,-1.911875 z"
   id="path5"
   style="stroke-width:0.291667" />
</svg>
