<?xml version="1.0" encoding="UTF-8" standalone="no"?>
<svg
   height="16px"
   viewBox="0 0 16 16"
   width="16px"
   version="1.1"
   id="svg1104"
   sodipodi:docname="mastodon-symbolic.svg"
   inkscape:version="1.3.2 (091e20ef0f, 2023-11-25)"
   xmlns:inkscape="http://www.inkscape.org/namespaces/inkscape"
   xmlns:sodipodi="http://sodipodi.sourceforge.net/DTD/sodipodi-0.dtd"
   xmlns="http://www.w3.org/2000/svg"
   xmlns:svg="http://www.w3.org/2000/svg">
  <sodipodi:namedview
     id="namedview1"
     pagecolor="#ffffff"
     bordercolor="#000000"
     borderopacity="0.25"
     inkscape:showpageshadow="2"
     inkscape:pageopacity="0.0"
     inkscape:pagecheckerboard="0"
     inkscape:deskcolor="#d1d1d1"
     inkscape:zoom="18.132043"
     inkscape:cx="12.90533"
     inkscape:cy="2.5093698"
     inkscape:window-width="1920"
     inkscape:window-height="1011"
     inkscape:window-x="0"
     inkscape:window-y="0"
     inkscape:window-maximized="1"
     inkscape:current-layer="svg1104" />
  <defs
     id="defs1108" />
  <filter
     id="a"
     height="1"
     width="1"
     x="0"
     y="0">
    <feColorMatrix
       in="SourceGraphic"
       type="matrix"
       values="0 0 0 0 1 0 0 0 0 1 0 0 0 0 1 0 0 0 1 0"
       id="feColorMatrix1079" />
  </filter>
  <mask
     id="b">
    <g
       filter="url(#a)"
       id="g1084">
      <rect
         fill-opacity="0.35"
         height="16"
         width="16"
         id="rect1082" />
    </g>
  </mask>
  <clipPath
     id="c">
    <rect
       height="152"
       width="192"
       id="rect1087" />
  </clipPath>
  <path
     d="M 15.52841,3.5422523 C 15.294605,1.8231189 13.779897,0.4683252 11.984327,0.205802 11.681395,0.1614415 10.53362,0 7.8748086,0 h -0.01985 C 5.1954306,0 4.6248456,0.1614415 4.3219136,0.205802 2.5763346,0.4610527 0.98223657,1.6784038 0.59547257,3.4178837 0.40944561,4.2745397 0.38959361,5.2242841 0.42415061,6.0954834 c 0.04926,1.2493536 0.05882,2.4965126 0.17352696,3.7407786 0.0793,0.826504 0.217633,1.646421 0.41396903,2.453601 0.367644,1.49079 1.855867,2.731405 3.313939,3.237559 1.561087,0.527836 3.239897,0.615446 4.848491,0.253066 0.176944,-0.04071 0.35196,-0.08799 0.5249864,-0.141807 0.39044,-0.122893 0.848533,-0.260348 1.185291,-0.501783 0.0046,-0.0033 0.0083,-0.0076 0.01108,-0.01275 0.0027,-0.005 0.0041,-0.01063 0.0044,-0.01629 v -1.205704 c -8.2e-5,-0.0053 -0.0014,-0.01052 -0.0038,-0.0153 -0.0024,-0.0047 -0.0058,-0.009 -0.01,-0.01214 -0.0042,-0.0033 -0.0091,-0.0056 -0.01441,-0.0067 -0.0053,-0.0011 -0.01063,-0.0011 -0.01592,6e-5 -1.030605,0.243489 -2.0867074,0.365539 -3.1462964,0.363611 -1.823508,0 -2.31395,-0.855917 -2.454401,-1.212267 -0.11289,-0.307958 -0.184575,-0.629188 -0.213231,-0.955547 -2.87e-4,-0.0055 7.39e-4,-0.01093 0.0031,-0.01598 0.0023,-0.005 0.0056,-0.0093 0.01,-0.0129 0.0042,-0.0035 0.0095,-0.0059 0.01472,-0.007 0.0054,-0.0012 0.01108,-0.0011 0.01641,3.08e-4 1.013437,0.241824 2.052308,0.363876 3.094831,0.36361 0.250728,0 0.500718,0 0.751468,-0.0065 1.0485124,-0.02908 2.1536414,-0.08217 3.1852514,-0.281437 0.02575,-0.0052 0.05147,-0.0093 0.07355,-0.016 1.627178,-0.309066 3.175692,-1.279159 3.333044,-3.735692 0.0059,-0.09673 0.0206,-1.013006 0.0206,-1.113355 7.38e-4,-0.341065 0.111036,-2.4194246 -0.01618,-3.6964097 z M 13.02402,9.671914 H 11.313024 V 5.5268066 c 0,-0.8726566 -0.36765,-1.3177026 -1.115444,-1.3177026 -0.8220524,0 -1.2338064,0.5265021 -1.2338064,1.5664004 V 8.044407 H 7.2630556 V 5.7755044 c 0,-1.0398983 -0.412493,-1.5664004 -1.234545,-1.5664004 -0.743384,0 -1.114707,0.445046 -1.115445,1.3177026 V 9.671914 H 3.2035276 V 5.4010021 c 0,-0.8726567 0.225251,-1.5659283 0.675733,-2.079836 0.464697,-0.5126781 1.074255,-0.7759179 1.830871,-0.7759179 0.875714,0 1.537477,0.3330456 1.978647,0.9984613 l 0.425743,0.7068512 0.426462,-0.7068512 C 8.9821526,2.8782938 9.643917,2.5452482 10.518174,2.5452482 c 0.755877,0 1.365416,0.2632398 1.83159,0.7759179 0.450502,0.5134143 0.675733,1.206686 0.675733,2.079836 z"
     fill="inherit"
     id="path1"
     style="stroke-width:0.205128" />
</svg>
